<svg xmlns="http://www.w3.org/2000/svg" width="900" height="580" viewBox="0 0 900 580">
<title>图1.4.5 稳压限幅波形</title>
<rect width="100%" height="100%" fill="white"/>
<line x1="120.00" y1="320.00" x2="820.00" y2="320.00" stroke="#6b7280" stroke-width="2" stroke-linecap="round"/>
<polygon points="820.00,320.00 811.56,325.36 811.56,314.64" fill="#6b7280" stroke="#6b7280" stroke-width="1.3" stroke-linejoin="round"/>
<line x1="120.00" y1="320.00" x2="120.00" y2="80.00" stroke="#6b7280" stroke-width="2" stroke-linecap="round"/>
<polygon points="120.00,80.00 125.36,88.44 114.64,88.44" fill="#6b7280" stroke="#6b7280" stroke-width="1.3" stroke-linejoin="round"/>
<text x="814" y="342" text-anchor="end" dominant-baseline="middle" font-family="Cambria Math,Cambria,Times New Roman,serif" font-size="20" fill="#6b7280" style="font-style:italic;">ωt</text>
<text x="115" y="88" text-anchor="end" dominant-baseline="middle" font-family="Cambria Math,Cambria,Times New Roman,serif" font-size="20" fill="#6b7280" style="font-style:italic;">u/V</text>
<polyline points="120.00,320.00 122.43,315.06 124.86,310.13 127.29,305.20 129.71,300.28 132.14,295.37 134.57,290.47 137.00,285.58 139.43,280.72 141.86,275.87 144.29,271.05 146.71,266.25 149.14,261.47 151.57,256.73 154.00,252.02 156.43,247.34 158.86,242.70 161.29,238.10 163.71,233.53 166.14,229.02 168.57,224.55 171.00,220.12 173.43,215.75 175.86,211.43 178.29,207.16 180.71,202.95 183.14,198.80 185.57,194.71 188.00,190.69 190.43,186.73 192.86,182.83 195.29,179.01 197.71,175.25 200.14,171.57 202.57,167.97 205.00,164.44 207.43,160.99 209.86,157.61 212.29,154.32 214.71,151.12 217.14,148.00 219.57,144.96 222.00,142.02 224.43,139.16 226.86,136.39 229.29,133.72 231.71,131.14 234.14,128.66 236.57,126.27 239.00,123.98 241.43,121.79 243.86,119.69 246.29,117.70 248.71,115.81 251.14,114.03 253.57,112.35 256.00,110.77 258.43,109.29 260.86,107.93 263.29,106.67 265.71,105.52 268.14,104.47 270.57,103.54 273.00,102.71 275.43,101.99 277.86,101.38 280.29,100.89 282.71,100.50 285.14,100.22 287.57,100.06 290.00,100.00 292.43,100.06 294.86,100.22 297.29,100.50 299.71,100.89 302.14,101.38 304.57,101.99 307.00,102.71 309.43,103.54 311.86,104.47 314.29,105.52 316.71,106.67 319.14,107.93 321.57,109.29 324.00,110.77 326.43,112.35 328.86,114.03 331.29,115.81 333.71,117.70 336.14,119.69 338.57,121.79 341.00,123.98 343.43,126.27 345.86,128.66 348.29,131.14 350.71,133.72 353.14,136.39 355.57,139.16 358.00,142.02 360.43,144.96 362.86,148.00 365.29,151.12 367.71,154.32 370.14,157.61 372.57,160.99 375.00,164.44 377.43,167.97 379.86,171.57 382.29,175.25 384.71,179.01 387.14,182.83 389.57,186.73 392.00,190.69 394.43,194.71 396.86,198.80 399.29,202.95 401.71,207.16 404.14,211.43 406.57,215.75 409.00,220.12 411.43,224.55 413.86,229.02 416.29,233.53 418.71,238.10 421.14,242.70 423.57,247.34 426.00,252.02 428.43,256.73 430.86,261.47 433.29,266.25 435.71,271.05 438.14,275.87 440.57,280.72 443.00,285.58 445.43,290.47 447.86,295.37 450.29,300.28 452.71,305.20 455.14,310.13 457.57,315.06 460.00,320.00 462.43,324.94 464.86,329.87 467.29,334.80 469.71,339.72 472.14,344.63 474.57,349.53 477.00,354.42 479.43,359.28 481.86,364.13 484.29,368.95 486.71,373.75 489.14,378.53 491.57,383.27 494.00,387.98 496.43,392.66 498.86,397.30 501.29,401.90 503.71,406.47 506.14,410.98 508.57,415.45 511.00,419.88 513.43,424.25 515.86,428.57 518.29,432.84 520.71,437.05 523.14,441.20 525.57,445.29 528.00,449.31 530.43,453.27 532.86,457.17 535.29,460.99 537.71,464.75 540.14,468.43 542.57,472.03 545.00,475.56 547.43,479.01 549.86,482.39 552.29,485.68 554.71,488.88 557.14,492.00 559.57,495.04 562.00,497.98 564.43,500.84 566.86,503.61 569.29,506.28 571.71,508.86 574.14,511.34 576.57,513.73 579.00,516.02 581.43,518.21 583.86,520.31 586.29,522.30 588.71,524.19 591.14,525.97 593.57,527.65 596.00,529.23 598.43,530.71 600.86,532.07 603.29,533.33 605.71,534.48 608.14,535.53 610.57,536.46 613.00,537.29 615.43,538.01 617.86,538.62 620.29,539.11 622.71,539.50 625.14,539.78 627.57,539.94 630.00,540.00 632.43,539.94 634.86,539.78 637.29,539.50 639.71,539.11 642.14,538.62 644.57,538.01 647.00,537.29 649.43,536.46 651.86,535.53 654.29,534.48 656.71,533.33 659.14,532.07 661.57,530.71 664.00,529.23 666.43,527.65 668.86,525.97 671.29,524.19 673.71,522.30 676.14,520.31 678.57,518.21 681.00,516.02 683.43,513.73 685.86,511.34 688.29,508.86 690.71,506.28 693.14,503.61 695.57,500.84 698.00,497.98 700.43,495.04 702.86,492.00 705.29,488.88 707.71,485.68 710.14,482.39 712.57,479.01 715.00,475.56 717.43,472.03 719.86,468.43 722.29,464.75 724.71,460.99 727.14,457.17 729.57,453.27 732.00,449.31 734.43,445.29 736.86,441.20 739.29,437.05 741.71,432.84 744.14,428.57 746.57,424.25 749.00,419.88 751.43,415.45 753.86,410.98 756.29,406.47 758.71,401.90 761.14,397.30 763.57,392.66 766.00,387.98 768.43,383.27 770.86,378.53 773.29,373.75 775.71,368.95 778.14,364.13 780.57,359.28 783.00,354.42 785.43,349.53 787.86,344.63 790.29,339.72 792.71,334.80 795.14,329.87 797.57,324.94 800.00,320.00" fill="none" stroke="#9ca3af" stroke-width="3" stroke-linejoin="round" stroke-linecap="round" stroke-dasharray="8 7"/>
<line x1="120.00" y1="320.00" x2="122.43" y2="315.06" stroke="#9ca3af" stroke-width="3" stroke-linecap="round" stroke-dasharray="8 7"/>
<line x1="122.43" y1="315.06" x2="124.86" y2="310.13" stroke="#9ca3af" stroke-width="3" stroke-linecap="round" stroke-dasharray="8 7"/>
<line x1="124.86" y1="310.13" x2="127.29" y2="305.20" stroke="#9ca3af" stroke-width="3" stroke-linecap="round" stroke-dasharray="8 7"/>
<line x1="127.29" y1="305.20" x2="129.71" y2="300.28" stroke="#9ca3af" stroke-width="3" stroke-linecap="round" stroke-dasharray="8 7"/>
<line x1="129.71" y1="300.28" x2="132.14" y2="295.37" stroke="#9ca3af" stroke-width="3" stroke-linecap="round" stroke-dasharray="8 7"/>
<line x1="132.14" y1="295.37" x2="134.57" y2="290.47" stroke="#9ca3af" stroke-width="3" stroke-linecap="round" stroke-dasharray="8 7"/>
<line x1="134.57" y1="290.47" x2="137.00" y2="285.58" stroke="#9ca3af" stroke-width="3" stroke-linecap="round" stroke-dasharray="8 7"/>
<line x1="137.00" y1="285.58" x2="139.43" y2="280.72" stroke="#9ca3af" stroke-width="3" stroke-linecap="round" stroke-dasharray="8 7"/>
<line x1="139.43" y1="280.72" x2="141.86" y2="275.87" stroke="#9ca3af" stroke-width="3" stroke-linecap="round" stroke-dasharray="8 7"/>
<line x1="141.86" y1="275.87" x2="144.29" y2="271.05" stroke="#9ca3af" stroke-width="3" stroke-linecap="round" stroke-dasharray="8 7"/>
<line x1="144.29" y1="271.05" x2="146.71" y2="266.25" stroke="#9ca3af" stroke-width="3" stroke-linecap="round" stroke-dasharray="8 7"/>
<line x1="146.71" y1="266.25" x2="149.14" y2="261.47" stroke="#9ca3af" stroke-width="3" stroke-linecap="round" stroke-dasharray="8 7"/>
<line x1="149.14" y1="261.47" x2="151.57" y2="256.73" stroke="#9ca3af" stroke-width="3" stroke-linecap="round" stroke-dasharray="8 7"/>
<line x1="151.57" y1="256.73" x2="154.00" y2="252.02" stroke="#9ca3af" stroke-width="3" stroke-linecap="round" stroke-dasharray="8 7"/>
<line x1="154.00" y1="252.02" x2="156.43" y2="247.34" stroke="#9ca3af" stroke-width="3" stroke-linecap="round" stroke-dasharray="8 7"/>
<line x1="156.43" y1="247.34" x2="158.86" y2="242.70" stroke="#9ca3af" stroke-width="3" stroke-linecap="round" stroke-dasharray="8 7"/>
<line x1="158.86" y1="242.70" x2="161.29" y2="238.10" stroke="#9ca3af" stroke-width="3" stroke-linecap="round" stroke-dasharray="8 7"/>
<line x1="161.29" y1="238.10" x2="163.71" y2="233.53" stroke="#9ca3af" stroke-width="3" stroke-linecap="round" stroke-dasharray="8 7"/>
<line x1="163.71" y1="233.53" x2="166.14" y2="229.02" stroke="#9ca3af" stroke-width="3" stroke-linecap="round" stroke-dasharray="8 7"/>
<line x1="166.14" y1="229.02" x2="168.57" y2="224.55" stroke="#9ca3af" stroke-width="3" stroke-linecap="round" stroke-dasharray="8 7"/>
<line x1="168.57" y1="224.55" x2="171.00" y2="220.12" stroke="#9ca3af" stroke-width="3" stroke-linecap="round" stroke-dasharray="8 7"/>
<line x1="171.00" y1="220.12" x2="173.43" y2="215.75" stroke="#9ca3af" stroke-width="3" stroke-linecap="round" stroke-dasharray="8 7"/>
<line x1="173.43" y1="215.75" x2="175.86" y2="211.43" stroke="#9ca3af" stroke-width="3" stroke-linecap="round" stroke-dasharray="8 7"/>
<line x1="175.86" y1="211.43" x2="178.29" y2="207.16" stroke="#9ca3af" stroke-width="3" stroke-linecap="round" stroke-dasharray="8 7"/>
<line x1="178.29" y1="207.16" x2="180.71" y2="202.95" stroke="#9ca3af" stroke-width="3" stroke-linecap="round" stroke-dasharray="8 7"/>
<line x1="180.71" y1="202.95" x2="183.14" y2="198.80" stroke="#9ca3af" stroke-width="3" stroke-linecap="round" stroke-dasharray="8 7"/>
<line x1="183.14" y1="198.80" x2="185.57" y2="194.71" stroke="#9ca3af" stroke-width="3" stroke-linecap="round" stroke-dasharray="8 7"/>
<line x1="185.57" y1="194.71" x2="188.00" y2="190.69" stroke="#9ca3af" stroke-width="3" stroke-linecap="round" stroke-dasharray="8 7"/>
<line x1="188.00" y1="190.69" x2="190.43" y2="186.73" stroke="#9ca3af" stroke-width="3" stroke-linecap="round" stroke-dasharray="8 7"/>
<line x1="190.43" y1="186.73" x2="192.86" y2="182.83" stroke="#9ca3af" stroke-width="3" stroke-linecap="round" stroke-dasharray="8 7"/>
<line x1="192.86" y1="182.83" x2="195.29" y2="179.01" stroke="#9ca3af" stroke-width="3" stroke-linecap="round" stroke-dasharray="8 7"/>
<line x1="195.29" y1="179.01" x2="197.71" y2="175.25" stroke="#9ca3af" stroke-width="3" stroke-linecap="round" stroke-dasharray="8 7"/>
<line x1="197.71" y1="175.25" x2="200.14" y2="171.57" stroke="#9ca3af" stroke-width="3" stroke-linecap="round" stroke-dasharray="8 7"/>
<line x1="200.14" y1="171.57" x2="202.57" y2="167.97" stroke="#9ca3af" stroke-width="3" stroke-linecap="round" stroke-dasharray="8 7"/>
<line x1="202.57" y1="167.97" x2="205.00" y2="164.44" stroke="#9ca3af" stroke-width="3" stroke-linecap="round" stroke-dasharray="8 7"/>
<line x1="205.00" y1="164.44" x2="207.43" y2="160.99" stroke="#9ca3af" stroke-width="3" stroke-linecap="round" stroke-dasharray="8 7"/>
<line x1="207.43" y1="160.99" x2="209.86" y2="157.61" stroke="#9ca3af" stroke-width="3" stroke-linecap="round" stroke-dasharray="8 7"/>
<line x1="209.86" y1="157.61" x2="212.29" y2="154.32" stroke="#9ca3af" stroke-width="3" stroke-linecap="round" stroke-dasharray="8 7"/>
<line x1="212.29" y1="154.32" x2="214.71" y2="151.12" stroke="#9ca3af" stroke-width="3" stroke-linecap="round" stroke-dasharray="8 7"/>
<line x1="214.71" y1="151.12" x2="217.14" y2="148.00" stroke="#9ca3af" stroke-width="3" stroke-linecap="round" stroke-dasharray="8 7"/>
<line x1="217.14" y1="148.00" x2="219.57" y2="144.96" stroke="#9ca3af" stroke-width="3" stroke-linecap="round" stroke-dasharray="8 7"/>
<line x1="219.57" y1="144.96" x2="222.00" y2="142.02" stroke="#9ca3af" stroke-width="3" stroke-linecap="round" stroke-dasharray="8 7"/>
<line x1="222.00" y1="142.02" x2="224.43" y2="139.16" stroke="#9ca3af" stroke-width="3" stroke-linecap="round" stroke-dasharray="8 7"/>
<line x1="224.43" y1="139.16" x2="226.86" y2="136.39" stroke="#9ca3af" stroke-width="3" stroke-linecap="round" stroke-dasharray="8 7"/>
<line x1="226.86" y1="136.39" x2="229.29" y2="133.72" stroke="#9ca3af" stroke-width="3" stroke-linecap="round" stroke-dasharray="8 7"/>
<line x1="229.29" y1="133.72" x2="231.71" y2="131.14" stroke="#9ca3af" stroke-width="3" stroke-linecap="round" stroke-dasharray="8 7"/>
<line x1="231.71" y1="131.14" x2="234.14" y2="128.66" stroke="#9ca3af" stroke-width="3" stroke-linecap="round" stroke-dasharray="8 7"/>
<line x1="234.14" y1="128.66" x2="236.57" y2="126.27" stroke="#9ca3af" stroke-width="3" stroke-linecap="round" stroke-dasharray="8 7"/>
<line x1="236.57" y1="126.27" x2="239.00" y2="123.98" stroke="#9ca3af" stroke-width="3" stroke-linecap="round" stroke-dasharray="8 7"/>
<line x1="239.00" y1="123.98" x2="241.43" y2="121.79" stroke="#9ca3af" stroke-width="3" stroke-linecap="round" stroke-dasharray="8 7"/>
<line x1="241.43" y1="121.79" x2="243.86" y2="119.69" stroke="#9ca3af" stroke-width="3" stroke-linecap="round" stroke-dasharray="8 7"/>
<line x1="243.86" y1="119.69" x2="246.29" y2="117.70" stroke="#9ca3af" stroke-width="3" stroke-linecap="round" stroke-dasharray="8 7"/>
<line x1="246.29" y1="117.70" x2="248.71" y2="115.81" stroke="#9ca3af" stroke-width="3" stroke-linecap="round" stroke-dasharray="8 7"/>
<line x1="248.71" y1="115.81" x2="251.14" y2="114.03" stroke="#9ca3af" stroke-width="3" stroke-linecap="round" stroke-dasharray="8 7"/>
<line x1="251.14" y1="114.03" x2="253.57" y2="112.35" stroke="#9ca3af" stroke-width="3" stroke-linecap="round" stroke-dasharray="8 7"/>
<line x1="253.57" y1="112.35" x2="256.00" y2="110.77" stroke="#9ca3af" stroke-width="3" stroke-linecap="round" stroke-dasharray="8 7"/>
<line x1="256.00" y1="110.77" x2="258.43" y2="109.29" stroke="#9ca3af" stroke-width="3" stroke-linecap="round" stroke-dasharray="8 7"/>
<line x1="258.43" y1="109.29" x2="260.86" y2="107.93" stroke="#9ca3af" stroke-width="3" stroke-linecap="round" stroke-dasharray="8 7"/>
<line x1="260.86" y1="107.93" x2="263.29" y2="106.67" stroke="#9ca3af" stroke-width="3" stroke-linecap="round" stroke-dasharray="8 7"/>
<line x1="263.29" y1="106.67" x2="265.71" y2="105.52" stroke="#9ca3af" stroke-width="3" stroke-linecap="round" stroke-dasharray="8 7"/>
<line x1="265.71" y1="105.52" x2="268.14" y2="104.47" stroke="#9ca3af" stroke-width="3" stroke-linecap="round" stroke-dasharray="8 7"/>
<line x1="268.14" y1="104.47" x2="270.57" y2="103.54" stroke="#9ca3af" stroke-width="3" stroke-linecap="round" stroke-dasharray="8 7"/>
<line x1="270.57" y1="103.54" x2="273.00" y2="102.71" stroke="#9ca3af" stroke-width="3" stroke-linecap="round" stroke-dasharray="8 7"/>
<line x1="273.00" y1="102.71" x2="275.43" y2="101.99" stroke="#9ca3af" stroke-width="3" stroke-linecap="round" stroke-dasharray="8 7"/>
<line x1="275.43" y1="101.99" x2="277.86" y2="101.38" stroke="#9ca3af" stroke-width="3" stroke-linecap="round" stroke-dasharray="8 7"/>
<line x1="277.86" y1="101.38" x2="280.29" y2="100.89" stroke="#9ca3af" stroke-width="3" stroke-linecap="round" stroke-dasharray="8 7"/>
<line x1="280.29" y1="100.89" x2="282.71" y2="100.50" stroke="#9ca3af" stroke-width="3" stroke-linecap="round" stroke-dasharray="8 7"/>
<line x1="282.71" y1="100.50" x2="285.14" y2="100.22" stroke="#9ca3af" stroke-width="3" stroke-linecap="round" stroke-dasharray="8 7"/>
<line x1="285.14" y1="100.22" x2="287.57" y2="100.06" stroke="#9ca3af" stroke-width="3" stroke-linecap="round" stroke-dasharray="8 7"/>
<line x1="287.57" y1="100.06" x2="290.00" y2="100.00" stroke="#9ca3af" stroke-width="3" stroke-linecap="round" stroke-dasharray="8 7"/>
<line x1="290.00" y1="100.00" x2="292.43" y2="100.06" stroke="#9ca3af" stroke-width="3" stroke-linecap="round" stroke-dasharray="8 7"/>
<line x1="292.43" y1="100.06" x2="294.86" y2="100.22" stroke="#9ca3af" stroke-width="3" stroke-linecap="round" stroke-dasharray="8 7"/>
<line x1="294.86" y1="100.22" x2="297.29" y2="100.50" stroke="#9ca3af" stroke-width="3" stroke-linecap="round" stroke-dasharray="8 7"/>
<line x1="297.29" y1="100.50" x2="299.71" y2="100.89" stroke="#9ca3af" stroke-width="3" stroke-linecap="round" stroke-dasharray="8 7"/>
<line x1="299.71" y1="100.89" x2="302.14" y2="101.38" stroke="#9ca3af" stroke-width="3" stroke-linecap="round" stroke-dasharray="8 7"/>
<line x1="302.14" y1="101.38" x2="304.57" y2="101.99" stroke="#9ca3af" stroke-width="3" stroke-linecap="round" stroke-dasharray="8 7"/>
<line x1="304.57" y1="101.99" x2="307.00" y2="102.71" stroke="#9ca3af" stroke-width="3" stroke-linecap="round" stroke-dasharray="8 7"/>
<line x1="307.00" y1="102.71" x2="309.43" y2="103.54" stroke="#9ca3af" stroke-width="3" stroke-linecap="round" stroke-dasharray="8 7"/>
<line x1="309.43" y1="103.54" x2="311.86" y2="104.47" stroke="#9ca3af" stroke-width="3" stroke-linecap="round" stroke-dasharray="8 7"/>
<line x1="311.86" y1="104.47" x2="314.29" y2="105.52" stroke="#9ca3af" stroke-width="3" stroke-linecap="round" stroke-dasharray="8 7"/>
<line x1="314.29" y1="105.52" x2="316.71" y2="106.67" stroke="#9ca3af" stroke-width="3" stroke-linecap="round" stroke-dasharray="8 7"/>
<line x1="316.71" y1="106.67" x2="319.14" y2="107.93" stroke="#9ca3af" stroke-width="3" stroke-linecap="round" stroke-dasharray="8 7"/>
<line x1="319.14" y1="107.93" x2="321.57" y2="109.29" stroke="#9ca3af" stroke-width="3" stroke-linecap="round" stroke-dasharray="8 7"/>
<line x1="321.57" y1="109.29" x2="324.00" y2="110.77" stroke="#9ca3af" stroke-width="3" stroke-linecap="round" stroke-dasharray="8 7"/>
<line x1="324.00" y1="110.77" x2="326.43" y2="112.35" stroke="#9ca3af" stroke-width="3" stroke-linecap="round" stroke-dasharray="8 7"/>
<line x1="326.43" y1="112.35" x2="328.86" y2="114.03" stroke="#9ca3af" stroke-width="3" stroke-linecap="round" stroke-dasharray="8 7"/>
<line x1="328.86" y1="114.03" x2="331.29" y2="115.81" stroke="#9ca3af" stroke-width="3" stroke-linecap="round" stroke-dasharray="8 7"/>
<line x1="331.29" y1="115.81" x2="333.71" y2="117.70" stroke="#9ca3af" stroke-width="3" stroke-linecap="round" stroke-dasharray="8 7"/>
<line x1="333.71" y1="117.70" x2="336.14" y2="119.69" stroke="#9ca3af" stroke-width="3" stroke-linecap="round" stroke-dasharray="8 7"/>
<line x1="336.14" y1="119.69" x2="338.57" y2="121.79" stroke="#9ca3af" stroke-width="3" stroke-linecap="round" stroke-dasharray="8 7"/>
<line x1="338.57" y1="121.79" x2="341.00" y2="123.98" stroke="#9ca3af" stroke-width="3" stroke-linecap="round" stroke-dasharray="8 7"/>
<line x1="341.00" y1="123.98" x2="343.43" y2="126.27" stroke="#9ca3af" stroke-width="3" stroke-linecap="round" stroke-dasharray="8 7"/>
<line x1="343.43" y1="126.27" x2="345.86" y2="128.66" stroke="#9ca3af" stroke-width="3" stroke-linecap="round" stroke-dasharray="8 7"/>
<line x1="345.86" y1="128.66" x2="348.29" y2="131.14" stroke="#9ca3af" stroke-width="3" stroke-linecap="round" stroke-dasharray="8 7"/>
<line x1="348.29" y1="131.14" x2="350.71" y2="133.72" stroke="#9ca3af" stroke-width="3" stroke-linecap="round" stroke-dasharray="8 7"/>
<line x1="350.71" y1="133.72" x2="353.14" y2="136.39" stroke="#9ca3af" stroke-width="3" stroke-linecap="round" stroke-dasharray="8 7"/>
<line x1="353.14" y1="136.39" x2="355.57" y2="139.16" stroke="#9ca3af" stroke-width="3" stroke-linecap="round" stroke-dasharray="8 7"/>
<line x1="355.57" y1="139.16" x2="358.00" y2="142.02" stroke="#9ca3af" stroke-width="3" stroke-linecap="round" stroke-dasharray="8 7"/>
<line x1="358.00" y1="142.02" x2="360.43" y2="144.96" stroke="#9ca3af" stroke-width="3" stroke-linecap="round" stroke-dasharray="8 7"/>
<line x1="360.43" y1="144.96" x2="362.86" y2="148.00" stroke="#9ca3af" stroke-width="3" stroke-linecap="round" stroke-dasharray="8 7"/>
<line x1="362.86" y1="148.00" x2="365.29" y2="151.12" stroke="#9ca3af" stroke-width="3" stroke-linecap="round" stroke-dasharray="8 7"/>
<line x1="365.29" y1="151.12" x2="367.71" y2="154.32" stroke="#9ca3af" stroke-width="3" stroke-linecap="round" stroke-dasharray="8 7"/>
<line x1="367.71" y1="154.32" x2="370.14" y2="157.61" stroke="#9ca3af" stroke-width="3" stroke-linecap="round" stroke-dasharray="8 7"/>
<line x1="370.14" y1="157.61" x2="372.57" y2="160.99" stroke="#9ca3af" stroke-width="3" stroke-linecap="round" stroke-dasharray="8 7"/>
<line x1="372.57" y1="160.99" x2="375.00" y2="164.44" stroke="#9ca3af" stroke-width="3" stroke-linecap="round" stroke-dasharray="8 7"/>
<line x1="375.00" y1="164.44" x2="377.43" y2="167.97" stroke="#9ca3af" stroke-width="3" stroke-linecap="round" stroke-dasharray="8 7"/>
<line x1="377.43" y1="167.97" x2="379.86" y2="171.57" stroke="#9ca3af" stroke-width="3" stroke-linecap="round" stroke-dasharray="8 7"/>
<line x1="379.86" y1="171.57" x2="382.29" y2="175.25" stroke="#9ca3af" stroke-width="3" stroke-linecap="round" stroke-dasharray="8 7"/>
<line x1="382.29" y1="175.25" x2="384.71" y2="179.01" stroke="#9ca3af" stroke-width="3" stroke-linecap="round" stroke-dasharray="8 7"/>
<line x1="384.71" y1="179.01" x2="387.14" y2="182.83" stroke="#9ca3af" stroke-width="3" stroke-linecap="round" stroke-dasharray="8 7"/>
<line x1="387.14" y1="182.83" x2="389.57" y2="186.73" stroke="#9ca3af" stroke-width="3" stroke-linecap="round" stroke-dasharray="8 7"/>
<line x1="389.57" y1="186.73" x2="392.00" y2="190.69" stroke="#9ca3af" stroke-width="3" stroke-linecap="round" stroke-dasharray="8 7"/>
<line x1="392.00" y1="190.69" x2="394.43" y2="194.71" stroke="#9ca3af" stroke-width="3" stroke-linecap="round" stroke-dasharray="8 7"/>
<line x1="394.43" y1="194.71" x2="396.86" y2="198.80" stroke="#9ca3af" stroke-width="3" stroke-linecap="round" stroke-dasharray="8 7"/>
<line x1="396.86" y1="198.80" x2="399.29" y2="202.95" stroke="#9ca3af" stroke-width="3" stroke-linecap="round" stroke-dasharray="8 7"/>
<line x1="399.29" y1="202.95" x2="401.71" y2="207.16" stroke="#9ca3af" stroke-width="3" stroke-linecap="round" stroke-dasharray="8 7"/>
<line x1="401.71" y1="207.16" x2="404.14" y2="211.43" stroke="#9ca3af" stroke-width="3" stroke-linecap="round" stroke-dasharray="8 7"/>
<line x1="404.14" y1="211.43" x2="406.57" y2="215.75" stroke="#9ca3af" stroke-width="3" stroke-linecap="round" stroke-dasharray="8 7"/>
<line x1="406.57" y1="215.75" x2="409.00" y2="220.12" stroke="#9ca3af" stroke-width="3" stroke-linecap="round" stroke-dasharray="8 7"/>
<line x1="409.00" y1="220.12" x2="411.43" y2="224.55" stroke="#9ca3af" stroke-width="3" stroke-linecap="round" stroke-dasharray="8 7"/>
<line x1="411.43" y1="224.55" x2="413.86" y2="229.02" stroke="#9ca3af" stroke-width="3" stroke-linecap="round" stroke-dasharray="8 7"/>
<line x1="413.86" y1="229.02" x2="416.29" y2="233.53" stroke="#9ca3af" stroke-width="3" stroke-linecap="round" stroke-dasharray="8 7"/>
<line x1="416.29" y1="233.53" x2="418.71" y2="238.10" stroke="#9ca3af" stroke-width="3" stroke-linecap="round" stroke-dasharray="8 7"/>
<line x1="418.71" y1="238.10" x2="421.14" y2="242.70" stroke="#9ca3af" stroke-width="3" stroke-linecap="round" stroke-dasharray="8 7"/>
<line x1="421.14" y1="242.70" x2="423.57" y2="247.34" stroke="#9ca3af" stroke-width="3" stroke-linecap="round" stroke-dasharray="8 7"/>
<line x1="423.57" y1="247.34" x2="426.00" y2="252.02" stroke="#9ca3af" stroke-width="3" stroke-linecap="round" stroke-dasharray="8 7"/>
<line x1="426.00" y1="252.02" x2="428.43" y2="256.73" stroke="#9ca3af" stroke-width="3" stroke-linecap="round" stroke-dasharray="8 7"/>
<line x1="428.43" y1="256.73" x2="430.86" y2="261.47" stroke="#9ca3af" stroke-width="3" stroke-linecap="round" stroke-dasharray="8 7"/>
<line x1="430.86" y1="261.47" x2="433.29" y2="266.25" stroke="#9ca3af" stroke-width="3" stroke-linecap="round" stroke-dasharray="8 7"/>
<line x1="433.29" y1="266.25" x2="435.71" y2="271.05" stroke="#9ca3af" stroke-width="3" stroke-linecap="round" stroke-dasharray="8 7"/>
<line x1="435.71" y1="271.05" x2="438.14" y2="275.87" stroke="#9ca3af" stroke-width="3" stroke-linecap="round" stroke-dasharray="8 7"/>
<line x1="438.14" y1="275.87" x2="440.57" y2="280.72" stroke="#9ca3af" stroke-width="3" stroke-linecap="round" stroke-dasharray="8 7"/>
<line x1="440.57" y1="280.72" x2="443.00" y2="285.58" stroke="#9ca3af" stroke-width="3" stroke-linecap="round" stroke-dasharray="8 7"/>
<line x1="443.00" y1="285.58" x2="445.43" y2="290.47" stroke="#9ca3af" stroke-width="3" stroke-linecap="round" stroke-dasharray="8 7"/>
<line x1="445.43" y1="290.47" x2="447.86" y2="295.37" stroke="#9ca3af" stroke-width="3" stroke-linecap="round" stroke-dasharray="8 7"/>
<line x1="447.86" y1="295.37" x2="450.29" y2="300.28" stroke="#9ca3af" stroke-width="3" stroke-linecap="round" stroke-dasharray="8 7"/>
<line x1="450.29" y1="300.28" x2="452.71" y2="305.20" stroke="#9ca3af" stroke-width="3" stroke-linecap="round" stroke-dasharray="8 7"/>
<line x1="452.71" y1="305.20" x2="455.14" y2="310.13" stroke="#9ca3af" stroke-width="3" stroke-linecap="round" stroke-dasharray="8 7"/>
<line x1="455.14" y1="310.13" x2="457.57" y2="315.06" stroke="#9ca3af" stroke-width="3" stroke-linecap="round" stroke-dasharray="8 7"/>
<line x1="457.57" y1="315.06" x2="460.00" y2="320.00" stroke="#9ca3af" stroke-width="3" stroke-linecap="round" stroke-dasharray="8 7"/>
<line x1="460.00" y1="320.00" x2="462.43" y2="324.94" stroke="#9ca3af" stroke-width="3" stroke-linecap="round" stroke-dasharray="8 7"/>
<line x1="462.43" y1="324.94" x2="464.86" y2="329.87" stroke="#9ca3af" stroke-width="3" stroke-linecap="round" stroke-dasharray="8 7"/>
<line x1="464.86" y1="329.87" x2="467.29" y2="334.80" stroke="#9ca3af" stroke-width="3" stroke-linecap="round" stroke-dasharray="8 7"/>
<line x1="467.29" y1="334.80" x2="469.71" y2="339.72" stroke="#9ca3af" stroke-width="3" stroke-linecap="round" stroke-dasharray="8 7"/>
<line x1="469.71" y1="339.72" x2="472.14" y2="344.63" stroke="#9ca3af" stroke-width="3" stroke-linecap="round" stroke-dasharray="8 7"/>
<line x1="472.14" y1="344.63" x2="474.57" y2="349.53" stroke="#9ca3af" stroke-width="3" stroke-linecap="round" stroke-dasharray="8 7"/>
<line x1="474.57" y1="349.53" x2="477.00" y2="354.42" stroke="#9ca3af" stroke-width="3" stroke-linecap="round" stroke-dasharray="8 7"/>
<line x1="477.00" y1="354.42" x2="479.43" y2="359.28" stroke="#9ca3af" stroke-width="3" stroke-linecap="round" stroke-dasharray="8 7"/>
<line x1="479.43" y1="359.28" x2="481.86" y2="364.13" stroke="#9ca3af" stroke-width="3" stroke-linecap="round" stroke-dasharray="8 7"/>
<line x1="481.86" y1="364.13" x2="484.29" y2="368.95" stroke="#9ca3af" stroke-width="3" stroke-linecap="round" stroke-dasharray="8 7"/>
<line x1="484.29" y1="368.95" x2="486.71" y2="373.75" stroke="#9ca3af" stroke-width="3" stroke-linecap="round" stroke-dasharray="8 7"/>
<line x1="486.71" y1="373.75" x2="489.14" y2="378.53" stroke="#9ca3af" stroke-width="3" stroke-linecap="round" stroke-dasharray="8 7"/>
<line x1="489.14" y1="378.53" x2="491.57" y2="383.27" stroke="#9ca3af" stroke-width="3" stroke-linecap="round" stroke-dasharray="8 7"/>
<line x1="491.57" y1="383.27" x2="494.00" y2="387.98" stroke="#9ca3af" stroke-width="3" stroke-linecap="round" stroke-dasharray="8 7"/>
<line x1="494.00" y1="387.98" x2="496.43" y2="392.66" stroke="#9ca3af" stroke-width="3" stroke-linecap="round" stroke-dasharray="8 7"/>
<line x1="496.43" y1="392.66" x2="498.86" y2="397.30" stroke="#9ca3af" stroke-width="3" stroke-linecap="round" stroke-dasharray="8 7"/>
<line x1="498.86" y1="397.30" x2="501.29" y2="401.90" stroke="#9ca3af" stroke-width="3" stroke-linecap="round" stroke-dasharray="8 7"/>
<line x1="501.29" y1="401.90" x2="503.71" y2="406.47" stroke="#9ca3af" stroke-width="3" stroke-linecap="round" stroke-dasharray="8 7"/>
<line x1="503.71" y1="406.47" x2="506.14" y2="410.98" stroke="#9ca3af" stroke-width="3" stroke-linecap="round" stroke-dasharray="8 7"/>
<line x1="506.14" y1="410.98" x2="508.57" y2="415.45" stroke="#9ca3af" stroke-width="3" stroke-linecap="round" stroke-dasharray="8 7"/>
<line x1="508.57" y1="415.45" x2="511.00" y2="419.88" stroke="#9ca3af" stroke-width="3" stroke-linecap="round" stroke-dasharray="8 7"/>
<line x1="511.00" y1="419.88" x2="513.43" y2="424.25" stroke="#9ca3af" stroke-width="3" stroke-linecap="round" stroke-dasharray="8 7"/>
<line x1="513.43" y1="424.25" x2="515.86" y2="428.57" stroke="#9ca3af" stroke-width="3" stroke-linecap="round" stroke-dasharray="8 7"/>
<line x1="515.86" y1="428.57" x2="518.29" y2="432.84" stroke="#9ca3af" stroke-width="3" stroke-linecap="round" stroke-dasharray="8 7"/>
<line x1="518.29" y1="432.84" x2="520.71" y2="437.05" stroke="#9ca3af" stroke-width="3" stroke-linecap="round" stroke-dasharray="8 7"/>
<line x1="520.71" y1="437.05" x2="523.14" y2="441.20" stroke="#9ca3af" stroke-width="3" stroke-linecap="round" stroke-dasharray="8 7"/>
<line x1="523.14" y1="441.20" x2="525.57" y2="445.29" stroke="#9ca3af" stroke-width="3" stroke-linecap="round" stroke-dasharray="8 7"/>
<line x1="525.57" y1="445.29" x2="528.00" y2="449.31" stroke="#9ca3af" stroke-width="3" stroke-linecap="round" stroke-dasharray="8 7"/>
<line x1="528.00" y1="449.31" x2="530.43" y2="453.27" stroke="#9ca3af" stroke-width="3" stroke-linecap="round" stroke-dasharray="8 7"/>
<line x1="530.43" y1="453.27" x2="532.86" y2="457.17" stroke="#9ca3af" stroke-width="3" stroke-linecap="round" stroke-dasharray="8 7"/>
<line x1="532.86" y1="457.17" x2="535.29" y2="460.99" stroke="#9ca3af" stroke-width="3" stroke-linecap="round" stroke-dasharray="8 7"/>
<line x1="535.29" y1="460.99" x2="537.71" y2="464.75" stroke="#9ca3af" stroke-width="3" stroke-linecap="round" stroke-dasharray="8 7"/>
<line x1="537.71" y1="464.75" x2="540.14" y2="468.43" stroke="#9ca3af" stroke-width="3" stroke-linecap="round" stroke-dasharray="8 7"/>
<line x1="540.14" y1="468.43" x2="542.57" y2="472.03" stroke="#9ca3af" stroke-width="3" stroke-linecap="round" stroke-dasharray="8 7"/>
<line x1="542.57" y1="472.03" x2="545.00" y2="475.56" stroke="#9ca3af" stroke-width="3" stroke-linecap="round" stroke-dasharray="8 7"/>
<line x1="545.00" y1="475.56" x2="547.43" y2="479.01" stroke="#9ca3af" stroke-width="3" stroke-linecap="round" stroke-dasharray="8 7"/>
<line x1="547.43" y1="479.01" x2="549.86" y2="482.39" stroke="#9ca3af" stroke-width="3" stroke-linecap="round" stroke-dasharray="8 7"/>
<line x1="549.86" y1="482.39" x2="552.29" y2="485.68" stroke="#9ca3af" stroke-width="3" stroke-linecap="round" stroke-dasharray="8 7"/>
<line x1="552.29" y1="485.68" x2="554.71" y2="488.88" stroke="#9ca3af" stroke-width="3" stroke-linecap="round" stroke-dasharray="8 7"/>
<line x1="554.71" y1="488.88" x2="557.14" y2="492.00" stroke="#9ca3af" stroke-width="3" stroke-linecap="round" stroke-dasharray="8 7"/>
<line x1="557.14" y1="492.00" x2="559.57" y2="495.04" stroke="#9ca3af" stroke-width="3" stroke-linecap="round" stroke-dasharray="8 7"/>
<line x1="559.57" y1="495.04" x2="562.00" y2="497.98" stroke="#9ca3af" stroke-width="3" stroke-linecap="round" stroke-dasharray="8 7"/>
<line x1="562.00" y1="497.98" x2="564.43" y2="500.84" stroke="#9ca3af" stroke-width="3" stroke-linecap="round" stroke-dasharray="8 7"/>
<line x1="564.43" y1="500.84" x2="566.86" y2="503.61" stroke="#9ca3af" stroke-width="3" stroke-linecap="round" stroke-dasharray="8 7"/>
<line x1="566.86" y1="503.61" x2="569.29" y2="506.28" stroke="#9ca3af" stroke-width="3" stroke-linecap="round" stroke-dasharray="8 7"/>
<line x1="569.29" y1="506.28" x2="571.71" y2="508.86" stroke="#9ca3af" stroke-width="3" stroke-linecap="round" stroke-dasharray="8 7"/>
<line x1="571.71" y1="508.86" x2="574.14" y2="511.34" stroke="#9ca3af" stroke-width="3" stroke-linecap="round" stroke-dasharray="8 7"/>
<line x1="574.14" y1="511.34" x2="576.57" y2="513.73" stroke="#9ca3af" stroke-width="3" stroke-linecap="round" stroke-dasharray="8 7"/>
<line x1="576.57" y1="513.73" x2="579.00" y2="516.02" stroke="#9ca3af" stroke-width="3" stroke-linecap="round" stroke-dasharray="8 7"/>
<line x1="579.00" y1="516.02" x2="581.43" y2="518.21" stroke="#9ca3af" stroke-width="3" stroke-linecap="round" stroke-dasharray="8 7"/>
<line x1="581.43" y1="518.21" x2="583.86" y2="520.31" stroke="#9ca3af" stroke-width="3" stroke-linecap="round" stroke-dasharray="8 7"/>
<line x1="583.86" y1="520.31" x2="586.29" y2="522.30" stroke="#9ca3af" stroke-width="3" stroke-linecap="round" stroke-dasharray="8 7"/>
<line x1="586.29" y1="522.30" x2="588.71" y2="524.19" stroke="#9ca3af" stroke-width="3" stroke-linecap="round" stroke-dasharray="8 7"/>
<line x1="588.71" y1="524.19" x2="591.14" y2="525.97" stroke="#9ca3af" stroke-width="3" stroke-linecap="round" stroke-dasharray="8 7"/>
<line x1="591.14" y1="525.97" x2="593.57" y2="527.65" stroke="#9ca3af" stroke-width="3" stroke-linecap="round" stroke-dasharray="8 7"/>
<line x1="593.57" y1="527.65" x2="596.00" y2="529.23" stroke="#9ca3af" stroke-width="3" stroke-linecap="round" stroke-dasharray="8 7"/>
<line x1="596.00" y1="529.23" x2="598.43" y2="530.71" stroke="#9ca3af" stroke-width="3" stroke-linecap="round" stroke-dasharray="8 7"/>
<line x1="598.43" y1="530.71" x2="600.86" y2="532.07" stroke="#9ca3af" stroke-width="3" stroke-linecap="round" stroke-dasharray="8 7"/>
<line x1="600.86" y1="532.07" x2="603.29" y2="533.33" stroke="#9ca3af" stroke-width="3" stroke-linecap="round" stroke-dasharray="8 7"/>
<line x1="603.29" y1="533.33" x2="605.71" y2="534.48" stroke="#9ca3af" stroke-width="3" stroke-linecap="round" stroke-dasharray="8 7"/>
<line x1="605.71" y1="534.48" x2="608.14" y2="535.53" stroke="#9ca3af" stroke-width="3" stroke-linecap="round" stroke-dasharray="8 7"/>
<line x1="608.14" y1="535.53" x2="610.57" y2="536.46" stroke="#9ca3af" stroke-width="3" stroke-linecap="round" stroke-dasharray="8 7"/>
<line x1="610.57" y1="536.46" x2="613.00" y2="537.29" stroke="#9ca3af" stroke-width="3" stroke-linecap="round" stroke-dasharray="8 7"/>
<line x1="613.00" y1="537.29" x2="615.43" y2="538.01" stroke="#9ca3af" stroke-width="3" stroke-linecap="round" stroke-dasharray="8 7"/>
<line x1="615.43" y1="538.01" x2="617.86" y2="538.62" stroke="#9ca3af" stroke-width="3" stroke-linecap="round" stroke-dasharray="8 7"/>
<line x1="617.86" y1="538.62" x2="620.29" y2="539.11" stroke="#9ca3af" stroke-width="3" stroke-linecap="round" stroke-dasharray="8 7"/>
<line x1="620.29" y1="539.11" x2="622.71" y2="539.50" stroke="#9ca3af" stroke-width="3" stroke-linecap="round" stroke-dasharray="8 7"/>
<line x1="622.71" y1="539.50" x2="625.14" y2="539.78" stroke="#9ca3af" stroke-width="3" stroke-linecap="round" stroke-dasharray="8 7"/>
<line x1="625.14" y1="539.78" x2="627.57" y2="539.94" stroke="#9ca3af" stroke-width="3" stroke-linecap="round" stroke-dasharray="8 7"/>
<line x1="627.57" y1="539.94" x2="630.00" y2="540.00" stroke="#9ca3af" stroke-width="3" stroke-linecap="round" stroke-dasharray="8 7"/>
<line x1="630.00" y1="540.00" x2="632.43" y2="539.94" stroke="#9ca3af" stroke-width="3" stroke-linecap="round" stroke-dasharray="8 7"/>
<line x1="632.43" y1="539.94" x2="634.86" y2="539.78" stroke="#9ca3af" stroke-width="3" stroke-linecap="round" stroke-dasharray="8 7"/>
<line x1="634.86" y1="539.78" x2="637.29" y2="539.50" stroke="#9ca3af" stroke-width="3" stroke-linecap="round" stroke-dasharray="8 7"/>
<line x1="637.29" y1="539.50" x2="639.71" y2="539.11" stroke="#9ca3af" stroke-width="3" stroke-linecap="round" stroke-dasharray="8 7"/>
<line x1="639.71" y1="539.11" x2="642.14" y2="538.62" stroke="#9ca3af" stroke-width="3" stroke-linecap="round" stroke-dasharray="8 7"/>
<line x1="642.14" y1="538.62" x2="644.57" y2="538.01" stroke="#9ca3af" stroke-width="3" stroke-linecap="round" stroke-dasharray="8 7"/>
<line x1="644.57" y1="538.01" x2="647.00" y2="537.29" stroke="#9ca3af" stroke-width="3" stroke-linecap="round" stroke-dasharray="8 7"/>
<line x1="647.00" y1="537.29" x2="649.43" y2="536.46" stroke="#9ca3af" stroke-width="3" stroke-linecap="round" stroke-dasharray="8 7"/>
<line x1="649.43" y1="536.46" x2="651.86" y2="535.53" stroke="#9ca3af" stroke-width="3" stroke-linecap="round" stroke-dasharray="8 7"/>
<line x1="651.86" y1="535.53" x2="654.29" y2="534.48" stroke="#9ca3af" stroke-width="3" stroke-linecap="round" stroke-dasharray="8 7"/>
<line x1="654.29" y1="534.48" x2="656.71" y2="533.33" stroke="#9ca3af" stroke-width="3" stroke-linecap="round" stroke-dasharray="8 7"/>
<line x1="656.71" y1="533.33" x2="659.14" y2="532.07" stroke="#9ca3af" stroke-width="3" stroke-linecap="round" stroke-dasharray="8 7"/>
<line x1="659.14" y1="532.07" x2="661.57" y2="530.71" stroke="#9ca3af" stroke-width="3" stroke-linecap="round" stroke-dasharray="8 7"/>
<line x1="661.57" y1="530.71" x2="664.00" y2="529.23" stroke="#9ca3af" stroke-width="3" stroke-linecap="round" stroke-dasharray="8 7"/>
<line x1="664.00" y1="529.23" x2="666.43" y2="527.65" stroke="#9ca3af" stroke-width="3" stroke-linecap="round" stroke-dasharray="8 7"/>
<line x1="666.43" y1="527.65" x2="668.86" y2="525.97" stroke="#9ca3af" stroke-width="3" stroke-linecap="round" stroke-dasharray="8 7"/>
<line x1="668.86" y1="525.97" x2="671.29" y2="524.19" stroke="#9ca3af" stroke-width="3" stroke-linecap="round" stroke-dasharray="8 7"/>
<line x1="671.29" y1="524.19" x2="673.71" y2="522.30" stroke="#9ca3af" stroke-width="3" stroke-linecap="round" stroke-dasharray="8 7"/>
<line x1="673.71" y1="522.30" x2="676.14" y2="520.31" stroke="#9ca3af" stroke-width="3" stroke-linecap="round" stroke-dasharray="8 7"/>
<line x1="676.14" y1="520.31" x2="678.57" y2="518.21" stroke="#9ca3af" stroke-width="3" stroke-linecap="round" stroke-dasharray="8 7"/>
<line x1="678.57" y1="518.21" x2="681.00" y2="516.02" stroke="#9ca3af" stroke-width="3" stroke-linecap="round" stroke-dasharray="8 7"/>
<line x1="681.00" y1="516.02" x2="683.43" y2="513.73" stroke="#9ca3af" stroke-width="3" stroke-linecap="round" stroke-dasharray="8 7"/>
<line x1="683.43" y1="513.73" x2="685.86" y2="511.34" stroke="#9ca3af" stroke-width="3" stroke-linecap="round" stroke-dasharray="8 7"/>
<line x1="685.86" y1="511.34" x2="688.29" y2="508.86" stroke="#9ca3af" stroke-width="3" stroke-linecap="round" stroke-dasharray="8 7"/>
<line x1="688.29" y1="508.86" x2="690.71" y2="506.28" stroke="#9ca3af" stroke-width="3" stroke-linecap="round" stroke-dasharray="8 7"/>
<line x1="690.71" y1="506.28" x2="693.14" y2="503.61" stroke="#9ca3af" stroke-width="3" stroke-linecap="round" stroke-dasharray="8 7"/>
<line x1="693.14" y1="503.61" x2="695.57" y2="500.84" stroke="#9ca3af" stroke-width="3" stroke-linecap="round" stroke-dasharray="8 7"/>
<line x1="695.57" y1="500.84" x2="698.00" y2="497.98" stroke="#9ca3af" stroke-width="3" stroke-linecap="round" stroke-dasharray="8 7"/>
<line x1="698.00" y1="497.98" x2="700.43" y2="495.04" stroke="#9ca3af" stroke-width="3" stroke-linecap="round" stroke-dasharray="8 7"/>
<line x1="700.43" y1="495.04" x2="702.86" y2="492.00" stroke="#9ca3af" stroke-width="3" stroke-linecap="round" stroke-dasharray="8 7"/>
<line x1="702.86" y1="492.00" x2="705.29" y2="488.88" stroke="#9ca3af" stroke-width="3" stroke-linecap="round" stroke-dasharray="8 7"/>
<line x1="705.29" y1="488.88" x2="707.71" y2="485.68" stroke="#9ca3af" stroke-width="3" stroke-linecap="round" stroke-dasharray="8 7"/>
<line x1="707.71" y1="485.68" x2="710.14" y2="482.39" stroke="#9ca3af" stroke-width="3" stroke-linecap="round" stroke-dasharray="8 7"/>
<line x1="710.14" y1="482.39" x2="712.57" y2="479.01" stroke="#9ca3af" stroke-width="3" stroke-linecap="round" stroke-dasharray="8 7"/>
<line x1="712.57" y1="479.01" x2="715.00" y2="475.56" stroke="#9ca3af" stroke-width="3" stroke-linecap="round" stroke-dasharray="8 7"/>
<line x1="715.00" y1="475.56" x2="717.43" y2="472.03" stroke="#9ca3af" stroke-width="3" stroke-linecap="round" stroke-dasharray="8 7"/>
<line x1="717.43" y1="472.03" x2="719.86" y2="468.43" stroke="#9ca3af" stroke-width="3" stroke-linecap="round" stroke-dasharray="8 7"/>
<line x1="719.86" y1="468.43" x2="722.29" y2="464.75" stroke="#9ca3af" stroke-width="3" stroke-linecap="round" stroke-dasharray="8 7"/>
<line x1="722.29" y1="464.75" x2="724.71" y2="460.99" stroke="#9ca3af" stroke-width="3" stroke-linecap="round" stroke-dasharray="8 7"/>
<line x1="724.71" y1="460.99" x2="727.14" y2="457.17" stroke="#9ca3af" stroke-width="3" stroke-linecap="round" stroke-dasharray="8 7"/>
<line x1="727.14" y1="457.17" x2="729.57" y2="453.27" stroke="#9ca3af" stroke-width="3" stroke-linecap="round" stroke-dasharray="8 7"/>
<line x1="729.57" y1="453.27" x2="732.00" y2="449.31" stroke="#9ca3af" stroke-width="3" stroke-linecap="round" stroke-dasharray="8 7"/>
<line x1="732.00" y1="449.31" x2="734.43" y2="445.29" stroke="#9ca3af" stroke-width="3" stroke-linecap="round" stroke-dasharray="8 7"/>
<line x1="734.43" y1="445.29" x2="736.86" y2="441.20" stroke="#9ca3af" stroke-width="3" stroke-linecap="round" stroke-dasharray="8 7"/>
<line x1="736.86" y1="441.20" x2="739.29" y2="437.05" stroke="#9ca3af" stroke-width="3" stroke-linecap="round" stroke-dasharray="8 7"/>
<line x1="739.29" y1="437.05" x2="741.71" y2="432.84" stroke="#9ca3af" stroke-width="3" stroke-linecap="round" stroke-dasharray="8 7"/>
<line x1="741.71" y1="432.84" x2="744.14" y2="428.57" stroke="#9ca3af" stroke-width="3" stroke-linecap="round" stroke-dasharray="8 7"/>
<line x1="744.14" y1="428.57" x2="746.57" y2="424.25" stroke="#9ca3af" stroke-width="3" stroke-linecap="round" stroke-dasharray="8 7"/>
<line x1="746.57" y1="424.25" x2="749.00" y2="419.88" stroke="#9ca3af" stroke-width="3" stroke-linecap="round" stroke-dasharray="8 7"/>
<line x1="749.00" y1="419.88" x2="751.43" y2="415.45" stroke="#9ca3af" stroke-width="3" stroke-linecap="round" stroke-dasharray="8 7"/>
<line x1="751.43" y1="415.45" x2="753.86" y2="410.98" stroke="#9ca3af" stroke-width="3" stroke-linecap="round" stroke-dasharray="8 7"/>
<line x1="753.86" y1="410.98" x2="756.29" y2="406.47" stroke="#9ca3af" stroke-width="3" stroke-linecap="round" stroke-dasharray="8 7"/>
<line x1="756.29" y1="406.47" x2="758.71" y2="401.90" stroke="#9ca3af" stroke-width="3" stroke-linecap="round" stroke-dasharray="8 7"/>
<line x1="758.71" y1="401.90" x2="761.14" y2="397.30" stroke="#9ca3af" stroke-width="3" stroke-linecap="round" stroke-dasharray="8 7"/>
<line x1="761.14" y1="397.30" x2="763.57" y2="392.66" stroke="#9ca3af" stroke-width="3" stroke-linecap="round" stroke-dasharray="8 7"/>
<line x1="763.57" y1="392.66" x2="766.00" y2="387.98" stroke="#9ca3af" stroke-width="3" stroke-linecap="round" stroke-dasharray="8 7"/>
<line x1="766.00" y1="387.98" x2="768.43" y2="383.27" stroke="#9ca3af" stroke-width="3" stroke-linecap="round" stroke-dasharray="8 7"/>
<line x1="768.43" y1="383.27" x2="770.86" y2="378.53" stroke="#9ca3af" stroke-width="3" stroke-linecap="round" stroke-dasharray="8 7"/>
<line x1="770.86" y1="378.53" x2="773.29" y2="373.75" stroke="#9ca3af" stroke-width="3" stroke-linecap="round" stroke-dasharray="8 7"/>
<line x1="773.29" y1="373.75" x2="775.71" y2="368.95" stroke="#9ca3af" stroke-width="3" stroke-linecap="round" stroke-dasharray="8 7"/>
<line x1="775.71" y1="368.95" x2="778.14" y2="364.13" stroke="#9ca3af" stroke-width="3" stroke-linecap="round" stroke-dasharray="8 7"/>
<line x1="778.14" y1="364.13" x2="780.57" y2="359.28" stroke="#9ca3af" stroke-width="3" stroke-linecap="round" stroke-dasharray="8 7"/>
<line x1="780.57" y1="359.28" x2="783.00" y2="354.42" stroke="#9ca3af" stroke-width="3" stroke-linecap="round" stroke-dasharray="8 7"/>
<line x1="783.00" y1="354.42" x2="785.43" y2="349.53" stroke="#9ca3af" stroke-width="3" stroke-linecap="round" stroke-dasharray="8 7"/>
<line x1="785.43" y1="349.53" x2="787.86" y2="344.63" stroke="#9ca3af" stroke-width="3" stroke-linecap="round" stroke-dasharray="8 7"/>
<line x1="787.86" y1="344.63" x2="790.29" y2="339.72" stroke="#9ca3af" stroke-width="3" stroke-linecap="round" stroke-dasharray="8 7"/>
<line x1="790.29" y1="339.72" x2="792.71" y2="334.80" stroke="#9ca3af" stroke-width="3" stroke-linecap="round" stroke-dasharray="8 7"/>
<line x1="792.71" y1="334.80" x2="795.14" y2="329.87" stroke="#9ca3af" stroke-width="3" stroke-linecap="round" stroke-dasharray="8 7"/>
<line x1="795.14" y1="329.87" x2="797.57" y2="324.94" stroke="#9ca3af" stroke-width="3" stroke-linecap="round" stroke-dasharray="8 7"/>
<line x1="797.57" y1="324.94" x2="800.00" y2="320.00" stroke="#9ca3af" stroke-width="3" stroke-linecap="round" stroke-dasharray="8 7"/>
<text x="762" y="112.65695070574702" text-anchor="middle" dominant-baseline="middle" font-family="Cambria Math,Cambria,Times New Roman,serif" font-size="22" fill="#9ca3af" style="font-style:italic;"><tspan>v</tspan><tspan baseline-shift="sub" font-size="70%">i</tspan></text>
<polyline points="120.00,320.00 122.43,315.06 124.86,310.13 127.29,305.20 129.71,300.28 132.14,295.37 134.57,290.47 137.00,285.58 139.43,280.72 141.86,275.87 144.29,271.05 146.71,266.25 149.14,261.47 151.57,256.73 154.00,252.02 156.43,247.34 158.86,242.70 161.29,238.10 163.71,233.53 166.14,229.02 168.57,224.55 171.00,220.12 173.43,215.75 175.86,211.43 178.29,207.16 180.71,202.95 183.14,202.67 185.57,202.67 188.00,202.67 190.43,202.67 192.86,202.67 195.29,202.67 197.71,202.67 200.14,202.67 202.57,202.67 205.00,202.67 207.43,202.67 209.86,202.67 212.29,202.67 214.71,202.67 217.14,202.67 219.57,202.67 222.00,202.67 224.43,202.67 226.86,202.67 229.29,202.67 231.71,202.67 234.14,202.67 236.57,202.67 239.00,202.67 241.43,202.67 243.86,202.67 246.29,202.67 248.71,202.67 251.14,202.67 253.57,202.67 256.00,202.67 258.43,202.67 260.86,202.67 263.29,202.67 265.71,202.67 268.14,202.67 270.57,202.67 273.00,202.67 275.43,202.67 277.86,202.67 280.29,202.67 282.71,202.67 285.14,202.67 287.57,202.67 290.00,202.67 292.43,202.67 294.86,202.67 297.29,202.67 299.71,202.67 302.14,202.67 304.57,202.67 307.00,202.67 309.43,202.67 311.86,202.67 314.29,202.67 316.71,202.67 319.14,202.67 321.57,202.67 324.00,202.67 326.43,202.67 328.86,202.67 331.29,202.67 333.71,202.67 336.14,202.67 338.57,202.67 341.00,202.67 343.43,202.67 345.86,202.67 348.29,202.67 350.71,202.67 353.14,202.67 355.57,202.67 358.00,202.67 360.43,202.67 362.86,202.67 365.29,202.67 367.71,202.67 370.14,202.67 372.57,202.67 375.00,202.67 377.43,202.67 379.86,202.67 382.29,202.67 384.71,202.67 387.14,202.67 389.57,202.67 392.00,202.67 394.43,202.67 396.86,202.67 399.29,202.95 401.71,207.16 404.14,211.43 406.57,215.75 409.00,220.12 411.43,224.55 413.86,229.02 416.29,233.53 418.71,238.10 421.14,242.70 423.57,247.34 426.00,252.02 428.43,256.73 430.86,261.47 433.29,266.25 435.71,271.05 438.14,275.87 440.57,280.72 443.00,285.58 445.43,290.47 447.86,295.37 450.29,300.28 452.71,305.20 455.14,310.13 457.57,315.06 460.00,320.00 462.43,324.94 464.86,329.87 467.29,330.27 469.71,330.27 472.14,330.27 474.57,330.27 477.00,330.27 479.43,330.27 481.86,330.27 484.29,330.27 486.71,330.27 489.14,330.27 491.57,330.27 494.00,330.27 496.43,330.27 498.86,330.27 501.29,330.27 503.71,330.27 506.14,330.27 508.57,330.27 511.00,330.27 513.43,330.27 515.86,330.27 518.29,330.27 520.71,330.27 523.14,330.27 525.57,330.27 528.00,330.27 530.43,330.27 532.86,330.27 535.29,330.27 537.71,330.27 540.14,330.27 542.57,330.27 545.00,330.27 547.43,330.27 549.86,330.27 552.29,330.27 554.71,330.27 557.14,330.27 559.57,330.27 562.00,330.27 564.43,330.27 566.86,330.27 569.29,330.27 571.71,330.27 574.14,330.27 576.57,330.27 579.00,330.27 581.43,330.27 583.86,330.27 586.29,330.27 588.71,330.27 591.14,330.27 593.57,330.27 596.00,330.27 598.43,330.27 600.86,330.27 603.29,330.27 605.71,330.27 608.14,330.27 610.57,330.27 613.00,330.27 615.43,330.27 617.86,330.27 620.29,330.27 622.71,330.27 625.14,330.27 627.57,330.27 630.00,330.27 632.43,330.27 634.86,330.27 637.29,330.27 639.71,330.27 642.14,330.27 644.57,330.27 647.00,330.27 649.43,330.27 651.86,330.27 654.29,330.27 656.71,330.27 659.14,330.27 661.57,330.27 664.00,330.27 666.43,330.27 668.86,330.27 671.29,330.27 673.71,330.27 676.14,330.27 678.57,330.27 681.00,330.27 683.43,330.27 685.86,330.27 688.29,330.27 690.71,330.27 693.14,330.27 695.57,330.27 698.00,330.27 700.43,330.27 702.86,330.27 705.29,330.27 707.71,330.27 710.14,330.27 712.57,330.27 715.00,330.27 717.43,330.27 719.86,330.27 722.29,330.27 724.71,330.27 727.14,330.27 729.57,330.27 732.00,330.27 734.43,330.27 736.86,330.27 739.29,330.27 741.71,330.27 744.14,330.27 746.57,330.27 749.00,330.27 751.43,330.27 753.86,330.27 756.29,330.27 758.71,330.27 761.14,330.27 763.57,330.27 766.00,330.27 768.43,330.27 770.86,330.27 773.29,330.27 775.71,330.27 778.14,330.27 780.57,330.27 783.00,330.27 785.43,330.27 787.86,330.27 790.29,330.27 792.71,330.27 795.14,329.87 797.57,324.94 800.00,320.00" fill="none" stroke="#2563eb" stroke-width="3" stroke-linejoin="round" stroke-linecap="round"/>
<text x="762" y="186.66666666666669" text-anchor="middle" dominant-baseline="middle" font-family="Cambria Math,Cambria,Times New Roman,serif" font-size="22" fill="#2563eb" style="font-style:italic;"><tspan>v</tspan><tspan baseline-shift="sub" font-size="70%">o</tspan></text>
<line x1="120.00" y1="100.00" x2="240.00" y2="100.00" stroke="#9ca3af" stroke-width="1.2" stroke-linecap="round" stroke-dasharray="5 5"/>
<text x="108" y="100" text-anchor="end" dominant-baseline="middle" font-family="Cambria Math,Cambria,Times New Roman,serif" font-size="20" fill="#6b7280" style="">15</text>
<line x1="120.00" y1="202.67" x2="240.00" y2="202.67" stroke="#9ca3af" stroke-width="1.2" stroke-linecap="round" stroke-dasharray="5 5"/>
<text x="108" y="202.66666666666669" text-anchor="end" dominant-baseline="middle" font-family="Cambria Math,Cambria,Times New Roman,serif" font-size="20" fill="#6b7280" style="">8</text>
<line x1="120.00" y1="330.27" x2="240.00" y2="330.27" stroke="#9ca3af" stroke-width="1.2" stroke-linecap="round" stroke-dasharray="5 5"/>
<text x="108" y="330.26666666666665" text-anchor="end" dominant-baseline="middle" font-family="Cambria Math,Cambria,Times New Roman,serif" font-size="20" fill="#6b7280" style="">-0.7</text>
<text x="450.0" y="556" text-anchor="middle" dominant-baseline="middle" font-family="SimSun,STSong,serif" font-size="22" fill="#17202a" style="">图 1.4.5　题 1.2.5 的解</text>
</svg>
