<svg xmlns="http://www.w3.org/2000/svg" width="900" height="590" viewBox="0 0 900 590">
<title>图1.4.13 双向限幅波形</title>
<rect width="100%" height="100%" fill="white"/>
<line x1="120.00" y1="340.00" x2="820.00" y2="340.00" stroke="#6b7280" stroke-width="2" stroke-linecap="round"/>
<polygon points="820.00,340.00 811.56,345.36 811.56,334.64" fill="#6b7280" stroke="#6b7280" stroke-width="1.3" stroke-linejoin="round"/>
<line x1="120.00" y1="340.00" x2="120.00" y2="80.00" stroke="#6b7280" stroke-width="2" stroke-linecap="round"/>
<polygon points="120.00,80.00 125.36,88.44 114.64,88.44" fill="#6b7280" stroke="#6b7280" stroke-width="1.3" stroke-linejoin="round"/>
<text x="814" y="362" text-anchor="end" dominant-baseline="middle" font-family="Cambria Math,Cambria,Times New Roman,serif" font-size="20" fill="#6b7280" style="font-style:italic;">t</text>
<text x="115" y="88" text-anchor="end" dominant-baseline="middle" font-family="Cambria Math,Cambria,Times New Roman,serif" font-size="20" fill="#6b7280" style="font-style:italic;">u/V</text>
<polyline points="120.00,340.00 122.43,334.84 124.86,329.68 127.29,324.53 129.71,319.38 132.14,314.25 134.57,309.13 137.00,304.02 139.43,298.93 141.86,293.86 144.29,288.82 146.71,283.80 149.14,278.81 151.57,273.85 154.00,268.93 156.43,264.04 158.86,259.18 161.29,254.37 163.71,249.60 166.14,244.88 168.57,240.21 171.00,235.58 173.43,231.01 175.86,226.49 178.29,222.03 180.71,217.63 183.14,213.29 185.57,209.02 188.00,204.81 190.43,200.67 192.86,196.60 195.29,192.60 197.71,188.67 200.14,184.83 202.57,181.06 205.00,177.37 207.43,173.76 209.86,170.23 212.29,166.79 214.71,163.44 217.14,160.18 219.57,157.01 222.00,153.93 224.43,150.94 226.86,148.05 229.29,145.25 231.71,142.56 234.14,139.96 236.57,137.46 239.00,135.07 241.43,132.78 243.86,130.59 246.29,128.51 248.71,126.53 251.14,124.67 253.57,122.91 256.00,121.26 258.43,119.72 260.86,118.29 263.29,116.97 265.71,115.77 268.14,114.67 270.57,113.70 273.00,112.83 275.43,112.08 277.86,111.45 280.29,110.93 282.71,110.52 285.14,110.23 287.57,110.06 290.00,110.00 292.43,110.06 294.86,110.23 297.29,110.52 299.71,110.93 302.14,111.45 304.57,112.08 307.00,112.83 309.43,113.70 311.86,114.67 314.29,115.77 316.71,116.97 319.14,118.29 321.57,119.72 324.00,121.26 326.43,122.91 328.86,124.67 331.29,126.53 333.71,128.51 336.14,130.59 338.57,132.78 341.00,135.07 343.43,137.46 345.86,139.96 348.29,142.56 350.71,145.25 353.14,148.05 355.57,150.94 358.00,153.93 360.43,157.01 362.86,160.18 365.29,163.44 367.71,166.79 370.14,170.23 372.57,173.76 375.00,177.37 377.43,181.06 379.86,184.83 382.29,188.67 384.71,192.60 387.14,196.60 389.57,200.67 392.00,204.81 394.43,209.02 396.86,213.29 399.29,217.63 401.71,222.03 404.14,226.49 406.57,231.01 409.00,235.58 411.43,240.21 413.86,244.88 416.29,249.60 418.71,254.37 421.14,259.18 423.57,264.04 426.00,268.93 428.43,273.85 430.86,278.81 433.29,283.80 435.71,288.82 438.14,293.86 440.57,298.93 443.00,304.02 445.43,309.13 447.86,314.25 450.29,319.38 452.71,324.53 455.14,329.68 457.57,334.84 460.00,340.00 462.43,345.16 464.86,350.32 467.29,355.47 469.71,360.62 472.14,365.75 474.57,370.87 477.00,375.98 479.43,381.07 481.86,386.14 484.29,391.18 486.71,396.20 489.14,401.19 491.57,406.15 494.00,411.07 496.43,415.96 498.86,420.82 501.29,425.63 503.71,430.40 506.14,435.12 508.57,439.79 511.00,444.42 513.43,448.99 515.86,453.51 518.29,457.97 520.71,462.37 523.14,466.71 525.57,470.98 528.00,475.19 530.43,479.33 532.86,483.40 535.29,487.40 537.71,491.33 540.14,495.17 542.57,498.94 545.00,502.63 547.43,506.24 549.86,509.77 552.29,513.21 554.71,516.56 557.14,519.82 559.57,522.99 562.00,526.07 564.43,529.06 566.86,531.95 569.29,534.75 571.71,537.44 574.14,540.04 576.57,542.54 579.00,544.93 581.43,547.22 583.86,549.41 586.29,551.49 588.71,553.47 591.14,555.33 593.57,557.09 596.00,558.74 598.43,560.28 600.86,561.71 603.29,563.03 605.71,564.23 608.14,565.33 610.57,566.30 613.00,567.17 615.43,567.92 617.86,568.55 620.29,569.07 622.71,569.48 625.14,569.77 627.57,569.94 630.00,570.00 632.43,569.94 634.86,569.77 637.29,569.48 639.71,569.07 642.14,568.55 644.57,567.92 647.00,567.17 649.43,566.30 651.86,565.33 654.29,564.23 656.71,563.03 659.14,561.71 661.57,560.28 664.00,558.74 666.43,557.09 668.86,555.33 671.29,553.47 673.71,551.49 676.14,549.41 678.57,547.22 681.00,544.93 683.43,542.54 685.86,540.04 688.29,537.44 690.71,534.75 693.14,531.95 695.57,529.06 698.00,526.07 700.43,522.99 702.86,519.82 705.29,516.56 707.71,513.21 710.14,509.77 712.57,506.24 715.00,502.63 717.43,498.94 719.86,495.17 722.29,491.33 724.71,487.40 727.14,483.40 729.57,479.33 732.00,475.19 734.43,470.98 736.86,466.71 739.29,462.37 741.71,457.97 744.14,453.51 746.57,448.99 749.00,444.42 751.43,439.79 753.86,435.12 756.29,430.40 758.71,425.63 761.14,420.82 763.57,415.96 766.00,411.07 768.43,406.15 770.86,401.19 773.29,396.20 775.71,391.18 778.14,386.14 780.57,381.07 783.00,375.98 785.43,370.87 787.86,365.75 790.29,360.62 792.71,355.47 795.14,350.32 797.57,345.16 800.00,340.00" fill="none" stroke="#9ca3af" stroke-width="3" stroke-linejoin="round" stroke-linecap="round" stroke-dasharray="8 7"/>
<line x1="120.00" y1="340.00" x2="122.43" y2="334.84" stroke="#9ca3af" stroke-width="3" stroke-linecap="round" stroke-dasharray="8 7"/>
<line x1="122.43" y1="334.84" x2="124.86" y2="329.68" stroke="#9ca3af" stroke-width="3" stroke-linecap="round" stroke-dasharray="8 7"/>
<line x1="124.86" y1="329.68" x2="127.29" y2="324.53" stroke="#9ca3af" stroke-width="3" stroke-linecap="round" stroke-dasharray="8 7"/>
<line x1="127.29" y1="324.53" x2="129.71" y2="319.38" stroke="#9ca3af" stroke-width="3" stroke-linecap="round" stroke-dasharray="8 7"/>
<line x1="129.71" y1="319.38" x2="132.14" y2="314.25" stroke="#9ca3af" stroke-width="3" stroke-linecap="round" stroke-dasharray="8 7"/>
<line x1="132.14" y1="314.25" x2="134.57" y2="309.13" stroke="#9ca3af" stroke-width="3" stroke-linecap="round" stroke-dasharray="8 7"/>
<line x1="134.57" y1="309.13" x2="137.00" y2="304.02" stroke="#9ca3af" stroke-width="3" stroke-linecap="round" stroke-dasharray="8 7"/>
<line x1="137.00" y1="304.02" x2="139.43" y2="298.93" stroke="#9ca3af" stroke-width="3" stroke-linecap="round" stroke-dasharray="8 7"/>
<line x1="139.43" y1="298.93" x2="141.86" y2="293.86" stroke="#9ca3af" stroke-width="3" stroke-linecap="round" stroke-dasharray="8 7"/>
<line x1="141.86" y1="293.86" x2="144.29" y2="288.82" stroke="#9ca3af" stroke-width="3" stroke-linecap="round" stroke-dasharray="8 7"/>
<line x1="144.29" y1="288.82" x2="146.71" y2="283.80" stroke="#9ca3af" stroke-width="3" stroke-linecap="round" stroke-dasharray="8 7"/>
<line x1="146.71" y1="283.80" x2="149.14" y2="278.81" stroke="#9ca3af" stroke-width="3" stroke-linecap="round" stroke-dasharray="8 7"/>
<line x1="149.14" y1="278.81" x2="151.57" y2="273.85" stroke="#9ca3af" stroke-width="3" stroke-linecap="round" stroke-dasharray="8 7"/>
<line x1="151.57" y1="273.85" x2="154.00" y2="268.93" stroke="#9ca3af" stroke-width="3" stroke-linecap="round" stroke-dasharray="8 7"/>
<line x1="154.00" y1="268.93" x2="156.43" y2="264.04" stroke="#9ca3af" stroke-width="3" stroke-linecap="round" stroke-dasharray="8 7"/>
<line x1="156.43" y1="264.04" x2="158.86" y2="259.18" stroke="#9ca3af" stroke-width="3" stroke-linecap="round" stroke-dasharray="8 7"/>
<line x1="158.86" y1="259.18" x2="161.29" y2="254.37" stroke="#9ca3af" stroke-width="3" stroke-linecap="round" stroke-dasharray="8 7"/>
<line x1="161.29" y1="254.37" x2="163.71" y2="249.60" stroke="#9ca3af" stroke-width="3" stroke-linecap="round" stroke-dasharray="8 7"/>
<line x1="163.71" y1="249.60" x2="166.14" y2="244.88" stroke="#9ca3af" stroke-width="3" stroke-linecap="round" stroke-dasharray="8 7"/>
<line x1="166.14" y1="244.88" x2="168.57" y2="240.21" stroke="#9ca3af" stroke-width="3" stroke-linecap="round" stroke-dasharray="8 7"/>
<line x1="168.57" y1="240.21" x2="171.00" y2="235.58" stroke="#9ca3af" stroke-width="3" stroke-linecap="round" stroke-dasharray="8 7"/>
<line x1="171.00" y1="235.58" x2="173.43" y2="231.01" stroke="#9ca3af" stroke-width="3" stroke-linecap="round" stroke-dasharray="8 7"/>
<line x1="173.43" y1="231.01" x2="175.86" y2="226.49" stroke="#9ca3af" stroke-width="3" stroke-linecap="round" stroke-dasharray="8 7"/>
<line x1="175.86" y1="226.49" x2="178.29" y2="222.03" stroke="#9ca3af" stroke-width="3" stroke-linecap="round" stroke-dasharray="8 7"/>
<line x1="178.29" y1="222.03" x2="180.71" y2="217.63" stroke="#9ca3af" stroke-width="3" stroke-linecap="round" stroke-dasharray="8 7"/>
<line x1="180.71" y1="217.63" x2="183.14" y2="213.29" stroke="#9ca3af" stroke-width="3" stroke-linecap="round" stroke-dasharray="8 7"/>
<line x1="183.14" y1="213.29" x2="185.57" y2="209.02" stroke="#9ca3af" stroke-width="3" stroke-linecap="round" stroke-dasharray="8 7"/>
<line x1="185.57" y1="209.02" x2="188.00" y2="204.81" stroke="#9ca3af" stroke-width="3" stroke-linecap="round" stroke-dasharray="8 7"/>
<line x1="188.00" y1="204.81" x2="190.43" y2="200.67" stroke="#9ca3af" stroke-width="3" stroke-linecap="round" stroke-dasharray="8 7"/>
<line x1="190.43" y1="200.67" x2="192.86" y2="196.60" stroke="#9ca3af" stroke-width="3" stroke-linecap="round" stroke-dasharray="8 7"/>
<line x1="192.86" y1="196.60" x2="195.29" y2="192.60" stroke="#9ca3af" stroke-width="3" stroke-linecap="round" stroke-dasharray="8 7"/>
<line x1="195.29" y1="192.60" x2="197.71" y2="188.67" stroke="#9ca3af" stroke-width="3" stroke-linecap="round" stroke-dasharray="8 7"/>
<line x1="197.71" y1="188.67" x2="200.14" y2="184.83" stroke="#9ca3af" stroke-width="3" stroke-linecap="round" stroke-dasharray="8 7"/>
<line x1="200.14" y1="184.83" x2="202.57" y2="181.06" stroke="#9ca3af" stroke-width="3" stroke-linecap="round" stroke-dasharray="8 7"/>
<line x1="202.57" y1="181.06" x2="205.00" y2="177.37" stroke="#9ca3af" stroke-width="3" stroke-linecap="round" stroke-dasharray="8 7"/>
<line x1="205.00" y1="177.37" x2="207.43" y2="173.76" stroke="#9ca3af" stroke-width="3" stroke-linecap="round" stroke-dasharray="8 7"/>
<line x1="207.43" y1="173.76" x2="209.86" y2="170.23" stroke="#9ca3af" stroke-width="3" stroke-linecap="round" stroke-dasharray="8 7"/>
<line x1="209.86" y1="170.23" x2="212.29" y2="166.79" stroke="#9ca3af" stroke-width="3" stroke-linecap="round" stroke-dasharray="8 7"/>
<line x1="212.29" y1="166.79" x2="214.71" y2="163.44" stroke="#9ca3af" stroke-width="3" stroke-linecap="round" stroke-dasharray="8 7"/>
<line x1="214.71" y1="163.44" x2="217.14" y2="160.18" stroke="#9ca3af" stroke-width="3" stroke-linecap="round" stroke-dasharray="8 7"/>
<line x1="217.14" y1="160.18" x2="219.57" y2="157.01" stroke="#9ca3af" stroke-width="3" stroke-linecap="round" stroke-dasharray="8 7"/>
<line x1="219.57" y1="157.01" x2="222.00" y2="153.93" stroke="#9ca3af" stroke-width="3" stroke-linecap="round" stroke-dasharray="8 7"/>
<line x1="222.00" y1="153.93" x2="224.43" y2="150.94" stroke="#9ca3af" stroke-width="3" stroke-linecap="round" stroke-dasharray="8 7"/>
<line x1="224.43" y1="150.94" x2="226.86" y2="148.05" stroke="#9ca3af" stroke-width="3" stroke-linecap="round" stroke-dasharray="8 7"/>
<line x1="226.86" y1="148.05" x2="229.29" y2="145.25" stroke="#9ca3af" stroke-width="3" stroke-linecap="round" stroke-dasharray="8 7"/>
<line x1="229.29" y1="145.25" x2="231.71" y2="142.56" stroke="#9ca3af" stroke-width="3" stroke-linecap="round" stroke-dasharray="8 7"/>
<line x1="231.71" y1="142.56" x2="234.14" y2="139.96" stroke="#9ca3af" stroke-width="3" stroke-linecap="round" stroke-dasharray="8 7"/>
<line x1="234.14" y1="139.96" x2="236.57" y2="137.46" stroke="#9ca3af" stroke-width="3" stroke-linecap="round" stroke-dasharray="8 7"/>
<line x1="236.57" y1="137.46" x2="239.00" y2="135.07" stroke="#9ca3af" stroke-width="3" stroke-linecap="round" stroke-dasharray="8 7"/>
<line x1="239.00" y1="135.07" x2="241.43" y2="132.78" stroke="#9ca3af" stroke-width="3" stroke-linecap="round" stroke-dasharray="8 7"/>
<line x1="241.43" y1="132.78" x2="243.86" y2="130.59" stroke="#9ca3af" stroke-width="3" stroke-linecap="round" stroke-dasharray="8 7"/>
<line x1="243.86" y1="130.59" x2="246.29" y2="128.51" stroke="#9ca3af" stroke-width="3" stroke-linecap="round" stroke-dasharray="8 7"/>
<line x1="246.29" y1="128.51" x2="248.71" y2="126.53" stroke="#9ca3af" stroke-width="3" stroke-linecap="round" stroke-dasharray="8 7"/>
<line x1="248.71" y1="126.53" x2="251.14" y2="124.67" stroke="#9ca3af" stroke-width="3" stroke-linecap="round" stroke-dasharray="8 7"/>
<line x1="251.14" y1="124.67" x2="253.57" y2="122.91" stroke="#9ca3af" stroke-width="3" stroke-linecap="round" stroke-dasharray="8 7"/>
<line x1="253.57" y1="122.91" x2="256.00" y2="121.26" stroke="#9ca3af" stroke-width="3" stroke-linecap="round" stroke-dasharray="8 7"/>
<line x1="256.00" y1="121.26" x2="258.43" y2="119.72" stroke="#9ca3af" stroke-width="3" stroke-linecap="round" stroke-dasharray="8 7"/>
<line x1="258.43" y1="119.72" x2="260.86" y2="118.29" stroke="#9ca3af" stroke-width="3" stroke-linecap="round" stroke-dasharray="8 7"/>
<line x1="260.86" y1="118.29" x2="263.29" y2="116.97" stroke="#9ca3af" stroke-width="3" stroke-linecap="round" stroke-dasharray="8 7"/>
<line x1="263.29" y1="116.97" x2="265.71" y2="115.77" stroke="#9ca3af" stroke-width="3" stroke-linecap="round" stroke-dasharray="8 7"/>
<line x1="265.71" y1="115.77" x2="268.14" y2="114.67" stroke="#9ca3af" stroke-width="3" stroke-linecap="round" stroke-dasharray="8 7"/>
<line x1="268.14" y1="114.67" x2="270.57" y2="113.70" stroke="#9ca3af" stroke-width="3" stroke-linecap="round" stroke-dasharray="8 7"/>
<line x1="270.57" y1="113.70" x2="273.00" y2="112.83" stroke="#9ca3af" stroke-width="3" stroke-linecap="round" stroke-dasharray="8 7"/>
<line x1="273.00" y1="112.83" x2="275.43" y2="112.08" stroke="#9ca3af" stroke-width="3" stroke-linecap="round" stroke-dasharray="8 7"/>
<line x1="275.43" y1="112.08" x2="277.86" y2="111.45" stroke="#9ca3af" stroke-width="3" stroke-linecap="round" stroke-dasharray="8 7"/>
<line x1="277.86" y1="111.45" x2="280.29" y2="110.93" stroke="#9ca3af" stroke-width="3" stroke-linecap="round" stroke-dasharray="8 7"/>
<line x1="280.29" y1="110.93" x2="282.71" y2="110.52" stroke="#9ca3af" stroke-width="3" stroke-linecap="round" stroke-dasharray="8 7"/>
<line x1="282.71" y1="110.52" x2="285.14" y2="110.23" stroke="#9ca3af" stroke-width="3" stroke-linecap="round" stroke-dasharray="8 7"/>
<line x1="285.14" y1="110.23" x2="287.57" y2="110.06" stroke="#9ca3af" stroke-width="3" stroke-linecap="round" stroke-dasharray="8 7"/>
<line x1="287.57" y1="110.06" x2="290.00" y2="110.00" stroke="#9ca3af" stroke-width="3" stroke-linecap="round" stroke-dasharray="8 7"/>
<line x1="290.00" y1="110.00" x2="292.43" y2="110.06" stroke="#9ca3af" stroke-width="3" stroke-linecap="round" stroke-dasharray="8 7"/>
<line x1="292.43" y1="110.06" x2="294.86" y2="110.23" stroke="#9ca3af" stroke-width="3" stroke-linecap="round" stroke-dasharray="8 7"/>
<line x1="294.86" y1="110.23" x2="297.29" y2="110.52" stroke="#9ca3af" stroke-width="3" stroke-linecap="round" stroke-dasharray="8 7"/>
<line x1="297.29" y1="110.52" x2="299.71" y2="110.93" stroke="#9ca3af" stroke-width="3" stroke-linecap="round" stroke-dasharray="8 7"/>
<line x1="299.71" y1="110.93" x2="302.14" y2="111.45" stroke="#9ca3af" stroke-width="3" stroke-linecap="round" stroke-dasharray="8 7"/>
<line x1="302.14" y1="111.45" x2="304.57" y2="112.08" stroke="#9ca3af" stroke-width="3" stroke-linecap="round" stroke-dasharray="8 7"/>
<line x1="304.57" y1="112.08" x2="307.00" y2="112.83" stroke="#9ca3af" stroke-width="3" stroke-linecap="round" stroke-dasharray="8 7"/>
<line x1="307.00" y1="112.83" x2="309.43" y2="113.70" stroke="#9ca3af" stroke-width="3" stroke-linecap="round" stroke-dasharray="8 7"/>
<line x1="309.43" y1="113.70" x2="311.86" y2="114.67" stroke="#9ca3af" stroke-width="3" stroke-linecap="round" stroke-dasharray="8 7"/>
<line x1="311.86" y1="114.67" x2="314.29" y2="115.77" stroke="#9ca3af" stroke-width="3" stroke-linecap="round" stroke-dasharray="8 7"/>
<line x1="314.29" y1="115.77" x2="316.71" y2="116.97" stroke="#9ca3af" stroke-width="3" stroke-linecap="round" stroke-dasharray="8 7"/>
<line x1="316.71" y1="116.97" x2="319.14" y2="118.29" stroke="#9ca3af" stroke-width="3" stroke-linecap="round" stroke-dasharray="8 7"/>
<line x1="319.14" y1="118.29" x2="321.57" y2="119.72" stroke="#9ca3af" stroke-width="3" stroke-linecap="round" stroke-dasharray="8 7"/>
<line x1="321.57" y1="119.72" x2="324.00" y2="121.26" stroke="#9ca3af" stroke-width="3" stroke-linecap="round" stroke-dasharray="8 7"/>
<line x1="324.00" y1="121.26" x2="326.43" y2="122.91" stroke="#9ca3af" stroke-width="3" stroke-linecap="round" stroke-dasharray="8 7"/>
<line x1="326.43" y1="122.91" x2="328.86" y2="124.67" stroke="#9ca3af" stroke-width="3" stroke-linecap="round" stroke-dasharray="8 7"/>
<line x1="328.86" y1="124.67" x2="331.29" y2="126.53" stroke="#9ca3af" stroke-width="3" stroke-linecap="round" stroke-dasharray="8 7"/>
<line x1="331.29" y1="126.53" x2="333.71" y2="128.51" stroke="#9ca3af" stroke-width="3" stroke-linecap="round" stroke-dasharray="8 7"/>
<line x1="333.71" y1="128.51" x2="336.14" y2="130.59" stroke="#9ca3af" stroke-width="3" stroke-linecap="round" stroke-dasharray="8 7"/>
<line x1="336.14" y1="130.59" x2="338.57" y2="132.78" stroke="#9ca3af" stroke-width="3" stroke-linecap="round" stroke-dasharray="8 7"/>
<line x1="338.57" y1="132.78" x2="341.00" y2="135.07" stroke="#9ca3af" stroke-width="3" stroke-linecap="round" stroke-dasharray="8 7"/>
<line x1="341.00" y1="135.07" x2="343.43" y2="137.46" stroke="#9ca3af" stroke-width="3" stroke-linecap="round" stroke-dasharray="8 7"/>
<line x1="343.43" y1="137.46" x2="345.86" y2="139.96" stroke="#9ca3af" stroke-width="3" stroke-linecap="round" stroke-dasharray="8 7"/>
<line x1="345.86" y1="139.96" x2="348.29" y2="142.56" stroke="#9ca3af" stroke-width="3" stroke-linecap="round" stroke-dasharray="8 7"/>
<line x1="348.29" y1="142.56" x2="350.71" y2="145.25" stroke="#9ca3af" stroke-width="3" stroke-linecap="round" stroke-dasharray="8 7"/>
<line x1="350.71" y1="145.25" x2="353.14" y2="148.05" stroke="#9ca3af" stroke-width="3" stroke-linecap="round" stroke-dasharray="8 7"/>
<line x1="353.14" y1="148.05" x2="355.57" y2="150.94" stroke="#9ca3af" stroke-width="3" stroke-linecap="round" stroke-dasharray="8 7"/>
<line x1="355.57" y1="150.94" x2="358.00" y2="153.93" stroke="#9ca3af" stroke-width="3" stroke-linecap="round" stroke-dasharray="8 7"/>
<line x1="358.00" y1="153.93" x2="360.43" y2="157.01" stroke="#9ca3af" stroke-width="3" stroke-linecap="round" stroke-dasharray="8 7"/>
<line x1="360.43" y1="157.01" x2="362.86" y2="160.18" stroke="#9ca3af" stroke-width="3" stroke-linecap="round" stroke-dasharray="8 7"/>
<line x1="362.86" y1="160.18" x2="365.29" y2="163.44" stroke="#9ca3af" stroke-width="3" stroke-linecap="round" stroke-dasharray="8 7"/>
<line x1="365.29" y1="163.44" x2="367.71" y2="166.79" stroke="#9ca3af" stroke-width="3" stroke-linecap="round" stroke-dasharray="8 7"/>
<line x1="367.71" y1="166.79" x2="370.14" y2="170.23" stroke="#9ca3af" stroke-width="3" stroke-linecap="round" stroke-dasharray="8 7"/>
<line x1="370.14" y1="170.23" x2="372.57" y2="173.76" stroke="#9ca3af" stroke-width="3" stroke-linecap="round" stroke-dasharray="8 7"/>
<line x1="372.57" y1="173.76" x2="375.00" y2="177.37" stroke="#9ca3af" stroke-width="3" stroke-linecap="round" stroke-dasharray="8 7"/>
<line x1="375.00" y1="177.37" x2="377.43" y2="181.06" stroke="#9ca3af" stroke-width="3" stroke-linecap="round" stroke-dasharray="8 7"/>
<line x1="377.43" y1="181.06" x2="379.86" y2="184.83" stroke="#9ca3af" stroke-width="3" stroke-linecap="round" stroke-dasharray="8 7"/>
<line x1="379.86" y1="184.83" x2="382.29" y2="188.67" stroke="#9ca3af" stroke-width="3" stroke-linecap="round" stroke-dasharray="8 7"/>
<line x1="382.29" y1="188.67" x2="384.71" y2="192.60" stroke="#9ca3af" stroke-width="3" stroke-linecap="round" stroke-dasharray="8 7"/>
<line x1="384.71" y1="192.60" x2="387.14" y2="196.60" stroke="#9ca3af" stroke-width="3" stroke-linecap="round" stroke-dasharray="8 7"/>
<line x1="387.14" y1="196.60" x2="389.57" y2="200.67" stroke="#9ca3af" stroke-width="3" stroke-linecap="round" stroke-dasharray="8 7"/>
<line x1="389.57" y1="200.67" x2="392.00" y2="204.81" stroke="#9ca3af" stroke-width="3" stroke-linecap="round" stroke-dasharray="8 7"/>
<line x1="392.00" y1="204.81" x2="394.43" y2="209.02" stroke="#9ca3af" stroke-width="3" stroke-linecap="round" stroke-dasharray="8 7"/>
<line x1="394.43" y1="209.02" x2="396.86" y2="213.29" stroke="#9ca3af" stroke-width="3" stroke-linecap="round" stroke-dasharray="8 7"/>
<line x1="396.86" y1="213.29" x2="399.29" y2="217.63" stroke="#9ca3af" stroke-width="3" stroke-linecap="round" stroke-dasharray="8 7"/>
<line x1="399.29" y1="217.63" x2="401.71" y2="222.03" stroke="#9ca3af" stroke-width="3" stroke-linecap="round" stroke-dasharray="8 7"/>
<line x1="401.71" y1="222.03" x2="404.14" y2="226.49" stroke="#9ca3af" stroke-width="3" stroke-linecap="round" stroke-dasharray="8 7"/>
<line x1="404.14" y1="226.49" x2="406.57" y2="231.01" stroke="#9ca3af" stroke-width="3" stroke-linecap="round" stroke-dasharray="8 7"/>
<line x1="406.57" y1="231.01" x2="409.00" y2="235.58" stroke="#9ca3af" stroke-width="3" stroke-linecap="round" stroke-dasharray="8 7"/>
<line x1="409.00" y1="235.58" x2="411.43" y2="240.21" stroke="#9ca3af" stroke-width="3" stroke-linecap="round" stroke-dasharray="8 7"/>
<line x1="411.43" y1="240.21" x2="413.86" y2="244.88" stroke="#9ca3af" stroke-width="3" stroke-linecap="round" stroke-dasharray="8 7"/>
<line x1="413.86" y1="244.88" x2="416.29" y2="249.60" stroke="#9ca3af" stroke-width="3" stroke-linecap="round" stroke-dasharray="8 7"/>
<line x1="416.29" y1="249.60" x2="418.71" y2="254.37" stroke="#9ca3af" stroke-width="3" stroke-linecap="round" stroke-dasharray="8 7"/>
<line x1="418.71" y1="254.37" x2="421.14" y2="259.18" stroke="#9ca3af" stroke-width="3" stroke-linecap="round" stroke-dasharray="8 7"/>
<line x1="421.14" y1="259.18" x2="423.57" y2="264.04" stroke="#9ca3af" stroke-width="3" stroke-linecap="round" stroke-dasharray="8 7"/>
<line x1="423.57" y1="264.04" x2="426.00" y2="268.93" stroke="#9ca3af" stroke-width="3" stroke-linecap="round" stroke-dasharray="8 7"/>
<line x1="426.00" y1="268.93" x2="428.43" y2="273.85" stroke="#9ca3af" stroke-width="3" stroke-linecap="round" stroke-dasharray="8 7"/>
<line x1="428.43" y1="273.85" x2="430.86" y2="278.81" stroke="#9ca3af" stroke-width="3" stroke-linecap="round" stroke-dasharray="8 7"/>
<line x1="430.86" y1="278.81" x2="433.29" y2="283.80" stroke="#9ca3af" stroke-width="3" stroke-linecap="round" stroke-dasharray="8 7"/>
<line x1="433.29" y1="283.80" x2="435.71" y2="288.82" stroke="#9ca3af" stroke-width="3" stroke-linecap="round" stroke-dasharray="8 7"/>
<line x1="435.71" y1="288.82" x2="438.14" y2="293.86" stroke="#9ca3af" stroke-width="3" stroke-linecap="round" stroke-dasharray="8 7"/>
<line x1="438.14" y1="293.86" x2="440.57" y2="298.93" stroke="#9ca3af" stroke-width="3" stroke-linecap="round" stroke-dasharray="8 7"/>
<line x1="440.57" y1="298.93" x2="443.00" y2="304.02" stroke="#9ca3af" stroke-width="3" stroke-linecap="round" stroke-dasharray="8 7"/>
<line x1="443.00" y1="304.02" x2="445.43" y2="309.13" stroke="#9ca3af" stroke-width="3" stroke-linecap="round" stroke-dasharray="8 7"/>
<line x1="445.43" y1="309.13" x2="447.86" y2="314.25" stroke="#9ca3af" stroke-width="3" stroke-linecap="round" stroke-dasharray="8 7"/>
<line x1="447.86" y1="314.25" x2="450.29" y2="319.38" stroke="#9ca3af" stroke-width="3" stroke-linecap="round" stroke-dasharray="8 7"/>
<line x1="450.29" y1="319.38" x2="452.71" y2="324.53" stroke="#9ca3af" stroke-width="3" stroke-linecap="round" stroke-dasharray="8 7"/>
<line x1="452.71" y1="324.53" x2="455.14" y2="329.68" stroke="#9ca3af" stroke-width="3" stroke-linecap="round" stroke-dasharray="8 7"/>
<line x1="455.14" y1="329.68" x2="457.57" y2="334.84" stroke="#9ca3af" stroke-width="3" stroke-linecap="round" stroke-dasharray="8 7"/>
<line x1="457.57" y1="334.84" x2="460.00" y2="340.00" stroke="#9ca3af" stroke-width="3" stroke-linecap="round" stroke-dasharray="8 7"/>
<line x1="460.00" y1="340.00" x2="462.43" y2="345.16" stroke="#9ca3af" stroke-width="3" stroke-linecap="round" stroke-dasharray="8 7"/>
<line x1="462.43" y1="345.16" x2="464.86" y2="350.32" stroke="#9ca3af" stroke-width="3" stroke-linecap="round" stroke-dasharray="8 7"/>
<line x1="464.86" y1="350.32" x2="467.29" y2="355.47" stroke="#9ca3af" stroke-width="3" stroke-linecap="round" stroke-dasharray="8 7"/>
<line x1="467.29" y1="355.47" x2="469.71" y2="360.62" stroke="#9ca3af" stroke-width="3" stroke-linecap="round" stroke-dasharray="8 7"/>
<line x1="469.71" y1="360.62" x2="472.14" y2="365.75" stroke="#9ca3af" stroke-width="3" stroke-linecap="round" stroke-dasharray="8 7"/>
<line x1="472.14" y1="365.75" x2="474.57" y2="370.87" stroke="#9ca3af" stroke-width="3" stroke-linecap="round" stroke-dasharray="8 7"/>
<line x1="474.57" y1="370.87" x2="477.00" y2="375.98" stroke="#9ca3af" stroke-width="3" stroke-linecap="round" stroke-dasharray="8 7"/>
<line x1="477.00" y1="375.98" x2="479.43" y2="381.07" stroke="#9ca3af" stroke-width="3" stroke-linecap="round" stroke-dasharray="8 7"/>
<line x1="479.43" y1="381.07" x2="481.86" y2="386.14" stroke="#9ca3af" stroke-width="3" stroke-linecap="round" stroke-dasharray="8 7"/>
<line x1="481.86" y1="386.14" x2="484.29" y2="391.18" stroke="#9ca3af" stroke-width="3" stroke-linecap="round" stroke-dasharray="8 7"/>
<line x1="484.29" y1="391.18" x2="486.71" y2="396.20" stroke="#9ca3af" stroke-width="3" stroke-linecap="round" stroke-dasharray="8 7"/>
<line x1="486.71" y1="396.20" x2="489.14" y2="401.19" stroke="#9ca3af" stroke-width="3" stroke-linecap="round" stroke-dasharray="8 7"/>
<line x1="489.14" y1="401.19" x2="491.57" y2="406.15" stroke="#9ca3af" stroke-width="3" stroke-linecap="round" stroke-dasharray="8 7"/>
<line x1="491.57" y1="406.15" x2="494.00" y2="411.07" stroke="#9ca3af" stroke-width="3" stroke-linecap="round" stroke-dasharray="8 7"/>
<line x1="494.00" y1="411.07" x2="496.43" y2="415.96" stroke="#9ca3af" stroke-width="3" stroke-linecap="round" stroke-dasharray="8 7"/>
<line x1="496.43" y1="415.96" x2="498.86" y2="420.82" stroke="#9ca3af" stroke-width="3" stroke-linecap="round" stroke-dasharray="8 7"/>
<line x1="498.86" y1="420.82" x2="501.29" y2="425.63" stroke="#9ca3af" stroke-width="3" stroke-linecap="round" stroke-dasharray="8 7"/>
<line x1="501.29" y1="425.63" x2="503.71" y2="430.40" stroke="#9ca3af" stroke-width="3" stroke-linecap="round" stroke-dasharray="8 7"/>
<line x1="503.71" y1="430.40" x2="506.14" y2="435.12" stroke="#9ca3af" stroke-width="3" stroke-linecap="round" stroke-dasharray="8 7"/>
<line x1="506.14" y1="435.12" x2="508.57" y2="439.79" stroke="#9ca3af" stroke-width="3" stroke-linecap="round" stroke-dasharray="8 7"/>
<line x1="508.57" y1="439.79" x2="511.00" y2="444.42" stroke="#9ca3af" stroke-width="3" stroke-linecap="round" stroke-dasharray="8 7"/>
<line x1="511.00" y1="444.42" x2="513.43" y2="448.99" stroke="#9ca3af" stroke-width="3" stroke-linecap="round" stroke-dasharray="8 7"/>
<line x1="513.43" y1="448.99" x2="515.86" y2="453.51" stroke="#9ca3af" stroke-width="3" stroke-linecap="round" stroke-dasharray="8 7"/>
<line x1="515.86" y1="453.51" x2="518.29" y2="457.97" stroke="#9ca3af" stroke-width="3" stroke-linecap="round" stroke-dasharray="8 7"/>
<line x1="518.29" y1="457.97" x2="520.71" y2="462.37" stroke="#9ca3af" stroke-width="3" stroke-linecap="round" stroke-dasharray="8 7"/>
<line x1="520.71" y1="462.37" x2="523.14" y2="466.71" stroke="#9ca3af" stroke-width="3" stroke-linecap="round" stroke-dasharray="8 7"/>
<line x1="523.14" y1="466.71" x2="525.57" y2="470.98" stroke="#9ca3af" stroke-width="3" stroke-linecap="round" stroke-dasharray="8 7"/>
<line x1="525.57" y1="470.98" x2="528.00" y2="475.19" stroke="#9ca3af" stroke-width="3" stroke-linecap="round" stroke-dasharray="8 7"/>
<line x1="528.00" y1="475.19" x2="530.43" y2="479.33" stroke="#9ca3af" stroke-width="3" stroke-linecap="round" stroke-dasharray="8 7"/>
<line x1="530.43" y1="479.33" x2="532.86" y2="483.40" stroke="#9ca3af" stroke-width="3" stroke-linecap="round" stroke-dasharray="8 7"/>
<line x1="532.86" y1="483.40" x2="535.29" y2="487.40" stroke="#9ca3af" stroke-width="3" stroke-linecap="round" stroke-dasharray="8 7"/>
<line x1="535.29" y1="487.40" x2="537.71" y2="491.33" stroke="#9ca3af" stroke-width="3" stroke-linecap="round" stroke-dasharray="8 7"/>
<line x1="537.71" y1="491.33" x2="540.14" y2="495.17" stroke="#9ca3af" stroke-width="3" stroke-linecap="round" stroke-dasharray="8 7"/>
<line x1="540.14" y1="495.17" x2="542.57" y2="498.94" stroke="#9ca3af" stroke-width="3" stroke-linecap="round" stroke-dasharray="8 7"/>
<line x1="542.57" y1="498.94" x2="545.00" y2="502.63" stroke="#9ca3af" stroke-width="3" stroke-linecap="round" stroke-dasharray="8 7"/>
<line x1="545.00" y1="502.63" x2="547.43" y2="506.24" stroke="#9ca3af" stroke-width="3" stroke-linecap="round" stroke-dasharray="8 7"/>
<line x1="547.43" y1="506.24" x2="549.86" y2="509.77" stroke="#9ca3af" stroke-width="3" stroke-linecap="round" stroke-dasharray="8 7"/>
<line x1="549.86" y1="509.77" x2="552.29" y2="513.21" stroke="#9ca3af" stroke-width="3" stroke-linecap="round" stroke-dasharray="8 7"/>
<line x1="552.29" y1="513.21" x2="554.71" y2="516.56" stroke="#9ca3af" stroke-width="3" stroke-linecap="round" stroke-dasharray="8 7"/>
<line x1="554.71" y1="516.56" x2="557.14" y2="519.82" stroke="#9ca3af" stroke-width="3" stroke-linecap="round" stroke-dasharray="8 7"/>
<line x1="557.14" y1="519.82" x2="559.57" y2="522.99" stroke="#9ca3af" stroke-width="3" stroke-linecap="round" stroke-dasharray="8 7"/>
<line x1="559.57" y1="522.99" x2="562.00" y2="526.07" stroke="#9ca3af" stroke-width="3" stroke-linecap="round" stroke-dasharray="8 7"/>
<line x1="562.00" y1="526.07" x2="564.43" y2="529.06" stroke="#9ca3af" stroke-width="3" stroke-linecap="round" stroke-dasharray="8 7"/>
<line x1="564.43" y1="529.06" x2="566.86" y2="531.95" stroke="#9ca3af" stroke-width="3" stroke-linecap="round" stroke-dasharray="8 7"/>
<line x1="566.86" y1="531.95" x2="569.29" y2="534.75" stroke="#9ca3af" stroke-width="3" stroke-linecap="round" stroke-dasharray="8 7"/>
<line x1="569.29" y1="534.75" x2="571.71" y2="537.44" stroke="#9ca3af" stroke-width="3" stroke-linecap="round" stroke-dasharray="8 7"/>
<line x1="571.71" y1="537.44" x2="574.14" y2="540.04" stroke="#9ca3af" stroke-width="3" stroke-linecap="round" stroke-dasharray="8 7"/>
<line x1="574.14" y1="540.04" x2="576.57" y2="542.54" stroke="#9ca3af" stroke-width="3" stroke-linecap="round" stroke-dasharray="8 7"/>
<line x1="576.57" y1="542.54" x2="579.00" y2="544.93" stroke="#9ca3af" stroke-width="3" stroke-linecap="round" stroke-dasharray="8 7"/>
<line x1="579.00" y1="544.93" x2="581.43" y2="547.22" stroke="#9ca3af" stroke-width="3" stroke-linecap="round" stroke-dasharray="8 7"/>
<line x1="581.43" y1="547.22" x2="583.86" y2="549.41" stroke="#9ca3af" stroke-width="3" stroke-linecap="round" stroke-dasharray="8 7"/>
<line x1="583.86" y1="549.41" x2="586.29" y2="551.49" stroke="#9ca3af" stroke-width="3" stroke-linecap="round" stroke-dasharray="8 7"/>
<line x1="586.29" y1="551.49" x2="588.71" y2="553.47" stroke="#9ca3af" stroke-width="3" stroke-linecap="round" stroke-dasharray="8 7"/>
<line x1="588.71" y1="553.47" x2="591.14" y2="555.33" stroke="#9ca3af" stroke-width="3" stroke-linecap="round" stroke-dasharray="8 7"/>
<line x1="591.14" y1="555.33" x2="593.57" y2="557.09" stroke="#9ca3af" stroke-width="3" stroke-linecap="round" stroke-dasharray="8 7"/>
<line x1="593.57" y1="557.09" x2="596.00" y2="558.74" stroke="#9ca3af" stroke-width="3" stroke-linecap="round" stroke-dasharray="8 7"/>
<line x1="596.00" y1="558.74" x2="598.43" y2="560.28" stroke="#9ca3af" stroke-width="3" stroke-linecap="round" stroke-dasharray="8 7"/>
<line x1="598.43" y1="560.28" x2="600.86" y2="561.71" stroke="#9ca3af" stroke-width="3" stroke-linecap="round" stroke-dasharray="8 7"/>
<line x1="600.86" y1="561.71" x2="603.29" y2="563.03" stroke="#9ca3af" stroke-width="3" stroke-linecap="round" stroke-dasharray="8 7"/>
<line x1="603.29" y1="563.03" x2="605.71" y2="564.23" stroke="#9ca3af" stroke-width="3" stroke-linecap="round" stroke-dasharray="8 7"/>
<line x1="605.71" y1="564.23" x2="608.14" y2="565.33" stroke="#9ca3af" stroke-width="3" stroke-linecap="round" stroke-dasharray="8 7"/>
<line x1="608.14" y1="565.33" x2="610.57" y2="566.30" stroke="#9ca3af" stroke-width="3" stroke-linecap="round" stroke-dasharray="8 7"/>
<line x1="610.57" y1="566.30" x2="613.00" y2="567.17" stroke="#9ca3af" stroke-width="3" stroke-linecap="round" stroke-dasharray="8 7"/>
<line x1="613.00" y1="567.17" x2="615.43" y2="567.92" stroke="#9ca3af" stroke-width="3" stroke-linecap="round" stroke-dasharray="8 7"/>
<line x1="615.43" y1="567.92" x2="617.86" y2="568.55" stroke="#9ca3af" stroke-width="3" stroke-linecap="round" stroke-dasharray="8 7"/>
<line x1="617.86" y1="568.55" x2="620.29" y2="569.07" stroke="#9ca3af" stroke-width="3" stroke-linecap="round" stroke-dasharray="8 7"/>
<line x1="620.29" y1="569.07" x2="622.71" y2="569.48" stroke="#9ca3af" stroke-width="3" stroke-linecap="round" stroke-dasharray="8 7"/>
<line x1="622.71" y1="569.48" x2="625.14" y2="569.77" stroke="#9ca3af" stroke-width="3" stroke-linecap="round" stroke-dasharray="8 7"/>
<line x1="625.14" y1="569.77" x2="627.57" y2="569.94" stroke="#9ca3af" stroke-width="3" stroke-linecap="round" stroke-dasharray="8 7"/>
<line x1="627.57" y1="569.94" x2="630.00" y2="570.00" stroke="#9ca3af" stroke-width="3" stroke-linecap="round" stroke-dasharray="8 7"/>
<line x1="630.00" y1="570.00" x2="632.43" y2="569.94" stroke="#9ca3af" stroke-width="3" stroke-linecap="round" stroke-dasharray="8 7"/>
<line x1="632.43" y1="569.94" x2="634.86" y2="569.77" stroke="#9ca3af" stroke-width="3" stroke-linecap="round" stroke-dasharray="8 7"/>
<line x1="634.86" y1="569.77" x2="637.29" y2="569.48" stroke="#9ca3af" stroke-width="3" stroke-linecap="round" stroke-dasharray="8 7"/>
<line x1="637.29" y1="569.48" x2="639.71" y2="569.07" stroke="#9ca3af" stroke-width="3" stroke-linecap="round" stroke-dasharray="8 7"/>
<line x1="639.71" y1="569.07" x2="642.14" y2="568.55" stroke="#9ca3af" stroke-width="3" stroke-linecap="round" stroke-dasharray="8 7"/>
<line x1="642.14" y1="568.55" x2="644.57" y2="567.92" stroke="#9ca3af" stroke-width="3" stroke-linecap="round" stroke-dasharray="8 7"/>
<line x1="644.57" y1="567.92" x2="647.00" y2="567.17" stroke="#9ca3af" stroke-width="3" stroke-linecap="round" stroke-dasharray="8 7"/>
<line x1="647.00" y1="567.17" x2="649.43" y2="566.30" stroke="#9ca3af" stroke-width="3" stroke-linecap="round" stroke-dasharray="8 7"/>
<line x1="649.43" y1="566.30" x2="651.86" y2="565.33" stroke="#9ca3af" stroke-width="3" stroke-linecap="round" stroke-dasharray="8 7"/>
<line x1="651.86" y1="565.33" x2="654.29" y2="564.23" stroke="#9ca3af" stroke-width="3" stroke-linecap="round" stroke-dasharray="8 7"/>
<line x1="654.29" y1="564.23" x2="656.71" y2="563.03" stroke="#9ca3af" stroke-width="3" stroke-linecap="round" stroke-dasharray="8 7"/>
<line x1="656.71" y1="563.03" x2="659.14" y2="561.71" stroke="#9ca3af" stroke-width="3" stroke-linecap="round" stroke-dasharray="8 7"/>
<line x1="659.14" y1="561.71" x2="661.57" y2="560.28" stroke="#9ca3af" stroke-width="3" stroke-linecap="round" stroke-dasharray="8 7"/>
<line x1="661.57" y1="560.28" x2="664.00" y2="558.74" stroke="#9ca3af" stroke-width="3" stroke-linecap="round" stroke-dasharray="8 7"/>
<line x1="664.00" y1="558.74" x2="666.43" y2="557.09" stroke="#9ca3af" stroke-width="3" stroke-linecap="round" stroke-dasharray="8 7"/>
<line x1="666.43" y1="557.09" x2="668.86" y2="555.33" stroke="#9ca3af" stroke-width="3" stroke-linecap="round" stroke-dasharray="8 7"/>
<line x1="668.86" y1="555.33" x2="671.29" y2="553.47" stroke="#9ca3af" stroke-width="3" stroke-linecap="round" stroke-dasharray="8 7"/>
<line x1="671.29" y1="553.47" x2="673.71" y2="551.49" stroke="#9ca3af" stroke-width="3" stroke-linecap="round" stroke-dasharray="8 7"/>
<line x1="673.71" y1="551.49" x2="676.14" y2="549.41" stroke="#9ca3af" stroke-width="3" stroke-linecap="round" stroke-dasharray="8 7"/>
<line x1="676.14" y1="549.41" x2="678.57" y2="547.22" stroke="#9ca3af" stroke-width="3" stroke-linecap="round" stroke-dasharray="8 7"/>
<line x1="678.57" y1="547.22" x2="681.00" y2="544.93" stroke="#9ca3af" stroke-width="3" stroke-linecap="round" stroke-dasharray="8 7"/>
<line x1="681.00" y1="544.93" x2="683.43" y2="542.54" stroke="#9ca3af" stroke-width="3" stroke-linecap="round" stroke-dasharray="8 7"/>
<line x1="683.43" y1="542.54" x2="685.86" y2="540.04" stroke="#9ca3af" stroke-width="3" stroke-linecap="round" stroke-dasharray="8 7"/>
<line x1="685.86" y1="540.04" x2="688.29" y2="537.44" stroke="#9ca3af" stroke-width="3" stroke-linecap="round" stroke-dasharray="8 7"/>
<line x1="688.29" y1="537.44" x2="690.71" y2="534.75" stroke="#9ca3af" stroke-width="3" stroke-linecap="round" stroke-dasharray="8 7"/>
<line x1="690.71" y1="534.75" x2="693.14" y2="531.95" stroke="#9ca3af" stroke-width="3" stroke-linecap="round" stroke-dasharray="8 7"/>
<line x1="693.14" y1="531.95" x2="695.57" y2="529.06" stroke="#9ca3af" stroke-width="3" stroke-linecap="round" stroke-dasharray="8 7"/>
<line x1="695.57" y1="529.06" x2="698.00" y2="526.07" stroke="#9ca3af" stroke-width="3" stroke-linecap="round" stroke-dasharray="8 7"/>
<line x1="698.00" y1="526.07" x2="700.43" y2="522.99" stroke="#9ca3af" stroke-width="3" stroke-linecap="round" stroke-dasharray="8 7"/>
<line x1="700.43" y1="522.99" x2="702.86" y2="519.82" stroke="#9ca3af" stroke-width="3" stroke-linecap="round" stroke-dasharray="8 7"/>
<line x1="702.86" y1="519.82" x2="705.29" y2="516.56" stroke="#9ca3af" stroke-width="3" stroke-linecap="round" stroke-dasharray="8 7"/>
<line x1="705.29" y1="516.56" x2="707.71" y2="513.21" stroke="#9ca3af" stroke-width="3" stroke-linecap="round" stroke-dasharray="8 7"/>
<line x1="707.71" y1="513.21" x2="710.14" y2="509.77" stroke="#9ca3af" stroke-width="3" stroke-linecap="round" stroke-dasharray="8 7"/>
<line x1="710.14" y1="509.77" x2="712.57" y2="506.24" stroke="#9ca3af" stroke-width="3" stroke-linecap="round" stroke-dasharray="8 7"/>
<line x1="712.57" y1="506.24" x2="715.00" y2="502.63" stroke="#9ca3af" stroke-width="3" stroke-linecap="round" stroke-dasharray="8 7"/>
<line x1="715.00" y1="502.63" x2="717.43" y2="498.94" stroke="#9ca3af" stroke-width="3" stroke-linecap="round" stroke-dasharray="8 7"/>
<line x1="717.43" y1="498.94" x2="719.86" y2="495.17" stroke="#9ca3af" stroke-width="3" stroke-linecap="round" stroke-dasharray="8 7"/>
<line x1="719.86" y1="495.17" x2="722.29" y2="491.33" stroke="#9ca3af" stroke-width="3" stroke-linecap="round" stroke-dasharray="8 7"/>
<line x1="722.29" y1="491.33" x2="724.71" y2="487.40" stroke="#9ca3af" stroke-width="3" stroke-linecap="round" stroke-dasharray="8 7"/>
<line x1="724.71" y1="487.40" x2="727.14" y2="483.40" stroke="#9ca3af" stroke-width="3" stroke-linecap="round" stroke-dasharray="8 7"/>
<line x1="727.14" y1="483.40" x2="729.57" y2="479.33" stroke="#9ca3af" stroke-width="3" stroke-linecap="round" stroke-dasharray="8 7"/>
<line x1="729.57" y1="479.33" x2="732.00" y2="475.19" stroke="#9ca3af" stroke-width="3" stroke-linecap="round" stroke-dasharray="8 7"/>
<line x1="732.00" y1="475.19" x2="734.43" y2="470.98" stroke="#9ca3af" stroke-width="3" stroke-linecap="round" stroke-dasharray="8 7"/>
<line x1="734.43" y1="470.98" x2="736.86" y2="466.71" stroke="#9ca3af" stroke-width="3" stroke-linecap="round" stroke-dasharray="8 7"/>
<line x1="736.86" y1="466.71" x2="739.29" y2="462.37" stroke="#9ca3af" stroke-width="3" stroke-linecap="round" stroke-dasharray="8 7"/>
<line x1="739.29" y1="462.37" x2="741.71" y2="457.97" stroke="#9ca3af" stroke-width="3" stroke-linecap="round" stroke-dasharray="8 7"/>
<line x1="741.71" y1="457.97" x2="744.14" y2="453.51" stroke="#9ca3af" stroke-width="3" stroke-linecap="round" stroke-dasharray="8 7"/>
<line x1="744.14" y1="453.51" x2="746.57" y2="448.99" stroke="#9ca3af" stroke-width="3" stroke-linecap="round" stroke-dasharray="8 7"/>
<line x1="746.57" y1="448.99" x2="749.00" y2="444.42" stroke="#9ca3af" stroke-width="3" stroke-linecap="round" stroke-dasharray="8 7"/>
<line x1="749.00" y1="444.42" x2="751.43" y2="439.79" stroke="#9ca3af" stroke-width="3" stroke-linecap="round" stroke-dasharray="8 7"/>
<line x1="751.43" y1="439.79" x2="753.86" y2="435.12" stroke="#9ca3af" stroke-width="3" stroke-linecap="round" stroke-dasharray="8 7"/>
<line x1="753.86" y1="435.12" x2="756.29" y2="430.40" stroke="#9ca3af" stroke-width="3" stroke-linecap="round" stroke-dasharray="8 7"/>
<line x1="756.29" y1="430.40" x2="758.71" y2="425.63" stroke="#9ca3af" stroke-width="3" stroke-linecap="round" stroke-dasharray="8 7"/>
<line x1="758.71" y1="425.63" x2="761.14" y2="420.82" stroke="#9ca3af" stroke-width="3" stroke-linecap="round" stroke-dasharray="8 7"/>
<line x1="761.14" y1="420.82" x2="763.57" y2="415.96" stroke="#9ca3af" stroke-width="3" stroke-linecap="round" stroke-dasharray="8 7"/>
<line x1="763.57" y1="415.96" x2="766.00" y2="411.07" stroke="#9ca3af" stroke-width="3" stroke-linecap="round" stroke-dasharray="8 7"/>
<line x1="766.00" y1="411.07" x2="768.43" y2="406.15" stroke="#9ca3af" stroke-width="3" stroke-linecap="round" stroke-dasharray="8 7"/>
<line x1="768.43" y1="406.15" x2="770.86" y2="401.19" stroke="#9ca3af" stroke-width="3" stroke-linecap="round" stroke-dasharray="8 7"/>
<line x1="770.86" y1="401.19" x2="773.29" y2="396.20" stroke="#9ca3af" stroke-width="3" stroke-linecap="round" stroke-dasharray="8 7"/>
<line x1="773.29" y1="396.20" x2="775.71" y2="391.18" stroke="#9ca3af" stroke-width="3" stroke-linecap="round" stroke-dasharray="8 7"/>
<line x1="775.71" y1="391.18" x2="778.14" y2="386.14" stroke="#9ca3af" stroke-width="3" stroke-linecap="round" stroke-dasharray="8 7"/>
<line x1="778.14" y1="386.14" x2="780.57" y2="381.07" stroke="#9ca3af" stroke-width="3" stroke-linecap="round" stroke-dasharray="8 7"/>
<line x1="780.57" y1="381.07" x2="783.00" y2="375.98" stroke="#9ca3af" stroke-width="3" stroke-linecap="round" stroke-dasharray="8 7"/>
<line x1="783.00" y1="375.98" x2="785.43" y2="370.87" stroke="#9ca3af" stroke-width="3" stroke-linecap="round" stroke-dasharray="8 7"/>
<line x1="785.43" y1="370.87" x2="787.86" y2="365.75" stroke="#9ca3af" stroke-width="3" stroke-linecap="round" stroke-dasharray="8 7"/>
<line x1="787.86" y1="365.75" x2="790.29" y2="360.62" stroke="#9ca3af" stroke-width="3" stroke-linecap="round" stroke-dasharray="8 7"/>
<line x1="790.29" y1="360.62" x2="792.71" y2="355.47" stroke="#9ca3af" stroke-width="3" stroke-linecap="round" stroke-dasharray="8 7"/>
<line x1="792.71" y1="355.47" x2="795.14" y2="350.32" stroke="#9ca3af" stroke-width="3" stroke-linecap="round" stroke-dasharray="8 7"/>
<line x1="795.14" y1="350.32" x2="797.57" y2="345.16" stroke="#9ca3af" stroke-width="3" stroke-linecap="round" stroke-dasharray="8 7"/>
<line x1="797.57" y1="345.16" x2="800.00" y2="340.00" stroke="#9ca3af" stroke-width="3" stroke-linecap="round" stroke-dasharray="8 7"/>
<text x="762" y="123.95953937419006" text-anchor="middle" dominant-baseline="middle" font-family="Cambria Math,Cambria,Times New Roman,serif" font-size="22" fill="#9ca3af" style="font-style:italic;"><tspan>v</tspan><tspan baseline-shift="sub" font-size="70%">i</tspan></text>
<polyline points="120.00,248.00 122.43,248.00 124.86,248.00 127.29,248.00 129.71,248.00 132.14,248.00 134.57,248.00 137.00,248.00 139.43,248.00 141.86,248.00 144.29,248.00 146.71,248.00 149.14,248.00 151.57,248.00 154.00,248.00 156.43,248.00 158.86,248.00 161.29,248.00 163.71,248.00 166.14,244.88 168.57,240.21 171.00,235.58 173.43,231.01 175.86,226.49 178.29,222.03 180.71,217.63 183.14,213.29 185.57,209.02 188.00,204.81 190.43,200.67 192.86,196.60 195.29,192.60 197.71,188.67 200.14,186.67 202.57,186.67 205.00,186.67 207.43,186.67 209.86,186.67 212.29,186.67 214.71,186.67 217.14,186.67 219.57,186.67 222.00,186.67 224.43,186.67 226.86,186.67 229.29,186.67 231.71,186.67 234.14,186.67 236.57,186.67 239.00,186.67 241.43,186.67 243.86,186.67 246.29,186.67 248.71,186.67 251.14,186.67 253.57,186.67 256.00,186.67 258.43,186.67 260.86,186.67 263.29,186.67 265.71,186.67 268.14,186.67 270.57,186.67 273.00,186.67 275.43,186.67 277.86,186.67 280.29,186.67 282.71,186.67 285.14,186.67 287.57,186.67 290.00,186.67 292.43,186.67 294.86,186.67 297.29,186.67 299.71,186.67 302.14,186.67 304.57,186.67 307.00,186.67 309.43,186.67 311.86,186.67 314.29,186.67 316.71,186.67 319.14,186.67 321.57,186.67 324.00,186.67 326.43,186.67 328.86,186.67 331.29,186.67 333.71,186.67 336.14,186.67 338.57,186.67 341.00,186.67 343.43,186.67 345.86,186.67 348.29,186.67 350.71,186.67 353.14,186.67 355.57,186.67 358.00,186.67 360.43,186.67 362.86,186.67 365.29,186.67 367.71,186.67 370.14,186.67 372.57,186.67 375.00,186.67 377.43,186.67 379.86,186.67 382.29,188.67 384.71,192.60 387.14,196.60 389.57,200.67 392.00,204.81 394.43,209.02 396.86,213.29 399.29,217.63 401.71,222.03 404.14,226.49 406.57,231.01 409.00,235.58 411.43,240.21 413.86,244.88 416.29,248.00 418.71,248.00 421.14,248.00 423.57,248.00 426.00,248.00 428.43,248.00 430.86,248.00 433.29,248.00 435.71,248.00 438.14,248.00 440.57,248.00 443.00,248.00 445.43,248.00 447.86,248.00 450.29,248.00 452.71,248.00 455.14,248.00 457.57,248.00 460.00,248.00 462.43,248.00 464.86,248.00 467.29,248.00 469.71,248.00 472.14,248.00 474.57,248.00 477.00,248.00 479.43,248.00 481.86,248.00 484.29,248.00 486.71,248.00 489.14,248.00 491.57,248.00 494.00,248.00 496.43,248.00 498.86,248.00 501.29,248.00 503.71,248.00 506.14,248.00 508.57,248.00 511.00,248.00 513.43,248.00 515.86,248.00 518.29,248.00 520.71,248.00 523.14,248.00 525.57,248.00 528.00,248.00 530.43,248.00 532.86,248.00 535.29,248.00 537.71,248.00 540.14,248.00 542.57,248.00 545.00,248.00 547.43,248.00 549.86,248.00 552.29,248.00 554.71,248.00 557.14,248.00 559.57,248.00 562.00,248.00 564.43,248.00 566.86,248.00 569.29,248.00 571.71,248.00 574.14,248.00 576.57,248.00 579.00,248.00 581.43,248.00 583.86,248.00 586.29,248.00 588.71,248.00 591.14,248.00 593.57,248.00 596.00,248.00 598.43,248.00 600.86,248.00 603.29,248.00 605.71,248.00 608.14,248.00 610.57,248.00 613.00,248.00 615.43,248.00 617.86,248.00 620.29,248.00 622.71,248.00 625.14,248.00 627.57,248.00 630.00,248.00 632.43,248.00 634.86,248.00 637.29,248.00 639.71,248.00 642.14,248.00 644.57,248.00 647.00,248.00 649.43,248.00 651.86,248.00 654.29,248.00 656.71,248.00 659.14,248.00 661.57,248.00 664.00,248.00 666.43,248.00 668.86,248.00 671.29,248.00 673.71,248.00 676.14,248.00 678.57,248.00 681.00,248.00 683.43,248.00 685.86,248.00 688.29,248.00 690.71,248.00 693.14,248.00 695.57,248.00 698.00,248.00 700.43,248.00 702.86,248.00 705.29,248.00 707.71,248.00 710.14,248.00 712.57,248.00 715.00,248.00 717.43,248.00 719.86,248.00 722.29,248.00 724.71,248.00 727.14,248.00 729.57,248.00 732.00,248.00 734.43,248.00 736.86,248.00 739.29,248.00 741.71,248.00 744.14,248.00 746.57,248.00 749.00,248.00 751.43,248.00 753.86,248.00 756.29,248.00 758.71,248.00 761.14,248.00 763.57,248.00 766.00,248.00 768.43,248.00 770.86,248.00 773.29,248.00 775.71,248.00 778.14,248.00 780.57,248.00 783.00,248.00 785.43,248.00 787.86,248.00 790.29,248.00 792.71,248.00 795.14,248.00 797.57,248.00 800.00,248.00" fill="none" stroke="#2563eb" stroke-width="3" stroke-linejoin="round" stroke-linecap="round"/>
<text x="762" y="170.66666666666669" text-anchor="middle" dominant-baseline="middle" font-family="Cambria Math,Cambria,Times New Roman,serif" font-size="22" fill="#2563eb" style="font-style:italic;"><tspan>v</tspan><tspan baseline-shift="sub" font-size="70%">o</tspan></text>
<line x1="120.00" y1="110.00" x2="250.00" y2="110.00" stroke="#9ca3af" stroke-width="1.1" stroke-linecap="round" stroke-dasharray="5 5"/>
<text x="108" y="110.0" text-anchor="end" dominant-baseline="middle" font-family="Cambria Math,Cambria,Times New Roman,serif" font-size="19" fill="#6b7280" style="">15</text>
<line x1="120.00" y1="186.67" x2="250.00" y2="186.67" stroke="#9ca3af" stroke-width="1.1" stroke-linecap="round" stroke-dasharray="5 5"/>
<text x="108" y="186.66666666666666" text-anchor="end" dominant-baseline="middle" font-family="Cambria Math,Cambria,Times New Roman,serif" font-size="19" fill="#6b7280" style="">10</text>
<line x1="120.00" y1="248.00" x2="250.00" y2="248.00" stroke="#9ca3af" stroke-width="1.1" stroke-linecap="round" stroke-dasharray="5 5"/>
<text x="108" y="248.0" text-anchor="end" dominant-baseline="middle" font-family="Cambria Math,Cambria,Times New Roman,serif" font-size="19" fill="#6b7280" style="">6</text>
<text x="450.0" y="566" text-anchor="middle" dominant-baseline="middle" font-family="SimSun,STSong,serif" font-size="22" fill="#17202a" style="">图 1.4.13　题 1.3.5 的解</text>
</svg>
