<svg xmlns="http://www.w3.org/2000/svg" width="720" height="620" viewBox="0 0 720 620">
<title>图1.4.2 万用表内部等效电路</title>
<rect width="100%" height="100%" fill="white"/>
<rect x="150" y="80" width="330" height="410" fill="white" stroke="#9ca3af" stroke-width="2"/>
<polyline points="220.00,440.00 220.00,180.00 285.00,180.00" fill="none" stroke="#17202a" stroke-width="2.4" stroke-linejoin="round" stroke-linecap="round"/>
<line x1="220.00" y1="240.00" x2="220.00" y2="270.25" stroke="#17202a" stroke-width="2.2" stroke-linecap="round"/>
<rect x="206" y="270.25" width="28" height="49.5" fill="white" stroke="#17202a" stroke-width="2.2"/>
<line x1="220.00" y1="319.75" x2="220.00" y2="350.00" stroke="#17202a" stroke-width="2.2" stroke-linecap="round"/>
<text x="244" y="295.0" text-anchor="start" dominant-baseline="middle" font-family="Cambria Math,Cambria,Times New Roman,serif" font-size="21" fill="#17202a" style="">Rₙ</text>
<line x1="220.00" y1="350.00" x2="220.00" y2="383.00" stroke="#17202a" stroke-width="2.2" stroke-linecap="round"/>
<line x1="202.00" y1="388.00" x2="238.00" y2="388.00" stroke="#17202a" stroke-width="2.2" stroke-linecap="round"/>
<line x1="209.00" y1="402.00" x2="231.00" y2="402.00" stroke="#17202a" stroke-width="2.2" stroke-linecap="round"/>
<line x1="220.00" y1="407.00" x2="220.00" y2="440.00" stroke="#17202a" stroke-width="2.2" stroke-linecap="round"/>
<text x="248" y="395.0" text-anchor="start" dominant-baseline="middle" font-family="Cambria Math,Cambria,Times New Roman,serif" font-size="21" fill="#17202a" style="">V</text>
<circle cx="340" cy="180" r="34" fill="white" stroke="#17202a" stroke-width="2.2"/>
<line x1="340.00" y1="200.00" x2="340.00" y2="162.00" stroke="#6b7280" stroke-width="2.2" stroke-linecap="round"/>
<polygon points="340.00,162.00 344.82,169.60 335.18,169.60" fill="#6b7280" stroke="#6b7280" stroke-width="1.3" stroke-linejoin="round"/>
<line x1="285.00" y1="180.00" x2="306.00" y2="180.00" stroke="#17202a" stroke-width="2.2" stroke-linecap="round"/>
<line x1="374.00" y1="180.00" x2="560.00" y2="180.00" stroke="#17202a" stroke-width="2.2" stroke-linecap="round"/>
<line x1="220.00" y1="440.00" x2="560.00" y2="440.00" stroke="#17202a" stroke-width="2.2" stroke-linecap="round"/>
<circle cx="560" cy="180" r="4.5" fill="white" stroke="#17202a" stroke-width="1.4"/>
<circle cx="560" cy="440" r="4.5" fill="white" stroke="#17202a" stroke-width="1.4"/>
<text x="595" y="180" text-anchor="middle" dominant-baseline="middle" font-family="Cambria Math,Cambria,Times New Roman,serif" font-size="28" fill="#17202a" style="">+</text>
<text x="595" y="440" text-anchor="middle" dominant-baseline="middle" font-family="Cambria Math,Cambria,Times New Roman,serif" font-size="30" fill="#17202a" style="">−</text>
<text x="360.0" y="596" text-anchor="middle" dominant-baseline="middle" font-family="SimSun,STSong,serif" font-size="22" fill="#17202a" style="">图 1.4.2　万用表内部等效电路</text>
</svg>
