<svg xmlns="http://www.w3.org/2000/svg" width="1050" height="880" viewBox="0 0 1050 880">
<title>图1.4.9 桥式整流波形</title>
<rect width="100%" height="100%" fill="white"/>
<line x1="120.00" y1="220.00" x2="970.00" y2="220.00" stroke="#6b7280" stroke-width="1.8" stroke-linecap="round"/>
<polygon points="970.00,220.00 962.40,224.82 962.40,215.18" fill="#6b7280" stroke="#6b7280" stroke-width="1.3" stroke-linejoin="round"/>
<line x1="120.00" y1="310.00" x2="120.00" y2="110.00" stroke="#6b7280" stroke-width="1.8" stroke-linecap="round"/>
<polygon points="120.00,110.00 124.82,117.60 115.18,117.60" fill="#6b7280" stroke="#6b7280" stroke-width="1.3" stroke-linejoin="round"/>
<text x="104" y="116" text-anchor="end" dominant-baseline="middle" font-family="Cambria Math,Cambria,Times New Roman,serif" font-size="20" fill="#6b7280" style="font-style:italic;"><tspan>v</tspan><tspan baseline-shift="sub" font-size="70%">i</tspan></text>
<text x="965" y="242" text-anchor="end" dominant-baseline="middle" font-family="Cambria Math,Cambria,Times New Roman,serif" font-size="19" fill="#6b7280" style="font-style:italic;">ωt</text>
<line x1="120.00" y1="470.00" x2="970.00" y2="470.00" stroke="#6b7280" stroke-width="1.8" stroke-linecap="round"/>
<polygon points="970.00,470.00 962.40,474.82 962.40,465.18" fill="#6b7280" stroke="#6b7280" stroke-width="1.3" stroke-linejoin="round"/>
<line x1="120.00" y1="560.00" x2="120.00" y2="360.00" stroke="#6b7280" stroke-width="1.8" stroke-linecap="round"/>
<polygon points="120.00,360.00 124.82,367.60 115.18,367.60" fill="#6b7280" stroke="#6b7280" stroke-width="1.3" stroke-linejoin="round"/>
<text x="104" y="366" text-anchor="end" dominant-baseline="middle" font-family="Cambria Math,Cambria,Times New Roman,serif" font-size="20" fill="#6b7280" style="font-style:italic;"><tspan>v</tspan><tspan baseline-shift="sub" font-size="70%">L1</tspan></text>
<text x="965" y="492" text-anchor="end" dominant-baseline="middle" font-family="Cambria Math,Cambria,Times New Roman,serif" font-size="19" fill="#6b7280" style="font-style:italic;">ωt</text>
<line x1="120.00" y1="720.00" x2="970.00" y2="720.00" stroke="#6b7280" stroke-width="1.8" stroke-linecap="round"/>
<polygon points="970.00,720.00 962.40,724.82 962.40,715.18" fill="#6b7280" stroke="#6b7280" stroke-width="1.3" stroke-linejoin="round"/>
<line x1="120.00" y1="810.00" x2="120.00" y2="610.00" stroke="#6b7280" stroke-width="1.8" stroke-linecap="round"/>
<polygon points="120.00,610.00 124.82,617.60 115.18,617.60" fill="#6b7280" stroke="#6b7280" stroke-width="1.3" stroke-linejoin="round"/>
<text x="104" y="616" text-anchor="end" dominant-baseline="middle" font-family="Cambria Math,Cambria,Times New Roman,serif" font-size="20" fill="#6b7280" style="font-style:italic;"><tspan>v</tspan><tspan baseline-shift="sub" font-size="70%">L2</tspan></text>
<text x="965" y="742" text-anchor="end" dominant-baseline="middle" font-family="Cambria Math,Cambria,Times New Roman,serif" font-size="19" fill="#6b7280" style="font-style:italic;">ωt</text>
<polyline points="120.00,220.00 121.72,217.77 123.44,215.55 125.16,213.33 126.88,211.12 128.59,208.91 130.31,206.70 132.03,204.51 133.75,202.33 135.47,200.16 137.19,198.00 138.91,195.86 140.62,193.73 142.34,191.63 144.06,189.54 145.78,187.47 147.50,185.43 149.22,183.41 150.94,181.41 152.66,179.44 154.38,177.50 156.09,175.59 157.81,173.71 159.53,171.86 161.25,170.04 162.97,168.26 164.69,166.51 166.41,164.80 168.12,163.12 169.84,161.49 171.56,159.90 173.28,158.34 175.00,156.83 176.72,155.37 178.44,153.94 180.16,152.56 181.88,151.23 183.59,149.95 185.31,148.71 187.03,147.53 188.75,146.39 190.47,145.30 192.19,144.26 193.91,143.28 195.62,142.35 197.34,141.47 199.06,140.65 200.78,139.88 202.50,139.16 204.22,138.50 205.94,137.90 207.66,137.35 209.38,136.86 211.09,136.42 212.81,136.05 214.53,135.73 216.25,135.47 217.97,135.26 219.69,135.12 221.41,135.03 223.12,135.00 224.84,135.03 226.56,135.12 228.28,135.26 230.00,135.47 231.72,135.73 233.44,136.05 235.16,136.42 236.88,136.86 238.59,137.35 240.31,137.90 242.03,138.50 243.75,139.16 245.47,139.88 247.19,140.65 248.91,141.47 250.62,142.35 252.34,143.28 254.06,144.26 255.78,145.30 257.50,146.39 259.22,147.53 260.94,148.71 262.66,149.95 264.38,151.23 266.09,152.56 267.81,153.94 269.53,155.37 271.25,156.83 272.97,158.34 274.69,159.90 276.41,161.49 278.12,163.12 279.84,164.80 281.56,166.51 283.28,168.26 285.00,170.04 286.72,171.86 288.44,173.71 290.16,175.59 291.88,177.50 293.59,179.44 295.31,181.41 297.03,183.41 298.75,185.43 300.47,187.47 302.19,189.54 303.91,191.63 305.62,193.73 307.34,195.86 309.06,198.00 310.78,200.16 312.50,202.33 314.22,204.51 315.94,206.70 317.66,208.91 319.38,211.12 321.09,213.33 322.81,215.55 324.53,217.77 326.25,220.00 327.97,222.23 329.69,224.45 331.41,226.67 333.12,228.88 334.84,231.09 336.56,233.30 338.28,235.49 340.00,237.67 341.72,239.84 343.44,242.00 345.16,244.14 346.88,246.27 348.59,248.37 350.31,250.46 352.03,252.53 353.75,254.57 355.47,256.59 357.19,258.59 358.91,260.56 360.62,262.50 362.34,264.41 364.06,266.29 365.78,268.14 367.50,269.96 369.22,271.74 370.94,273.49 372.66,275.20 374.38,276.88 376.09,278.51 377.81,280.10 379.53,281.66 381.25,283.17 382.97,284.63 384.69,286.06 386.41,287.44 388.12,288.77 389.84,290.05 391.56,291.29 393.28,292.47 395.00,293.61 396.72,294.70 398.44,295.74 400.16,296.72 401.88,297.65 403.59,298.53 405.31,299.35 407.03,300.12 408.75,300.84 410.47,301.50 412.19,302.10 413.91,302.65 415.62,303.14 417.34,303.58 419.06,303.95 420.78,304.27 422.50,304.53 424.22,304.74 425.94,304.88 427.66,304.97 429.38,305.00 431.09,304.97 432.81,304.88 434.53,304.74 436.25,304.53 437.97,304.27 439.69,303.95 441.41,303.58 443.12,303.14 444.84,302.65 446.56,302.10 448.28,301.50 450.00,300.84 451.72,300.12 453.44,299.35 455.16,298.53 456.88,297.65 458.59,296.72 460.31,295.74 462.03,294.70 463.75,293.61 465.47,292.47 467.19,291.29 468.91,290.05 470.62,288.77 472.34,287.44 474.06,286.06 475.78,284.63 477.50,283.17 479.22,281.66 480.94,280.10 482.66,278.51 484.38,276.88 486.09,275.20 487.81,273.49 489.53,271.74 491.25,269.96 492.97,268.14 494.69,266.29 496.41,264.41 498.12,262.50 499.84,260.56 501.56,258.59 503.28,256.59 505.00,254.57 506.72,252.53 508.44,250.46 510.16,248.37 511.88,246.27 513.59,244.14 515.31,242.00 517.03,239.84 518.75,237.67 520.47,235.49 522.19,233.30 523.91,231.09 525.62,228.88 527.34,226.67 529.06,224.45 530.78,222.23 532.50,220.00 534.22,217.77 535.94,215.55 537.66,213.33 539.38,211.12 541.09,208.91 542.81,206.70 544.53,204.51 546.25,202.33 547.97,200.16 549.69,198.00 551.41,195.86 553.12,193.73 554.84,191.63 556.56,189.54 558.28,187.47 560.00,185.43 561.72,183.41 563.44,181.41 565.16,179.44 566.88,177.50 568.59,175.59 570.31,173.71 572.03,171.86 573.75,170.04 575.47,168.26 577.19,166.51 578.91,164.80 580.62,163.12 582.34,161.49 584.06,159.90 585.78,158.34 587.50,156.83 589.22,155.37 590.94,153.94 592.66,152.56 594.38,151.23 596.09,149.95 597.81,148.71 599.53,147.53 601.25,146.39 602.97,145.30 604.69,144.26 606.41,143.28 608.12,142.35 609.84,141.47 611.56,140.65 613.28,139.88 615.00,139.16 616.72,138.50 618.44,137.90 620.16,137.35 621.88,136.86 623.59,136.42 625.31,136.05 627.03,135.73 628.75,135.47 630.47,135.26 632.19,135.12 633.91,135.03 635.62,135.00 637.34,135.03 639.06,135.12 640.78,135.26 642.50,135.47 644.22,135.73 645.94,136.05 647.66,136.42 649.38,136.86 651.09,137.35 652.81,137.90 654.53,138.50 656.25,139.16 657.97,139.88 659.69,140.65 661.41,141.47 663.12,142.35 664.84,143.28 666.56,144.26 668.28,145.30 670.00,146.39 671.72,147.53 673.44,148.71 675.16,149.95 676.88,151.23 678.59,152.56 680.31,153.94 682.03,155.37 683.75,156.83 685.47,158.34 687.19,159.90 688.91,161.49 690.62,163.12 692.34,164.80 694.06,166.51 695.78,168.26 697.50,170.04 699.22,171.86 700.94,173.71 702.66,175.59 704.38,177.50 706.09,179.44 707.81,181.41 709.53,183.41 711.25,185.43 712.97,187.47 714.69,189.54 716.41,191.63 718.12,193.73 719.84,195.86 721.56,198.00 723.28,200.16 725.00,202.33 726.72,204.51 728.44,206.70 730.16,208.91 731.88,211.12 733.59,213.33 735.31,215.55 737.03,217.77 738.75,220.00 740.47,222.23 742.19,224.45 743.91,226.67 745.62,228.88 747.34,231.09 749.06,233.30 750.78,235.49 752.50,237.67 754.22,239.84 755.94,242.00 757.66,244.14 759.38,246.27 761.09,248.37 762.81,250.46 764.53,252.53 766.25,254.57 767.97,256.59 769.69,258.59 771.41,260.56 773.12,262.50 774.84,264.41 776.56,266.29 778.28,268.14 780.00,269.96 781.72,271.74 783.44,273.49 785.16,275.20 786.88,276.88 788.59,278.51 790.31,280.10 792.03,281.66 793.75,283.17 795.47,284.63 797.19,286.06 798.91,287.44 800.62,288.77 802.34,290.05 804.06,291.29 805.78,292.47 807.50,293.61 809.22,294.70 810.94,295.74 812.66,296.72 814.38,297.65 816.09,298.53 817.81,299.35 819.53,300.12 821.25,300.84 822.97,301.50 824.69,302.10 826.41,302.65 828.12,303.14 829.84,303.58 831.56,303.95 833.28,304.27 835.00,304.53 836.72,304.74 838.44,304.88 840.16,304.97 841.88,305.00 843.59,304.97 845.31,304.88 847.03,304.74 848.75,304.53 850.47,304.27 852.19,303.95 853.91,303.58 855.62,303.14 857.34,302.65 859.06,302.10 860.78,301.50 862.50,300.84 864.22,300.12 865.94,299.35 867.66,298.53 869.38,297.65 871.09,296.72 872.81,295.74 874.53,294.70 876.25,293.61 877.97,292.47 879.69,291.29 881.41,290.05 883.12,288.77 884.84,287.44 886.56,286.06 888.28,284.63 890.00,283.17 891.72,281.66 893.44,280.10 895.16,278.51 896.88,276.88 898.59,275.20 900.31,273.49 902.03,271.74 903.75,269.96 905.47,268.14 907.19,266.29 908.91,264.41 910.62,262.50 912.34,260.56 914.06,258.59 915.78,256.59 917.50,254.57 919.22,252.53 920.94,250.46 922.66,248.37 924.38,246.27 926.09,244.14 927.81,242.00 929.53,239.84 931.25,237.67 932.97,235.49 934.69,233.30 936.41,231.09 938.12,228.88 939.84,226.67 941.56,224.45 943.28,222.23 945.00,220.00" fill="none" stroke="#2563eb" stroke-width="3" stroke-linejoin="round" stroke-linecap="round"/>
<polyline points="120.00,470.00 121.72,468.04 123.44,466.07 125.16,464.12 126.88,462.16 128.59,460.21 130.31,458.27 132.03,456.33 133.75,454.41 135.47,452.49 137.19,450.59 138.91,448.70 140.62,446.82 142.34,444.96 144.06,443.12 145.78,441.30 147.50,439.49 149.22,437.71 150.94,435.95 152.66,434.21 154.38,432.50 156.09,430.81 157.81,429.15 159.53,427.52 161.25,425.92 162.97,424.34 164.69,422.80 166.41,421.29 168.12,419.82 169.84,418.37 171.56,416.97 173.28,415.60 175.00,414.26 176.72,412.97 178.44,411.71 180.16,410.50 181.88,409.32 183.59,408.19 185.31,407.10 187.03,406.05 188.75,405.05 190.47,404.09 192.19,403.17 193.91,402.31 195.62,401.48 197.34,400.71 199.06,399.98 200.78,399.30 202.50,398.67 204.22,398.09 205.94,397.56 207.66,397.07 209.38,396.64 211.09,396.26 212.81,395.92 214.53,395.64 216.25,395.41 217.97,395.23 219.69,395.10 221.41,395.03 223.12,395.00 224.84,395.03 226.56,395.10 228.28,395.23 230.00,395.41 231.72,395.64 233.44,395.92 235.16,396.26 236.88,396.64 238.59,397.07 240.31,397.56 242.03,398.09 243.75,398.67 245.47,399.30 247.19,399.98 248.91,400.71 250.62,401.48 252.34,402.31 254.06,403.17 255.78,404.09 257.50,405.05 259.22,406.05 260.94,407.10 262.66,408.19 264.38,409.32 266.09,410.50 267.81,411.71 269.53,412.97 271.25,414.26 272.97,415.60 274.69,416.97 276.41,418.37 278.12,419.82 279.84,421.29 281.56,422.80 283.28,424.34 285.00,425.92 286.72,427.52 288.44,429.15 290.16,430.81 291.88,432.50 293.59,434.21 295.31,435.95 297.03,437.71 298.75,439.49 300.47,441.30 302.19,443.12 303.91,444.96 305.62,446.82 307.34,448.70 309.06,450.59 310.78,452.49 312.50,454.41 314.22,456.33 315.94,458.27 317.66,460.21 319.38,462.16 321.09,464.12 322.81,466.07 324.53,468.04 326.25,470.00 327.97,468.04 329.69,466.07 331.41,464.12 333.12,462.16 334.84,460.21 336.56,458.27 338.28,456.33 340.00,454.41 341.72,452.49 343.44,450.59 345.16,448.70 346.88,446.82 348.59,444.96 350.31,443.12 352.03,441.30 353.75,439.49 355.47,437.71 357.19,435.95 358.91,434.21 360.62,432.50 362.34,430.81 364.06,429.15 365.78,427.52 367.50,425.92 369.22,424.34 370.94,422.80 372.66,421.29 374.38,419.82 376.09,418.37 377.81,416.97 379.53,415.60 381.25,414.26 382.97,412.97 384.69,411.71 386.41,410.50 388.12,409.32 389.84,408.19 391.56,407.10 393.28,406.05 395.00,405.05 396.72,404.09 398.44,403.17 400.16,402.31 401.88,401.48 403.59,400.71 405.31,399.98 407.03,399.30 408.75,398.67 410.47,398.09 412.19,397.56 413.91,397.07 415.62,396.64 417.34,396.26 419.06,395.92 420.78,395.64 422.50,395.41 424.22,395.23 425.94,395.10 427.66,395.03 429.38,395.00 431.09,395.03 432.81,395.10 434.53,395.23 436.25,395.41 437.97,395.64 439.69,395.92 441.41,396.26 443.12,396.64 444.84,397.07 446.56,397.56 448.28,398.09 450.00,398.67 451.72,399.30 453.44,399.98 455.16,400.71 456.88,401.48 458.59,402.31 460.31,403.17 462.03,404.09 463.75,405.05 465.47,406.05 467.19,407.10 468.91,408.19 470.62,409.32 472.34,410.50 474.06,411.71 475.78,412.97 477.50,414.26 479.22,415.60 480.94,416.97 482.66,418.37 484.38,419.82 486.09,421.29 487.81,422.80 489.53,424.34 491.25,425.92 492.97,427.52 494.69,429.15 496.41,430.81 498.12,432.50 499.84,434.21 501.56,435.95 503.28,437.71 505.00,439.49 506.72,441.30 508.44,443.12 510.16,444.96 511.88,446.82 513.59,448.70 515.31,450.59 517.03,452.49 518.75,454.41 520.47,456.33 522.19,458.27 523.91,460.21 525.62,462.16 527.34,464.12 529.06,466.07 530.78,468.04 532.50,470.00 534.22,468.04 535.94,466.07 537.66,464.12 539.38,462.16 541.09,460.21 542.81,458.27 544.53,456.33 546.25,454.41 547.97,452.49 549.69,450.59 551.41,448.70 553.12,446.82 554.84,444.96 556.56,443.12 558.28,441.30 560.00,439.49 561.72,437.71 563.44,435.95 565.16,434.21 566.88,432.50 568.59,430.81 570.31,429.15 572.03,427.52 573.75,425.92 575.47,424.34 577.19,422.80 578.91,421.29 580.62,419.82 582.34,418.37 584.06,416.97 585.78,415.60 587.50,414.26 589.22,412.97 590.94,411.71 592.66,410.50 594.38,409.32 596.09,408.19 597.81,407.10 599.53,406.05 601.25,405.05 602.97,404.09 604.69,403.17 606.41,402.31 608.12,401.48 609.84,400.71 611.56,399.98 613.28,399.30 615.00,398.67 616.72,398.09 618.44,397.56 620.16,397.07 621.88,396.64 623.59,396.26 625.31,395.92 627.03,395.64 628.75,395.41 630.47,395.23 632.19,395.10 633.91,395.03 635.62,395.00 637.34,395.03 639.06,395.10 640.78,395.23 642.50,395.41 644.22,395.64 645.94,395.92 647.66,396.26 649.38,396.64 651.09,397.07 652.81,397.56 654.53,398.09 656.25,398.67 657.97,399.30 659.69,399.98 661.41,400.71 663.12,401.48 664.84,402.31 666.56,403.17 668.28,404.09 670.00,405.05 671.72,406.05 673.44,407.10 675.16,408.19 676.88,409.32 678.59,410.50 680.31,411.71 682.03,412.97 683.75,414.26 685.47,415.60 687.19,416.97 688.91,418.37 690.62,419.82 692.34,421.29 694.06,422.80 695.78,424.34 697.50,425.92 699.22,427.52 700.94,429.15 702.66,430.81 704.38,432.50 706.09,434.21 707.81,435.95 709.53,437.71 711.25,439.49 712.97,441.30 714.69,443.12 716.41,444.96 718.12,446.82 719.84,448.70 721.56,450.59 723.28,452.49 725.00,454.41 726.72,456.33 728.44,458.27 730.16,460.21 731.88,462.16 733.59,464.12 735.31,466.07 737.03,468.04 738.75,470.00 740.47,468.04 742.19,466.07 743.91,464.12 745.62,462.16 747.34,460.21 749.06,458.27 750.78,456.33 752.50,454.41 754.22,452.49 755.94,450.59 757.66,448.70 759.38,446.82 761.09,444.96 762.81,443.12 764.53,441.30 766.25,439.49 767.97,437.71 769.69,435.95 771.41,434.21 773.12,432.50 774.84,430.81 776.56,429.15 778.28,427.52 780.00,425.92 781.72,424.34 783.44,422.80 785.16,421.29 786.88,419.82 788.59,418.37 790.31,416.97 792.03,415.60 793.75,414.26 795.47,412.97 797.19,411.71 798.91,410.50 800.62,409.32 802.34,408.19 804.06,407.10 805.78,406.05 807.50,405.05 809.22,404.09 810.94,403.17 812.66,402.31 814.38,401.48 816.09,400.71 817.81,399.98 819.53,399.30 821.25,398.67 822.97,398.09 824.69,397.56 826.41,397.07 828.12,396.64 829.84,396.26 831.56,395.92 833.28,395.64 835.00,395.41 836.72,395.23 838.44,395.10 840.16,395.03 841.88,395.00 843.59,395.03 845.31,395.10 847.03,395.23 848.75,395.41 850.47,395.64 852.19,395.92 853.91,396.26 855.62,396.64 857.34,397.07 859.06,397.56 860.78,398.09 862.50,398.67 864.22,399.30 865.94,399.98 867.66,400.71 869.38,401.48 871.09,402.31 872.81,403.17 874.53,404.09 876.25,405.05 877.97,406.05 879.69,407.10 881.41,408.19 883.12,409.32 884.84,410.50 886.56,411.71 888.28,412.97 890.00,414.26 891.72,415.60 893.44,416.97 895.16,418.37 896.88,419.82 898.59,421.29 900.31,422.80 902.03,424.34 903.75,425.92 905.47,427.52 907.19,429.15 908.91,430.81 910.62,432.50 912.34,434.21 914.06,435.95 915.78,437.71 917.50,439.49 919.22,441.30 920.94,443.12 922.66,444.96 924.38,446.82 926.09,448.70 927.81,450.59 929.53,452.49 931.25,454.41 932.97,456.33 934.69,458.27 936.41,460.21 938.12,462.16 939.84,464.12 941.56,466.07 943.28,468.04 945.00,470.00" fill="none" stroke="#2563eb" stroke-width="3" stroke-linejoin="round" stroke-linecap="round"/>
<polyline points="120.00,720.00 121.72,718.04 123.44,716.07 125.16,714.12 126.88,712.16 128.59,710.21 130.31,708.27 132.03,706.33 133.75,704.41 135.47,702.49 137.19,700.59 138.91,698.70 140.62,696.82 142.34,694.96 144.06,693.12 145.78,691.30 147.50,689.49 149.22,687.71 150.94,685.95 152.66,684.21 154.38,682.50 156.09,680.81 157.81,679.15 159.53,677.52 161.25,675.92 162.97,674.34 164.69,672.80 166.41,671.29 168.12,669.82 169.84,668.37 171.56,666.97 173.28,665.60 175.00,664.26 176.72,662.97 178.44,661.71 180.16,660.50 181.88,659.32 183.59,658.19 185.31,657.10 187.03,656.05 188.75,655.05 190.47,654.09 192.19,653.17 193.91,652.31 195.62,651.48 197.34,650.71 199.06,649.98 200.78,649.30 202.50,648.67 204.22,648.09 205.94,647.56 207.66,647.07 209.38,646.64 211.09,646.26 212.81,645.92 214.53,645.64 216.25,645.41 217.97,645.23 219.69,645.10 221.41,645.03 223.12,645.00 224.84,645.03 226.56,645.10 228.28,645.23 230.00,645.41 231.72,645.64 233.44,645.92 235.16,646.26 236.88,646.64 238.59,647.07 240.31,647.56 242.03,648.09 243.75,648.67 245.47,649.30 247.19,649.98 248.91,650.71 250.62,651.48 252.34,652.31 254.06,653.17 255.78,654.09 257.50,655.05 259.22,656.05 260.94,657.10 262.66,658.19 264.38,659.32 266.09,660.50 267.81,661.71 269.53,662.97 271.25,664.26 272.97,665.60 274.69,666.97 276.41,668.37 278.12,669.82 279.84,671.29 281.56,672.80 283.28,674.34 285.00,675.92 286.72,677.52 288.44,679.15 290.16,680.81 291.88,682.50 293.59,684.21 295.31,685.95 297.03,687.71 298.75,689.49 300.47,691.30 302.19,693.12 303.91,694.96 305.62,696.82 307.34,698.70 309.06,700.59 310.78,702.49 312.50,704.41 314.22,706.33 315.94,708.27 317.66,710.21 319.38,712.16 321.09,714.12 322.81,716.07 324.53,718.04 326.25,720.00 327.97,720.00 329.69,720.00 331.41,720.00 333.12,720.00 334.84,720.00 336.56,720.00 338.28,720.00 340.00,720.00 341.72,720.00 343.44,720.00 345.16,720.00 346.88,720.00 348.59,720.00 350.31,720.00 352.03,720.00 353.75,720.00 355.47,720.00 357.19,720.00 358.91,720.00 360.62,720.00 362.34,720.00 364.06,720.00 365.78,720.00 367.50,720.00 369.22,720.00 370.94,720.00 372.66,720.00 374.38,720.00 376.09,720.00 377.81,720.00 379.53,720.00 381.25,720.00 382.97,720.00 384.69,720.00 386.41,720.00 388.12,720.00 389.84,720.00 391.56,720.00 393.28,720.00 395.00,720.00 396.72,720.00 398.44,720.00 400.16,720.00 401.88,720.00 403.59,720.00 405.31,720.00 407.03,720.00 408.75,720.00 410.47,720.00 412.19,720.00 413.91,720.00 415.62,720.00 417.34,720.00 419.06,720.00 420.78,720.00 422.50,720.00 424.22,720.00 425.94,720.00 427.66,720.00 429.38,720.00 431.09,720.00 432.81,720.00 434.53,720.00 436.25,720.00 437.97,720.00 439.69,720.00 441.41,720.00 443.12,720.00 444.84,720.00 446.56,720.00 448.28,720.00 450.00,720.00 451.72,720.00 453.44,720.00 455.16,720.00 456.88,720.00 458.59,720.00 460.31,720.00 462.03,720.00 463.75,720.00 465.47,720.00 467.19,720.00 468.91,720.00 470.62,720.00 472.34,720.00 474.06,720.00 475.78,720.00 477.50,720.00 479.22,720.00 480.94,720.00 482.66,720.00 484.38,720.00 486.09,720.00 487.81,720.00 489.53,720.00 491.25,720.00 492.97,720.00 494.69,720.00 496.41,720.00 498.12,720.00 499.84,720.00 501.56,720.00 503.28,720.00 505.00,720.00 506.72,720.00 508.44,720.00 510.16,720.00 511.88,720.00 513.59,720.00 515.31,720.00 517.03,720.00 518.75,720.00 520.47,720.00 522.19,720.00 523.91,720.00 525.62,720.00 527.34,720.00 529.06,720.00 530.78,720.00 532.50,720.00 534.22,718.04 535.94,716.07 537.66,714.12 539.38,712.16 541.09,710.21 542.81,708.27 544.53,706.33 546.25,704.41 547.97,702.49 549.69,700.59 551.41,698.70 553.12,696.82 554.84,694.96 556.56,693.12 558.28,691.30 560.00,689.49 561.72,687.71 563.44,685.95 565.16,684.21 566.88,682.50 568.59,680.81 570.31,679.15 572.03,677.52 573.75,675.92 575.47,674.34 577.19,672.80 578.91,671.29 580.62,669.82 582.34,668.37 584.06,666.97 585.78,665.60 587.50,664.26 589.22,662.97 590.94,661.71 592.66,660.50 594.38,659.32 596.09,658.19 597.81,657.10 599.53,656.05 601.25,655.05 602.97,654.09 604.69,653.17 606.41,652.31 608.12,651.48 609.84,650.71 611.56,649.98 613.28,649.30 615.00,648.67 616.72,648.09 618.44,647.56 620.16,647.07 621.88,646.64 623.59,646.26 625.31,645.92 627.03,645.64 628.75,645.41 630.47,645.23 632.19,645.10 633.91,645.03 635.62,645.00 637.34,645.03 639.06,645.10 640.78,645.23 642.50,645.41 644.22,645.64 645.94,645.92 647.66,646.26 649.38,646.64 651.09,647.07 652.81,647.56 654.53,648.09 656.25,648.67 657.97,649.30 659.69,649.98 661.41,650.71 663.12,651.48 664.84,652.31 666.56,653.17 668.28,654.09 670.00,655.05 671.72,656.05 673.44,657.10 675.16,658.19 676.88,659.32 678.59,660.50 680.31,661.71 682.03,662.97 683.75,664.26 685.47,665.60 687.19,666.97 688.91,668.37 690.62,669.82 692.34,671.29 694.06,672.80 695.78,674.34 697.50,675.92 699.22,677.52 700.94,679.15 702.66,680.81 704.38,682.50 706.09,684.21 707.81,685.95 709.53,687.71 711.25,689.49 712.97,691.30 714.69,693.12 716.41,694.96 718.12,696.82 719.84,698.70 721.56,700.59 723.28,702.49 725.00,704.41 726.72,706.33 728.44,708.27 730.16,710.21 731.88,712.16 733.59,714.12 735.31,716.07 737.03,718.04 738.75,720.00 740.47,720.00 742.19,720.00 743.91,720.00 745.62,720.00 747.34,720.00 749.06,720.00 750.78,720.00 752.50,720.00 754.22,720.00 755.94,720.00 757.66,720.00 759.38,720.00 761.09,720.00 762.81,720.00 764.53,720.00 766.25,720.00 767.97,720.00 769.69,720.00 771.41,720.00 773.12,720.00 774.84,720.00 776.56,720.00 778.28,720.00 780.00,720.00 781.72,720.00 783.44,720.00 785.16,720.00 786.88,720.00 788.59,720.00 790.31,720.00 792.03,720.00 793.75,720.00 795.47,720.00 797.19,720.00 798.91,720.00 800.62,720.00 802.34,720.00 804.06,720.00 805.78,720.00 807.50,720.00 809.22,720.00 810.94,720.00 812.66,720.00 814.38,720.00 816.09,720.00 817.81,720.00 819.53,720.00 821.25,720.00 822.97,720.00 824.69,720.00 826.41,720.00 828.12,720.00 829.84,720.00 831.56,720.00 833.28,720.00 835.00,720.00 836.72,720.00 838.44,720.00 840.16,720.00 841.88,720.00 843.59,720.00 845.31,720.00 847.03,720.00 848.75,720.00 850.47,720.00 852.19,720.00 853.91,720.00 855.62,720.00 857.34,720.00 859.06,720.00 860.78,720.00 862.50,720.00 864.22,720.00 865.94,720.00 867.66,720.00 869.38,720.00 871.09,720.00 872.81,720.00 874.53,720.00 876.25,720.00 877.97,720.00 879.69,720.00 881.41,720.00 883.12,720.00 884.84,720.00 886.56,720.00 888.28,720.00 890.00,720.00 891.72,720.00 893.44,720.00 895.16,720.00 896.88,720.00 898.59,720.00 900.31,720.00 902.03,720.00 903.75,720.00 905.47,720.00 907.19,720.00 908.91,720.00 910.62,720.00 912.34,720.00 914.06,720.00 915.78,720.00 917.50,720.00 919.22,720.00 920.94,720.00 922.66,720.00 924.38,720.00 926.09,720.00 927.81,720.00 929.53,720.00 931.25,720.00 932.97,720.00 934.69,720.00 936.41,720.00 938.12,720.00 939.84,720.00 941.56,720.00 943.28,720.00 945.00,720.00" fill="none" stroke="#2563eb" stroke-width="3" stroke-linejoin="round" stroke-linecap="round"/>
<line x1="326.25" y1="120.00" x2="326.25" y2="800.00" stroke="#9ca3af" stroke-width="1.1" stroke-linecap="round" stroke-dasharray="6 7"/>
<line x1="532.50" y1="120.00" x2="532.50" y2="800.00" stroke="#9ca3af" stroke-width="1.1" stroke-linecap="round" stroke-dasharray="6 7"/>
<line x1="738.75" y1="120.00" x2="738.75" y2="800.00" stroke="#9ca3af" stroke-width="1.1" stroke-linecap="round" stroke-dasharray="6 7"/>
<text x="525.0" y="856" text-anchor="middle" dominant-baseline="middle" font-family="SimSun,STSong,serif" font-size="22" fill="#17202a" style="">图 1.4.9　题 1.3.3 的解</text>
</svg>
