<svg xmlns="http://www.w3.org/2000/svg" width="1250" height="820" viewBox="0 0 1250 820">
<title>图1.4.7 二极管状态判断电路</title>
<rect width="100%" height="100%" fill="white"/>
<circle cx="90" cy="110" r="4.5" fill="white" stroke="#17202a" stroke-width="1.4"/>
<circle cx="90" cy="195" r="4.5" fill="white" stroke="#17202a" stroke-width="1.4"/>
<line x1="90.00" y1="198.00" x2="90.00" y2="210.00" stroke="#17202a" stroke-width="2.2" stroke-linecap="round"/>
<line x1="72.00" y1="210.00" x2="108.00" y2="210.00" stroke="#17202a" stroke-width="2.2" stroke-linecap="round"/>
<line x1="78.00" y1="217.00" x2="102.00" y2="217.00" stroke="#17202a" stroke-width="2.2" stroke-linecap="round"/>
<line x1="84.00" y1="224.00" x2="96.00" y2="224.00" stroke="#17202a" stroke-width="2.2" stroke-linecap="round"/>
<text x="88" y="156" text-anchor="middle" dominant-baseline="middle" font-family="Cambria Math,Cambria,Times New Roman,serif" font-size="21" fill="#17202a" style="">−10 V</text>
<text x="108" y="128" text-anchor="middle" dominant-baseline="middle" font-family="Cambria Math,Cambria,Times New Roman,serif" font-size="20" fill="#17202a" style="">+</text>
<text x="108" y="180" text-anchor="middle" dominant-baseline="middle" font-family="Cambria Math,Cambria,Times New Roman,serif" font-size="22" fill="#17202a" style="">−</text>
<line x1="90.00" y1="110.00" x2="170.00" y2="110.00" stroke="#17202a" stroke-width="2.2" stroke-linecap="round"/>
<rect x="170.0" y="96" width="70" height="28" fill="white" stroke="#17202a" stroke-width="2.2"/>
<line x1="240.00" y1="110.00" x2="320.00" y2="110.00" stroke="#17202a" stroke-width="2.2" stroke-linecap="round"/>
<text text-anchor="middle" dominant-baseline="middle" font-family="Cambria Math,Cambria,Times New Roman,serif" font-size="22" fill="#17202a" style=""><tspan x="205.0" y="65.9">R</tspan><tspan x="205.0" y="90.10000000000001">10 kΩ</tspan></text>
<line x1="320.00" y1="110.00" x2="350.00" y2="110.00" stroke="#17202a" stroke-width="2.2" stroke-linecap="round"/>
<line x1="350.00" y1="110.00" x2="350.00" y2="300.00" stroke="#17202a" stroke-width="2.2" stroke-linecap="round"/>
<line x1="350.00" y1="110.00" x2="495.00" y2="110.00" stroke="#17202a" stroke-width="2.2" stroke-linecap="round"/>
<line x1="445.00" y1="110.00" x2="590.00" y2="110.00" stroke="#17202a" stroke-width="2.2" stroke-linecap="round"/>
<polygon points="493.00,92.00 493.00,128.00 460.00,110.00" fill="white" stroke="#17202a" stroke-width="2.2" stroke-linejoin="round"/>
<line x1="457.00" y1="88.00" x2="457.00" y2="132.00" stroke="#17202a" stroke-width="3" stroke-linecap="round"/>
<text x="470.0" y="148" text-anchor="middle" dominant-baseline="middle" font-family="Cambria Math,Cambria,Times New Roman,serif" font-size="21" fill="#17202a" style="">D₁</text>
<circle cx="590" cy="110" r="4.5" fill="white" stroke="#17202a" stroke-width="1.4"/>
<text x="610" y="110" text-anchor="start" dominant-baseline="middle" font-family="Cambria Math,Cambria,Times New Roman,serif" font-size="21" fill="#17202a" style="">A  0.2 V</text>
<line x1="350.00" y1="225.00" x2="495.00" y2="225.00" stroke="#17202a" stroke-width="2.2" stroke-linecap="round"/>
<line x1="445.00" y1="225.00" x2="590.00" y2="225.00" stroke="#17202a" stroke-width="2.2" stroke-linecap="round"/>
<polygon points="493.00,207.00 493.00,243.00 460.00,225.00" fill="white" stroke="#17202a" stroke-width="2.2" stroke-linejoin="round"/>
<line x1="457.00" y1="203.00" x2="457.00" y2="247.00" stroke="#17202a" stroke-width="3" stroke-linecap="round"/>
<text x="470.0" y="263" text-anchor="middle" dominant-baseline="middle" font-family="Cambria Math,Cambria,Times New Roman,serif" font-size="21" fill="#17202a" style="">D₂</text>
<circle cx="590" cy="225" r="4.5" fill="white" stroke="#17202a" stroke-width="1.4"/>
<text x="610" y="225" text-anchor="start" dominant-baseline="middle" font-family="Cambria Math,Cambria,Times New Roman,serif" font-size="21" fill="#17202a" style="">B  3.3 V</text>
<circle cx="350" cy="300" r="4.5" fill="white" stroke="#17202a" stroke-width="1.4"/>
<text x="368" y="300" text-anchor="start" dominant-baseline="middle" font-family="Cambria Math,Cambria,Times New Roman,serif" font-size="21" fill="#17202a" style="">P</text>
<text x="350" y="335" text-anchor="middle" dominant-baseline="middle" font-family="Cambria Math,Cambria,Times New Roman,serif" font-size="21" fill="#17202a" style="font-style:italic;"><tspan>V</tspan><tspan baseline-shift="sub" font-size="70%">P</tspan></text>
<text x="365" y="375" text-anchor="middle" dominant-baseline="middle" font-family="Cambria Math,Cambria,Times New Roman,serif" font-size="22" fill="#17202a" style="">(a)</text>
<line x1="760.00" y1="140.00" x2="760.00" y2="253.00" stroke="#17202a" stroke-width="2.2" stroke-linecap="round"/>
<line x1="742.00" y1="258.00" x2="778.00" y2="258.00" stroke="#17202a" stroke-width="2.2" stroke-linecap="round"/>
<line x1="749.00" y1="272.00" x2="771.00" y2="272.00" stroke="#17202a" stroke-width="2.2" stroke-linecap="round"/>
<line x1="760.00" y1="277.00" x2="760.00" y2="390.00" stroke="#17202a" stroke-width="2.2" stroke-linecap="round"/>
<text x="788" y="265.0" text-anchor="start" dominant-baseline="middle" font-family="Cambria Math,Cambria,Times New Roman,serif" font-size="21" fill="#17202a" style="">V₁  15 V</text>
<line x1="760.00" y1="140.00" x2="900.00" y2="140.00" stroke="#17202a" stroke-width="2.2" stroke-linecap="round"/>
<line x1="900.00" y1="140.00" x2="970.00" y2="140.00" stroke="#17202a" stroke-width="2.2" stroke-linecap="round"/>
<line x1="1020.00" y1="140.00" x2="1090.00" y2="140.00" stroke="#17202a" stroke-width="2.2" stroke-linecap="round"/>
<polygon points="972.00,122.00 972.00,158.00 1005.00,140.00" fill="white" stroke="#17202a" stroke-width="2.2" stroke-linejoin="round"/>
<line x1="1008.00" y1="118.00" x2="1008.00" y2="162.00" stroke="#17202a" stroke-width="3" stroke-linecap="round"/>
<text x="995.0" y="178" text-anchor="middle" dominant-baseline="middle" font-family="Cambria Math,Cambria,Times New Roman,serif" font-size="21" fill="#17202a" style="">D</text>
<line x1="1090.00" y1="140.00" x2="1180.00" y2="140.00" stroke="#17202a" stroke-width="2.2" stroke-linecap="round"/>
<circle cx="1180" cy="140" r="4.5" fill="white" stroke="#17202a" stroke-width="1.4"/>
<line x1="1060.00" y1="140.00" x2="1060.00" y2="184.00" stroke="#17202a" stroke-width="2.2" stroke-linecap="round"/>
<rect x="1046" y="184.0" width="28" height="72.0" fill="white" stroke="#17202a" stroke-width="2.2"/>
<line x1="1060.00" y1="256.00" x2="1060.00" y2="300.00" stroke="#17202a" stroke-width="2.2" stroke-linecap="round"/>
<text text-anchor="end" dominant-baseline="middle" font-family="Cambria Math,Cambria,Times New Roman,serif" font-size="21" fill="#17202a" style=""><tspan x="1036" y="208.45">R</tspan><tspan x="1036" y="231.54999999999998">3 kΩ</tspan></text>
<line x1="1060.00" y1="300.00" x2="1060.00" y2="333.00" stroke="#17202a" stroke-width="2.2" stroke-linecap="round"/>
<line x1="1042.00" y1="338.00" x2="1078.00" y2="338.00" stroke="#17202a" stroke-width="2.2" stroke-linecap="round"/>
<line x1="1049.00" y1="352.00" x2="1071.00" y2="352.00" stroke="#17202a" stroke-width="2.2" stroke-linecap="round"/>
<line x1="1060.00" y1="357.00" x2="1060.00" y2="390.00" stroke="#17202a" stroke-width="2.2" stroke-linecap="round"/>
<text x="1088" y="345.0" text-anchor="start" dominant-baseline="middle" font-family="Cambria Math,Cambria,Times New Roman,serif" font-size="21" fill="#17202a" style="">12 V</text>
<line x1="760.00" y1="390.00" x2="1180.00" y2="390.00" stroke="#17202a" stroke-width="2.2" stroke-linecap="round"/>
<circle cx="1180" cy="390" r="4.5" fill="white" stroke="#17202a" stroke-width="1.4"/>
<line x1="1060.00" y1="392.00" x2="1060.00" y2="404.00" stroke="#17202a" stroke-width="2.2" stroke-linecap="round"/>
<line x1="1042.00" y1="404.00" x2="1078.00" y2="404.00" stroke="#17202a" stroke-width="2.2" stroke-linecap="round"/>
<line x1="1048.00" y1="411.00" x2="1072.00" y2="411.00" stroke="#17202a" stroke-width="2.2" stroke-linecap="round"/>
<line x1="1054.00" y1="418.00" x2="1066.00" y2="418.00" stroke="#17202a" stroke-width="2.2" stroke-linecap="round"/>
<text x="1208" y="265" text-anchor="start" dominant-baseline="middle" font-family="Cambria Math,Cambria,Times New Roman,serif" font-size="22" fill="#17202a" style="font-style:italic;"><tspan>V</tspan><tspan baseline-shift="sub" font-size="70%">P</tspan></text>
<text x="1198" y="170" text-anchor="middle" dominant-baseline="middle" font-family="Cambria Math,Cambria,Times New Roman,serif" font-size="21" fill="#17202a" style="">+</text>
<text x="1198" y="365" text-anchor="middle" dominant-baseline="middle" font-family="Cambria Math,Cambria,Times New Roman,serif" font-size="23" fill="#17202a" style="">−</text>
<text x="970" y="375" text-anchor="middle" dominant-baseline="middle" font-family="Cambria Math,Cambria,Times New Roman,serif" font-size="22" fill="#17202a" style="">(b)</text>
<line x1="370.00" y1="460.00" x2="840.00" y2="460.00" stroke="#17202a" stroke-width="2.2" stroke-linecap="round"/>
<line x1="370.00" y1="460.00" x2="370.00" y2="700.00" stroke="#17202a" stroke-width="2.2" stroke-linecap="round"/>
<line x1="370.00" y1="700.00" x2="840.00" y2="700.00" stroke="#17202a" stroke-width="2.2" stroke-linecap="round"/>
<line x1="440.00" y1="460.00" x2="570.00" y2="460.00" stroke="#17202a" stroke-width="2.2" stroke-linecap="round"/>
<line x1="520.00" y1="460.00" x2="650.00" y2="460.00" stroke="#17202a" stroke-width="2.2" stroke-linecap="round"/>
<polygon points="568.00,442.00 568.00,478.00 535.00,460.00" fill="white" stroke="#17202a" stroke-width="2.2" stroke-linejoin="round"/>
<line x1="532.00" y1="438.00" x2="532.00" y2="482.00" stroke="#17202a" stroke-width="3" stroke-linecap="round"/>
<text x="545.0" y="498" text-anchor="middle" dominant-baseline="middle" font-family="Cambria Math,Cambria,Times New Roman,serif" font-size="21" fill="#17202a" style="">D₁</text>
<line x1="460.00" y1="555.00" x2="460.00" y2="615.50" stroke="#17202a" stroke-width="2.2" stroke-linecap="round"/>
<line x1="442.00" y1="634.50" x2="478.00" y2="634.50" stroke="#17202a" stroke-width="2.2" stroke-linecap="round"/>
<line x1="449.00" y1="620.50" x2="471.00" y2="620.50" stroke="#17202a" stroke-width="2.2" stroke-linecap="round"/>
<line x1="460.00" y1="639.50" x2="460.00" y2="700.00" stroke="#17202a" stroke-width="2.2" stroke-linecap="round"/>
<text x="488" y="627.5" text-anchor="start" dominant-baseline="middle" font-family="Cambria Math,Cambria,Times New Roman,serif" font-size="21" fill="#17202a" style="">V₁  −6 V</text>
<line x1="460.00" y1="555.00" x2="530.00" y2="555.00" stroke="#17202a" stroke-width="2.2" stroke-linecap="round"/>
<line x1="530.00" y1="555.00" x2="645.00" y2="555.00" stroke="#17202a" stroke-width="2.2" stroke-linecap="round"/>
<line x1="595.00" y1="555.00" x2="710.00" y2="555.00" stroke="#17202a" stroke-width="2.2" stroke-linecap="round"/>
<polygon points="643.00,537.00 643.00,573.00 610.00,555.00" fill="white" stroke="#17202a" stroke-width="2.2" stroke-linejoin="round"/>
<line x1="607.00" y1="533.00" x2="607.00" y2="577.00" stroke="#17202a" stroke-width="3" stroke-linecap="round"/>
<text x="620.0" y="593" text-anchor="middle" dominant-baseline="middle" font-family="Cambria Math,Cambria,Times New Roman,serif" font-size="21" fill="#17202a" style="">D₂</text>
<line x1="710.00" y1="555.00" x2="710.00" y2="460.00" stroke="#17202a" stroke-width="2.2" stroke-linecap="round"/>
<line x1="730.00" y1="460.00" x2="730.00" y2="499.88" stroke="#17202a" stroke-width="2.2" stroke-linecap="round"/>
<rect x="716" y="499.875" width="28" height="65.25" fill="white" stroke="#17202a" stroke-width="2.2"/>
<line x1="730.00" y1="565.12" x2="730.00" y2="605.00" stroke="#17202a" stroke-width="2.2" stroke-linecap="round"/>
<text x="706" y="532.5" text-anchor="end" dominant-baseline="middle" font-family="Cambria Math,Cambria,Times New Roman,serif" font-size="21" fill="#17202a" style="">3 kΩ</text>
<line x1="730.00" y1="605.00" x2="730.00" y2="640.50" stroke="#17202a" stroke-width="2.2" stroke-linecap="round"/>
<line x1="712.00" y1="645.50" x2="748.00" y2="645.50" stroke="#17202a" stroke-width="2.2" stroke-linecap="round"/>
<line x1="719.00" y1="659.50" x2="741.00" y2="659.50" stroke="#17202a" stroke-width="2.2" stroke-linecap="round"/>
<line x1="730.00" y1="664.50" x2="730.00" y2="700.00" stroke="#17202a" stroke-width="2.2" stroke-linecap="round"/>
<text x="758" y="652.5" text-anchor="start" dominant-baseline="middle" font-family="Cambria Math,Cambria,Times New Roman,serif" font-size="21" fill="#17202a" style="">V₂  12 V</text>
<circle cx="840" cy="460" r="4.5" fill="white" stroke="#17202a" stroke-width="1.4"/>
<circle cx="840" cy="700" r="4.5" fill="white" stroke="#17202a" stroke-width="1.4"/>
<line x1="730.00" y1="702.00" x2="730.00" y2="714.00" stroke="#17202a" stroke-width="2.2" stroke-linecap="round"/>
<line x1="712.00" y1="714.00" x2="748.00" y2="714.00" stroke="#17202a" stroke-width="2.2" stroke-linecap="round"/>
<line x1="718.00" y1="721.00" x2="742.00" y2="721.00" stroke="#17202a" stroke-width="2.2" stroke-linecap="round"/>
<line x1="724.00" y1="728.00" x2="736.00" y2="728.00" stroke="#17202a" stroke-width="2.2" stroke-linecap="round"/>
<text x="860" y="580" text-anchor="start" dominant-baseline="middle" font-family="Cambria Math,Cambria,Times New Roman,serif" font-size="22" fill="#17202a" style="font-style:italic;"><tspan>V</tspan><tspan baseline-shift="sub" font-size="70%">P</tspan></text>
<text x="855" y="490" text-anchor="middle" dominant-baseline="middle" font-family="Cambria Math,Cambria,Times New Roman,serif" font-size="21" fill="#17202a" style="">+</text>
<text x="855" y="675" text-anchor="middle" dominant-baseline="middle" font-family="Cambria Math,Cambria,Times New Roman,serif" font-size="23" fill="#17202a" style="">−</text>
<text x="605" y="740" text-anchor="middle" dominant-baseline="middle" font-family="Cambria Math,Cambria,Times New Roman,serif" font-size="22" fill="#17202a" style="">(c)</text>
<text x="625.0" y="796" text-anchor="middle" dominant-baseline="middle" font-family="SimSun,STSong,serif" font-size="22" fill="#17202a" style="">图 1.4.7　题 1.3.2 的图</text>
</svg>
