<svg xmlns="http://www.w3.org/2000/svg" width="980" height="580" viewBox="0 0 980 580">
<title>图2.5.43 多路电流源</title>
<rect width="100%" height="100%" fill="white"/>
<line x1="240.00" y1="283.20" x2="240.00" y2="316.80" stroke="#17202a" stroke-width="3" stroke-linecap="round"/>
<line x1="203.60" y1="300.00" x2="240.00" y2="300.00" stroke="#17202a" stroke-width="2.2" stroke-linecap="round"/>
<line x1="240.00" y1="289.92" x2="265.20" y2="267.52" stroke="#17202a" stroke-width="2.2" stroke-linecap="round"/>
<line x1="240.00" y1="310.08" x2="265.20" y2="332.48" stroke="#17202a" stroke-width="2.2" stroke-linecap="round"/>
<line x1="250.08" y1="319.04" x2="265.20" y2="332.48" stroke="#17202a" stroke-width="2" stroke-linecap="round"/>
<polygon points="265.20,332.48 259.67,331.58 263.66,327.10" fill="#17202a" stroke="#17202a" stroke-width="1.3" stroke-linejoin="round"/>
<text x="283.68" y="300" text-anchor="start" dominant-baseline="middle" font-family="Cambria Math,Cambria,Times New Roman,serif" font-size="21" fill="#17202a" style=""><tspan>T</tspan><tspan baseline-shift="sub" font-size="70%">0</tspan></text>
<line x1="500.00" y1="283.20" x2="500.00" y2="316.80" stroke="#17202a" stroke-width="3" stroke-linecap="round"/>
<line x1="463.60" y1="300.00" x2="500.00" y2="300.00" stroke="#17202a" stroke-width="2.2" stroke-linecap="round"/>
<line x1="500.00" y1="289.92" x2="525.20" y2="267.52" stroke="#17202a" stroke-width="2.2" stroke-linecap="round"/>
<line x1="500.00" y1="310.08" x2="525.20" y2="332.48" stroke="#17202a" stroke-width="2.2" stroke-linecap="round"/>
<line x1="510.08" y1="319.04" x2="525.20" y2="332.48" stroke="#17202a" stroke-width="2" stroke-linecap="round"/>
<polygon points="525.20,332.48 519.67,331.58 523.66,327.10" fill="#17202a" stroke="#17202a" stroke-width="1.3" stroke-linejoin="round"/>
<text x="543.6800000000001" y="300" text-anchor="start" dominant-baseline="middle" font-family="Cambria Math,Cambria,Times New Roman,serif" font-size="21" fill="#17202a" style=""><tspan>T</tspan><tspan baseline-shift="sub" font-size="70%">1</tspan></text>
<line x1="720.00" y1="283.20" x2="720.00" y2="316.80" stroke="#17202a" stroke-width="3" stroke-linecap="round"/>
<line x1="683.60" y1="300.00" x2="720.00" y2="300.00" stroke="#17202a" stroke-width="2.2" stroke-linecap="round"/>
<line x1="720.00" y1="289.92" x2="745.20" y2="267.52" stroke="#17202a" stroke-width="2.2" stroke-linecap="round"/>
<line x1="720.00" y1="310.08" x2="745.20" y2="332.48" stroke="#17202a" stroke-width="2.2" stroke-linecap="round"/>
<line x1="730.08" y1="319.04" x2="745.20" y2="332.48" stroke="#17202a" stroke-width="2" stroke-linecap="round"/>
<polygon points="745.20,332.48 739.67,331.58 743.66,327.10" fill="#17202a" stroke="#17202a" stroke-width="1.3" stroke-linejoin="round"/>
<text x="763.6800000000001" y="300" text-anchor="start" dominant-baseline="middle" font-family="Cambria Math,Cambria,Times New Roman,serif" font-size="21" fill="#17202a" style=""><tspan>T</tspan><tspan baseline-shift="sub" font-size="70%">2</tspan></text>
<line x1="203.60" y1="300.00" x2="683.60" y2="300.00" stroke="#17202a" stroke-width="2.2" stroke-linecap="round"/>
<line x1="265.20" y1="332.48" x2="265.20" y2="430.00" stroke="#17202a" stroke-width="2.2" stroke-linecap="round"/>
<line x1="525.20" y1="332.48" x2="525.20" y2="430.00" stroke="#17202a" stroke-width="2.2" stroke-linecap="round"/>
<line x1="745.20" y1="332.48" x2="745.20" y2="430.00" stroke="#17202a" stroke-width="2.2" stroke-linecap="round"/>
<line x1="265.20" y1="430.00" x2="745.20" y2="430.00" stroke="#17202a" stroke-width="2.2" stroke-linecap="round"/>
<line x1="525.20" y1="418.00" x2="525.20" y2="430.00" stroke="#17202a" stroke-width="2.2" stroke-linecap="round"/>
<line x1="507.20" y1="430.00" x2="543.20" y2="430.00" stroke="#17202a" stroke-width="2.2" stroke-linecap="round"/>
<line x1="513.20" y1="437.00" x2="537.20" y2="437.00" stroke="#17202a" stroke-width="2.2" stroke-linecap="round"/>
<line x1="519.20" y1="444.00" x2="531.20" y2="444.00" stroke="#17202a" stroke-width="2.2" stroke-linecap="round"/>
<circle cx="210" cy="65" r="4" fill="white" stroke="#17202a" stroke-width="1.4"/>
<text text-anchor="start" dominant-baseline="middle" font-family="Cambria Math,Cambria,Times New Roman,serif" font-size="18" fill="#17202a" style=""><tspan x="222" y="55.1">+V_CC</tspan><tspan x="222" y="74.9">(+15 V)</tspan></text>
<line x1="210.00" y1="65.00" x2="405.00" y2="65.00" stroke="#17202a" stroke-width="2.2" stroke-linecap="round"/>
<line x1="210.00" y1="65.00" x2="210.00" y2="102.12" stroke="#17202a" stroke-width="2.2" stroke-linecap="round"/>
<rect x="196" y="102.125" width="28" height="60.75" fill="white" stroke="#17202a" stroke-width="2.2"/>
<line x1="210.00" y1="162.88" x2="210.00" y2="200.00" stroke="#17202a" stroke-width="2.2" stroke-linecap="round"/>
<text text-anchor="end" dominant-baseline="middle" font-family="Cambria Math,Cambria,Times New Roman,serif" font-size="21" fill="#17202a" style=""><tspan x="186" y="120.95">R</tspan><tspan x="186" y="144.05">136 kΩ</tspan></text>
<line x1="360.00" y1="170.00" x2="360.00" y2="230.00" stroke="#17202a" stroke-width="2.4" stroke-linecap="round"/>
<line x1="210.00" y1="200.00" x2="360.00" y2="200.00" stroke="#17202a" stroke-width="2.2" stroke-linecap="round"/>
<line x1="360.00" y1="185.00" x2="405.00" y2="150.00" stroke="#17202a" stroke-width="2.2" stroke-linecap="round"/>
<line x1="405.00" y1="150.00" x2="405.00" y2="65.00" stroke="#17202a" stroke-width="2.2" stroke-linecap="round"/>
<line x1="360.00" y1="215.00" x2="405.00" y2="250.00" stroke="#17202a" stroke-width="2.2" stroke-linecap="round"/>
<line x1="405.00" y1="250.00" x2="405.00" y2="300.00" stroke="#17202a" stroke-width="2.2" stroke-linecap="round"/>
<line x1="400.00" y1="154.00" x2="373.00" y2="176.00" stroke="#17202a" stroke-width="1.4" stroke-linecap="round"/>
<polygon points="373.00,176.00 375.21,169.36 379.95,175.17" fill="#17202a" stroke="#17202a" stroke-width="1.3" stroke-linejoin="round"/>
<text x="425" y="200" text-anchor="start" dominant-baseline="middle" font-family="Cambria Math,Cambria,Times New Roman,serif" font-size="18" fill="#17202a" style=""><tspan>T</tspan><tspan baseline-shift="sub" font-size="70%">3</tspan></text>
<polyline points="265.20,267.52 265.20,200.00 210.00,200.00" fill="none" stroke="#17202a" stroke-width="1.8" stroke-linejoin="round" stroke-linecap="round"/>
<line x1="405.00" y1="300.00" x2="203.60" y2="300.00" stroke="#17202a" stroke-width="2.2" stroke-linecap="round"/>
<circle cx="405" cy="300" r="3" fill="#17202a" stroke="#17202a" stroke-width="2.2"/>
<line x1="525.20" y1="267.52" x2="525.20" y2="105.00" stroke="#17202a" stroke-width="2.2" stroke-linecap="round"/>
<circle cx="525.2" cy="105" r="4" fill="white" stroke="#17202a" stroke-width="1.4"/>
<line x1="540.00" y1="125.00" x2="540.00" y2="190.00" stroke="#17202a" stroke-width="1.3" stroke-linecap="round"/>
<polygon points="540.00,190.00 536.25,184.09 543.75,184.09" fill="#17202a" stroke="#17202a" stroke-width="1.3" stroke-linejoin="round"/>
<text x="558" y="150" text-anchor="start" dominant-baseline="middle" font-family="Cambria Math,Cambria,Times New Roman,serif" font-size="16" fill="#17202a" style="font-style:italic;"><tspan>I</tspan><tspan baseline-shift="sub" font-size="70%">C1</tspan></text>
<line x1="745.20" y1="267.52" x2="745.20" y2="105.00" stroke="#17202a" stroke-width="2.2" stroke-linecap="round"/>
<circle cx="745.2" cy="105" r="4" fill="white" stroke="#17202a" stroke-width="1.4"/>
<line x1="760.00" y1="125.00" x2="760.00" y2="190.00" stroke="#17202a" stroke-width="1.3" stroke-linecap="round"/>
<polygon points="760.00,190.00 756.25,184.09 763.75,184.09" fill="#17202a" stroke="#17202a" stroke-width="1.3" stroke-linejoin="round"/>
<text x="778" y="150" text-anchor="start" dominant-baseline="middle" font-family="Cambria Math,Cambria,Times New Roman,serif" font-size="16" fill="#17202a" style="font-style:italic;"><tspan>I</tspan><tspan baseline-shift="sub" font-size="70%">C2</tspan></text>
<text x="490.0" y="556" text-anchor="middle" dominant-baseline="middle" font-family="SimSun,STSong,serif" font-size="22" fill="#17202a" style="">图 2.5.43　题 2.6.1 的图</text>
</svg>
