<svg xmlns="http://www.w3.org/2000/svg" width="1120" height="620" viewBox="0 0 1120 620">
<title>图2.5.13 放大电路失真波形</title>
<rect width="100%" height="100%" fill="white"/>
<line x1="275.00" y1="234.00" x2="275.00" y2="276.00" stroke="#17202a" stroke-width="2.2" stroke-linecap="round"/>
<line x1="231.50" y1="255.00" x2="275.00" y2="255.00" stroke="#17202a" stroke-width="1.8" stroke-linecap="round"/>
<line x1="275.00" y1="242.25" x2="306.50" y2="217.50" stroke="#17202a" stroke-width="1.8" stroke-linecap="round"/>
<line x1="275.00" y1="267.75" x2="306.50" y2="292.50" stroke="#17202a" stroke-width="1.8" stroke-linecap="round"/>
<line x1="286.25" y1="276.75" x2="306.50" y2="292.50" stroke="#17202a" stroke-width="1.5" stroke-linecap="round"/>
<polygon points="306.50,292.50 300.53,291.93 304.47,286.85" fill="#17202a" stroke="#17202a" stroke-width="1.3" stroke-linejoin="round"/>
<text x="324.5" y="255" text-anchor="start" dominant-baseline="middle" font-family="Cambria Math,Cambria,Times New Roman,serif" font-size="17" fill="#17202a" style="">T</text>
<line x1="306.50" y1="80.00" x2="375.00" y2="80.00" stroke="#17202a" stroke-width="2.2" stroke-linecap="round"/>
<circle cx="375" cy="80" r="3.5" fill="white" stroke="#17202a" stroke-width="1.4"/>
<text x="395" y="80" text-anchor="start" dominant-baseline="middle" font-family="Cambria Math,Cambria,Times New Roman,serif" font-size="17" fill="#17202a" style=""><tspan>+V</tspan><tspan baseline-shift="sub" font-size="70%">CC</tspan></text>
<line x1="306.50" y1="80.00" x2="306.50" y2="117.81" stroke="#17202a" stroke-width="2.2" stroke-linecap="round"/>
<rect x="292.5" y="117.8125" width="28" height="61.875" fill="white" stroke="#17202a" stroke-width="2.2"/>
<line x1="306.50" y1="179.69" x2="306.50" y2="217.50" stroke="#17202a" stroke-width="2.2" stroke-linecap="round"/>
<text x="282.5" y="148.75" text-anchor="end" dominant-baseline="middle" font-family="Cambria Math,Cambria,Times New Roman,serif" font-size="21" fill="#17202a" style=""><tspan>R</tspan><tspan baseline-shift="sub" font-size="70%">C</tspan></text>
<line x1="306.50" y1="292.50" x2="306.50" y2="430.00" stroke="#17202a" stroke-width="2.2" stroke-linecap="round"/>
<line x1="306.50" y1="430.00" x2="306.50" y2="442.00" stroke="#17202a" stroke-width="2.2" stroke-linecap="round"/>
<line x1="288.50" y1="442.00" x2="324.50" y2="442.00" stroke="#17202a" stroke-width="2.2" stroke-linecap="round"/>
<line x1="294.50" y1="449.00" x2="318.50" y2="449.00" stroke="#17202a" stroke-width="2.2" stroke-linecap="round"/>
<line x1="300.50" y1="456.00" x2="312.50" y2="456.00" stroke="#17202a" stroke-width="2.2" stroke-linecap="round"/>
<line x1="105.00" y1="230.00" x2="105.00" y2="245.00" stroke="#17202a" stroke-width="2.2" stroke-linecap="round"/>
<circle cx="105" cy="275.0" r="30" fill="white" stroke="#17202a" stroke-width="2.2"/>
<line x1="105.00" y1="305.00" x2="105.00" y2="320.00" stroke="#17202a" stroke-width="2.2" stroke-linecap="round"/>
<text x="143" y="255.0" text-anchor="middle" dominant-baseline="middle" font-family="Cambria Math,Cambria,Times New Roman,serif" font-size="21" fill="#17202a" style="">+</text>
<text x="143" y="297.0" text-anchor="middle" dominant-baseline="middle" font-family="Cambria Math,Cambria,Times New Roman,serif" font-size="23" fill="#17202a" style="">−</text>
<text x="153" y="275.0" text-anchor="start" dominant-baseline="middle" font-family="Cambria Math,Cambria,Times New Roman,serif" font-size="22" fill="#17202a" style="font-style:italic;"><tspan>v</tspan><tspan baseline-shift="sub" font-size="70%">s</tspan></text>
<line x1="105.00" y1="320.00" x2="105.00" y2="363.00" stroke="#17202a" stroke-width="2.2" stroke-linecap="round"/>
<line x1="87.00" y1="368.00" x2="123.00" y2="368.00" stroke="#17202a" stroke-width="2.2" stroke-linecap="round"/>
<line x1="94.00" y1="382.00" x2="116.00" y2="382.00" stroke="#17202a" stroke-width="2.2" stroke-linecap="round"/>
<line x1="105.00" y1="387.00" x2="105.00" y2="430.00" stroke="#17202a" stroke-width="2.2" stroke-linecap="round"/>
<text x="133" y="375.0" text-anchor="start" dominant-baseline="middle" font-family="Cambria Math,Cambria,Times New Roman,serif" font-size="21" fill="#17202a" style=""><tspan>V</tspan><tspan baseline-shift="sub" font-size="70%">BB</tspan></text>
<line x1="105.00" y1="230.00" x2="135.80" y2="230.00" stroke="#17202a" stroke-width="2.2" stroke-linecap="round"/>
<rect x="135.8" y="216" width="50.4" height="28" fill="white" stroke="#17202a" stroke-width="2.2"/>
<line x1="186.20" y1="230.00" x2="217.00" y2="230.00" stroke="#17202a" stroke-width="2.2" stroke-linecap="round"/>
<text x="161.0" y="198" text-anchor="middle" dominant-baseline="middle" font-family="Cambria Math,Cambria,Times New Roman,serif" font-size="22" fill="#17202a" style=""><tspan>R</tspan><tspan baseline-shift="sub" font-size="70%">B</tspan></text>
<line x1="217.00" y1="230.00" x2="217.00" y2="255.00" stroke="#17202a" stroke-width="2.2" stroke-linecap="round"/>
<line x1="217.00" y1="255.00" x2="275.00" y2="255.00" stroke="#17202a" stroke-width="2.2" stroke-linecap="round"/>
<line x1="306.50" y1="217.50" x2="375.00" y2="217.50" stroke="#17202a" stroke-width="2.2" stroke-linecap="round"/>
<circle cx="375" cy="217.5" r="3.5" fill="white" stroke="#17202a" stroke-width="1.4"/>
<circle cx="375" cy="430" r="3.5" fill="white" stroke="#17202a" stroke-width="1.4"/>
<text x="405" y="323.75" text-anchor="start" dominant-baseline="middle" font-family="Cambria Math,Cambria,Times New Roman,serif" font-size="17" fill="#17202a" style="font-style:italic;"><tspan>v</tspan><tspan baseline-shift="sub" font-size="70%">o</tspan></text>
<text x="230" y="490" text-anchor="middle" dominant-baseline="middle" font-family="Cambria Math,Cambria,Times New Roman,serif" font-size="17" fill="#17202a" style="">(a)</text>
<polyline points="455.00,270.00 456.56,265.99 458.11,261.98 459.67,257.98 461.22,254.00 462.78,250.03 464.33,246.09 465.89,242.18 467.44,238.30 469.00,234.46 470.56,230.67 472.11,226.92 473.67,223.23 475.22,219.59 476.78,216.01 478.33,212.50 479.89,209.06 481.44,205.69 483.00,202.40 484.56,199.20 486.11,196.08 487.67,193.05 489.22,190.11 490.78,187.28 492.33,184.54 493.89,181.90 495.44,179.38 497.00,176.96 498.56,174.66 500.11,172.47 501.67,170.41 503.22,168.46 504.78,166.64 506.33,164.94 507.89,163.37 509.44,161.94 511.00,160.63 512.56,159.45 514.11,158.42 515.67,157.51 517.22,156.75 518.78,156.12 520.33,155.63 521.89,155.28 523.44,155.07 525.00,155.00 526.56,155.07 528.11,155.28 529.67,155.63 531.22,156.12 532.78,156.75 534.33,157.51 535.89,158.42 537.44,159.45 539.00,160.63 540.56,161.94 542.11,163.37 543.67,164.94 545.22,166.64 546.78,168.46 548.33,170.41 549.89,172.47 551.44,174.66 553.00,176.96 554.56,179.38 556.11,181.90 557.67,184.54 559.22,187.28 560.78,190.11 562.33,193.05 563.89,196.08 565.44,199.20 567.00,202.40 568.56,205.69 570.11,209.06 571.67,212.50 573.22,216.01 574.78,219.59 576.33,223.23 577.89,226.92 579.44,230.67 581.00,234.46 582.56,238.30 584.11,242.18 585.67,246.09 587.22,250.03 588.78,254.00 590.33,257.98 591.89,261.98 593.44,265.99 595.00,270.00 596.56,274.01 598.11,278.02 599.67,282.02 601.22,286.00 602.78,289.97 604.33,293.91 605.89,297.82 607.44,301.70 609.00,305.54 610.56,309.33 612.11,313.08 613.67,316.77 615.22,320.41 616.78,323.99 618.33,327.50 619.89,330.94 621.44,334.31 623.00,335.00 624.56,335.00 626.11,335.00 627.67,335.00 629.22,335.00 630.78,335.00 632.33,335.00 633.89,335.00 635.44,335.00 637.00,335.00 638.56,335.00 640.11,335.00 641.67,335.00 643.22,335.00 644.78,335.00 646.33,335.00 647.89,335.00 649.44,335.00 651.00,335.00 652.56,335.00 654.11,335.00 655.67,335.00 657.22,335.00 658.78,335.00 660.33,335.00 661.89,335.00 663.44,335.00 665.00,335.00 666.56,335.00 668.11,335.00 669.67,335.00 671.22,335.00 672.78,335.00 674.33,335.00 675.89,335.00 677.44,335.00 679.00,335.00 680.56,335.00 682.11,335.00 683.67,335.00 685.22,335.00 686.78,335.00 688.33,335.00 689.89,335.00 691.44,335.00 693.00,335.00 694.56,335.00 696.11,335.00 697.67,335.00 699.22,335.00 700.78,335.00 702.33,335.00 703.89,335.00 705.44,335.00 707.00,335.00 708.56,334.31 710.11,330.94 711.67,327.50 713.22,323.99 714.78,320.41 716.33,316.77 717.89,313.08 719.44,309.33 721.00,305.54 722.56,301.70 724.11,297.82 725.67,293.91 727.22,289.97 728.78,286.00 730.33,282.02 731.89,278.02 733.44,274.01 735.00,270.00" fill="none" stroke="#17202a" stroke-width="2.2" stroke-linejoin="round" stroke-linecap="round"/>
<text x="595.0" y="490" text-anchor="middle" dominant-baseline="middle" font-family="Cambria Math,Cambria,Times New Roman,serif" font-size="17" fill="#17202a" style="">(b)</text>
<polyline points="790.00,270.00 791.56,265.99 793.11,261.98 794.67,257.98 796.22,254.00 797.78,250.03 799.33,246.09 800.89,242.18 802.44,238.30 804.00,234.46 805.56,230.67 807.11,226.92 808.67,223.23 810.22,219.59 811.78,216.01 813.33,212.50 814.89,209.06 816.44,208.00 818.00,208.00 819.56,208.00 821.11,208.00 822.67,208.00 824.22,208.00 825.78,208.00 827.33,208.00 828.89,208.00 830.44,208.00 832.00,208.00 833.56,208.00 835.11,208.00 836.67,208.00 838.22,208.00 839.78,208.00 841.33,208.00 842.89,208.00 844.44,208.00 846.00,208.00 847.56,208.00 849.11,208.00 850.67,208.00 852.22,208.00 853.78,208.00 855.33,208.00 856.89,208.00 858.44,208.00 860.00,208.00 861.56,208.00 863.11,208.00 864.67,208.00 866.22,208.00 867.78,208.00 869.33,208.00 870.89,208.00 872.44,208.00 874.00,208.00 875.56,208.00 877.11,208.00 878.67,208.00 880.22,208.00 881.78,208.00 883.33,208.00 884.89,208.00 886.44,208.00 888.00,208.00 889.56,208.00 891.11,208.00 892.67,208.00 894.22,208.00 895.78,208.00 897.33,208.00 898.89,208.00 900.44,208.00 902.00,208.00 903.56,208.00 905.11,209.06 906.67,212.50 908.22,216.01 909.78,219.59 911.33,223.23 912.89,226.92 914.44,230.67 916.00,234.46 917.56,238.30 919.11,242.18 920.67,246.09 922.22,250.03 923.78,254.00 925.33,257.98 926.89,261.98 928.44,265.99 930.00,270.00 931.56,274.01 933.11,278.02 934.67,282.02 936.22,286.00 937.78,289.97 939.33,293.91 940.89,297.82 942.44,301.70 944.00,305.54 945.56,309.33 947.11,313.08 948.67,316.77 950.22,320.41 951.78,323.99 953.33,327.50 954.89,330.94 956.44,334.31 958.00,337.60 959.56,340.80 961.11,343.92 962.67,346.95 964.22,349.89 965.78,352.72 967.33,355.46 968.89,358.10 970.44,360.62 972.00,363.04 973.56,365.34 975.11,367.53 976.67,369.59 978.22,371.54 979.78,373.36 981.33,375.06 982.89,376.63 984.44,378.06 986.00,379.37 987.56,380.55 989.11,381.58 990.67,382.49 992.22,383.25 993.78,383.88 995.33,384.37 996.89,384.72 998.44,384.93 1000.00,385.00 1001.56,384.93 1003.11,384.72 1004.67,384.37 1006.22,383.88 1007.78,383.25 1009.33,382.49 1010.89,381.58 1012.44,380.55 1014.00,379.37 1015.56,378.06 1017.11,376.63 1018.67,375.06 1020.22,373.36 1021.78,371.54 1023.33,369.59 1024.89,367.53 1026.44,365.34 1028.00,363.04 1029.56,360.62 1031.11,358.10 1032.67,355.46 1034.22,352.72 1035.78,349.89 1037.33,346.95 1038.89,343.92 1040.44,340.80 1042.00,337.60 1043.56,334.31 1045.11,330.94 1046.67,327.50 1048.22,323.99 1049.78,320.41 1051.33,316.77 1052.89,313.08 1054.44,309.33 1056.00,305.54 1057.56,301.70 1059.11,297.82 1060.67,293.91 1062.22,289.97 1063.78,286.00 1065.33,282.02 1066.89,278.02 1068.44,274.01 1070.00,270.00" fill="none" stroke="#17202a" stroke-width="2.2" stroke-linejoin="round" stroke-linecap="round"/>
<text x="930.0" y="490" text-anchor="middle" dominant-baseline="middle" font-family="Cambria Math,Cambria,Times New Roman,serif" font-size="17" fill="#17202a" style="">(c)</text>
<text x="560.0" y="596" text-anchor="middle" dominant-baseline="middle" font-family="SimSun,STSong,serif" font-size="22" fill="#17202a" style="">图 2.5.13　题 2.3.4 的图</text>
</svg>
