<svg xmlns="http://www.w3.org/2000/svg" width="900" height="350" viewBox="0 0 900 350">
<title>图1.4.1 题1.2.2</title>
<rect width="100%" height="100%" fill="white"/>
<circle cx="105" cy="150" r="4.5" fill="white" stroke="#17202a" stroke-width="1.4"/>
<circle cx="795" cy="150" r="4.5" fill="white" stroke="#17202a" stroke-width="1.4"/>
<line x1="105.00" y1="150.00" x2="222.50" y2="150.00" stroke="#17202a" stroke-width="2.2" stroke-linecap="round"/>
<line x1="272.50" y1="150.00" x2="390.00" y2="150.00" stroke="#17202a" stroke-width="2.2" stroke-linecap="round"/>
<polygon points="224.50,132.00 224.50,168.00 257.50,150.00" fill="white" stroke="#17202a" stroke-width="2.2" stroke-linejoin="round"/>
<line x1="260.50" y1="128.00" x2="260.50" y2="172.00" stroke="#17202a" stroke-width="3" stroke-linecap="round"/>
<text text-anchor="middle" dominant-baseline="middle" font-family="Cambria Math,Cambria,Times New Roman,serif" font-size="21" fill="#17202a" style=""><tspan x="247.5" y="176.45">D₁</tspan><tspan x="247.5" y="199.54999999999998">(Ge)</tspan></text>
<line x1="390.00" y1="150.00" x2="567.50" y2="150.00" stroke="#17202a" stroke-width="2.2" stroke-linecap="round"/>
<line x1="617.50" y1="150.00" x2="795.00" y2="150.00" stroke="#17202a" stroke-width="2.2" stroke-linecap="round"/>
<polygon points="569.50,132.00 569.50,168.00 602.50,150.00" fill="white" stroke="#17202a" stroke-width="2.2" stroke-linejoin="round"/>
<line x1="605.50" y1="128.00" x2="605.50" y2="172.00" stroke="#17202a" stroke-width="3" stroke-linecap="round"/>
<text text-anchor="middle" dominant-baseline="middle" font-family="Cambria Math,Cambria,Times New Roman,serif" font-size="21" fill="#17202a" style=""><tspan x="592.5" y="176.45">D₂</tspan><tspan x="592.5" y="199.54999999999998">(Si)</tspan></text>
<line x1="120.00" y1="95.00" x2="280.00" y2="95.00" stroke="#2563eb" stroke-width="2.2" stroke-linecap="round"/>
<polygon points="280.00,95.00 269.87,101.43 269.87,88.57" fill="#2563eb" stroke="#2563eb" stroke-width="1.3" stroke-linejoin="round"/>
<text x="200" y="66" text-anchor="middle" dominant-baseline="middle" font-family="Cambria Math,Cambria,Times New Roman,serif" font-size="24" fill="#2563eb" style="">1 mA</text>
<text x="450.0" y="326" text-anchor="middle" dominant-baseline="middle" font-family="SimSun,STSong,serif" font-size="22" fill="#17202a" style="">图 1.4.1　题 1.2.2 的图</text>
</svg>
