<svg xmlns="http://www.w3.org/2000/svg" width="720" height="590" viewBox="0 0 720 590">
<title>图2.5.29 晶体管开关状态分析电路</title>
<rect width="100%" height="100%" fill="white"/>
<line x1="150.00" y1="70.00" x2="575.00" y2="70.00" stroke="#17202a" stroke-width="2.2" stroke-linecap="round"/>
<line x1="150.00" y1="455.00" x2="575.00" y2="455.00" stroke="#17202a" stroke-width="2.2" stroke-linecap="round"/>
<line x1="400.00" y1="253.40" x2="400.00" y2="296.60" stroke="#17202a" stroke-width="3" stroke-linecap="round"/>
<line x1="353.20" y1="275.00" x2="400.00" y2="275.00" stroke="#17202a" stroke-width="2.2" stroke-linecap="round"/>
<line x1="400.00" y1="262.04" x2="432.40" y2="233.24" stroke="#17202a" stroke-width="2.2" stroke-linecap="round"/>
<line x1="400.00" y1="287.96" x2="432.40" y2="316.76" stroke="#17202a" stroke-width="2.2" stroke-linecap="round"/>
<line x1="412.96" y1="299.48" x2="432.40" y2="316.76" stroke="#17202a" stroke-width="2" stroke-linecap="round"/>
<polygon points="432.40,316.76 425.29,315.60 430.42,309.84" fill="#17202a" stroke="#17202a" stroke-width="1.3" stroke-linejoin="round"/>
<text x="456.15999999999997" y="275" text-anchor="start" dominant-baseline="middle" font-family="Cambria Math,Cambria,Times New Roman,serif" font-size="21" fill="#17202a" style="">T</text>
<line x1="190.00" y1="70.00" x2="190.00" y2="134.50" stroke="#17202a" stroke-width="2.2" stroke-linecap="round"/>
<rect x="176" y="134.5" width="28" height="76" fill="white" stroke="#17202a" stroke-width="2.2"/>
<line x1="190.00" y1="210.50" x2="190.00" y2="275.00" stroke="#17202a" stroke-width="2.2" stroke-linecap="round"/>
<text x="166" y="172.5" text-anchor="end" dominant-baseline="middle" font-family="Cambria Math,Cambria,Times New Roman,serif" font-size="21" fill="#17202a" style=""><tspan>R</tspan><tspan baseline-shift="sub" font-size="70%">B1</tspan></text>
<line x1="190.00" y1="275.00" x2="190.00" y2="327.00" stroke="#17202a" stroke-width="2.2" stroke-linecap="round"/>
<rect x="176" y="327.0" width="28" height="76" fill="white" stroke="#17202a" stroke-width="2.2"/>
<line x1="190.00" y1="403.00" x2="190.00" y2="455.00" stroke="#17202a" stroke-width="2.2" stroke-linecap="round"/>
<text text-anchor="end" dominant-baseline="middle" font-family="Cambria Math,Cambria,Times New Roman,serif" font-size="21" fill="#17202a" style=""><tspan x="166" y="353.45">R_B2</tspan><tspan x="166" y="376.55">20 kΩ</tspan></text>
<line x1="190.00" y1="275.00" x2="353.20" y2="275.00" stroke="#17202a" stroke-width="2.2" stroke-linecap="round"/>
<circle cx="190" cy="275" r="3" fill="#17202a" stroke="#17202a" stroke-width="2.2"/>
<line x1="432.40" y1="70.00" x2="432.40" y2="114.89" stroke="#17202a" stroke-width="2.2" stroke-linecap="round"/>
<rect x="418.4" y="114.89099999999999" width="28" height="73.45800000000001" fill="white" stroke="#17202a" stroke-width="2.2"/>
<line x1="432.40" y1="188.35" x2="432.40" y2="233.24" stroke="#17202a" stroke-width="2.2" stroke-linecap="round"/>
<text text-anchor="end" dominant-baseline="middle" font-family="Cambria Math,Cambria,Times New Roman,serif" font-size="21" fill="#17202a" style=""><tspan x="408.4" y="140.07">R_C</tspan><tspan x="408.4" y="163.17">2 kΩ</tspan></text>
<line x1="432.40" y1="316.76" x2="432.40" y2="455.00" stroke="#17202a" stroke-width="2.2" stroke-linecap="round"/>
<line x1="432.40" y1="443.00" x2="432.40" y2="455.00" stroke="#17202a" stroke-width="2.2" stroke-linecap="round"/>
<line x1="414.40" y1="455.00" x2="450.40" y2="455.00" stroke="#17202a" stroke-width="2.2" stroke-linecap="round"/>
<line x1="420.40" y1="462.00" x2="444.40" y2="462.00" stroke="#17202a" stroke-width="2.2" stroke-linecap="round"/>
<line x1="426.40" y1="469.00" x2="438.40" y2="469.00" stroke="#17202a" stroke-width="2.2" stroke-linecap="round"/>
<line x1="575.00" y1="70.00" x2="575.00" y2="250.50" stroke="#17202a" stroke-width="2.2" stroke-linecap="round"/>
<line x1="557.00" y1="255.50" x2="593.00" y2="255.50" stroke="#17202a" stroke-width="2.2" stroke-linecap="round"/>
<line x1="564.00" y1="269.50" x2="586.00" y2="269.50" stroke="#17202a" stroke-width="2.2" stroke-linecap="round"/>
<line x1="575.00" y1="274.50" x2="575.00" y2="455.00" stroke="#17202a" stroke-width="2.2" stroke-linecap="round"/>
<text text-anchor="start" dominant-baseline="middle" font-family="Cambria Math,Cambria,Times New Roman,serif" font-size="21" fill="#17202a" style=""><tspan x="603" y="250.95">V_CC</tspan><tspan x="603" y="274.05">(10 V)</tspan></text>
<line x1="265.00" y1="250.00" x2="335.00" y2="250.00" stroke="#17202a" stroke-width="1.5" stroke-linecap="round"/>
<polygon points="335.00,250.00 328.25,254.29 328.25,245.71" fill="#17202a" stroke="#17202a" stroke-width="1.3" stroke-linejoin="round"/>
<text x="300" y="225" text-anchor="middle" dominant-baseline="middle" font-family="Cambria Math,Cambria,Times New Roman,serif" font-size="17" fill="#17202a" style="font-style:italic;"><tspan>I</tspan><tspan baseline-shift="sub" font-size="70%">B</tspan></text>
<line x1="457.40" y1="115.00" x2="457.40" y2="185.00" stroke="#17202a" stroke-width="1.5" stroke-linecap="round"/>
<polygon points="457.40,185.00 453.11,178.25 461.69,178.25" fill="#17202a" stroke="#17202a" stroke-width="1.3" stroke-linejoin="round"/>
<text x="480.4" y="145" text-anchor="start" dominant-baseline="middle" font-family="Cambria Math,Cambria,Times New Roman,serif" font-size="17" fill="#17202a" style="font-style:italic;"><tspan>I</tspan><tspan baseline-shift="sub" font-size="70%">C</tspan></text>
<text x="360.0" y="566" text-anchor="middle" dominant-baseline="middle" font-family="SimSun,STSong,serif" font-size="22" fill="#17202a" style="">图 2.5.29　题 2.4.4 的图</text>
</svg>
