<svg xmlns="http://www.w3.org/2000/svg" width="860" height="650" viewBox="0 0 860 650">
<title>图 2.5.46 电容充电电流镜</title>
<rect width="100%" height="100%" fill="white"/>
<line x1="220.00" y1="90.00" x2="675.00" y2="90.00" stroke="#17202a" stroke-width="2.2" stroke-linecap="round"/>
<line x1="675.00" y1="90.00" x2="710.00" y2="90.00" stroke="#17202a" stroke-width="2.2" stroke-linecap="round"/>
<line x1="710.00" y1="90.00" x2="746.00" y2="82.00" stroke="#17202a" stroke-width="2.2" stroke-linecap="round"/>
<line x1="757.00" y1="90.00" x2="775.00" y2="90.00" stroke="#17202a" stroke-width="2.2" stroke-linecap="round"/>
<circle cx="790" cy="90" r="5" fill="white" stroke="#17202a" stroke-width="1.4"/>
<text text-anchor="start" dominant-baseline="middle" font-family="Cambria Math,Cambria,Times New Roman,serif" font-size="20" fill="#17202a" style=""><tspan x="804" y="79.0">+V_CC</tspan><tspan x="804" y="101.0">(+15 V)</tspan></text>
<text x="735" y="58" text-anchor="middle" dominant-baseline="middle" font-family="Cambria Math,Cambria,Times New Roman,serif" font-size="20" fill="#17202a" style="">S</text>
<line x1="315.00" y1="305.50" x2="315.00" y2="344.50" stroke="#17202a" stroke-width="3" stroke-linecap="round"/>
<line x1="272.75" y1="325.00" x2="315.00" y2="325.00" stroke="#17202a" stroke-width="2.2" stroke-linecap="round"/>
<line x1="315.00" y1="313.30" x2="344.25" y2="287.30" stroke="#17202a" stroke-width="2.2" stroke-linecap="round"/>
<line x1="315.00" y1="336.70" x2="344.25" y2="362.70" stroke="#17202a" stroke-width="2.2" stroke-linecap="round"/>
<line x1="326.70" y1="347.10" x2="344.25" y2="362.70" stroke="#17202a" stroke-width="2" stroke-linecap="round"/>
<polygon points="344.25,362.70 337.83,361.66 342.46,356.45" fill="#17202a" stroke="#17202a" stroke-width="1.3" stroke-linejoin="round"/>
<text x="365.7" y="325" text-anchor="start" dominant-baseline="middle" font-family="Cambria Math,Cambria,Times New Roman,serif" font-size="21" fill="#17202a" style=""><tspan>T</tspan><tspan baseline-shift="sub" font-size="70%">1</tspan></text>
<line x1="555.00" y1="305.50" x2="555.00" y2="344.50" stroke="#17202a" stroke-width="3" stroke-linecap="round"/>
<line x1="597.25" y1="325.00" x2="555.00" y2="325.00" stroke="#17202a" stroke-width="2.2" stroke-linecap="round"/>
<line x1="555.00" y1="313.30" x2="525.75" y2="287.30" stroke="#17202a" stroke-width="2.2" stroke-linecap="round"/>
<line x1="555.00" y1="336.70" x2="525.75" y2="362.70" stroke="#17202a" stroke-width="2.2" stroke-linecap="round"/>
<line x1="543.30" y1="347.10" x2="525.75" y2="362.70" stroke="#17202a" stroke-width="2" stroke-linecap="round"/>
<polygon points="525.75,362.70 527.54,356.45 532.17,361.66" fill="#17202a" stroke="#17202a" stroke-width="1.3" stroke-linejoin="round"/>
<text x="504.3" y="325" text-anchor="end" dominant-baseline="middle" font-family="Cambria Math,Cambria,Times New Roman,serif" font-size="21" fill="#17202a" style=""><tspan>T</tspan><tspan baseline-shift="sub" font-size="70%">2</tspan></text>
<line x1="272.75" y1="325.00" x2="597.25" y2="325.00" stroke="#17202a" stroke-width="2.2" stroke-linecap="round"/>
<line x1="344.25" y1="287.30" x2="344.25" y2="325.00" stroke="#17202a" stroke-width="2.2" stroke-linecap="round"/>
<line x1="344.25" y1="325.00" x2="272.75" y2="325.00" stroke="#17202a" stroke-width="2.2" stroke-linecap="round"/>
<line x1="344.25" y1="90.00" x2="344.25" y2="150.65" stroke="#17202a" stroke-width="2.2" stroke-linecap="round"/>
<rect x="330.25" y="150.65" width="28" height="76" fill="white" stroke="#17202a" stroke-width="2.2"/>
<line x1="344.25" y1="226.65" x2="344.25" y2="287.30" stroke="#17202a" stroke-width="2.2" stroke-linecap="round"/>
<text text-anchor="end" dominant-baseline="middle" font-family="Cambria Math,Cambria,Times New Roman,serif" font-size="21" fill="#17202a" style=""><tspan x="320.25" y="177.1">R</tspan><tspan x="320.25" y="200.2">12 kΩ</tspan></text>
<line x1="525.75" y1="90.00" x2="525.75" y2="179.65" stroke="#17202a" stroke-width="2.2" stroke-linecap="round"/>
<line x1="503.75" y1="179.65" x2="547.75" y2="179.65" stroke="#17202a" stroke-width="3" stroke-linecap="round"/>
<line x1="503.75" y1="197.65" x2="547.75" y2="197.65" stroke="#17202a" stroke-width="3" stroke-linecap="round"/>
<line x1="525.75" y1="197.65" x2="525.75" y2="287.30" stroke="#17202a" stroke-width="2.2" stroke-linecap="round"/>
<text text-anchor="start" dominant-baseline="middle" font-family="Cambria Math,Cambria,Times New Roman,serif" font-size="20" fill="#17202a" style=""><tspan x="567.75" y="177.65">C</tspan><tspan x="567.75" y="199.65">10 μF</tspan></text>
<line x1="344.25" y1="362.70" x2="344.25" y2="505.00" stroke="#17202a" stroke-width="2.2" stroke-linecap="round"/>
<line x1="525.75" y1="362.70" x2="525.75" y2="505.00" stroke="#17202a" stroke-width="2.2" stroke-linecap="round"/>
<line x1="344.25" y1="505.00" x2="525.75" y2="505.00" stroke="#17202a" stroke-width="2.2" stroke-linecap="round"/>
<line x1="435.00" y1="493.00" x2="435.00" y2="505.00" stroke="#17202a" stroke-width="2.2" stroke-linecap="round"/>
<line x1="417.00" y1="505.00" x2="453.00" y2="505.00" stroke="#17202a" stroke-width="2.2" stroke-linecap="round"/>
<line x1="423.00" y1="512.00" x2="447.00" y2="512.00" stroke="#17202a" stroke-width="2.2" stroke-linecap="round"/>
<line x1="429.00" y1="519.00" x2="441.00" y2="519.00" stroke="#17202a" stroke-width="2.2" stroke-linecap="round"/>
<line x1="245.00" y1="155.00" x2="245.00" y2="225.00" stroke="#17202a" stroke-width="1.5" stroke-linecap="round"/>
<polygon points="245.00,225.00 240.71,218.25 249.29,218.25" fill="#17202a" stroke="#17202a" stroke-width="1.3" stroke-linejoin="round"/>
<text x="215" y="190" text-anchor="end" dominant-baseline="middle" font-family="Cambria Math,Cambria,Times New Roman,serif" font-size="18" fill="#17202a" style="font-style:italic;"><tspan>I</tspan><tspan baseline-shift="sub" font-size="70%">R</tspan></text>
<line x1="405.00" y1="285.00" x2="465.00" y2="285.00" stroke="#17202a" stroke-width="1.5" stroke-linecap="round"/>
<polygon points="465.00,285.00 458.25,289.29 458.25,280.71" fill="#17202a" stroke="#17202a" stroke-width="1.3" stroke-linejoin="round"/>
<text x="435" y="260" text-anchor="middle" dominant-baseline="middle" font-family="Cambria Math,Cambria,Times New Roman,serif" font-size="18" fill="#17202a" style="font-style:italic;"><tspan>2I</tspan><tspan baseline-shift="sub" font-size="70%">B</tspan></text>
<line x1="270.00" y1="285.00" x2="270.00" y2="350.00" stroke="#17202a" stroke-width="1.5" stroke-linecap="round"/>
<polygon points="270.00,350.00 265.71,343.25 274.29,343.25" fill="#17202a" stroke="#17202a" stroke-width="1.3" stroke-linejoin="round"/>
<text x="240" y="318" text-anchor="end" dominant-baseline="middle" font-family="Cambria Math,Cambria,Times New Roman,serif" font-size="18" fill="#17202a" style="font-style:italic;"><tspan>I</tspan><tspan baseline-shift="sub" font-size="70%">C1</tspan></text>
<line x1="620.00" y1="250.00" x2="620.00" y2="320.00" stroke="#17202a" stroke-width="1.5" stroke-linecap="round"/>
<polygon points="620.00,320.00 615.71,313.25 624.29,313.25" fill="#17202a" stroke="#17202a" stroke-width="1.3" stroke-linejoin="round"/>
<text x="645" y="285" text-anchor="start" dominant-baseline="middle" font-family="Cambria Math,Cambria,Times New Roman,serif" font-size="18" fill="#17202a" style="font-style:italic;"><tspan>I</tspan><tspan baseline-shift="sub" font-size="70%">C2</tspan></text>
<text x="430.0" y="626" text-anchor="middle" dominant-baseline="middle" font-family="SimSun,STSong,serif" font-size="22" fill="#17202a" style="">图 2.5.46　题 2.6.4 的图</text>
</svg>
