<svg xmlns="http://www.w3.org/2000/svg" width="650" height="600" viewBox="0 0 650 600">
<title>图2.5.28 分压偏置电路</title>
<rect width="100%" height="100%" fill="white"/>
<line x1="150.00" y1="70.00" x2="500.00" y2="70.00" stroke="#17202a" stroke-width="2.2" stroke-linecap="round"/>
<circle cx="535" cy="70" r="4" fill="white" stroke="#17202a" stroke-width="1.4"/>
<text text-anchor="start" dominant-baseline="middle" font-family="Cambria Math,Cambria,Times New Roman,serif" font-size="18" fill="#17202a" style=""><tspan x="547" y="60.1">+V_CC</tspan><tspan x="547" y="79.9">(+9 V)</tspan></text>
<line x1="390.00" y1="248.40" x2="390.00" y2="291.60" stroke="#17202a" stroke-width="3" stroke-linecap="round"/>
<line x1="343.20" y1="270.00" x2="390.00" y2="270.00" stroke="#17202a" stroke-width="2.2" stroke-linecap="round"/>
<line x1="390.00" y1="257.04" x2="422.40" y2="228.24" stroke="#17202a" stroke-width="2.2" stroke-linecap="round"/>
<line x1="390.00" y1="282.96" x2="422.40" y2="311.76" stroke="#17202a" stroke-width="2.2" stroke-linecap="round"/>
<line x1="402.96" y1="294.48" x2="422.40" y2="311.76" stroke="#17202a" stroke-width="2" stroke-linecap="round"/>
<polygon points="422.40,311.76 415.29,310.60 420.42,304.84" fill="#17202a" stroke="#17202a" stroke-width="1.3" stroke-linejoin="round"/>
<text x="446.15999999999997" y="270" text-anchor="start" dominant-baseline="middle" font-family="Cambria Math,Cambria,Times New Roman,serif" font-size="21" fill="#17202a" style="">T</text>
<line x1="205.00" y1="70.00" x2="205.00" y2="132.00" stroke="#17202a" stroke-width="2.2" stroke-linecap="round"/>
<rect x="191" y="132.0" width="28" height="76" fill="white" stroke="#17202a" stroke-width="2.2"/>
<line x1="205.00" y1="208.00" x2="205.00" y2="270.00" stroke="#17202a" stroke-width="2.2" stroke-linecap="round"/>
<text text-anchor="end" dominant-baseline="middle" font-family="Cambria Math,Cambria,Times New Roman,serif" font-size="21" fill="#17202a" style=""><tspan x="181" y="158.45">R_B1</tspan><tspan x="181" y="181.54999999999998">30 kΩ</tspan></text>
<line x1="205.00" y1="270.00" x2="205.00" y2="329.50" stroke="#17202a" stroke-width="2.2" stroke-linecap="round"/>
<rect x="191" y="329.5" width="28" height="76" fill="white" stroke="#17202a" stroke-width="2.2"/>
<line x1="205.00" y1="405.50" x2="205.00" y2="465.00" stroke="#17202a" stroke-width="2.2" stroke-linecap="round"/>
<text text-anchor="end" dominant-baseline="middle" font-family="Cambria Math,Cambria,Times New Roman,serif" font-size="21" fill="#17202a" style=""><tspan x="181" y="355.95">R_B2</tspan><tspan x="181" y="379.05">10 kΩ</tspan></text>
<line x1="205.00" y1="270.00" x2="343.20" y2="270.00" stroke="#17202a" stroke-width="2.2" stroke-linecap="round"/>
<circle cx="205" cy="270" r="3" fill="#17202a" stroke="#17202a" stroke-width="2.2"/>
<line x1="422.40" y1="70.00" x2="422.40" y2="113.52" stroke="#17202a" stroke-width="2.2" stroke-linecap="round"/>
<rect x="408.4" y="113.51599999999999" width="28" height="71.20800000000001" fill="white" stroke="#17202a" stroke-width="2.2"/>
<line x1="422.40" y1="184.72" x2="422.40" y2="228.24" stroke="#17202a" stroke-width="2.2" stroke-linecap="round"/>
<text text-anchor="end" dominant-baseline="middle" font-family="Cambria Math,Cambria,Times New Roman,serif" font-size="21" fill="#17202a" style=""><tspan x="398.4" y="137.57">R_C</tspan><tspan x="398.4" y="160.67">1 kΩ</tspan></text>
<line x1="422.40" y1="311.76" x2="422.40" y2="353.90" stroke="#17202a" stroke-width="2.2" stroke-linecap="round"/>
<rect x="408.4" y="353.901" width="28" height="68.95800000000001" fill="white" stroke="#17202a" stroke-width="2.2"/>
<line x1="422.40" y1="422.86" x2="422.40" y2="465.00" stroke="#17202a" stroke-width="2.2" stroke-linecap="round"/>
<text text-anchor="start" dominant-baseline="middle" font-family="Cambria Math,Cambria,Times New Roman,serif" font-size="21" fill="#17202a" style=""><tspan x="446.4" y="376.83">R_E</tspan><tspan x="446.4" y="399.93">200 Ω</tspan></text>
<line x1="150.00" y1="465.00" x2="422.40" y2="465.00" stroke="#17202a" stroke-width="2.2" stroke-linecap="round"/>
<line x1="422.40" y1="453.00" x2="422.40" y2="465.00" stroke="#17202a" stroke-width="2.2" stroke-linecap="round"/>
<line x1="404.40" y1="465.00" x2="440.40" y2="465.00" stroke="#17202a" stroke-width="2.2" stroke-linecap="round"/>
<line x1="410.40" y1="472.00" x2="434.40" y2="472.00" stroke="#17202a" stroke-width="2.2" stroke-linecap="round"/>
<line x1="416.40" y1="479.00" x2="428.40" y2="479.00" stroke="#17202a" stroke-width="2.2" stroke-linecap="round"/>
<text x="325.0" y="576" text-anchor="middle" dominant-baseline="middle" font-family="SimSun,STSong,serif" font-size="22" fill="#17202a" style="">图 2.5.28　题 2.4.3 的图</text>
</svg>
