<svg xmlns="http://www.w3.org/2000/svg" width="1120" height="1040" viewBox="0 0 1120 1040">
<title>图2.5.8 放大电路作用判断</title>
<rect width="100%" height="100%" fill="white"/>
<line x1="240.00" y1="150.96" x2="240.00" y2="189.04" stroke="#17202a" stroke-width="2.2" stroke-linecap="round"/>
<line x1="200.56" y1="170.00" x2="240.00" y2="170.00" stroke="#17202a" stroke-width="1.8" stroke-linecap="round"/>
<line x1="240.00" y1="158.44" x2="268.56" y2="136.00" stroke="#17202a" stroke-width="1.8" stroke-linecap="round"/>
<line x1="240.00" y1="181.56" x2="268.56" y2="204.00" stroke="#17202a" stroke-width="1.8" stroke-linecap="round"/>
<line x1="250.20" y1="189.72" x2="268.56" y2="204.00" stroke="#17202a" stroke-width="1.5" stroke-linecap="round"/>
<polygon points="268.56,204.00 263.14,203.48 266.72,198.88" fill="#17202a" stroke="#17202a" stroke-width="1.3" stroke-linejoin="round"/>
<text x="286.56" y="170" text-anchor="start" dominant-baseline="middle" font-family="Cambria Math,Cambria,Times New Roman,serif" font-size="17" fill="#17202a" style="">T</text>
<line x1="70.00" y1="45.00" x2="395.00" y2="45.00" stroke="#17202a" stroke-width="2.2" stroke-linecap="round"/>
<circle cx="395" cy="45" r="3.5" fill="white" stroke="#17202a" stroke-width="1.4"/>
<text x="410" y="45" text-anchor="start" dominant-baseline="middle" font-family="Cambria Math,Cambria,Times New Roman,serif" font-size="16" fill="#17202a" style=""><tspan>V</tspan><tspan baseline-shift="sub" font-size="70%">CC</tspan></text>
<line x1="70.00" y1="295.00" x2="395.00" y2="295.00" stroke="#17202a" stroke-width="2.2" stroke-linecap="round"/>
<line x1="268.56" y1="204.00" x2="268.56" y2="295.00" stroke="#17202a" stroke-width="2.2" stroke-linecap="round"/>
<line x1="268.56" y1="295.00" x2="268.56" y2="307.00" stroke="#17202a" stroke-width="2.2" stroke-linecap="round"/>
<line x1="250.56" y1="307.00" x2="286.56" y2="307.00" stroke="#17202a" stroke-width="2.2" stroke-linecap="round"/>
<line x1="256.56" y1="314.00" x2="280.56" y2="314.00" stroke="#17202a" stroke-width="2.2" stroke-linecap="round"/>
<line x1="262.56" y1="321.00" x2="274.56" y2="321.00" stroke="#17202a" stroke-width="2.2" stroke-linecap="round"/>
<line x1="268.56" y1="45.00" x2="268.56" y2="67.50" stroke="#17202a" stroke-width="2.2" stroke-linecap="round"/>
<rect x="254.56" y="67.5" width="28" height="46" fill="white" stroke="#17202a" stroke-width="2.2"/>
<line x1="268.56" y1="113.50" x2="268.56" y2="136.00" stroke="#17202a" stroke-width="2.2" stroke-linecap="round"/>
<text x="292.56" y="90.5" text-anchor="start" dominant-baseline="middle" font-family="Cambria Math,Cambria,Times New Roman,serif" font-size="21" fill="#17202a" style=""><tspan>R</tspan><tspan baseline-shift="sub" font-size="70%">C</tspan></text>
<line x1="43.00" y1="170.00" x2="182.00" y2="170.00" stroke="#17202a" stroke-width="2.2" stroke-linecap="round"/>
<circle cx="43" cy="170" r="3.5" fill="white" stroke="#17202a" stroke-width="1.4"/>
<circle cx="43" cy="295" r="3.5" fill="white" stroke="#17202a" stroke-width="1.4"/>
<line x1="43.00" y1="170.00" x2="43.00" y2="45.00" stroke="#17202a" stroke-width="2.2" stroke-linecap="round"/>
<line x1="43.00" y1="45.00" x2="268.56" y2="45.00" stroke="#17202a" stroke-width="2.2" stroke-linecap="round"/>
<line x1="268.56" y1="136.00" x2="370.00" y2="136.00" stroke="#17202a" stroke-width="2.2" stroke-linecap="round"/>
<circle cx="370" cy="136.0" r="3.5" fill="white" stroke="#17202a" stroke-width="1.4"/>
<text x="405" y="215.5" text-anchor="start" dominant-baseline="middle" font-family="Cambria Math,Cambria,Times New Roman,serif" font-size="16" fill="#17202a" style="font-style:italic;"><tspan>v</tspan><tspan baseline-shift="sub" font-size="70%">o</tspan></text>
<text x="43" y="213" text-anchor="middle" dominant-baseline="middle" font-family="Cambria Math,Cambria,Times New Roman,serif" font-size="16" fill="#17202a" style="font-style:italic;"><tspan>v</tspan><tspan baseline-shift="sub" font-size="70%">i</tspan></text>
<line x1="780.00" y1="150.96" x2="780.00" y2="189.04" stroke="#17202a" stroke-width="2.2" stroke-linecap="round"/>
<line x1="740.56" y1="170.00" x2="780.00" y2="170.00" stroke="#17202a" stroke-width="1.8" stroke-linecap="round"/>
<line x1="780.00" y1="158.44" x2="808.56" y2="136.00" stroke="#17202a" stroke-width="1.8" stroke-linecap="round"/>
<line x1="780.00" y1="181.56" x2="808.56" y2="204.00" stroke="#17202a" stroke-width="1.8" stroke-linecap="round"/>
<line x1="790.20" y1="189.72" x2="808.56" y2="204.00" stroke="#17202a" stroke-width="1.5" stroke-linecap="round"/>
<polygon points="808.56,204.00 803.14,203.48 806.72,198.88" fill="#17202a" stroke="#17202a" stroke-width="1.3" stroke-linejoin="round"/>
<text x="826.56" y="170" text-anchor="start" dominant-baseline="middle" font-family="Cambria Math,Cambria,Times New Roman,serif" font-size="17" fill="#17202a" style="">T</text>
<line x1="610.00" y1="45.00" x2="935.00" y2="45.00" stroke="#17202a" stroke-width="2.2" stroke-linecap="round"/>
<circle cx="935" cy="45" r="3.5" fill="white" stroke="#17202a" stroke-width="1.4"/>
<text x="950" y="45" text-anchor="start" dominant-baseline="middle" font-family="Cambria Math,Cambria,Times New Roman,serif" font-size="16" fill="#17202a" style=""><tspan>V</tspan><tspan baseline-shift="sub" font-size="70%">CC</tspan></text>
<line x1="610.00" y1="295.00" x2="935.00" y2="295.00" stroke="#17202a" stroke-width="2.2" stroke-linecap="round"/>
<line x1="808.56" y1="204.00" x2="808.56" y2="295.00" stroke="#17202a" stroke-width="2.2" stroke-linecap="round"/>
<line x1="808.56" y1="295.00" x2="808.56" y2="307.00" stroke="#17202a" stroke-width="2.2" stroke-linecap="round"/>
<line x1="790.56" y1="307.00" x2="826.56" y2="307.00" stroke="#17202a" stroke-width="2.2" stroke-linecap="round"/>
<line x1="796.56" y1="314.00" x2="820.56" y2="314.00" stroke="#17202a" stroke-width="2.2" stroke-linecap="round"/>
<line x1="802.56" y1="321.00" x2="814.56" y2="321.00" stroke="#17202a" stroke-width="2.2" stroke-linecap="round"/>
<line x1="808.56" y1="45.00" x2="808.56" y2="67.50" stroke="#17202a" stroke-width="2.2" stroke-linecap="round"/>
<rect x="794.56" y="67.5" width="28" height="46" fill="white" stroke="#17202a" stroke-width="2.2"/>
<line x1="808.56" y1="113.50" x2="808.56" y2="136.00" stroke="#17202a" stroke-width="2.2" stroke-linecap="round"/>
<text x="832.56" y="90.5" text-anchor="start" dominant-baseline="middle" font-family="Cambria Math,Cambria,Times New Roman,serif" font-size="21" fill="#17202a" style=""><tspan>R</tspan><tspan baseline-shift="sub" font-size="70%">C</tspan></text>
<line x1="583.00" y1="170.00" x2="644.50" y2="170.00" stroke="#17202a" stroke-width="2.2" stroke-linecap="round"/>
<line x1="644.50" y1="148.00" x2="644.50" y2="192.00" stroke="#17202a" stroke-width="3" stroke-linecap="round"/>
<line x1="660.50" y1="148.00" x2="660.50" y2="192.00" stroke="#17202a" stroke-width="3" stroke-linecap="round"/>
<line x1="660.50" y1="170.00" x2="722.00" y2="170.00" stroke="#17202a" stroke-width="2.2" stroke-linecap="round"/>
<text x="652.5" y="136" text-anchor="middle" dominant-baseline="middle" font-family="Cambria Math,Cambria,Times New Roman,serif" font-size="22" fill="#17202a" style="font-style:italic;">C₁</text>
<circle cx="583" cy="170" r="3.5" fill="white" stroke="#17202a" stroke-width="1.4"/>
<circle cx="583" cy="295" r="3.5" fill="white" stroke="#17202a" stroke-width="1.4"/>
<line x1="745.00" y1="45.00" x2="745.00" y2="79.38" stroke="#17202a" stroke-width="2.2" stroke-linecap="round"/>
<rect x="731" y="79.375" width="28" height="56.25" fill="white" stroke="#17202a" stroke-width="2.2"/>
<line x1="745.00" y1="135.62" x2="745.00" y2="170.00" stroke="#17202a" stroke-width="2.2" stroke-linecap="round"/>
<text x="721" y="107.5" text-anchor="end" dominant-baseline="middle" font-family="Cambria Math,Cambria,Times New Roman,serif" font-size="21" fill="#17202a" style=""><tspan>R</tspan><tspan baseline-shift="sub" font-size="70%">B</tspan></text>
<line x1="745.00" y1="170.00" x2="780.00" y2="170.00" stroke="#17202a" stroke-width="2.2" stroke-linecap="round"/>
<line x1="808.56" y1="136.00" x2="851.28" y2="136.00" stroke="#17202a" stroke-width="2.2" stroke-linecap="round"/>
<line x1="851.28" y1="114.00" x2="851.28" y2="158.00" stroke="#17202a" stroke-width="3" stroke-linecap="round"/>
<line x1="867.28" y1="114.00" x2="867.28" y2="158.00" stroke="#17202a" stroke-width="3" stroke-linecap="round"/>
<line x1="867.28" y1="136.00" x2="910.00" y2="136.00" stroke="#17202a" stroke-width="2.2" stroke-linecap="round"/>
<text x="859.28" y="102.0" text-anchor="middle" dominant-baseline="middle" font-family="Cambria Math,Cambria,Times New Roman,serif" font-size="22" fill="#17202a" style="font-style:italic;">C₂</text>
<circle cx="910" cy="136.0" r="3.5" fill="white" stroke="#17202a" stroke-width="1.4"/>
<text x="945" y="215.5" text-anchor="start" dominant-baseline="middle" font-family="Cambria Math,Cambria,Times New Roman,serif" font-size="16" fill="#17202a" style="font-style:italic;"><tspan>v</tspan><tspan baseline-shift="sub" font-size="70%">o</tspan></text>
<text x="583" y="213" text-anchor="middle" dominant-baseline="middle" font-family="Cambria Math,Cambria,Times New Roman,serif" font-size="16" fill="#17202a" style="font-style:italic;"><tspan>v</tspan><tspan baseline-shift="sub" font-size="70%">i</tspan></text>
<line x1="240.00" y1="470.96" x2="240.00" y2="509.04" stroke="#17202a" stroke-width="2.2" stroke-linecap="round"/>
<line x1="200.56" y1="490.00" x2="240.00" y2="490.00" stroke="#17202a" stroke-width="1.8" stroke-linecap="round"/>
<line x1="240.00" y1="478.44" x2="268.56" y2="456.00" stroke="#17202a" stroke-width="1.8" stroke-linecap="round"/>
<line x1="240.00" y1="501.56" x2="268.56" y2="524.00" stroke="#17202a" stroke-width="1.8" stroke-linecap="round"/>
<line x1="250.20" y1="509.72" x2="268.56" y2="524.00" stroke="#17202a" stroke-width="1.5" stroke-linecap="round"/>
<polygon points="268.56,524.00 263.14,523.48 266.72,518.88" fill="#17202a" stroke="#17202a" stroke-width="1.3" stroke-linejoin="round"/>
<text x="286.56" y="490" text-anchor="start" dominant-baseline="middle" font-family="Cambria Math,Cambria,Times New Roman,serif" font-size="17" fill="#17202a" style="">T</text>
<line x1="70.00" y1="365.00" x2="395.00" y2="365.00" stroke="#17202a" stroke-width="2.2" stroke-linecap="round"/>
<circle cx="395" cy="365" r="3.5" fill="white" stroke="#17202a" stroke-width="1.4"/>
<text x="410" y="365" text-anchor="start" dominant-baseline="middle" font-family="Cambria Math,Cambria,Times New Roman,serif" font-size="16" fill="#17202a" style=""><tspan>V</tspan><tspan baseline-shift="sub" font-size="70%">CC</tspan></text>
<line x1="70.00" y1="615.00" x2="395.00" y2="615.00" stroke="#17202a" stroke-width="2.2" stroke-linecap="round"/>
<line x1="268.56" y1="524.00" x2="268.56" y2="615.00" stroke="#17202a" stroke-width="2.2" stroke-linecap="round"/>
<line x1="268.56" y1="615.00" x2="268.56" y2="627.00" stroke="#17202a" stroke-width="2.2" stroke-linecap="round"/>
<line x1="250.56" y1="627.00" x2="286.56" y2="627.00" stroke="#17202a" stroke-width="2.2" stroke-linecap="round"/>
<line x1="256.56" y1="634.00" x2="280.56" y2="634.00" stroke="#17202a" stroke-width="2.2" stroke-linecap="round"/>
<line x1="262.56" y1="641.00" x2="274.56" y2="641.00" stroke="#17202a" stroke-width="2.2" stroke-linecap="round"/>
<line x1="268.56" y1="365.00" x2="268.56" y2="387.50" stroke="#17202a" stroke-width="2.2" stroke-linecap="round"/>
<rect x="254.56" y="387.5" width="28" height="46" fill="white" stroke="#17202a" stroke-width="2.2"/>
<line x1="268.56" y1="433.50" x2="268.56" y2="456.00" stroke="#17202a" stroke-width="2.2" stroke-linecap="round"/>
<text x="292.56" y="410.5" text-anchor="start" dominant-baseline="middle" font-family="Cambria Math,Cambria,Times New Roman,serif" font-size="21" fill="#17202a" style=""><tspan>R</tspan><tspan baseline-shift="sub" font-size="70%">C</tspan></text>
<line x1="43.00" y1="490.00" x2="104.50" y2="490.00" stroke="#17202a" stroke-width="2.2" stroke-linecap="round"/>
<line x1="104.50" y1="468.00" x2="104.50" y2="512.00" stroke="#17202a" stroke-width="3" stroke-linecap="round"/>
<line x1="120.50" y1="468.00" x2="120.50" y2="512.00" stroke="#17202a" stroke-width="3" stroke-linecap="round"/>
<line x1="120.50" y1="490.00" x2="182.00" y2="490.00" stroke="#17202a" stroke-width="2.2" stroke-linecap="round"/>
<text x="112.5" y="456" text-anchor="middle" dominant-baseline="middle" font-family="Cambria Math,Cambria,Times New Roman,serif" font-size="22" fill="#17202a" style="font-style:italic;">C₁</text>
<circle cx="43" cy="490" r="3.5" fill="white" stroke="#17202a" stroke-width="1.4"/>
<circle cx="43" cy="615" r="3.5" fill="white" stroke="#17202a" stroke-width="1.4"/>
<line x1="205.00" y1="365.00" x2="205.00" y2="399.38" stroke="#17202a" stroke-width="2.2" stroke-linecap="round"/>
<rect x="191" y="399.375" width="28" height="56.25" fill="white" stroke="#17202a" stroke-width="2.2"/>
<line x1="205.00" y1="455.62" x2="205.00" y2="490.00" stroke="#17202a" stroke-width="2.2" stroke-linecap="round"/>
<text x="181" y="427.5" text-anchor="end" dominant-baseline="middle" font-family="Cambria Math,Cambria,Times New Roman,serif" font-size="21" fill="#17202a" style=""><tspan>R</tspan><tspan baseline-shift="sub" font-size="70%">B</tspan></text>
<line x1="205.00" y1="490.00" x2="240.00" y2="490.00" stroke="#17202a" stroke-width="2.2" stroke-linecap="round"/>
<line x1="205.00" y1="490.00" x2="205.00" y2="544.50" stroke="#17202a" stroke-width="2.2" stroke-linecap="round"/>
<line x1="183.00" y1="544.50" x2="227.00" y2="544.50" stroke="#17202a" stroke-width="3" stroke-linecap="round"/>
<line x1="183.00" y1="560.50" x2="227.00" y2="560.50" stroke="#17202a" stroke-width="3" stroke-linecap="round"/>
<line x1="205.00" y1="560.50" x2="205.00" y2="615.00" stroke="#17202a" stroke-width="2.2" stroke-linecap="round"/>
<text x="235" y="552.5" text-anchor="start" dominant-baseline="middle" font-family="Cambria Math,Cambria,Times New Roman,serif" font-size="21" fill="#17202a" style="font-style:italic;">C₂</text>
<line x1="268.56" y1="456.00" x2="370.00" y2="456.00" stroke="#17202a" stroke-width="2.2" stroke-linecap="round"/>
<circle cx="370" cy="456.0" r="3.5" fill="white" stroke="#17202a" stroke-width="1.4"/>
<text x="405" y="535.5" text-anchor="start" dominant-baseline="middle" font-family="Cambria Math,Cambria,Times New Roman,serif" font-size="16" fill="#17202a" style="font-style:italic;"><tspan>v</tspan><tspan baseline-shift="sub" font-size="70%">o</tspan></text>
<text x="43" y="533" text-anchor="middle" dominant-baseline="middle" font-family="Cambria Math,Cambria,Times New Roman,serif" font-size="16" fill="#17202a" style="font-style:italic;"><tspan>v</tspan><tspan baseline-shift="sub" font-size="70%">i</tspan></text>
<line x1="780.00" y1="470.96" x2="780.00" y2="509.04" stroke="#17202a" stroke-width="2.2" stroke-linecap="round"/>
<line x1="740.56" y1="490.00" x2="780.00" y2="490.00" stroke="#17202a" stroke-width="1.8" stroke-linecap="round"/>
<line x1="780.00" y1="478.44" x2="808.56" y2="456.00" stroke="#17202a" stroke-width="1.8" stroke-linecap="round"/>
<line x1="780.00" y1="501.56" x2="808.56" y2="524.00" stroke="#17202a" stroke-width="1.8" stroke-linecap="round"/>
<line x1="790.20" y1="509.72" x2="808.56" y2="524.00" stroke="#17202a" stroke-width="1.5" stroke-linecap="round"/>
<polygon points="808.56,524.00 803.14,523.48 806.72,518.88" fill="#17202a" stroke="#17202a" stroke-width="1.3" stroke-linejoin="round"/>
<text x="826.56" y="490" text-anchor="start" dominant-baseline="middle" font-family="Cambria Math,Cambria,Times New Roman,serif" font-size="17" fill="#17202a" style="">T</text>
<line x1="610.00" y1="365.00" x2="935.00" y2="365.00" stroke="#17202a" stroke-width="2.2" stroke-linecap="round"/>
<circle cx="935" cy="365" r="3.5" fill="white" stroke="#17202a" stroke-width="1.4"/>
<text x="950" y="365" text-anchor="start" dominant-baseline="middle" font-family="Cambria Math,Cambria,Times New Roman,serif" font-size="16" fill="#17202a" style=""><tspan>−V</tspan><tspan baseline-shift="sub" font-size="70%">CC</tspan></text>
<line x1="610.00" y1="615.00" x2="935.00" y2="615.00" stroke="#17202a" stroke-width="2.2" stroke-linecap="round"/>
<line x1="808.56" y1="524.00" x2="808.56" y2="615.00" stroke="#17202a" stroke-width="2.2" stroke-linecap="round"/>
<line x1="808.56" y1="615.00" x2="808.56" y2="627.00" stroke="#17202a" stroke-width="2.2" stroke-linecap="round"/>
<line x1="790.56" y1="627.00" x2="826.56" y2="627.00" stroke="#17202a" stroke-width="2.2" stroke-linecap="round"/>
<line x1="796.56" y1="634.00" x2="820.56" y2="634.00" stroke="#17202a" stroke-width="2.2" stroke-linecap="round"/>
<line x1="802.56" y1="641.00" x2="814.56" y2="641.00" stroke="#17202a" stroke-width="2.2" stroke-linecap="round"/>
<line x1="808.56" y1="365.00" x2="808.56" y2="387.50" stroke="#17202a" stroke-width="2.2" stroke-linecap="round"/>
<rect x="794.56" y="387.5" width="28" height="46" fill="white" stroke="#17202a" stroke-width="2.2"/>
<line x1="808.56" y1="433.50" x2="808.56" y2="456.00" stroke="#17202a" stroke-width="2.2" stroke-linecap="round"/>
<text x="832.56" y="410.5" text-anchor="start" dominant-baseline="middle" font-family="Cambria Math,Cambria,Times New Roman,serif" font-size="21" fill="#17202a" style=""><tspan>R</tspan><tspan baseline-shift="sub" font-size="70%">C</tspan></text>
<line x1="583.00" y1="490.00" x2="644.50" y2="490.00" stroke="#17202a" stroke-width="2.2" stroke-linecap="round"/>
<line x1="644.50" y1="468.00" x2="644.50" y2="512.00" stroke="#17202a" stroke-width="3" stroke-linecap="round"/>
<line x1="660.50" y1="468.00" x2="660.50" y2="512.00" stroke="#17202a" stroke-width="3" stroke-linecap="round"/>
<line x1="660.50" y1="490.00" x2="722.00" y2="490.00" stroke="#17202a" stroke-width="2.2" stroke-linecap="round"/>
<text x="652.5" y="456" text-anchor="middle" dominant-baseline="middle" font-family="Cambria Math,Cambria,Times New Roman,serif" font-size="22" fill="#17202a" style="font-style:italic;">C₁</text>
<circle cx="583" cy="490" r="3.5" fill="white" stroke="#17202a" stroke-width="1.4"/>
<circle cx="583" cy="615" r="3.5" fill="white" stroke="#17202a" stroke-width="1.4"/>
<line x1="618.00" y1="365.00" x2="618.00" y2="399.38" stroke="#17202a" stroke-width="2.2" stroke-linecap="round"/>
<rect x="604" y="399.375" width="28" height="56.25" fill="white" stroke="#17202a" stroke-width="2.2"/>
<line x1="618.00" y1="455.62" x2="618.00" y2="490.00" stroke="#17202a" stroke-width="2.2" stroke-linecap="round"/>
<text x="642" y="427.5" text-anchor="start" dominant-baseline="middle" font-family="Cambria Math,Cambria,Times New Roman,serif" font-size="21" fill="#17202a" style=""><tspan>R</tspan><tspan baseline-shift="sub" font-size="70%">B</tspan></text>
<line x1="808.56" y1="456.00" x2="851.28" y2="456.00" stroke="#17202a" stroke-width="2.2" stroke-linecap="round"/>
<line x1="851.28" y1="434.00" x2="851.28" y2="478.00" stroke="#17202a" stroke-width="3" stroke-linecap="round"/>
<line x1="867.28" y1="434.00" x2="867.28" y2="478.00" stroke="#17202a" stroke-width="3" stroke-linecap="round"/>
<line x1="867.28" y1="456.00" x2="910.00" y2="456.00" stroke="#17202a" stroke-width="2.2" stroke-linecap="round"/>
<text x="859.28" y="422.0" text-anchor="middle" dominant-baseline="middle" font-family="Cambria Math,Cambria,Times New Roman,serif" font-size="22" fill="#17202a" style="font-style:italic;">C₂</text>
<circle cx="910" cy="456.0" r="3.5" fill="white" stroke="#17202a" stroke-width="1.4"/>
<text x="945" y="535.5" text-anchor="start" dominant-baseline="middle" font-family="Cambria Math,Cambria,Times New Roman,serif" font-size="16" fill="#17202a" style="font-style:italic;"><tspan>v</tspan><tspan baseline-shift="sub" font-size="70%">o</tspan></text>
<text x="583" y="533" text-anchor="middle" dominant-baseline="middle" font-family="Cambria Math,Cambria,Times New Roman,serif" font-size="16" fill="#17202a" style="font-style:italic;"><tspan>v</tspan><tspan baseline-shift="sub" font-size="70%">i</tspan></text>
<line x1="240.00" y1="790.96" x2="240.00" y2="829.04" stroke="#17202a" stroke-width="2.2" stroke-linecap="round"/>
<line x1="200.56" y1="810.00" x2="240.00" y2="810.00" stroke="#17202a" stroke-width="1.8" stroke-linecap="round"/>
<line x1="240.00" y1="798.44" x2="268.56" y2="776.00" stroke="#17202a" stroke-width="1.8" stroke-linecap="round"/>
<line x1="240.00" y1="821.56" x2="268.56" y2="844.00" stroke="#17202a" stroke-width="1.8" stroke-linecap="round"/>
<line x1="250.20" y1="829.72" x2="268.56" y2="844.00" stroke="#17202a" stroke-width="1.5" stroke-linecap="round"/>
<polygon points="268.56,844.00 263.14,843.48 266.72,838.88" fill="#17202a" stroke="#17202a" stroke-width="1.3" stroke-linejoin="round"/>
<text x="286.56" y="810" text-anchor="start" dominant-baseline="middle" font-family="Cambria Math,Cambria,Times New Roman,serif" font-size="17" fill="#17202a" style="">T</text>
<line x1="70.00" y1="685.00" x2="395.00" y2="685.00" stroke="#17202a" stroke-width="2.2" stroke-linecap="round"/>
<circle cx="395" cy="685" r="3.5" fill="white" stroke="#17202a" stroke-width="1.4"/>
<text x="410" y="685" text-anchor="start" dominant-baseline="middle" font-family="Cambria Math,Cambria,Times New Roman,serif" font-size="16" fill="#17202a" style=""><tspan>V</tspan><tspan baseline-shift="sub" font-size="70%">CC</tspan></text>
<line x1="70.00" y1="935.00" x2="395.00" y2="935.00" stroke="#17202a" stroke-width="2.2" stroke-linecap="round"/>
<line x1="268.56" y1="844.00" x2="268.56" y2="935.00" stroke="#17202a" stroke-width="2.2" stroke-linecap="round"/>
<line x1="268.56" y1="935.00" x2="268.56" y2="947.00" stroke="#17202a" stroke-width="2.2" stroke-linecap="round"/>
<line x1="250.56" y1="947.00" x2="286.56" y2="947.00" stroke="#17202a" stroke-width="2.2" stroke-linecap="round"/>
<line x1="256.56" y1="954.00" x2="280.56" y2="954.00" stroke="#17202a" stroke-width="2.2" stroke-linecap="round"/>
<line x1="262.56" y1="961.00" x2="274.56" y2="961.00" stroke="#17202a" stroke-width="2.2" stroke-linecap="round"/>
<line x1="268.56" y1="685.00" x2="268.56" y2="707.50" stroke="#17202a" stroke-width="2.2" stroke-linecap="round"/>
<rect x="254.56" y="707.5" width="28" height="46" fill="white" stroke="#17202a" stroke-width="2.2"/>
<line x1="268.56" y1="753.50" x2="268.56" y2="776.00" stroke="#17202a" stroke-width="2.2" stroke-linecap="round"/>
<text x="292.56" y="730.5" text-anchor="start" dominant-baseline="middle" font-family="Cambria Math,Cambria,Times New Roman,serif" font-size="21" fill="#17202a" style=""><tspan>R</tspan><tspan baseline-shift="sub" font-size="70%">C</tspan></text>
<line x1="43.00" y1="810.00" x2="104.50" y2="810.00" stroke="#17202a" stroke-width="2.2" stroke-linecap="round"/>
<line x1="104.50" y1="788.00" x2="104.50" y2="832.00" stroke="#17202a" stroke-width="3" stroke-linecap="round"/>
<line x1="120.50" y1="788.00" x2="120.50" y2="832.00" stroke="#17202a" stroke-width="3" stroke-linecap="round"/>
<line x1="120.50" y1="810.00" x2="182.00" y2="810.00" stroke="#17202a" stroke-width="2.2" stroke-linecap="round"/>
<text x="112.5" y="776" text-anchor="middle" dominant-baseline="middle" font-family="Cambria Math,Cambria,Times New Roman,serif" font-size="22" fill="#17202a" style="font-style:italic;">C₁</text>
<circle cx="43" cy="810" r="3.5" fill="white" stroke="#17202a" stroke-width="1.4"/>
<circle cx="43" cy="935" r="3.5" fill="white" stroke="#17202a" stroke-width="1.4"/>
<line x1="205.00" y1="810.00" x2="205.00" y2="814.50" stroke="#17202a" stroke-width="2.2" stroke-linecap="round"/>
<rect x="191" y="814.5" width="28" height="46" fill="white" stroke="#17202a" stroke-width="2.2"/>
<line x1="205.00" y1="860.50" x2="205.00" y2="865.00" stroke="#17202a" stroke-width="2.2" stroke-linecap="round"/>
<text x="181" y="837.5" text-anchor="end" dominant-baseline="middle" font-family="Cambria Math,Cambria,Times New Roman,serif" font-size="21" fill="#17202a" style=""><tspan>R</tspan><tspan baseline-shift="sub" font-size="70%">B</tspan></text>
<line x1="205.00" y1="810.00" x2="240.00" y2="810.00" stroke="#17202a" stroke-width="2.2" stroke-linecap="round"/>
<line x1="205.00" y1="865.00" x2="205.00" y2="888.00" stroke="#17202a" stroke-width="2.2" stroke-linecap="round"/>
<line x1="187.00" y1="893.00" x2="223.00" y2="893.00" stroke="#17202a" stroke-width="2.2" stroke-linecap="round"/>
<line x1="194.00" y1="907.00" x2="216.00" y2="907.00" stroke="#17202a" stroke-width="2.2" stroke-linecap="round"/>
<line x1="205.00" y1="912.00" x2="205.00" y2="935.00" stroke="#17202a" stroke-width="2.2" stroke-linecap="round"/>
<text x="233" y="900.0" text-anchor="start" dominant-baseline="middle" font-family="Cambria Math,Cambria,Times New Roman,serif" font-size="21" fill="#17202a" style=""><tspan>V</tspan><tspan baseline-shift="sub" font-size="70%">BB</tspan></text>
<line x1="268.56" y1="776.00" x2="311.28" y2="776.00" stroke="#17202a" stroke-width="2.2" stroke-linecap="round"/>
<line x1="311.28" y1="754.00" x2="311.28" y2="798.00" stroke="#17202a" stroke-width="3" stroke-linecap="round"/>
<line x1="327.28" y1="754.00" x2="327.28" y2="798.00" stroke="#17202a" stroke-width="3" stroke-linecap="round"/>
<line x1="327.28" y1="776.00" x2="370.00" y2="776.00" stroke="#17202a" stroke-width="2.2" stroke-linecap="round"/>
<text x="319.28" y="742.0" text-anchor="middle" dominant-baseline="middle" font-family="Cambria Math,Cambria,Times New Roman,serif" font-size="22" fill="#17202a" style="font-style:italic;">C₂</text>
<circle cx="370" cy="776.0" r="3.5" fill="white" stroke="#17202a" stroke-width="1.4"/>
<text x="405" y="855.5" text-anchor="start" dominant-baseline="middle" font-family="Cambria Math,Cambria,Times New Roman,serif" font-size="16" fill="#17202a" style="font-style:italic;"><tspan>v</tspan><tspan baseline-shift="sub" font-size="70%">o</tspan></text>
<text x="43" y="853" text-anchor="middle" dominant-baseline="middle" font-family="Cambria Math,Cambria,Times New Roman,serif" font-size="16" fill="#17202a" style="font-style:italic;"><tspan>v</tspan><tspan baseline-shift="sub" font-size="70%">i</tspan></text>
<line x1="780.00" y1="785.00" x2="780.00" y2="835.00" stroke="#17202a" stroke-width="2.1" stroke-linecap="round"/>
<line x1="730.00" y1="810.00" x2="780.00" y2="810.00" stroke="#17202a" stroke-width="2.2" stroke-linecap="round"/>
<line x1="780.00" y1="795.00" x2="814.00" y2="762.00" stroke="#17202a" stroke-width="2.2" stroke-linecap="round"/>
<line x1="780.00" y1="825.00" x2="814.00" y2="858.00" stroke="#17202a" stroke-width="2.2" stroke-linecap="round"/>
<line x1="814.00" y1="762.00" x2="792.00" y2="785.00" stroke="#17202a" stroke-width="1.4" stroke-linecap="round"/>
<polygon points="792.00,785.00 793.37,778.14 798.80,783.32" fill="#17202a" stroke="#17202a" stroke-width="1.3" stroke-linejoin="round"/>
<text x="834" y="810" text-anchor="start" dominant-baseline="middle" font-family="Cambria Math,Cambria,Times New Roman,serif" font-size="16" fill="#17202a" style="">T</text>
<line x1="615.00" y1="685.00" x2="935.00" y2="685.00" stroke="#17202a" stroke-width="2.2" stroke-linecap="round"/>
<circle cx="935" cy="685" r="3.5" fill="white" stroke="#17202a" stroke-width="1.4"/>
<text x="950" y="685" text-anchor="start" dominant-baseline="middle" font-family="Cambria Math,Cambria,Times New Roman,serif" font-size="16" fill="#17202a" style=""><tspan>V</tspan><tspan baseline-shift="sub" font-size="70%">CC</tspan></text>
<line x1="814.00" y1="762.00" x2="814.00" y2="685.00" stroke="#17202a" stroke-width="2.2" stroke-linecap="round"/>
<line x1="745.00" y1="685.00" x2="745.00" y2="719.38" stroke="#17202a" stroke-width="2.2" stroke-linecap="round"/>
<rect x="731" y="719.375" width="28" height="56.25" fill="white" stroke="#17202a" stroke-width="2.2"/>
<line x1="745.00" y1="775.62" x2="745.00" y2="810.00" stroke="#17202a" stroke-width="2.2" stroke-linecap="round"/>
<text x="721" y="747.5" text-anchor="end" dominant-baseline="middle" font-family="Cambria Math,Cambria,Times New Roman,serif" font-size="21" fill="#17202a" style=""><tspan>R</tspan><tspan baseline-shift="sub" font-size="70%">B</tspan></text>
<line x1="745.00" y1="810.00" x2="780.00" y2="810.00" stroke="#17202a" stroke-width="2.2" stroke-linecap="round"/>
<line x1="814.00" y1="858.00" x2="814.00" y2="873.50" stroke="#17202a" stroke-width="2.2" stroke-linecap="round"/>
<rect x="800" y="873.5" width="28" height="46" fill="white" stroke="#17202a" stroke-width="2.2"/>
<line x1="814.00" y1="919.50" x2="814.00" y2="935.00" stroke="#17202a" stroke-width="2.2" stroke-linecap="round"/>
<text x="790" y="896.5" text-anchor="end" dominant-baseline="middle" font-family="Cambria Math,Cambria,Times New Roman,serif" font-size="21" fill="#17202a" style=""><tspan>R</tspan><tspan baseline-shift="sub" font-size="70%">C</tspan></text>
<line x1="610.00" y1="935.00" x2="935.00" y2="935.00" stroke="#17202a" stroke-width="2.2" stroke-linecap="round"/>
<line x1="814.00" y1="935.00" x2="814.00" y2="947.00" stroke="#17202a" stroke-width="2.2" stroke-linecap="round"/>
<line x1="796.00" y1="947.00" x2="832.00" y2="947.00" stroke="#17202a" stroke-width="2.2" stroke-linecap="round"/>
<line x1="802.00" y1="954.00" x2="826.00" y2="954.00" stroke="#17202a" stroke-width="2.2" stroke-linecap="round"/>
<line x1="808.00" y1="961.00" x2="820.00" y2="961.00" stroke="#17202a" stroke-width="2.2" stroke-linecap="round"/>
<line x1="580.00" y1="810.00" x2="647.00" y2="810.00" stroke="#17202a" stroke-width="2.2" stroke-linecap="round"/>
<line x1="647.00" y1="788.00" x2="647.00" y2="832.00" stroke="#17202a" stroke-width="3" stroke-linecap="round"/>
<line x1="663.00" y1="788.00" x2="663.00" y2="832.00" stroke="#17202a" stroke-width="3" stroke-linecap="round"/>
<line x1="663.00" y1="810.00" x2="730.00" y2="810.00" stroke="#17202a" stroke-width="2.2" stroke-linecap="round"/>
<text x="655.0" y="776" text-anchor="middle" dominant-baseline="middle" font-family="Cambria Math,Cambria,Times New Roman,serif" font-size="22" fill="#17202a" style="font-style:italic;">C₁</text>
<circle cx="580" cy="810" r="3.5" fill="white" stroke="#17202a" stroke-width="1.4"/>
<circle cx="580" cy="935" r="3.5" fill="white" stroke="#17202a" stroke-width="1.4"/>
<line x1="814.00" y1="858.00" x2="910.00" y2="858.00" stroke="#17202a" stroke-width="2.2" stroke-linecap="round"/>
<circle cx="910" cy="858" r="3.5" fill="white" stroke="#17202a" stroke-width="1.4"/>
<text x="945" y="896.5" text-anchor="start" dominant-baseline="middle" font-family="Cambria Math,Cambria,Times New Roman,serif" font-size="16" fill="#17202a" style="font-style:italic;"><tspan>v</tspan><tspan baseline-shift="sub" font-size="70%">o</tspan></text>
<text x="580" y="853" text-anchor="middle" dominant-baseline="middle" font-family="Cambria Math,Cambria,Times New Roman,serif" font-size="16" fill="#17202a" style="font-style:italic;"><tspan>v</tspan><tspan baseline-shift="sub" font-size="70%">i</tspan></text>
<text x="240" y="325" text-anchor="middle" dominant-baseline="middle" font-family="Cambria Math,Cambria,Times New Roman,serif" font-size="17" fill="#17202a" style="">(a)</text>
<text x="780" y="325" text-anchor="middle" dominant-baseline="middle" font-family="Cambria Math,Cambria,Times New Roman,serif" font-size="17" fill="#17202a" style="">(b)</text>
<text x="240" y="645" text-anchor="middle" dominant-baseline="middle" font-family="Cambria Math,Cambria,Times New Roman,serif" font-size="17" fill="#17202a" style="">(c)</text>
<text x="780" y="645" text-anchor="middle" dominant-baseline="middle" font-family="Cambria Math,Cambria,Times New Roman,serif" font-size="17" fill="#17202a" style="">(d)</text>
<text x="240" y="965" text-anchor="middle" dominant-baseline="middle" font-family="Cambria Math,Cambria,Times New Roman,serif" font-size="17" fill="#17202a" style="">(e)</text>
<text x="780" y="965" text-anchor="middle" dominant-baseline="middle" font-family="Cambria Math,Cambria,Times New Roman,serif" font-size="17" fill="#17202a" style="">(f)</text>
<text x="560.0" y="1016" text-anchor="middle" dominant-baseline="middle" font-family="SimSun,STSong,serif" font-size="22" fill="#17202a" style="">图 2.5.8　题 2.3.1 的图</text>
</svg>
