<svg xmlns="http://www.w3.org/2000/svg" width="760" height="640" viewBox="0 0 760 640">
<title>图2.5.42 三端输入输出放大电路</title>
<rect width="100%" height="100%" fill="white"/>
<line x1="390.00" y1="249.00" x2="390.00" y2="291.00" stroke="#17202a" stroke-width="3" stroke-linecap="round"/>
<line x1="344.50" y1="270.00" x2="390.00" y2="270.00" stroke="#17202a" stroke-width="2.2" stroke-linecap="round"/>
<line x1="390.00" y1="257.40" x2="421.50" y2="229.40" stroke="#17202a" stroke-width="2.2" stroke-linecap="round"/>
<line x1="390.00" y1="282.60" x2="421.50" y2="310.60" stroke="#17202a" stroke-width="2.2" stroke-linecap="round"/>
<line x1="402.60" y1="293.80" x2="421.50" y2="310.60" stroke="#17202a" stroke-width="2" stroke-linecap="round"/>
<polygon points="421.50,310.60 414.59,309.48 419.57,303.87" fill="#17202a" stroke="#17202a" stroke-width="1.3" stroke-linejoin="round"/>
<text x="444.6" y="270" text-anchor="start" dominant-baseline="middle" font-family="Cambria Math,Cambria,Times New Roman,serif" font-size="21" fill="#17202a" style="">T</text>
<circle cx="421.5" cy="65" r="4" fill="white" stroke="#17202a" stroke-width="1.4"/>
<text text-anchor="start" dominant-baseline="middle" font-family="Cambria Math,Cambria,Times New Roman,serif" font-size="18" fill="#17202a" style=""><tspan x="433.5" y="55.1">+V_CC</tspan><tspan x="433.5" y="74.9">(+10 V)</tspan></text>
<line x1="421.50" y1="65.00" x2="421.50" y2="110.21" stroke="#17202a" stroke-width="2.2" stroke-linecap="round"/>
<rect x="407.5" y="110.20999999999998" width="28" height="73.98" fill="white" stroke="#17202a" stroke-width="2.2"/>
<line x1="421.50" y1="184.19" x2="421.50" y2="229.40" stroke="#17202a" stroke-width="2.2" stroke-linecap="round"/>
<text text-anchor="end" dominant-baseline="middle" font-family="Cambria Math,Cambria,Times New Roman,serif" font-size="21" fill="#17202a" style=""><tspan x="397.5" y="135.64999999999998">R_C</tspan><tspan x="397.5" y="158.74999999999997">8 kΩ</tspan></text>
<line x1="80.00" y1="270.00" x2="204.25" y2="270.00" stroke="#17202a" stroke-width="2.2" stroke-linecap="round"/>
<line x1="204.25" y1="248.00" x2="204.25" y2="292.00" stroke="#17202a" stroke-width="3" stroke-linecap="round"/>
<line x1="220.25" y1="248.00" x2="220.25" y2="292.00" stroke="#17202a" stroke-width="3" stroke-linecap="round"/>
<line x1="220.25" y1="270.00" x2="344.50" y2="270.00" stroke="#17202a" stroke-width="2.2" stroke-linecap="round"/>
<circle cx="60" cy="270" r="4" fill="white" stroke="#17202a" stroke-width="1.4"/>
<text x="48" y="270" text-anchor="end" dominant-baseline="middle" font-family="Cambria Math,Cambria,Times New Roman,serif" font-size="18" fill="#17202a" style="">X</text>
<line x1="285.00" y1="270.00" x2="285.00" y2="347.00" stroke="#17202a" stroke-width="2.2" stroke-linecap="round"/>
<rect x="271" y="347.0" width="28" height="76" fill="white" stroke="#17202a" stroke-width="2.2"/>
<line x1="285.00" y1="423.00" x2="285.00" y2="500.00" stroke="#17202a" stroke-width="2.2" stroke-linecap="round"/>
<text text-anchor="end" dominant-baseline="middle" font-family="Cambria Math,Cambria,Times New Roman,serif" font-size="21" fill="#17202a" style=""><tspan x="261" y="373.45">R_B</tspan><tspan x="261" y="396.55">10 kΩ</tspan></text>
<line x1="285.00" y1="488.00" x2="285.00" y2="500.00" stroke="#17202a" stroke-width="2.2" stroke-linecap="round"/>
<line x1="267.00" y1="500.00" x2="303.00" y2="500.00" stroke="#17202a" stroke-width="2.2" stroke-linecap="round"/>
<line x1="273.00" y1="507.00" x2="297.00" y2="507.00" stroke="#17202a" stroke-width="2.2" stroke-linecap="round"/>
<line x1="279.00" y1="514.00" x2="291.00" y2="514.00" stroke="#17202a" stroke-width="2.2" stroke-linecap="round"/>
<line x1="421.50" y1="229.40" x2="527.75" y2="229.40" stroke="#17202a" stroke-width="2.2" stroke-linecap="round"/>
<line x1="527.75" y1="207.40" x2="527.75" y2="251.40" stroke="#17202a" stroke-width="3" stroke-linecap="round"/>
<line x1="543.75" y1="207.40" x2="543.75" y2="251.40" stroke="#17202a" stroke-width="3" stroke-linecap="round"/>
<line x1="543.75" y1="229.40" x2="650.00" y2="229.40" stroke="#17202a" stroke-width="2.2" stroke-linecap="round"/>
<circle cx="680" cy="229.4" r="4" fill="white" stroke="#17202a" stroke-width="1.4"/>
<text x="692" y="229.4" text-anchor="start" dominant-baseline="middle" font-family="Cambria Math,Cambria,Times New Roman,serif" font-size="18" fill="#17202a" style="">Y</text>
<line x1="421.50" y1="310.60" x2="527.75" y2="310.60" stroke="#17202a" stroke-width="2.2" stroke-linecap="round"/>
<line x1="527.75" y1="288.60" x2="527.75" y2="332.60" stroke="#17202a" stroke-width="3" stroke-linecap="round"/>
<line x1="543.75" y1="288.60" x2="543.75" y2="332.60" stroke="#17202a" stroke-width="3" stroke-linecap="round"/>
<line x1="543.75" y1="310.60" x2="650.00" y2="310.60" stroke="#17202a" stroke-width="2.2" stroke-linecap="round"/>
<circle cx="680" cy="310.6" r="4" fill="white" stroke="#17202a" stroke-width="1.4"/>
<text x="692" y="310.6" text-anchor="start" dominant-baseline="middle" font-family="Cambria Math,Cambria,Times New Roman,serif" font-size="18" fill="#17202a" style="">Z</text>
<line x1="421.50" y1="322.60" x2="421.50" y2="401.80" stroke="#17202a" stroke-width="2.2" stroke-linecap="round"/>
<circle cx="421.5" cy="428.8" r="27" fill="white" stroke="#17202a" stroke-width="2.2"/>
<line x1="421.50" y1="455.80" x2="421.50" y2="535.00" stroke="#17202a" stroke-width="2.2" stroke-linecap="round"/>
<line x1="421.50" y1="413.80" x2="421.50" y2="443.80" stroke="#17202a" stroke-width="1.4" stroke-linecap="round"/>
<polygon points="421.50,443.80 417.75,437.89 425.25,437.89" fill="#17202a" stroke="#17202a" stroke-width="1.3" stroke-linejoin="round"/>
<text x="459.5" y="428.8" text-anchor="start" dominant-baseline="middle" font-family="Cambria Math,Cambria,Times New Roman,serif" font-size="17" fill="#17202a" style="font-style:italic;"><tspan>I</tspan><tspan baseline-shift="sub" font-size="70%">E</tspan><tspan>=1 mA</tspan></text>
<circle cx="421.5" cy="565" r="4" fill="white" stroke="#17202a" stroke-width="1.4"/>
<text text-anchor="start" dominant-baseline="middle" font-family="Cambria Math,Cambria,Times New Roman,serif" font-size="18" fill="#17202a" style=""><tspan x="433.5" y="555.1">−V_EE</tspan><tspan x="433.5" y="574.9">(−10 V)</tspan></text>
<text x="380.0" y="616" text-anchor="middle" dominant-baseline="middle" font-family="SimSun,STSong,serif" font-size="22" fill="#17202a" style="">图 2.5.42　题 2.5.8 的图</text>
</svg>
