<svg xmlns="http://www.w3.org/2000/svg" width="800" height="650" viewBox="0 0 800 650">
<title>图1.4.18 二极管小信号电路</title>
<rect width="100%" height="100%" fill="white"/>
<circle cx="110" cy="150" r="4.5" fill="white" stroke="#17202a" stroke-width="1.4"/>
<circle cx="110" cy="500" r="4.5" fill="white" stroke="#17202a" stroke-width="1.4"/>
<line x1="110.00" y1="150.00" x2="257.00" y2="150.00" stroke="#17202a" stroke-width="2.2" stroke-linecap="round"/>
<line x1="257.00" y1="128.00" x2="257.00" y2="172.00" stroke="#17202a" stroke-width="3" stroke-linecap="round"/>
<line x1="273.00" y1="128.00" x2="273.00" y2="172.00" stroke="#17202a" stroke-width="3" stroke-linecap="round"/>
<line x1="273.00" y1="150.00" x2="420.00" y2="150.00" stroke="#17202a" stroke-width="2.2" stroke-linecap="round"/>
<text x="265.0" y="116" text-anchor="middle" dominant-baseline="middle" font-family="Cambria Math,Cambria,Times New Roman,serif" font-size="22" fill="#17202a" style="font-style:italic;">C</text>
<line x1="420.00" y1="150.00" x2="690.00" y2="150.00" stroke="#17202a" stroke-width="2.2" stroke-linecap="round"/>
<line x1="110.00" y1="500.00" x2="690.00" y2="500.00" stroke="#17202a" stroke-width="2.2" stroke-linecap="round"/>
<line x1="420.00" y1="150.00" x2="420.00" y2="199.50" stroke="#17202a" stroke-width="2.2" stroke-linecap="round"/>
<rect x="406" y="199.5" width="28" height="76" fill="white" stroke="#17202a" stroke-width="2.2"/>
<line x1="420.00" y1="275.50" x2="420.00" y2="325.00" stroke="#17202a" stroke-width="2.2" stroke-linecap="round"/>
<text text-anchor="end" dominant-baseline="middle" font-family="Cambria Math,Cambria,Times New Roman,serif" font-size="21" fill="#17202a" style=""><tspan x="396" y="225.95">R</tspan><tspan x="396" y="249.04999999999998">500 Ω</tspan></text>
<line x1="420.00" y1="325.00" x2="420.00" y2="400.50" stroke="#17202a" stroke-width="2.2" stroke-linecap="round"/>
<line x1="402.00" y1="405.50" x2="438.00" y2="405.50" stroke="#17202a" stroke-width="2.2" stroke-linecap="round"/>
<line x1="409.00" y1="419.50" x2="431.00" y2="419.50" stroke="#17202a" stroke-width="2.2" stroke-linecap="round"/>
<line x1="420.00" y1="424.50" x2="420.00" y2="500.00" stroke="#17202a" stroke-width="2.2" stroke-linecap="round"/>
<text x="448" y="412.5" text-anchor="start" dominant-baseline="middle" font-family="Cambria Math,Cambria,Times New Roman,serif" font-size="21" fill="#17202a" style="">2 V</text>
<line x1="690.00" y1="150.00" x2="690.00" y2="300.00" stroke="#17202a" stroke-width="2.2" stroke-linecap="round"/>
<line x1="690.00" y1="350.00" x2="690.00" y2="500.00" stroke="#17202a" stroke-width="2.2" stroke-linecap="round"/>
<polygon points="672.00,302.00 708.00,302.00 690.00,335.00" fill="white" stroke="#17202a" stroke-width="2.2" stroke-linejoin="round"/>
<line x1="668.00" y1="338.00" x2="712.00" y2="338.00" stroke="#17202a" stroke-width="3" stroke-linecap="round"/>
<text x="720" y="325.0" text-anchor="start" dominant-baseline="middle" font-family="Cambria Math,Cambria,Times New Roman,serif" font-size="21" fill="#17202a" style="">D</text>
<line x1="745.00" y1="190.00" x2="745.00" y2="305.00" stroke="#2563eb" stroke-width="2.2" stroke-linecap="round"/>
<polygon points="745.00,305.00 738.57,294.87 751.43,294.87" fill="#2563eb" stroke="#2563eb" stroke-width="1.3" stroke-linejoin="round"/>
<text x="775" y="245" text-anchor="start" dominant-baseline="middle" font-family="Cambria Math,Cambria,Times New Roman,serif" font-size="22" fill="#2563eb" style="font-style:italic;"><tspan>i</tspan><tspan baseline-shift="sub" font-size="70%">D</tspan></text>
<text x="110" y="325" text-anchor="middle" dominant-baseline="middle" font-family="Cambria Math,Cambria,Times New Roman,serif" font-size="23" fill="#17202a" style="font-style:italic;"><tspan>v</tspan><tspan baseline-shift="sub" font-size="70%">i</tspan></text>
<text x="110" y="180" text-anchor="middle" dominant-baseline="middle" font-family="Cambria Math,Cambria,Times New Roman,serif" font-size="22" fill="#17202a" style="">+</text>
<text x="110" y="470" text-anchor="middle" dominant-baseline="middle" font-family="Cambria Math,Cambria,Times New Roman,serif" font-size="24" fill="#17202a" style="">−</text>
<text x="400.0" y="626" text-anchor="middle" dominant-baseline="middle" font-family="SimSun,STSong,serif" font-size="22" fill="#17202a" style="">图 1.4.18　题 1.3.8 的图</text>
</svg>
