<svg xmlns="http://www.w3.org/2000/svg" width="1250" height="600" viewBox="0 0 1250 600">
<title>图1.4.8 桥式整流电路</title>
<rect width="100%" height="100%" fill="white"/>
<polyline points="55.00,280.00 55.77,278.17 56.54,276.34 57.31,274.51 58.08,272.68 58.85,270.86 59.62,269.05 60.40,267.24 61.17,265.45 61.94,263.66 62.71,261.88 63.48,260.12 64.25,258.37 65.02,256.63 65.79,254.91 66.56,253.21 67.33,251.53 68.10,249.86 68.88,248.22 69.65,246.60 70.42,245.00 71.19,243.43 71.96,241.88 72.73,240.35 73.50,238.86 74.27,237.39 75.04,235.95 75.81,234.54 76.58,233.16 77.35,231.82 78.12,230.50 78.90,229.22 79.67,227.98 80.44,226.77 81.21,225.60 81.98,224.47 82.75,223.37 83.52,222.31 84.29,221.29 85.06,220.32 85.83,219.38 86.60,218.48 87.38,217.63 88.15,216.82 88.92,216.05 89.69,215.33 90.46,214.65 91.23,214.02 92.00,213.43 92.77,212.88 93.54,212.39 94.31,211.93 95.08,211.53 95.85,211.17 96.62,210.86 97.40,210.60 98.17,210.38 98.94,210.22 99.71,210.10 100.48,210.02 101.25,210.00 102.02,210.02 102.79,210.10 103.56,210.22 104.33,210.38 105.10,210.60 105.88,210.86 106.65,211.17 107.42,211.53 108.19,211.93 108.96,212.39 109.73,212.88 110.50,213.43 111.27,214.02 112.04,214.65 112.81,215.33 113.58,216.05 114.35,216.82 115.12,217.63 115.90,218.48 116.67,219.38 117.44,220.32 118.21,221.29 118.98,222.31 119.75,223.37 120.52,224.47 121.29,225.60 122.06,226.77 122.83,227.98 123.60,229.22 124.38,230.50 125.15,231.82 125.92,233.16 126.69,234.54 127.46,235.95 128.23,237.39 129.00,238.86 129.77,240.35 130.54,241.88 131.31,243.43 132.08,245.00 132.85,246.60 133.62,248.22 134.40,249.86 135.17,251.53 135.94,253.21 136.71,254.91 137.48,256.63 138.25,258.37 139.02,260.12 139.79,261.88 140.56,263.66 141.33,265.45 142.10,267.24 142.88,269.05 143.65,270.86 144.42,272.68 145.19,274.51 145.96,276.34 146.73,278.17 147.50,280.00 148.27,281.83 149.04,283.66 149.81,285.49 150.58,287.32 151.35,289.14 152.12,290.95 152.90,292.76 153.67,294.55 154.44,296.34 155.21,298.12 155.98,299.88 156.75,301.63 157.52,303.37 158.29,305.09 159.06,306.79 159.83,308.47 160.60,310.14 161.38,311.78 162.15,313.40 162.92,315.00 163.69,316.57 164.46,318.12 165.23,319.65 166.00,321.14 166.77,322.61 167.54,324.05 168.31,325.46 169.08,326.84 169.85,328.18 170.62,329.50 171.40,330.78 172.17,332.02 172.94,333.23 173.71,334.40 174.48,335.53 175.25,336.63 176.02,337.69 176.79,338.71 177.56,339.68 178.33,340.62 179.10,341.52 179.88,342.37 180.65,343.18 181.42,343.95 182.19,344.67 182.96,345.35 183.73,345.98 184.50,346.57 185.27,347.12 186.04,347.61 186.81,348.07 187.58,348.47 188.35,348.83 189.12,349.14 189.90,349.40 190.67,349.62 191.44,349.78 192.21,349.90 192.98,349.98 193.75,350.00 194.52,349.98 195.29,349.90 196.06,349.78 196.83,349.62 197.60,349.40 198.38,349.14 199.15,348.83 199.92,348.47 200.69,348.07 201.46,347.61 202.23,347.12 203.00,346.57 203.77,345.98 204.54,345.35 205.31,344.67 206.08,343.95 206.85,343.18 207.62,342.37 208.40,341.52 209.17,340.62 209.94,339.68 210.71,338.71 211.48,337.69 212.25,336.63 213.02,335.53 213.79,334.40 214.56,333.23 215.33,332.02 216.10,330.78 216.88,329.50 217.65,328.18 218.42,326.84 219.19,325.46 219.96,324.05 220.73,322.61 221.50,321.14 222.27,319.65 223.04,318.12 223.81,316.57 224.58,315.00 225.35,313.40 226.12,311.78 226.90,310.14 227.67,308.47 228.44,306.79 229.21,305.09 229.98,303.37 230.75,301.63 231.52,299.88 232.29,298.12 233.06,296.34 233.83,294.55 234.60,292.76 235.38,290.95 236.15,289.14 236.92,287.32 237.69,285.49 238.46,283.66 239.23,281.83 240.00,280.00" fill="none" stroke="#2563eb" stroke-width="3" stroke-linejoin="round" stroke-linecap="round"/>
<line x1="45.00" y1="280.00" x2="260.00" y2="280.00" stroke="#6b7280" stroke-width="2.2" stroke-linecap="round"/>
<polygon points="260.00,280.00 252.40,284.82 252.40,275.18" fill="#6b7280" stroke="#6b7280" stroke-width="1.3" stroke-linejoin="round"/>
<text x="252" y="305" text-anchor="middle" dominant-baseline="middle" font-family="Cambria Math,Cambria,Times New Roman,serif" font-size="20" fill="#17202a" style="font-style:italic;">t</text>
<circle cx="330" cy="155" r="4.5" fill="white" stroke="#17202a" stroke-width="1.4"/>
<circle cx="330" cy="405" r="4.5" fill="white" stroke="#17202a" stroke-width="1.4"/>
<text x="315" y="183" text-anchor="middle" dominant-baseline="middle" font-family="Cambria Math,Cambria,Times New Roman,serif" font-size="20" fill="#17202a" style="">+</text>
<text x="315" y="377" text-anchor="middle" dominant-baseline="middle" font-family="Cambria Math,Cambria,Times New Roman,serif" font-size="22" fill="#17202a" style="">−</text>
<line x1="330.00" y1="155.00" x2="375.00" y2="155.00" stroke="#17202a" stroke-width="2.2" stroke-linecap="round"/>
<line x1="330.00" y1="405.00" x2="375.00" y2="405.00" stroke="#17202a" stroke-width="2.2" stroke-linecap="round"/>
<polyline points="390.00,155.00 385.98,157.08 382.36,159.17 379.48,161.25 377.64,163.33 377.00,165.42 377.64,167.50 379.48,169.58 382.36,171.67 385.98,173.75 390.00,175.83 394.02,177.92 397.64,180.00 400.52,182.08 402.36,184.17 403.00,186.25 402.36,188.33 400.52,190.42 397.64,192.50 394.02,194.58 390.00,196.67 385.98,198.75 382.36,200.83 379.48,202.92 377.64,205.00 377.00,207.08 377.64,209.17 379.48,211.25 382.36,213.33 385.98,215.42 390.00,217.50 394.02,219.58 397.64,221.67 400.52,223.75 402.36,225.83 403.00,227.92 402.36,230.00 400.52,232.08 397.64,234.17 394.02,236.25 390.00,238.33 385.98,240.42 382.36,242.50 379.48,244.58 377.64,246.67 377.00,248.75 377.64,250.83 379.48,252.92 382.36,255.00 385.98,257.08 390.00,259.17 394.02,261.25 397.64,263.33 400.52,265.42 402.36,267.50 403.00,269.58 402.36,271.67 400.52,273.75 397.64,275.83 394.02,277.92 390.00,280.00 385.98,282.08 382.36,284.17 379.48,286.25 377.64,288.33 377.00,290.42 377.64,292.50 379.48,294.58 382.36,296.67 385.98,298.75 390.00,300.83 394.02,302.92 397.64,305.00 400.52,307.08 402.36,309.17 403.00,311.25 402.36,313.33 400.52,315.42 397.64,317.50 394.02,319.58 390.00,321.67 385.98,323.75 382.36,325.83 379.48,327.92 377.64,330.00 377.00,332.08 377.64,334.17 379.48,336.25 382.36,338.33 385.98,340.42 390.00,342.50 394.02,344.58 397.64,346.67 400.52,348.75 402.36,350.83 403.00,352.92 402.36,355.00 400.52,357.08 397.64,359.17 394.02,361.25 390.00,363.33 385.98,365.42 382.36,367.50 379.48,369.58 377.64,371.67 377.00,373.75 377.64,375.83 379.48,377.92 382.36,380.00 385.98,382.08 390.00,384.17 394.02,386.25 397.64,388.33 400.52,390.42 402.36,392.50 403.00,394.58 402.36,396.67 400.52,398.75 397.64,400.83 394.02,402.92 390.00,405.00" fill="none" stroke="#17202a" stroke-width="2.2" stroke-linejoin="round" stroke-linecap="round"/>
<polyline points="470.00,155.00 474.02,157.08 477.64,159.17 480.52,161.25 482.36,163.33 483.00,165.42 482.36,167.50 480.52,169.58 477.64,171.67 474.02,173.75 470.00,175.83 465.98,177.92 462.36,180.00 459.48,182.08 457.64,184.17 457.00,186.25 457.64,188.33 459.48,190.42 462.36,192.50 465.98,194.58 470.00,196.67 474.02,198.75 477.64,200.83 480.52,202.92 482.36,205.00 483.00,207.08 482.36,209.17 480.52,211.25 477.64,213.33 474.02,215.42 470.00,217.50 465.98,219.58 462.36,221.67 459.48,223.75 457.64,225.83 457.00,227.92 457.64,230.00 459.48,232.08 462.36,234.17 465.98,236.25 470.00,238.33 474.02,240.42 477.64,242.50 480.52,244.58 482.36,246.67 483.00,248.75 482.36,250.83 480.52,252.92 477.64,255.00 474.02,257.08 470.00,259.17 465.98,261.25 462.36,263.33 459.48,265.42 457.64,267.50 457.00,269.58 457.64,271.67 459.48,273.75 462.36,275.83 465.98,277.92 470.00,280.00 474.02,282.08 477.64,284.17 480.52,286.25 482.36,288.33 483.00,290.42 482.36,292.50 480.52,294.58 477.64,296.67 474.02,298.75 470.00,300.83 465.98,302.92 462.36,305.00 459.48,307.08 457.64,309.17 457.00,311.25 457.64,313.33 459.48,315.42 462.36,317.50 465.98,319.58 470.00,321.67 474.02,323.75 477.64,325.83 480.52,327.92 482.36,330.00 483.00,332.08 482.36,334.17 480.52,336.25 477.64,338.33 474.02,340.42 470.00,342.50 465.98,344.58 462.36,346.67 459.48,348.75 457.64,350.83 457.00,352.92 457.64,355.00 459.48,357.08 462.36,359.17 465.98,361.25 470.00,363.33 474.02,365.42 477.64,367.50 480.52,369.58 482.36,371.67 483.00,373.75 482.36,375.83 480.52,377.92 477.64,380.00 474.02,382.08 470.00,384.17 465.98,386.25 462.36,388.33 459.48,390.42 457.64,392.50 457.00,394.58 457.64,396.67 459.48,398.75 462.36,400.83 465.98,402.92 470.00,405.00" fill="none" stroke="#17202a" stroke-width="2.2" stroke-linejoin="round" stroke-linecap="round"/>
<line x1="422.00" y1="155.00" x2="422.00" y2="405.00" stroke="#9ca3af" stroke-width="1.2" stroke-linecap="round"/>
<line x1="438.00" y1="155.00" x2="438.00" y2="405.00" stroke="#9ca3af" stroke-width="1.2" stroke-linecap="round"/>
<text x="430.0" y="120" text-anchor="middle" dominant-baseline="middle" font-family="Cambria Math,Cambria,Times New Roman,serif" font-size="20" fill="#17202a" style="">1:1</text>
<text x="350" y="280" text-anchor="middle" dominant-baseline="middle" font-family="Cambria Math,Cambria,Times New Roman,serif" font-size="22" fill="#17202a" style="font-style:italic;"><tspan>v</tspan><tspan baseline-shift="sub" font-size="70%">i</tspan></text>
<line x1="470.00" y1="155.00" x2="690.00" y2="150.00" stroke="#17202a" stroke-width="2.2" stroke-linecap="round"/>
<line x1="470.00" y1="405.00" x2="690.00" y2="410.00" stroke="#17202a" stroke-width="2.2" stroke-linecap="round"/>
<line x1="690.00" y1="150.00" x2="743.14" y2="197.64" stroke="#17202a" stroke-width="2.2" stroke-linecap="round"/>
<line x1="781.86" y1="232.36" x2="835.00" y2="280.00" stroke="#17202a" stroke-width="2.2" stroke-linecap="round"/>
<polygon points="734.77,212.97 757.47,187.66 769.95,221.68" fill="white" stroke="#17202a" stroke-width="2.2" stroke-linejoin="round"/>
<line x1="786.94" y1="208.71" x2="758.91" y2="239.98" stroke="#17202a" stroke-width="3" stroke-linecap="round"/>
<text x="782.5263504725608" y="192.6629167806053" text-anchor="middle" dominant-baseline="middle" font-family="Cambria Math,Cambria,Times New Roman,serif" font-size="20" fill="#17202a" style="">D₁</text>
<line x1="690.00" y1="410.00" x2="743.14" y2="362.36" stroke="#17202a" stroke-width="2.2" stroke-linecap="round"/>
<line x1="781.86" y1="327.64" x2="835.00" y2="280.00" stroke="#17202a" stroke-width="2.2" stroke-linecap="round"/>
<polygon points="757.47,372.34 734.77,347.03 769.95,338.32" fill="white" stroke="#17202a" stroke-width="2.2" stroke-linejoin="round"/>
<line x1="758.91" y1="320.02" x2="786.94" y2="351.29" stroke="#17202a" stroke-width="3" stroke-linecap="round"/>
<text x="782.5263504725608" y="367.3370832193947" text-anchor="middle" dominant-baseline="middle" font-family="Cambria Math,Cambria,Times New Roman,serif" font-size="20" fill="#17202a" style="">D₂</text>
<line x1="545.00" y1="280.00" x2="598.14" y2="327.64" stroke="#17202a" stroke-width="2.2" stroke-linecap="round"/>
<line x1="636.86" y1="362.36" x2="690.00" y2="410.00" stroke="#17202a" stroke-width="2.2" stroke-linecap="round"/>
<polygon points="589.77,342.97 612.47,317.66 624.95,351.68" fill="white" stroke="#17202a" stroke-width="2.2" stroke-linejoin="round"/>
<line x1="641.94" y1="338.71" x2="613.91" y2="369.98" stroke="#17202a" stroke-width="3" stroke-linecap="round"/>
<text x="597.4736495274392" y="367.3370832193947" text-anchor="middle" dominant-baseline="middle" font-family="Cambria Math,Cambria,Times New Roman,serif" font-size="20" fill="#17202a" style="">D₃</text>
<line x1="545.00" y1="280.00" x2="598.14" y2="232.36" stroke="#17202a" stroke-width="2.2" stroke-linecap="round"/>
<line x1="636.86" y1="197.64" x2="690.00" y2="150.00" stroke="#17202a" stroke-width="2.2" stroke-linecap="round"/>
<polygon points="612.47,242.34 589.77,217.03 624.95,208.32" fill="white" stroke="#17202a" stroke-width="2.2" stroke-linejoin="round"/>
<line x1="613.91" y1="190.02" x2="641.94" y2="221.29" stroke="#17202a" stroke-width="3" stroke-linecap="round"/>
<text x="597.4736495274392" y="192.6629167806053" text-anchor="middle" dominant-baseline="middle" font-family="Cambria Math,Cambria,Times New Roman,serif" font-size="20" fill="#17202a" style="">D₄</text>
<line x1="835.00" y1="280.00" x2="980.00" y2="280.00" stroke="#17202a" stroke-width="2.2" stroke-linecap="round"/>
<line x1="980.00" y1="280.00" x2="980.00" y2="321.25" stroke="#17202a" stroke-width="2.2" stroke-linecap="round"/>
<rect x="966" y="321.25" width="28" height="67.5" fill="white" stroke="#17202a" stroke-width="2.2"/>
<line x1="980.00" y1="388.75" x2="980.00" y2="430.00" stroke="#17202a" stroke-width="2.2" stroke-linecap="round"/>
<text x="956" y="355.0" text-anchor="end" dominant-baseline="middle" font-family="Cambria Math,Cambria,Times New Roman,serif" font-size="21" fill="#17202a" style=""><tspan>R</tspan><tspan baseline-shift="sub" font-size="70%">L</tspan></text>
<line x1="980.00" y1="430.00" x2="545.00" y2="430.00" stroke="#17202a" stroke-width="2.2" stroke-linecap="round"/>
<line x1="545.00" y1="430.00" x2="545.00" y2="280.00" stroke="#17202a" stroke-width="2.2" stroke-linecap="round"/>
<text x="1035" y="355" text-anchor="start" dominant-baseline="middle" font-family="Cambria Math,Cambria,Times New Roman,serif" font-size="23" fill="#17202a" style="font-style:italic;"><tspan>v</tspan><tspan baseline-shift="sub" font-size="70%">o</tspan></text>
<text x="1010" y="300" text-anchor="middle" dominant-baseline="middle" font-family="Cambria Math,Cambria,Times New Roman,serif" font-size="22" fill="#17202a" style="">+</text>
<text x="1010" y="420" text-anchor="middle" dominant-baseline="middle" font-family="Cambria Math,Cambria,Times New Roman,serif" font-size="24" fill="#17202a" style="">−</text>
<text x="625.0" y="576" text-anchor="middle" dominant-baseline="middle" font-family="SimSun,STSong,serif" font-size="22" fill="#17202a" style="">图 1.4.8　题 1.3.3 的图</text>
</svg>
