<svg xmlns="http://www.w3.org/2000/svg" width="1170" height="560" viewBox="0 0 1170 560">
<title>图2.5.18 三种晶体管工作状态电路</title>
<rect width="100%" height="100%" fill="white"/>
<line x1="130.00" y1="75.00" x2="335.00" y2="75.00" stroke="#17202a" stroke-width="2.2" stroke-linecap="round"/>
<circle cx="360" cy="75" r="4" fill="white" stroke="#17202a" stroke-width="1.4"/>
<text text-anchor="start" dominant-baseline="middle" font-family="Cambria Math,Cambria,Times New Roman,serif" font-size="18" fill="#17202a" style=""><tspan x="372" y="65.1">+V_CC</tspan><tspan x="372" y="84.89999999999999">(+6 V)</tspan></text>
<line x1="255.00" y1="225.50" x2="255.00" y2="264.50" stroke="#17202a" stroke-width="3" stroke-linecap="round"/>
<line x1="212.75" y1="245.00" x2="255.00" y2="245.00" stroke="#17202a" stroke-width="2.2" stroke-linecap="round"/>
<line x1="255.00" y1="233.30" x2="284.25" y2="207.30" stroke="#17202a" stroke-width="2.2" stroke-linecap="round"/>
<line x1="255.00" y1="256.70" x2="284.25" y2="282.70" stroke="#17202a" stroke-width="2.2" stroke-linecap="round"/>
<line x1="266.70" y1="267.10" x2="284.25" y2="282.70" stroke="#17202a" stroke-width="2" stroke-linecap="round"/>
<polygon points="284.25,282.70 277.83,281.66 282.46,276.45" fill="#17202a" stroke="#17202a" stroke-width="1.3" stroke-linejoin="round"/>
<line x1="145.00" y1="75.00" x2="145.00" y2="122.00" stroke="#17202a" stroke-width="2.2" stroke-linecap="round"/>
<rect x="131" y="122.0" width="28" height="76" fill="white" stroke="#17202a" stroke-width="2.2"/>
<line x1="145.00" y1="198.00" x2="145.00" y2="245.00" stroke="#17202a" stroke-width="2.2" stroke-linecap="round"/>
<text text-anchor="end" dominant-baseline="middle" font-family="Cambria Math,Cambria,Times New Roman,serif" font-size="21" fill="#17202a" style=""><tspan x="121" y="148.45">R_B</tspan><tspan x="121" y="171.54999999999998">100 kΩ</tspan></text>
<line x1="145.00" y1="245.00" x2="212.75" y2="245.00" stroke="#17202a" stroke-width="2.2" stroke-linecap="round"/>
<line x1="284.25" y1="75.00" x2="284.25" y2="111.38" stroke="#17202a" stroke-width="2.2" stroke-linecap="round"/>
<rect x="270.25" y="111.38250000000001" width="28" height="59.535000000000004" fill="white" stroke="#17202a" stroke-width="2.2"/>
<line x1="284.25" y1="170.92" x2="284.25" y2="207.30" stroke="#17202a" stroke-width="2.2" stroke-linecap="round"/>
<text text-anchor="end" dominant-baseline="middle" font-family="Cambria Math,Cambria,Times New Roman,serif" font-size="21" fill="#17202a" style=""><tspan x="260.25" y="129.6">R_C</tspan><tspan x="260.25" y="152.7">1 kΩ</tspan></text>
<line x1="284.25" y1="282.70" x2="284.25" y2="390.00" stroke="#17202a" stroke-width="2.2" stroke-linecap="round"/>
<line x1="284.25" y1="378.00" x2="284.25" y2="390.00" stroke="#17202a" stroke-width="2.2" stroke-linecap="round"/>
<line x1="266.25" y1="390.00" x2="302.25" y2="390.00" stroke="#17202a" stroke-width="2.2" stroke-linecap="round"/>
<line x1="272.25" y1="397.00" x2="296.25" y2="397.00" stroke="#17202a" stroke-width="2.2" stroke-linecap="round"/>
<line x1="278.25" y1="404.00" x2="290.25" y2="404.00" stroke="#17202a" stroke-width="2.2" stroke-linecap="round"/>
<text x="300" y="260" text-anchor="start" dominant-baseline="middle" font-family="Cambria Math,Cambria,Times New Roman,serif" font-size="17" fill="#17202a" style="font-style:italic;">β=30</text>
<text x="220" y="455" text-anchor="middle" dominant-baseline="middle" font-family="Cambria Math,Cambria,Times New Roman,serif" font-size="18" fill="#17202a" style="">(a)</text>
<circle cx="650" cy="75" r="4" fill="white" stroke="#17202a" stroke-width="1.4"/>
<text text-anchor="start" dominant-baseline="middle" font-family="Cambria Math,Cambria,Times New Roman,serif" font-size="18" fill="#17202a" style=""><tspan x="662" y="65.1">+V_CC</tspan><tspan x="662" y="84.89999999999999">(+6 V)</tspan></text>
<line x1="590.00" y1="225.50" x2="590.00" y2="264.50" stroke="#17202a" stroke-width="3" stroke-linecap="round"/>
<line x1="547.75" y1="245.00" x2="590.00" y2="245.00" stroke="#17202a" stroke-width="2.2" stroke-linecap="round"/>
<line x1="590.00" y1="233.30" x2="619.25" y2="207.30" stroke="#17202a" stroke-width="2.2" stroke-linecap="round"/>
<line x1="590.00" y1="256.70" x2="619.25" y2="282.70" stroke="#17202a" stroke-width="2.2" stroke-linecap="round"/>
<line x1="601.70" y1="267.10" x2="619.25" y2="282.70" stroke="#17202a" stroke-width="2" stroke-linecap="round"/>
<polygon points="619.25,282.70 612.83,281.66 617.46,276.45" fill="#17202a" stroke="#17202a" stroke-width="1.3" stroke-linejoin="round"/>
<line x1="619.25" y1="75.00" x2="619.25" y2="111.38" stroke="#17202a" stroke-width="2.2" stroke-linecap="round"/>
<rect x="605.25" y="111.38250000000001" width="28" height="59.535000000000004" fill="white" stroke="#17202a" stroke-width="2.2"/>
<line x1="619.25" y1="170.92" x2="619.25" y2="207.30" stroke="#17202a" stroke-width="2.2" stroke-linecap="round"/>
<text text-anchor="end" dominant-baseline="middle" font-family="Cambria Math,Cambria,Times New Roman,serif" font-size="21" fill="#17202a" style=""><tspan x="595.25" y="129.6">R_C</tspan><tspan x="595.25" y="152.7">1.5 kΩ</tspan></text>
<line x1="619.25" y1="282.70" x2="619.25" y2="390.00" stroke="#17202a" stroke-width="2.2" stroke-linecap="round"/>
<line x1="619.25" y1="378.00" x2="619.25" y2="390.00" stroke="#17202a" stroke-width="2.2" stroke-linecap="round"/>
<line x1="601.25" y1="390.00" x2="637.25" y2="390.00" stroke="#17202a" stroke-width="2.2" stroke-linecap="round"/>
<line x1="607.25" y1="397.00" x2="631.25" y2="397.00" stroke="#17202a" stroke-width="2.2" stroke-linecap="round"/>
<line x1="613.25" y1="404.00" x2="625.25" y2="404.00" stroke="#17202a" stroke-width="2.2" stroke-linecap="round"/>
<line x1="445.00" y1="245.00" x2="547.75" y2="245.00" stroke="#17202a" stroke-width="2.2" stroke-linecap="round"/>
<line x1="445.00" y1="245.00" x2="445.00" y2="284.88" stroke="#17202a" stroke-width="2.2" stroke-linecap="round"/>
<rect x="431" y="284.875" width="28" height="65.25" fill="white" stroke="#17202a" stroke-width="2.2"/>
<line x1="445.00" y1="350.12" x2="445.00" y2="390.00" stroke="#17202a" stroke-width="2.2" stroke-linecap="round"/>
<text text-anchor="end" dominant-baseline="middle" font-family="Cambria Math,Cambria,Times New Roman,serif" font-size="21" fill="#17202a" style=""><tspan x="421" y="305.95">R_B1</tspan><tspan x="421" y="329.05">15 kΩ</tspan></text>
<line x1="445.00" y1="378.00" x2="445.00" y2="390.00" stroke="#17202a" stroke-width="2.2" stroke-linecap="round"/>
<line x1="427.00" y1="390.00" x2="463.00" y2="390.00" stroke="#17202a" stroke-width="2.2" stroke-linecap="round"/>
<line x1="433.00" y1="397.00" x2="457.00" y2="397.00" stroke="#17202a" stroke-width="2.2" stroke-linecap="round"/>
<line x1="439.00" y1="404.00" x2="451.00" y2="404.00" stroke="#17202a" stroke-width="2.2" stroke-linecap="round"/>
<line x1="540.00" y1="245.00" x2="540.00" y2="273.88" stroke="#17202a" stroke-width="2.2" stroke-linecap="round"/>
<rect x="526" y="273.875" width="28" height="47.25" fill="white" stroke="#17202a" stroke-width="2.2"/>
<line x1="540.00" y1="321.12" x2="540.00" y2="350.00" stroke="#17202a" stroke-width="2.2" stroke-linecap="round"/>
<text text-anchor="start" dominant-baseline="middle" font-family="Cambria Math,Cambria,Times New Roman,serif" font-size="21" fill="#17202a" style=""><tspan x="564" y="285.95">R_B2</tspan><tspan x="564" y="309.05">51 kΩ</tspan></text>
<circle cx="540" cy="390" r="4" fill="white" stroke="#17202a" stroke-width="1.4"/>
<text text-anchor="start" dominant-baseline="middle" font-family="Cambria Math,Cambria,Times New Roman,serif" font-size="18" fill="#17202a" style=""><tspan x="552" y="380.1">−V_BB</tspan><tspan x="552" y="399.90000000000003">(−6 V)</tspan></text>
<line x1="540.00" y1="350.00" x2="540.00" y2="390.00" stroke="#17202a" stroke-width="2.2" stroke-linecap="round"/>
<text x="655" y="260" text-anchor="start" dominant-baseline="middle" font-family="Cambria Math,Cambria,Times New Roman,serif" font-size="17" fill="#17202a" style="font-style:italic;">β=30</text>
<text x="565" y="455" text-anchor="middle" dominant-baseline="middle" font-family="Cambria Math,Cambria,Times New Roman,serif" font-size="18" fill="#17202a" style="">(b)</text>
<circle cx="1090" cy="75" r="4" fill="white" stroke="#17202a" stroke-width="1.4"/>
<text text-anchor="start" dominant-baseline="middle" font-family="Cambria Math,Cambria,Times New Roman,serif" font-size="18" fill="#17202a" style=""><tspan x="1102" y="65.1">+V_CC</tspan><tspan x="1102" y="84.89999999999999">(+12 V)</tspan></text>
<line x1="1005.00" y1="225.50" x2="1005.00" y2="264.50" stroke="#17202a" stroke-width="3" stroke-linecap="round"/>
<line x1="962.75" y1="245.00" x2="1005.00" y2="245.00" stroke="#17202a" stroke-width="2.2" stroke-linecap="round"/>
<line x1="1005.00" y1="233.30" x2="1034.25" y2="207.30" stroke="#17202a" stroke-width="2.2" stroke-linecap="round"/>
<line x1="1005.00" y1="256.70" x2="1034.25" y2="282.70" stroke="#17202a" stroke-width="2.2" stroke-linecap="round"/>
<line x1="1016.70" y1="267.10" x2="1034.25" y2="282.70" stroke="#17202a" stroke-width="2" stroke-linecap="round"/>
<polygon points="1034.25,282.70 1027.83,281.66 1032.46,276.45" fill="#17202a" stroke="#17202a" stroke-width="1.3" stroke-linejoin="round"/>
<line x1="1034.25" y1="75.00" x2="1034.25" y2="111.38" stroke="#17202a" stroke-width="2.2" stroke-linecap="round"/>
<rect x="1020.25" y="111.38250000000001" width="28" height="59.535000000000004" fill="white" stroke="#17202a" stroke-width="2.2"/>
<line x1="1034.25" y1="170.92" x2="1034.25" y2="207.30" stroke="#17202a" stroke-width="2.2" stroke-linecap="round"/>
<text text-anchor="end" dominant-baseline="middle" font-family="Cambria Math,Cambria,Times New Roman,serif" font-size="21" fill="#17202a" style=""><tspan x="1010.25" y="129.6">R_C</tspan><tspan x="1010.25" y="152.7">1 kΩ</tspan></text>
<line x1="1034.25" y1="282.70" x2="1034.25" y2="390.00" stroke="#17202a" stroke-width="2.2" stroke-linecap="round"/>
<line x1="1034.25" y1="378.00" x2="1034.25" y2="390.00" stroke="#17202a" stroke-width="2.2" stroke-linecap="round"/>
<line x1="1016.25" y1="390.00" x2="1052.25" y2="390.00" stroke="#17202a" stroke-width="2.2" stroke-linecap="round"/>
<line x1="1022.25" y1="397.00" x2="1046.25" y2="397.00" stroke="#17202a" stroke-width="2.2" stroke-linecap="round"/>
<line x1="1028.25" y1="404.00" x2="1040.25" y2="404.00" stroke="#17202a" stroke-width="2.2" stroke-linecap="round"/>
<circle cx="805" cy="245" r="4" fill="white" stroke="#17202a" stroke-width="1.4"/>
<text text-anchor="end" dominant-baseline="middle" font-family="Cambria Math,Cambria,Times New Roman,serif" font-size="18" fill="#17202a" style=""><tspan x="793" y="235.1">+V_BB</tspan><tspan x="793" y="254.9">(+2 V)</tspan></text>
<line x1="830.00" y1="245.00" x2="866.51" y2="245.00" stroke="#17202a" stroke-width="2.2" stroke-linecap="round"/>
<rect x="866.50625" y="231" width="59.737500000000004" height="28" fill="white" stroke="#17202a" stroke-width="2.2"/>
<line x1="926.24" y1="245.00" x2="962.75" y2="245.00" stroke="#17202a" stroke-width="2.2" stroke-linecap="round"/>
<text x="896.375" y="213" text-anchor="middle" dominant-baseline="middle" font-family="Cambria Math,Cambria,Times New Roman,serif" font-size="22" fill="#17202a" style=""><tspan>R</tspan><tspan baseline-shift="sub" font-size="70%">B</tspan><tspan>  5 kΩ</tspan></text>
<line x1="805.00" y1="245.00" x2="830.00" y2="245.00" stroke="#17202a" stroke-width="2.2" stroke-linecap="round"/>
<text x="1060" y="260" text-anchor="start" dominant-baseline="middle" font-family="Cambria Math,Cambria,Times New Roman,serif" font-size="17" fill="#17202a" style="font-style:italic;">β=50</text>
<text x="980" y="455" text-anchor="middle" dominant-baseline="middle" font-family="Cambria Math,Cambria,Times New Roman,serif" font-size="18" fill="#17202a" style="">(c)</text>
<text x="585.0" y="536" text-anchor="middle" dominant-baseline="middle" font-family="SimSun,STSong,serif" font-size="22" fill="#17202a" style="">图 2.5.18　题 2.3.8 的图</text>
</svg>
