<svg xmlns="http://www.w3.org/2000/svg" width="700" height="560" viewBox="0 0 700 560">
<title>图2.5.44 基本电流镜</title>
<rect width="100%" height="100%" fill="white"/>
<line x1="235.00" y1="262.60" x2="235.00" y2="297.40" stroke="#17202a" stroke-width="3" stroke-linecap="round"/>
<line x1="197.30" y1="280.00" x2="235.00" y2="280.00" stroke="#17202a" stroke-width="2.2" stroke-linecap="round"/>
<line x1="235.00" y1="269.56" x2="261.10" y2="246.36" stroke="#17202a" stroke-width="2.2" stroke-linecap="round"/>
<line x1="235.00" y1="290.44" x2="261.10" y2="313.64" stroke="#17202a" stroke-width="2.2" stroke-linecap="round"/>
<line x1="245.44" y1="299.72" x2="261.10" y2="313.64" stroke="#17202a" stroke-width="2" stroke-linecap="round"/>
<polygon points="261.10,313.64 255.38,312.71 259.50,308.06" fill="#17202a" stroke="#17202a" stroke-width="1.3" stroke-linejoin="round"/>
<text x="280.24" y="280" text-anchor="start" dominant-baseline="middle" font-family="Cambria Math,Cambria,Times New Roman,serif" font-size="21" fill="#17202a" style=""><tspan>T</tspan><tspan baseline-shift="sub" font-size="70%">1</tspan></text>
<line x1="465.00" y1="262.60" x2="465.00" y2="297.40" stroke="#17202a" stroke-width="3" stroke-linecap="round"/>
<line x1="427.30" y1="280.00" x2="465.00" y2="280.00" stroke="#17202a" stroke-width="2.2" stroke-linecap="round"/>
<line x1="465.00" y1="269.56" x2="491.10" y2="246.36" stroke="#17202a" stroke-width="2.2" stroke-linecap="round"/>
<line x1="465.00" y1="290.44" x2="491.10" y2="313.64" stroke="#17202a" stroke-width="2.2" stroke-linecap="round"/>
<line x1="475.44" y1="299.72" x2="491.10" y2="313.64" stroke="#17202a" stroke-width="2" stroke-linecap="round"/>
<polygon points="491.10,313.64 485.38,312.71 489.50,308.06" fill="#17202a" stroke="#17202a" stroke-width="1.3" stroke-linejoin="round"/>
<text x="510.24" y="280" text-anchor="start" dominant-baseline="middle" font-family="Cambria Math,Cambria,Times New Roman,serif" font-size="21" fill="#17202a" style=""><tspan>T</tspan><tspan baseline-shift="sub" font-size="70%">2</tspan></text>
<line x1="197.30" y1="280.00" x2="427.30" y2="280.00" stroke="#17202a" stroke-width="2.2" stroke-linecap="round"/>
<line x1="261.10" y1="313.64" x2="261.10" y2="410.00" stroke="#17202a" stroke-width="2.2" stroke-linecap="round"/>
<line x1="491.10" y1="313.64" x2="491.10" y2="410.00" stroke="#17202a" stroke-width="2.2" stroke-linecap="round"/>
<line x1="261.10" y1="410.00" x2="491.10" y2="410.00" stroke="#17202a" stroke-width="2.2" stroke-linecap="round"/>
<line x1="376.10" y1="398.00" x2="376.10" y2="410.00" stroke="#17202a" stroke-width="2.2" stroke-linecap="round"/>
<line x1="358.10" y1="410.00" x2="394.10" y2="410.00" stroke="#17202a" stroke-width="2.2" stroke-linecap="round"/>
<line x1="364.10" y1="417.00" x2="388.10" y2="417.00" stroke="#17202a" stroke-width="2.2" stroke-linecap="round"/>
<line x1="370.10" y1="424.00" x2="382.10" y2="424.00" stroke="#17202a" stroke-width="2.2" stroke-linecap="round"/>
<circle cx="261.1" cy="55" r="4" fill="white" stroke="#17202a" stroke-width="1.4"/>
<text x="273.1" y="55" text-anchor="start" dominant-baseline="middle" font-family="Cambria Math,Cambria,Times New Roman,serif" font-size="18" fill="#17202a" style="">+6 V</text>
<line x1="261.10" y1="55.00" x2="261.10" y2="112.68" stroke="#17202a" stroke-width="2.2" stroke-linecap="round"/>
<rect x="247.10000000000002" y="112.68" width="28" height="76" fill="white" stroke="#17202a" stroke-width="2.2"/>
<line x1="261.10" y1="188.68" x2="261.10" y2="246.36" stroke="#17202a" stroke-width="2.2" stroke-linecap="round"/>
<text text-anchor="start" dominant-baseline="middle" font-family="Cambria Math,Cambria,Times New Roman,serif" font-size="21" fill="#17202a" style=""><tspan x="285.1" y="139.13">R</tspan><tspan x="285.1" y="162.23">5.3 kΩ</tspan></text>
<polyline points="261.10,246.36 261.10,220.00 197.30,220.00 197.30,280.00" fill="none" stroke="#17202a" stroke-width="1.8" stroke-linejoin="round" stroke-linecap="round"/>
<circle cx="197.3" cy="280" r="3" fill="#17202a" stroke="#17202a" stroke-width="2.2"/>
<line x1="491.10" y1="246.36" x2="491.10" y2="80.00" stroke="#17202a" stroke-width="2.2" stroke-linecap="round"/>
<circle cx="491.1" cy="80" r="4" fill="white" stroke="#17202a" stroke-width="1.4"/>
<line x1="231.10" y1="95.00" x2="231.10" y2="155.00" stroke="#17202a" stroke-width="1.3" stroke-linecap="round"/>
<polygon points="231.10,155.00 227.35,149.09 234.85,149.09" fill="#17202a" stroke="#17202a" stroke-width="1.3" stroke-linejoin="round"/>
<text x="211.10000000000002" y="125" text-anchor="end" dominant-baseline="middle" font-family="Cambria Math,Cambria,Times New Roman,serif" font-size="16" fill="#17202a" style="font-style:italic;"><tspan>I</tspan><tspan baseline-shift="sub" font-size="70%">R</tspan></text>
<line x1="526.10" y1="105.00" x2="526.10" y2="175.00" stroke="#17202a" stroke-width="1.3" stroke-linecap="round"/>
<polygon points="526.10,175.00 522.35,169.09 529.85,169.09" fill="#17202a" stroke="#17202a" stroke-width="1.3" stroke-linejoin="round"/>
<text x="546.1" y="140" text-anchor="start" dominant-baseline="middle" font-family="Cambria Math,Cambria,Times New Roman,serif" font-size="16" fill="#17202a" style="font-style:italic;"><tspan>I</tspan><tspan baseline-shift="sub" font-size="70%">0</tspan></text>
<text x="350.0" y="536" text-anchor="middle" dominant-baseline="middle" font-family="SimSun,STSong,serif" font-size="22" fill="#17202a" style="">图 2.5.44　题 2.6.2 的图</text>
</svg>
