<svg xmlns="http://www.w3.org/2000/svg" width="900" height="520" viewBox="0 0 900 520">
<title>图2.5.27 热敏电阻偏置电路</title>
<rect width="100%" height="100%" fill="white"/>
<line x1="90.00" y1="70.00" x2="340.00" y2="70.00" stroke="#17202a" stroke-width="2.2" stroke-linecap="round"/>
<circle cx="365" cy="70" r="4" fill="white" stroke="#17202a" stroke-width="1.4"/>
<text x="377" y="70" text-anchor="start" dominant-baseline="middle" font-family="Cambria Math,Cambria,Times New Roman,serif" font-size="18" fill="#17202a" style=""><tspan>V</tspan><tspan baseline-shift="sub" font-size="70%">CC</tspan></text>
<line x1="260.00" y1="192.00" x2="260.00" y2="228.00" stroke="#17202a" stroke-width="3" stroke-linecap="round"/>
<line x1="221.00" y1="210.00" x2="260.00" y2="210.00" stroke="#17202a" stroke-width="2.2" stroke-linecap="round"/>
<line x1="260.00" y1="199.20" x2="287.00" y2="175.20" stroke="#17202a" stroke-width="2.2" stroke-linecap="round"/>
<line x1="260.00" y1="220.80" x2="287.00" y2="244.80" stroke="#17202a" stroke-width="2.2" stroke-linecap="round"/>
<line x1="270.80" y1="230.40" x2="287.00" y2="244.80" stroke="#17202a" stroke-width="2" stroke-linecap="round"/>
<polygon points="287.00,244.80 281.08,243.84 285.35,239.03" fill="#17202a" stroke="#17202a" stroke-width="1.3" stroke-linejoin="round"/>
<text x="306.8" y="210" text-anchor="start" dominant-baseline="middle" font-family="Cambria Math,Cambria,Times New Roman,serif" font-size="21" fill="#17202a" style="">T</text>
<line x1="287.00" y1="70.00" x2="287.00" y2="98.93" stroke="#17202a" stroke-width="2.2" stroke-linecap="round"/>
<rect x="273.0" y="98.92999999999999" width="28" height="47.339999999999996" fill="white" stroke="#17202a" stroke-width="2.2"/>
<line x1="287.00" y1="146.27" x2="287.00" y2="175.20" stroke="#17202a" stroke-width="2.2" stroke-linecap="round"/>
<text x="263.0" y="122.6" text-anchor="end" dominant-baseline="middle" font-family="Cambria Math,Cambria,Times New Roman,serif" font-size="21" fill="#17202a" style=""><tspan>R</tspan><tspan baseline-shift="sub" font-size="70%">C</tspan></text>
<line x1="287.00" y1="244.80" x2="287.00" y2="269.40" stroke="#17202a" stroke-width="2.2" stroke-linecap="round"/>
<rect x="273.0" y="269.4" width="28" height="46" fill="white" stroke="#17202a" stroke-width="2.2"/>
<line x1="287.00" y1="315.40" x2="287.00" y2="340.00" stroke="#17202a" stroke-width="2.2" stroke-linecap="round"/>
<text x="311.0" y="292.4" text-anchor="start" dominant-baseline="middle" font-family="Cambria Math,Cambria,Times New Roman,serif" font-size="21" fill="#17202a" style=""><tspan>R</tspan><tspan baseline-shift="sub" font-size="70%">E</tspan></text>
<line x1="287.00" y1="328.00" x2="287.00" y2="340.00" stroke="#17202a" stroke-width="2.2" stroke-linecap="round"/>
<line x1="269.00" y1="340.00" x2="305.00" y2="340.00" stroke="#17202a" stroke-width="2.2" stroke-linecap="round"/>
<line x1="275.00" y1="347.00" x2="299.00" y2="347.00" stroke="#17202a" stroke-width="2.2" stroke-linecap="round"/>
<line x1="281.00" y1="354.00" x2="293.00" y2="354.00" stroke="#17202a" stroke-width="2.2" stroke-linecap="round"/>
<line x1="140.00" y1="70.00" x2="140.00" y2="108.50" stroke="#17202a" stroke-width="2.2" stroke-linecap="round"/>
<rect x="126" y="108.5" width="28" height="63.0" fill="white" stroke="#17202a" stroke-width="2.2"/>
<line x1="140.00" y1="171.50" x2="140.00" y2="210.00" stroke="#17202a" stroke-width="2.2" stroke-linecap="round"/>
<text x="116" y="140.0" text-anchor="end" dominant-baseline="middle" font-family="Cambria Math,Cambria,Times New Roman,serif" font-size="21" fill="#17202a" style=""><tspan>R</tspan><tspan baseline-shift="sub" font-size="70%">B1</tspan></text>
<line x1="140.00" y1="210.00" x2="140.00" y2="245.75" stroke="#17202a" stroke-width="2.2" stroke-linecap="round"/>
<rect x="126" y="245.75" width="28" height="58.5" fill="white" stroke="#17202a" stroke-width="2.2"/>
<line x1="140.00" y1="304.25" x2="140.00" y2="340.00" stroke="#17202a" stroke-width="2.2" stroke-linecap="round"/>
<text x="116" y="275.0" text-anchor="end" dominant-baseline="middle" font-family="Cambria Math,Cambria,Times New Roman,serif" font-size="21" fill="#17202a" style=""><tspan>R</tspan><tspan baseline-shift="sub" font-size="70%">B2</tspan></text>
<line x1="140.00" y1="210.00" x2="221.00" y2="210.00" stroke="#17202a" stroke-width="2.2" stroke-linecap="round"/>
<circle cx="140" cy="210" r="3" fill="#17202a" stroke="#17202a" stroke-width="2.2"/>
<line x1="70.00" y1="210.00" x2="70.00" y2="245.75" stroke="#17202a" stroke-width="2.2" stroke-linecap="round"/>
<rect x="56" y="245.75" width="28" height="58.5" fill="white" stroke="#17202a" stroke-width="2.2"/>
<line x1="70.00" y1="304.25" x2="70.00" y2="340.00" stroke="#17202a" stroke-width="2.2" stroke-linecap="round"/>
<text x="46" y="275.0" text-anchor="end" dominant-baseline="middle" font-family="Cambria Math,Cambria,Times New Roman,serif" font-size="21" fill="#17202a" style="">R</text>
<line x1="42.00" y1="301.00" x2="79.00" y2="264.00" stroke="#17202a" stroke-width="1.5" stroke-linecap="round"/>
<polygon points="79.00,264.00 77.25,271.81 71.19,265.75" fill="#17202a" stroke="#17202a" stroke-width="1.3" stroke-linejoin="round"/>
<text x="36" y="255.0" text-anchor="end" dominant-baseline="middle" font-family="Cambria Math,Cambria,Times New Roman,serif" font-size="17" fill="#17202a" style="font-style:italic;">θ</text>
<line x1="70.00" y1="210.00" x2="140.00" y2="210.00" stroke="#17202a" stroke-width="2.2" stroke-linecap="round"/>
<line x1="70.00" y1="340.00" x2="140.00" y2="340.00" stroke="#17202a" stroke-width="2.2" stroke-linecap="round"/>
<text x="215" y="395" text-anchor="middle" dominant-baseline="middle" font-family="Cambria Math,Cambria,Times New Roman,serif" font-size="18" fill="#17202a" style="">(a)</text>
<line x1="530.00" y1="70.00" x2="780.00" y2="70.00" stroke="#17202a" stroke-width="2.2" stroke-linecap="round"/>
<circle cx="805" cy="70" r="4" fill="white" stroke="#17202a" stroke-width="1.4"/>
<text x="817" y="70" text-anchor="start" dominant-baseline="middle" font-family="Cambria Math,Cambria,Times New Roman,serif" font-size="18" fill="#17202a" style=""><tspan>V</tspan><tspan baseline-shift="sub" font-size="70%">CC</tspan></text>
<line x1="700.00" y1="192.00" x2="700.00" y2="228.00" stroke="#17202a" stroke-width="3" stroke-linecap="round"/>
<line x1="661.00" y1="210.00" x2="700.00" y2="210.00" stroke="#17202a" stroke-width="2.2" stroke-linecap="round"/>
<line x1="700.00" y1="199.20" x2="727.00" y2="175.20" stroke="#17202a" stroke-width="2.2" stroke-linecap="round"/>
<line x1="700.00" y1="220.80" x2="727.00" y2="244.80" stroke="#17202a" stroke-width="2.2" stroke-linecap="round"/>
<line x1="710.80" y1="230.40" x2="727.00" y2="244.80" stroke="#17202a" stroke-width="2" stroke-linecap="round"/>
<polygon points="727.00,244.80 721.08,243.84 725.35,239.03" fill="#17202a" stroke="#17202a" stroke-width="1.3" stroke-linejoin="round"/>
<text x="746.8" y="210" text-anchor="start" dominant-baseline="middle" font-family="Cambria Math,Cambria,Times New Roman,serif" font-size="21" fill="#17202a" style="">T</text>
<line x1="727.00" y1="70.00" x2="727.00" y2="98.93" stroke="#17202a" stroke-width="2.2" stroke-linecap="round"/>
<rect x="713.0" y="98.92999999999999" width="28" height="47.339999999999996" fill="white" stroke="#17202a" stroke-width="2.2"/>
<line x1="727.00" y1="146.27" x2="727.00" y2="175.20" stroke="#17202a" stroke-width="2.2" stroke-linecap="round"/>
<text x="703.0" y="122.6" text-anchor="end" dominant-baseline="middle" font-family="Cambria Math,Cambria,Times New Roman,serif" font-size="21" fill="#17202a" style=""><tspan>R</tspan><tspan baseline-shift="sub" font-size="70%">C</tspan></text>
<line x1="727.00" y1="244.80" x2="727.00" y2="269.40" stroke="#17202a" stroke-width="2.2" stroke-linecap="round"/>
<rect x="713.0" y="269.4" width="28" height="46" fill="white" stroke="#17202a" stroke-width="2.2"/>
<line x1="727.00" y1="315.40" x2="727.00" y2="340.00" stroke="#17202a" stroke-width="2.2" stroke-linecap="round"/>
<text x="751.0" y="292.4" text-anchor="start" dominant-baseline="middle" font-family="Cambria Math,Cambria,Times New Roman,serif" font-size="21" fill="#17202a" style=""><tspan>R</tspan><tspan baseline-shift="sub" font-size="70%">E</tspan></text>
<line x1="727.00" y1="328.00" x2="727.00" y2="340.00" stroke="#17202a" stroke-width="2.2" stroke-linecap="round"/>
<line x1="709.00" y1="340.00" x2="745.00" y2="340.00" stroke="#17202a" stroke-width="2.2" stroke-linecap="round"/>
<line x1="715.00" y1="347.00" x2="739.00" y2="347.00" stroke="#17202a" stroke-width="2.2" stroke-linecap="round"/>
<line x1="721.00" y1="354.00" x2="733.00" y2="354.00" stroke="#17202a" stroke-width="2.2" stroke-linecap="round"/>
<line x1="580.00" y1="70.00" x2="580.00" y2="108.50" stroke="#17202a" stroke-width="2.2" stroke-linecap="round"/>
<rect x="566" y="108.5" width="28" height="63.0" fill="white" stroke="#17202a" stroke-width="2.2"/>
<line x1="580.00" y1="171.50" x2="580.00" y2="210.00" stroke="#17202a" stroke-width="2.2" stroke-linecap="round"/>
<text x="556" y="140.0" text-anchor="end" dominant-baseline="middle" font-family="Cambria Math,Cambria,Times New Roman,serif" font-size="21" fill="#17202a" style=""><tspan>R</tspan><tspan baseline-shift="sub" font-size="70%">B1</tspan></text>
<line x1="580.00" y1="210.00" x2="580.00" y2="245.75" stroke="#17202a" stroke-width="2.2" stroke-linecap="round"/>
<rect x="566" y="245.75" width="28" height="58.5" fill="white" stroke="#17202a" stroke-width="2.2"/>
<line x1="580.00" y1="304.25" x2="580.00" y2="340.00" stroke="#17202a" stroke-width="2.2" stroke-linecap="round"/>
<text x="556" y="275.0" text-anchor="end" dominant-baseline="middle" font-family="Cambria Math,Cambria,Times New Roman,serif" font-size="21" fill="#17202a" style=""><tspan>R</tspan><tspan baseline-shift="sub" font-size="70%">B2</tspan></text>
<line x1="580.00" y1="210.00" x2="661.00" y2="210.00" stroke="#17202a" stroke-width="2.2" stroke-linecap="round"/>
<circle cx="580" cy="210" r="3" fill="#17202a" stroke="#17202a" stroke-width="2.2"/>
<line x1="510.00" y1="70.00" x2="510.00" y2="108.50" stroke="#17202a" stroke-width="2.2" stroke-linecap="round"/>
<rect x="496" y="108.5" width="28" height="63.0" fill="white" stroke="#17202a" stroke-width="2.2"/>
<line x1="510.00" y1="171.50" x2="510.00" y2="210.00" stroke="#17202a" stroke-width="2.2" stroke-linecap="round"/>
<text x="486" y="140.0" text-anchor="end" dominant-baseline="middle" font-family="Cambria Math,Cambria,Times New Roman,serif" font-size="21" fill="#17202a" style="">R</text>
<line x1="482.00" y1="166.00" x2="519.00" y2="129.00" stroke="#17202a" stroke-width="1.5" stroke-linecap="round"/>
<polygon points="519.00,129.00 517.25,136.81 511.19,130.75" fill="#17202a" stroke="#17202a" stroke-width="1.3" stroke-linejoin="round"/>
<text x="476" y="120.0" text-anchor="end" dominant-baseline="middle" font-family="Cambria Math,Cambria,Times New Roman,serif" font-size="17" fill="#17202a" style="font-style:italic;">θ</text>
<line x1="510.00" y1="70.00" x2="580.00" y2="70.00" stroke="#17202a" stroke-width="2.2" stroke-linecap="round"/>
<line x1="510.00" y1="210.00" x2="580.00" y2="210.00" stroke="#17202a" stroke-width="2.2" stroke-linecap="round"/>
<text x="655" y="395" text-anchor="middle" dominant-baseline="middle" font-family="Cambria Math,Cambria,Times New Roman,serif" font-size="18" fill="#17202a" style="">(b)</text>
<text x="450.0" y="496" text-anchor="middle" dominant-baseline="middle" font-family="SimSun,STSong,serif" font-size="22" fill="#17202a" style="">图 2.5.27　题 2.4.1 的图</text>
</svg>
