<svg xmlns="http://www.w3.org/2000/svg" width="820" height="620" viewBox="0 0 820 620">
<title>图2.5.17 三位置开关晶体管电路</title>
<rect width="100%" height="100%" fill="white"/>
<line x1="165.00" y1="85.00" x2="670.00" y2="85.00" stroke="#17202a" stroke-width="2.2" stroke-linecap="round"/>
<circle cx="700" cy="85" r="4" fill="white" stroke="#17202a" stroke-width="1.4"/>
<text x="712" y="85" text-anchor="start" dominant-baseline="middle" font-family="Cambria Math,Cambria,Times New Roman,serif" font-size="18" fill="#17202a" style="">12 V</text>
<line x1="590.00" y1="85.00" x2="590.00" y2="126.25" stroke="#17202a" stroke-width="2.2" stroke-linecap="round"/>
<rect x="576" y="126.25" width="28" height="67.5" fill="white" stroke="#17202a" stroke-width="2.2"/>
<line x1="590.00" y1="193.75" x2="590.00" y2="235.00" stroke="#17202a" stroke-width="2.2" stroke-linecap="round"/>
<text x="566" y="160.0" text-anchor="end" dominant-baseline="middle" font-family="Cambria Math,Cambria,Times New Roman,serif" font-size="21" fill="#17202a" style="">4 kΩ</text>
<line x1="525.00" y1="283.40" x2="525.00" y2="326.60" stroke="#17202a" stroke-width="3" stroke-linecap="round"/>
<line x1="478.20" y1="305.00" x2="525.00" y2="305.00" stroke="#17202a" stroke-width="2.2" stroke-linecap="round"/>
<line x1="525.00" y1="292.04" x2="557.40" y2="263.24" stroke="#17202a" stroke-width="2.2" stroke-linecap="round"/>
<line x1="525.00" y1="317.96" x2="557.40" y2="346.76" stroke="#17202a" stroke-width="2.2" stroke-linecap="round"/>
<line x1="537.96" y1="329.48" x2="557.40" y2="346.76" stroke="#17202a" stroke-width="2" stroke-linecap="round"/>
<polygon points="557.40,346.76 550.29,345.60 555.42,339.84" fill="#17202a" stroke="#17202a" stroke-width="1.3" stroke-linejoin="round"/>
<text x="581.16" y="305" text-anchor="start" dominant-baseline="middle" font-family="Cambria Math,Cambria,Times New Roman,serif" font-size="21" fill="#17202a" style="">T</text>
<line x1="590.00" y1="235.00" x2="557.40" y2="263.24" stroke="#17202a" stroke-width="2.2" stroke-linecap="round"/>
<line x1="557.40" y1="346.76" x2="557.40" y2="465.00" stroke="#17202a" stroke-width="2.2" stroke-linecap="round"/>
<line x1="557.40" y1="453.00" x2="557.40" y2="465.00" stroke="#17202a" stroke-width="2.2" stroke-linecap="round"/>
<line x1="539.40" y1="465.00" x2="575.40" y2="465.00" stroke="#17202a" stroke-width="2.2" stroke-linecap="round"/>
<line x1="545.40" y1="472.00" x2="569.40" y2="472.00" stroke="#17202a" stroke-width="2.2" stroke-linecap="round"/>
<line x1="551.40" y1="479.00" x2="563.40" y2="479.00" stroke="#17202a" stroke-width="2.2" stroke-linecap="round"/>
<text x="620" y="323" text-anchor="start" dominant-baseline="middle" font-family="Cambria Math,Cambria,Times New Roman,serif" font-size="18" fill="#17202a" style="font-style:italic;">β=80</text>
<line x1="235.00" y1="85.00" x2="235.00" y2="129.00" stroke="#17202a" stroke-width="2.2" stroke-linecap="round"/>
<rect x="221" y="129.0" width="28" height="72.0" fill="white" stroke="#17202a" stroke-width="2.2"/>
<line x1="235.00" y1="201.00" x2="235.00" y2="245.00" stroke="#17202a" stroke-width="2.2" stroke-linecap="round"/>
<text x="211" y="165.0" text-anchor="end" dominant-baseline="middle" font-family="Cambria Math,Cambria,Times New Roman,serif" font-size="21" fill="#17202a" style="">500 kΩ</text>
<line x1="235.00" y1="245.00" x2="310.00" y2="270.00" stroke="#17202a" stroke-width="2.2" stroke-linecap="round"/>
<text x="285" y="242" text-anchor="middle" dominant-baseline="middle" font-family="Cambria Math,Cambria,Times New Roman,serif" font-size="19" fill="#17202a" style="">B</text>
<line x1="390.00" y1="85.00" x2="390.00" y2="126.25" stroke="#17202a" stroke-width="2.2" stroke-linecap="round"/>
<rect x="376" y="126.25" width="28" height="67.5" fill="white" stroke="#17202a" stroke-width="2.2"/>
<line x1="390.00" y1="193.75" x2="390.00" y2="235.00" stroke="#17202a" stroke-width="2.2" stroke-linecap="round"/>
<text x="366" y="160.0" text-anchor="end" dominant-baseline="middle" font-family="Cambria Math,Cambria,Times New Roman,serif" font-size="21" fill="#17202a" style="">40 kΩ</text>
<line x1="390.00" y1="235.00" x2="390.00" y2="270.00" stroke="#17202a" stroke-width="2.2" stroke-linecap="round"/>
<text x="390" y="242" text-anchor="middle" dominant-baseline="middle" font-family="Cambria Math,Cambria,Times New Roman,serif" font-size="19" fill="#17202a" style="">A</text>
<line x1="235.00" y1="270.00" x2="235.00" y2="310.00" stroke="#17202a" stroke-width="2.2" stroke-linecap="round"/>
<text x="260" y="302" text-anchor="middle" dominant-baseline="middle" font-family="Cambria Math,Cambria,Times New Roman,serif" font-size="19" fill="#17202a" style="">C</text>
<line x1="235.00" y1="310.00" x2="235.00" y2="329.50" stroke="#17202a" stroke-width="2.2" stroke-linecap="round"/>
<rect x="221" y="329.5" width="28" height="46" fill="white" stroke="#17202a" stroke-width="2.2"/>
<line x1="235.00" y1="375.50" x2="235.00" y2="395.00" stroke="#17202a" stroke-width="2.2" stroke-linecap="round"/>
<text x="211" y="352.5" text-anchor="end" dominant-baseline="middle" font-family="Cambria Math,Cambria,Times New Roman,serif" font-size="21" fill="#17202a" style="">20 kΩ</text>
<line x1="235.00" y1="395.00" x2="235.00" y2="418.00" stroke="#17202a" stroke-width="2.2" stroke-linecap="round"/>
<line x1="217.00" y1="423.00" x2="253.00" y2="423.00" stroke="#17202a" stroke-width="2.2" stroke-linecap="round"/>
<line x1="224.00" y1="437.00" x2="246.00" y2="437.00" stroke="#17202a" stroke-width="2.2" stroke-linecap="round"/>
<line x1="235.00" y1="442.00" x2="235.00" y2="465.00" stroke="#17202a" stroke-width="2.2" stroke-linecap="round"/>
<text x="263" y="430.0" text-anchor="start" dominant-baseline="middle" font-family="Cambria Math,Cambria,Times New Roman,serif" font-size="21" fill="#17202a" style="">12 V</text>
<line x1="235.00" y1="465.00" x2="557.40" y2="465.00" stroke="#17202a" stroke-width="2.2" stroke-linecap="round"/>
<circle cx="330" cy="285" r="3.2" fill="#17202a" stroke="#17202a" stroke-width="2.2"/>
<line x1="330.00" y1="285.00" x2="478.20" y2="305.00" stroke="#17202a" stroke-width="2.2" stroke-linecap="round"/>
<line x1="330.00" y1="285.00" x2="302.00" y2="265.00" stroke="#17202a" stroke-width="2.2" stroke-linecap="round"/>
<text x="334" y="258" text-anchor="middle" dominant-baseline="middle" font-family="Cambria Math,Cambria,Times New Roman,serif" font-size="19" fill="#17202a" style="">S</text>
<text x="410.0" y="596" text-anchor="middle" dominant-baseline="middle" font-family="SimSun,STSong,serif" font-size="22" fill="#17202a" style="">图 2.5.17　题 2.3.7 的图</text>
</svg>
