<svg xmlns="http://www.w3.org/2000/svg" width="900" height="680" viewBox="0 0 900 680">
<title>图2.5.34 双电源共射放大电路</title>
<rect width="100%" height="100%" fill="white"/>
<line x1="480.00" y1="264.60" x2="480.00" y2="305.40" stroke="#17202a" stroke-width="3" stroke-linecap="round"/>
<line x1="435.80" y1="285.00" x2="480.00" y2="285.00" stroke="#17202a" stroke-width="2.2" stroke-linecap="round"/>
<line x1="480.00" y1="272.76" x2="510.60" y2="245.56" stroke="#17202a" stroke-width="2.2" stroke-linecap="round"/>
<line x1="480.00" y1="297.24" x2="510.60" y2="324.44" stroke="#17202a" stroke-width="2.2" stroke-linecap="round"/>
<line x1="492.24" y1="308.12" x2="510.60" y2="324.44" stroke="#17202a" stroke-width="2" stroke-linecap="round"/>
<polygon points="510.60,324.44 503.89,323.35 508.73,317.90" fill="#17202a" stroke="#17202a" stroke-width="1.3" stroke-linejoin="round"/>
<text x="533.04" y="285" text-anchor="start" dominant-baseline="middle" font-family="Cambria Math,Cambria,Times New Roman,serif" font-size="21" fill="#17202a" style="">T</text>
<circle cx="510.6" cy="65" r="4" fill="white" stroke="#17202a" stroke-width="1.4"/>
<text text-anchor="start" dominant-baseline="middle" font-family="Cambria Math,Cambria,Times New Roman,serif" font-size="18" fill="#17202a" style=""><tspan x="522.6" y="55.1">+V_CC</tspan><tspan x="522.6" y="74.9">(+15 V)</tspan></text>
<line x1="510.60" y1="65.00" x2="510.60" y2="117.28" stroke="#17202a" stroke-width="2.2" stroke-linecap="round"/>
<rect x="496.6" y="117.28" width="28" height="76" fill="white" stroke="#17202a" stroke-width="2.2"/>
<line x1="510.60" y1="193.28" x2="510.60" y2="245.56" stroke="#17202a" stroke-width="2.2" stroke-linecap="round"/>
<text text-anchor="end" dominant-baseline="middle" font-family="Cambria Math,Cambria,Times New Roman,serif" font-size="21" fill="#17202a" style=""><tspan x="486.6" y="143.73">R_2</tspan><tspan x="486.6" y="166.82999999999998">6.2 kΩ</tspan></text>
<circle cx="510.6" cy="560" r="4" fill="white" stroke="#17202a" stroke-width="1.4"/>
<text text-anchor="start" dominant-baseline="middle" font-family="Cambria Math,Cambria,Times New Roman,serif" font-size="18" fill="#17202a" style=""><tspan x="522.6" y="550.1">−V_EE</tspan><tspan x="522.6" y="569.9">(−15 V)</tspan></text>
<line x1="510.60" y1="324.44" x2="510.60" y2="404.22" stroke="#17202a" stroke-width="2.2" stroke-linecap="round"/>
<rect x="496.6" y="404.22" width="28" height="76" fill="white" stroke="#17202a" stroke-width="2.2"/>
<line x1="510.60" y1="480.22" x2="510.60" y2="560.00" stroke="#17202a" stroke-width="2.2" stroke-linecap="round"/>
<text text-anchor="end" dominant-baseline="middle" font-family="Cambria Math,Cambria,Times New Roman,serif" font-size="21" fill="#17202a" style=""><tspan x="486.6" y="430.67">R_3</tspan><tspan x="486.6" y="453.77000000000004">15 kΩ</tspan></text>
<line x1="125.00" y1="330.00" x2="125.00" y2="390.00" stroke="#17202a" stroke-width="2.2" stroke-linecap="round"/>
<circle cx="125" cy="420.0" r="30" fill="white" stroke="#17202a" stroke-width="2.2"/>
<line x1="125.00" y1="450.00" x2="125.00" y2="510.00" stroke="#17202a" stroke-width="2.2" stroke-linecap="round"/>
<text x="163" y="400.0" text-anchor="middle" dominant-baseline="middle" font-family="Cambria Math,Cambria,Times New Roman,serif" font-size="21" fill="#17202a" style="">+</text>
<text x="163" y="442.0" text-anchor="middle" dominant-baseline="middle" font-family="Cambria Math,Cambria,Times New Roman,serif" font-size="23" fill="#17202a" style="">−</text>
<text x="173" y="420.0" text-anchor="start" dominant-baseline="middle" font-family="Cambria Math,Cambria,Times New Roman,serif" font-size="22" fill="#17202a" style="font-style:italic;"><tspan>v</tspan><tspan baseline-shift="sub" font-size="70%">s</tspan></text>
<line x1="125.00" y1="270.00" x2="125.00" y2="330.00" stroke="#17202a" stroke-width="2.2" stroke-linecap="round"/>
<line x1="125.00" y1="498.00" x2="125.00" y2="510.00" stroke="#17202a" stroke-width="2.2" stroke-linecap="round"/>
<line x1="107.00" y1="510.00" x2="143.00" y2="510.00" stroke="#17202a" stroke-width="2.2" stroke-linecap="round"/>
<line x1="113.00" y1="517.00" x2="137.00" y2="517.00" stroke="#17202a" stroke-width="2.2" stroke-linecap="round"/>
<line x1="119.00" y1="524.00" x2="131.00" y2="524.00" stroke="#17202a" stroke-width="2.2" stroke-linecap="round"/>
<line x1="125.00" y1="270.00" x2="159.38" y2="270.00" stroke="#17202a" stroke-width="2.2" stroke-linecap="round"/>
<rect x="159.375" y="256" width="56.25" height="28" fill="white" stroke="#17202a" stroke-width="2.2"/>
<line x1="215.62" y1="270.00" x2="250.00" y2="270.00" stroke="#17202a" stroke-width="2.2" stroke-linecap="round"/>
<text x="187.5" y="238" text-anchor="middle" dominant-baseline="middle" font-family="Cambria Math,Cambria,Times New Roman,serif" font-size="22" fill="#17202a" style=""><tspan>R</tspan><tspan baseline-shift="sub" font-size="70%">s</tspan></text>
<line x1="250.00" y1="270.00" x2="334.90" y2="270.00" stroke="#17202a" stroke-width="2.2" stroke-linecap="round"/>
<line x1="334.90" y1="248.00" x2="334.90" y2="292.00" stroke="#17202a" stroke-width="3" stroke-linecap="round"/>
<line x1="350.90" y1="248.00" x2="350.90" y2="292.00" stroke="#17202a" stroke-width="3" stroke-linecap="round"/>
<line x1="350.90" y1="270.00" x2="435.80" y2="270.00" stroke="#17202a" stroke-width="2.2" stroke-linecap="round"/>
<text x="342.9" y="236" text-anchor="middle" dominant-baseline="middle" font-family="Cambria Math,Cambria,Times New Roman,serif" font-size="22" fill="#17202a" style="font-style:italic;"><tspan>C</tspan><tspan baseline-shift="sub" font-size="70%">1</tspan></text>
<line x1="340.00" y1="270.00" x2="340.00" y2="352.00" stroke="#17202a" stroke-width="2.2" stroke-linecap="round"/>
<rect x="326" y="352.0" width="28" height="76" fill="white" stroke="#17202a" stroke-width="2.2"/>
<line x1="340.00" y1="428.00" x2="340.00" y2="510.00" stroke="#17202a" stroke-width="2.2" stroke-linecap="round"/>
<text text-anchor="end" dominant-baseline="middle" font-family="Cambria Math,Cambria,Times New Roman,serif" font-size="21" fill="#17202a" style=""><tspan x="316" y="378.45">R_1</tspan><tspan x="316" y="401.55">100 kΩ</tspan></text>
<line x1="340.00" y1="498.00" x2="340.00" y2="510.00" stroke="#17202a" stroke-width="2.2" stroke-linecap="round"/>
<line x1="322.00" y1="510.00" x2="358.00" y2="510.00" stroke="#17202a" stroke-width="2.2" stroke-linecap="round"/>
<line x1="328.00" y1="517.00" x2="352.00" y2="517.00" stroke="#17202a" stroke-width="2.2" stroke-linecap="round"/>
<line x1="334.00" y1="524.00" x2="346.00" y2="524.00" stroke="#17202a" stroke-width="2.2" stroke-linecap="round"/>
<line x1="510.60" y1="245.56" x2="624.80" y2="245.56" stroke="#17202a" stroke-width="2.2" stroke-linecap="round"/>
<line x1="624.80" y1="223.56" x2="624.80" y2="267.56" stroke="#17202a" stroke-width="3" stroke-linecap="round"/>
<line x1="640.80" y1="223.56" x2="640.80" y2="267.56" stroke="#17202a" stroke-width="3" stroke-linecap="round"/>
<line x1="640.80" y1="245.56" x2="755.00" y2="245.56" stroke="#17202a" stroke-width="2.2" stroke-linecap="round"/>
<text x="632.8" y="211.56" text-anchor="middle" dominant-baseline="middle" font-family="Cambria Math,Cambria,Times New Roman,serif" font-size="22" fill="#17202a" style="font-style:italic;"><tspan>C</tspan><tspan baseline-shift="sub" font-size="70%">2</tspan></text>
<circle cx="780" cy="245.56" r="4" fill="white" stroke="#17202a" stroke-width="1.4"/>
<text x="805" y="275.56" text-anchor="middle" dominant-baseline="middle" font-family="Cambria Math,Cambria,Times New Roman,serif" font-size="18" fill="#17202a" style="">+</text>
<text x="805" y="350.56" text-anchor="middle" dominant-baseline="middle" font-family="Cambria Math,Cambria,Times New Roman,serif" font-size="18" fill="#17202a" style="">−</text>
<text x="828" y="313.06" text-anchor="start" dominant-baseline="middle" font-family="Cambria Math,Cambria,Times New Roman,serif" font-size="18" fill="#17202a" style="font-style:italic;"><tspan>v</tspan><tspan baseline-shift="sub" font-size="70%">o</tspan></text>
<line x1="510.60" y1="324.44" x2="592.30" y2="324.44" stroke="#17202a" stroke-width="2.2" stroke-linecap="round"/>
<line x1="592.30" y1="302.44" x2="592.30" y2="346.44" stroke="#17202a" stroke-width="3" stroke-linecap="round"/>
<line x1="608.30" y1="302.44" x2="608.30" y2="346.44" stroke="#17202a" stroke-width="3" stroke-linecap="round"/>
<line x1="608.30" y1="324.44" x2="690.00" y2="324.44" stroke="#17202a" stroke-width="2.2" stroke-linecap="round"/>
<text x="600.3" y="290.44" text-anchor="middle" dominant-baseline="middle" font-family="Cambria Math,Cambria,Times New Roman,serif" font-size="22" fill="#17202a" style="font-style:italic;"><tspan>C</tspan><tspan baseline-shift="sub" font-size="70%">3</tspan></text>
<line x1="690.00" y1="324.44" x2="690.00" y2="379.22" stroke="#17202a" stroke-width="2.2" stroke-linecap="round"/>
<rect x="676" y="379.22" width="28" height="76" fill="white" stroke="#17202a" stroke-width="2.2"/>
<line x1="690.00" y1="455.22" x2="690.00" y2="510.00" stroke="#17202a" stroke-width="2.2" stroke-linecap="round"/>
<text text-anchor="end" dominant-baseline="middle" font-family="Cambria Math,Cambria,Times New Roman,serif" font-size="21" fill="#17202a" style=""><tspan x="666" y="405.67">R_4</tspan><tspan x="666" y="428.77000000000004">470 Ω</tspan></text>
<line x1="690.00" y1="498.00" x2="690.00" y2="510.00" stroke="#17202a" stroke-width="2.2" stroke-linecap="round"/>
<line x1="672.00" y1="510.00" x2="708.00" y2="510.00" stroke="#17202a" stroke-width="2.2" stroke-linecap="round"/>
<line x1="678.00" y1="517.00" x2="702.00" y2="517.00" stroke="#17202a" stroke-width="2.2" stroke-linecap="round"/>
<line x1="684.00" y1="524.00" x2="696.00" y2="524.00" stroke="#17202a" stroke-width="2.2" stroke-linecap="round"/>
<text x="450.0" y="656" text-anchor="middle" dominant-baseline="middle" font-family="SimSun,STSong,serif" font-size="22" fill="#17202a" style="">图 2.5.34　题 2.4.9 的图</text>
</svg>
