<svg xmlns="http://www.w3.org/2000/svg" width="900" height="620" viewBox="0 0 900 620">
<title>图1.4.6 二极管伏安特性</title>
<rect width="100%" height="100%" fill="white"/>
<line x1="130.00" y1="500.00" x2="820.00" y2="500.00" stroke="#6b7280" stroke-width="2" stroke-linecap="round"/>
<polygon points="820.00,500.00 811.56,505.36 811.56,494.64" fill="#6b7280" stroke="#6b7280" stroke-width="1.3" stroke-linejoin="round"/>
<line x1="130.00" y1="500.00" x2="130.00" y2="90.00" stroke="#6b7280" stroke-width="2" stroke-linecap="round"/>
<polygon points="130.00,90.00 135.36,98.44 124.64,98.44" fill="#6b7280" stroke="#6b7280" stroke-width="1.3" stroke-linejoin="round"/>
<text x="814" y="522" text-anchor="end" dominant-baseline="middle" font-family="Cambria Math,Cambria,Times New Roman,serif" font-size="20" fill="#6b7280" style="font-style:italic;"><tspan>v</tspan><tspan baseline-shift="sub" font-size="70%">D</tspan><tspan>/V</tspan></text>
<text x="125" y="98" text-anchor="end" dominant-baseline="middle" font-family="Cambria Math,Cambria,Times New Roman,serif" font-size="20" fill="#6b7280" style="font-style:italic;"><tspan>i</tspan><tspan baseline-shift="sub" font-size="70%">D</tspan><tspan>/mA</tspan></text>
<polyline points="457.50,500.00 458.74,499.37 459.97,498.64 461.21,497.91 462.44,497.16 463.68,496.39 464.92,495.61 466.15,494.81 467.39,493.99 468.62,493.16 469.86,492.31 471.09,491.45 472.33,490.56 473.57,489.66 474.80,488.74 476.04,487.80 477.27,486.85 478.51,485.87 479.75,484.87 480.98,483.86 482.22,482.82 483.45,481.76 484.69,480.68 485.92,479.58 487.16,478.45 488.40,477.31 489.63,476.14 490.87,474.94 492.10,473.72 493.34,472.48 494.58,471.21 495.81,469.92 497.05,468.60 498.28,467.25 499.52,465.87 500.75,464.47 501.99,463.04 503.23,461.58 504.46,460.09 505.70,458.57 506.93,457.01 508.17,455.43 509.41,453.82 510.64,452.17 511.88,450.49 513.11,448.77 514.35,447.02 515.58,445.23 516.82,443.41 518.06,441.55 519.29,439.65 520.53,437.72 521.76,435.74 523.00,433.72 524.24,431.67 525.47,429.57 526.71,427.43 527.94,425.24 529.18,423.01 530.42,420.74 531.65,418.42 532.89,416.05 534.12,413.64 535.36,411.17 536.59,408.66 537.83,406.09 539.07,403.47 540.30,400.80 541.54,398.07 542.77,395.29 544.01,392.45 545.25,389.56 546.48,386.60 547.72,383.59 548.95,380.51 550.19,377.37 551.42,374.17 552.66,370.91 553.90,367.57 555.13,364.17 556.37,360.70 557.60,357.16 558.84,353.54 560.08,349.86 561.31,346.10 562.55,342.26 563.78,338.34 565.02,334.35 566.25,330.27 567.49,326.11 568.73,321.86 569.96,317.53 571.20,313.12 572.43,308.61 573.67,304.01 574.91,299.31 576.14,294.52 577.38,289.64 578.61,284.65 579.85,279.56 581.08,274.37 582.32,269.08 583.56,263.67 584.79,258.16 586.03,252.53 587.26,246.79 588.50,240.94 589.74,234.96 590.97,228.86 592.21,222.64 593.44,216.29 594.68,209.82 595.92,203.21 597.15,196.46 598.39,189.58 599.62,182.56 600.86,175.40 602.09,168.09 603.33,160.64 604.57,153.03 605.80,145.26 607.04,137.34 608.27,129.26 609.51,121.02 610.75,112.60 611.98,108.98 613.22,108.98 614.45,108.98 615.69,108.98 616.92,108.98 618.16,108.98 619.40,108.98 620.63,108.98 621.87,108.98 623.10,108.98 624.34,108.98 625.58,108.98 626.81,108.98 628.05,108.98 629.28,108.98 630.52,108.98 631.75,108.98 632.99,108.98 634.23,108.98 635.46,108.98 636.70,108.98 637.93,108.98 639.17,108.98 640.41,108.98 641.64,108.98 642.88,108.98 644.11,108.98 645.35,108.98 646.58,108.98 647.82,108.98 649.06,108.98 650.29,108.98 651.53,108.98 652.76,108.98 654.00,108.98" fill="none" stroke="#2563eb" stroke-width="4" stroke-linejoin="round" stroke-linecap="round"/>
<line x1="293.75" y1="494.00" x2="293.75" y2="506.00" stroke="#6b7280" stroke-width="1.5" stroke-linecap="round"/>
<text x="293.75" y="526" text-anchor="middle" dominant-baseline="middle" font-family="Cambria Math,Cambria,Times New Roman,serif" font-size="19" fill="#6b7280" style="">0.2</text>
<line x1="457.50" y1="494.00" x2="457.50" y2="506.00" stroke="#6b7280" stroke-width="1.5" stroke-linecap="round"/>
<text x="457.5" y="526" text-anchor="middle" dominant-baseline="middle" font-family="Cambria Math,Cambria,Times New Roman,serif" font-size="19" fill="#6b7280" style="">0.4</text>
<line x1="621.25" y1="494.00" x2="621.25" y2="506.00" stroke="#6b7280" stroke-width="1.5" stroke-linecap="round"/>
<text x="621.25" y="526" text-anchor="middle" dominant-baseline="middle" font-family="Cambria Math,Cambria,Times New Roman,serif" font-size="19" fill="#6b7280" style="">0.6</text>
<line x1="785.00" y1="494.00" x2="785.00" y2="506.00" stroke="#6b7280" stroke-width="1.5" stroke-linecap="round"/>
<text x="785.0" y="526" text-anchor="middle" dominant-baseline="middle" font-family="Cambria Math,Cambria,Times New Roman,serif" font-size="19" fill="#6b7280" style="">0.8</text>
<line x1="124.00" y1="379.69" x2="136.00" y2="379.69" stroke="#6b7280" stroke-width="1.5" stroke-linecap="round"/>
<text x="116" y="379.6875" text-anchor="end" dominant-baseline="middle" font-family="Cambria Math,Cambria,Times New Roman,serif" font-size="19" fill="#6b7280" style="">1</text>
<line x1="124.00" y1="259.38" x2="136.00" y2="259.38" stroke="#6b7280" stroke-width="1.5" stroke-linecap="round"/>
<text x="116" y="259.375" text-anchor="end" dominant-baseline="middle" font-family="Cambria Math,Cambria,Times New Roman,serif" font-size="19" fill="#6b7280" style="">2</text>
<line x1="124.00" y1="139.06" x2="136.00" y2="139.06" stroke="#6b7280" stroke-width="1.5" stroke-linecap="round"/>
<text x="116" y="139.0625" text-anchor="end" dominant-baseline="middle" font-family="Cambria Math,Cambria,Times New Roman,serif" font-size="19" fill="#6b7280" style="">3</text>
<line x1="130.00" y1="379.69" x2="563.94" y2="379.69" stroke="#9ca3af" stroke-width="1.4" stroke-linecap="round" stroke-dasharray="6 6"/>
<line x1="563.94" y1="500.00" x2="563.94" y2="379.69" stroke="#9ca3af" stroke-width="1.4" stroke-linecap="round" stroke-dasharray="6 6"/>
<circle cx="563.9375" cy="379.6875" r="4" fill="#c2413a" stroke="#c2413a" stroke-width="2.2"/>
<text x="551.9375" y="357.6875" text-anchor="middle" dominant-baseline="middle" font-family="Cambria Math,Cambria,Times New Roman,serif" font-size="22" fill="#c2413a" style="font-style:italic;">a</text>
<line x1="130.00" y1="259.38" x2="621.25" y2="259.38" stroke="#9ca3af" stroke-width="1.4" stroke-linecap="round" stroke-dasharray="6 6"/>
<line x1="621.25" y1="500.00" x2="621.25" y2="259.38" stroke="#9ca3af" stroke-width="1.4" stroke-linecap="round" stroke-dasharray="6 6"/>
<circle cx="621.25" cy="259.375" r="4" fill="#c2413a" stroke="#c2413a" stroke-width="2.2"/>
<text x="609.25" y="237.375" text-anchor="middle" dominant-baseline="middle" font-family="Cambria Math,Cambria,Times New Roman,serif" font-size="22" fill="#c2413a" style="font-style:italic;">b</text>
<text x="450.0" y="596" text-anchor="middle" dominant-baseline="middle" font-family="SimSun,STSong,serif" font-size="22" fill="#17202a" style="">图 1.4.6　题 1.3.1 的图</text>
</svg>
