<svg xmlns="http://www.w3.org/2000/svg" width="760" height="650" viewBox="0 0 760 650">
<title>图2.5.35 共集放大电路</title>
<rect width="100%" height="100%" fill="white"/>
<line x1="400.00" y1="229.00" x2="400.00" y2="271.00" stroke="#17202a" stroke-width="3" stroke-linecap="round"/>
<line x1="354.50" y1="250.00" x2="400.00" y2="250.00" stroke="#17202a" stroke-width="2.2" stroke-linecap="round"/>
<line x1="400.00" y1="237.40" x2="431.50" y2="209.40" stroke="#17202a" stroke-width="2.2" stroke-linecap="round"/>
<line x1="400.00" y1="262.60" x2="431.50" y2="290.60" stroke="#17202a" stroke-width="2.2" stroke-linecap="round"/>
<line x1="412.60" y1="273.80" x2="431.50" y2="290.60" stroke="#17202a" stroke-width="2" stroke-linecap="round"/>
<polygon points="431.50,290.60 424.59,289.48 429.57,283.87" fill="#17202a" stroke="#17202a" stroke-width="1.3" stroke-linejoin="round"/>
<text x="454.6" y="250" text-anchor="start" dominant-baseline="middle" font-family="Cambria Math,Cambria,Times New Roman,serif" font-size="21" fill="#17202a" style="">T</text>
<circle cx="431.5" cy="70" r="4" fill="white" stroke="#17202a" stroke-width="1.4"/>
<text text-anchor="start" dominant-baseline="middle" font-family="Cambria Math,Cambria,Times New Roman,serif" font-size="18" fill="#17202a" style=""><tspan x="443.5" y="60.1">+V_CC</tspan><tspan x="443.5" y="79.9">(+6 V)</tspan></text>
<line x1="431.50" y1="70.00" x2="431.50" y2="209.40" stroke="#17202a" stroke-width="2.2" stroke-linecap="round"/>
<circle cx="420" cy="505" r="4" fill="white" stroke="#17202a" stroke-width="1.4"/>
<text text-anchor="start" dominant-baseline="middle" font-family="Cambria Math,Cambria,Times New Roman,serif" font-size="18" fill="#17202a" style=""><tspan x="432" y="495.1">−V_EE</tspan><tspan x="432" y="514.9">(−6 V)</tspan></text>
<line x1="275.00" y1="80.00" x2="275.00" y2="127.00" stroke="#17202a" stroke-width="2.2" stroke-linecap="round"/>
<rect x="261" y="127.0" width="28" height="76" fill="white" stroke="#17202a" stroke-width="2.2"/>
<line x1="275.00" y1="203.00" x2="275.00" y2="250.00" stroke="#17202a" stroke-width="2.2" stroke-linecap="round"/>
<text text-anchor="end" dominant-baseline="middle" font-family="Cambria Math,Cambria,Times New Roman,serif" font-size="21" fill="#17202a" style=""><tspan x="251" y="153.45">R_B1</tspan><tspan x="251" y="176.54999999999998">30 kΩ</tspan></text>
<line x1="275.00" y1="56.00" x2="275.00" y2="68.00" stroke="#17202a" stroke-width="2.2" stroke-linecap="round"/>
<line x1="257.00" y1="68.00" x2="293.00" y2="68.00" stroke="#17202a" stroke-width="2.2" stroke-linecap="round"/>
<line x1="263.00" y1="75.00" x2="287.00" y2="75.00" stroke="#17202a" stroke-width="2.2" stroke-linecap="round"/>
<line x1="269.00" y1="82.00" x2="281.00" y2="82.00" stroke="#17202a" stroke-width="2.2" stroke-linecap="round"/>
<line x1="275.00" y1="250.00" x2="275.00" y2="339.50" stroke="#17202a" stroke-width="2.2" stroke-linecap="round"/>
<rect x="261" y="339.5" width="28" height="76" fill="white" stroke="#17202a" stroke-width="2.2"/>
<line x1="275.00" y1="415.50" x2="275.00" y2="505.00" stroke="#17202a" stroke-width="2.2" stroke-linecap="round"/>
<text text-anchor="end" dominant-baseline="middle" font-family="Cambria Math,Cambria,Times New Roman,serif" font-size="21" fill="#17202a" style=""><tspan x="251" y="365.95">R_B2</tspan><tspan x="251" y="389.05">47 kΩ</tspan></text>
<line x1="275.00" y1="250.00" x2="354.50" y2="250.00" stroke="#17202a" stroke-width="2.2" stroke-linecap="round"/>
<line x1="275.00" y1="505.00" x2="420.00" y2="505.00" stroke="#17202a" stroke-width="2.2" stroke-linecap="round"/>
<line x1="431.50" y1="290.60" x2="431.50" y2="359.80" stroke="#17202a" stroke-width="2.2" stroke-linecap="round"/>
<rect x="417.5" y="359.8" width="28" height="76" fill="white" stroke="#17202a" stroke-width="2.2"/>
<line x1="431.50" y1="435.80" x2="431.50" y2="505.00" stroke="#17202a" stroke-width="2.2" stroke-linecap="round"/>
<text text-anchor="end" dominant-baseline="middle" font-family="Cambria Math,Cambria,Times New Roman,serif" font-size="21" fill="#17202a" style=""><tspan x="407.5" y="386.25">R_E</tspan><tspan x="407.5" y="409.35">2.7 kΩ</tspan></text>
<line x1="110.00" y1="340.00" x2="110.00" y2="392.50" stroke="#17202a" stroke-width="2.2" stroke-linecap="round"/>
<circle cx="110" cy="422.5" r="30" fill="white" stroke="#17202a" stroke-width="2.2"/>
<line x1="110.00" y1="452.50" x2="110.00" y2="505.00" stroke="#17202a" stroke-width="2.2" stroke-linecap="round"/>
<text x="148" y="402.5" text-anchor="middle" dominant-baseline="middle" font-family="Cambria Math,Cambria,Times New Roman,serif" font-size="21" fill="#17202a" style="">+</text>
<text x="148" y="444.5" text-anchor="middle" dominant-baseline="middle" font-family="Cambria Math,Cambria,Times New Roman,serif" font-size="23" fill="#17202a" style="">−</text>
<text x="158" y="422.5" text-anchor="start" dominant-baseline="middle" font-family="Cambria Math,Cambria,Times New Roman,serif" font-size="22" fill="#17202a" style="font-style:italic;"><tspan>v</tspan><tspan baseline-shift="sub" font-size="70%">s</tspan></text>
<line x1="110.00" y1="493.00" x2="110.00" y2="505.00" stroke="#17202a" stroke-width="2.2" stroke-linecap="round"/>
<line x1="92.00" y1="505.00" x2="128.00" y2="505.00" stroke="#17202a" stroke-width="2.2" stroke-linecap="round"/>
<line x1="98.00" y1="512.00" x2="122.00" y2="512.00" stroke="#17202a" stroke-width="2.2" stroke-linecap="round"/>
<line x1="104.00" y1="519.00" x2="116.00" y2="519.00" stroke="#17202a" stroke-width="2.2" stroke-linecap="round"/>
<line x1="110.00" y1="230.00" x2="110.00" y2="260.25" stroke="#17202a" stroke-width="2.2" stroke-linecap="round"/>
<rect x="96" y="260.25" width="28" height="49.5" fill="white" stroke="#17202a" stroke-width="2.2"/>
<line x1="110.00" y1="309.75" x2="110.00" y2="340.00" stroke="#17202a" stroke-width="2.2" stroke-linecap="round"/>
<text text-anchor="end" dominant-baseline="middle" font-family="Cambria Math,Cambria,Times New Roman,serif" font-size="21" fill="#17202a" style=""><tspan x="86" y="273.45">R_s</tspan><tspan x="86" y="296.55">1 kΩ</tspan></text>
<line x1="110.00" y1="230.00" x2="184.50" y2="230.00" stroke="#17202a" stroke-width="2.2" stroke-linecap="round"/>
<line x1="184.50" y1="208.00" x2="184.50" y2="252.00" stroke="#17202a" stroke-width="3" stroke-linecap="round"/>
<line x1="200.50" y1="208.00" x2="200.50" y2="252.00" stroke="#17202a" stroke-width="3" stroke-linecap="round"/>
<line x1="200.50" y1="230.00" x2="275.00" y2="230.00" stroke="#17202a" stroke-width="2.2" stroke-linecap="round"/>
<text x="192.5" y="196" text-anchor="middle" dominant-baseline="middle" font-family="Cambria Math,Cambria,Times New Roman,serif" font-size="22" fill="#17202a" style="font-style:italic;"><tspan>C</tspan><tspan baseline-shift="sub" font-size="70%">1</tspan></text>
<line x1="275.00" y1="230.00" x2="275.00" y2="250.00" stroke="#17202a" stroke-width="2.2" stroke-linecap="round"/>
<line x1="431.50" y1="290.60" x2="532.75" y2="290.60" stroke="#17202a" stroke-width="2.2" stroke-linecap="round"/>
<line x1="532.75" y1="268.60" x2="532.75" y2="312.60" stroke="#17202a" stroke-width="3" stroke-linecap="round"/>
<line x1="548.75" y1="268.60" x2="548.75" y2="312.60" stroke="#17202a" stroke-width="3" stroke-linecap="round"/>
<line x1="548.75" y1="290.60" x2="650.00" y2="290.60" stroke="#17202a" stroke-width="2.2" stroke-linecap="round"/>
<text x="540.75" y="256.6" text-anchor="middle" dominant-baseline="middle" font-family="Cambria Math,Cambria,Times New Roman,serif" font-size="22" fill="#17202a" style="font-style:italic;"><tspan>C</tspan><tspan baseline-shift="sub" font-size="70%">2</tspan></text>
<line x1="650.00" y1="290.60" x2="650.00" y2="359.80" stroke="#17202a" stroke-width="2.2" stroke-linecap="round"/>
<rect x="636" y="359.8" width="28" height="76" fill="white" stroke="#17202a" stroke-width="2.2"/>
<line x1="650.00" y1="435.80" x2="650.00" y2="505.00" stroke="#17202a" stroke-width="2.2" stroke-linecap="round"/>
<text text-anchor="end" dominant-baseline="middle" font-family="Cambria Math,Cambria,Times New Roman,serif" font-size="21" fill="#17202a" style=""><tspan x="626" y="386.25">R_L</tspan><tspan x="626" y="409.35">2 kΩ</tspan></text>
<line x1="650.00" y1="493.00" x2="650.00" y2="505.00" stroke="#17202a" stroke-width="2.2" stroke-linecap="round"/>
<line x1="632.00" y1="505.00" x2="668.00" y2="505.00" stroke="#17202a" stroke-width="2.2" stroke-linecap="round"/>
<line x1="638.00" y1="512.00" x2="662.00" y2="512.00" stroke="#17202a" stroke-width="2.2" stroke-linecap="round"/>
<line x1="644.00" y1="519.00" x2="656.00" y2="519.00" stroke="#17202a" stroke-width="2.2" stroke-linecap="round"/>
<text x="705" y="310.6" text-anchor="middle" dominant-baseline="middle" font-family="Cambria Math,Cambria,Times New Roman,serif" font-size="18" fill="#17202a" style="">+</text>
<text x="705" y="485" text-anchor="middle" dominant-baseline="middle" font-family="Cambria Math,Cambria,Times New Roman,serif" font-size="18" fill="#17202a" style="">−</text>
<text x="728" y="397.8" text-anchor="start" dominant-baseline="middle" font-family="Cambria Math,Cambria,Times New Roman,serif" font-size="18" fill="#17202a" style="font-style:italic;"><tspan>v</tspan><tspan baseline-shift="sub" font-size="70%">o</tspan></text>
<text x="380.0" y="626" text-anchor="middle" dominant-baseline="middle" font-family="SimSun,STSong,serif" font-size="22" fill="#17202a" style="">图 2.5.35　题 2.5.1 的图</text>
</svg>
