<svg xmlns="http://www.w3.org/2000/svg" width="900" height="650" viewBox="0 0 900 650">
<title>图2.5.40 分压偏置双输出电路</title>
<rect width="100%" height="100%" fill="white"/>
<line x1="470.00" y1="249.60" x2="470.00" y2="290.40" stroke="#17202a" stroke-width="3" stroke-linecap="round"/>
<line x1="425.80" y1="270.00" x2="470.00" y2="270.00" stroke="#17202a" stroke-width="2.2" stroke-linecap="round"/>
<line x1="470.00" y1="257.76" x2="500.60" y2="230.56" stroke="#17202a" stroke-width="2.2" stroke-linecap="round"/>
<line x1="470.00" y1="282.24" x2="500.60" y2="309.44" stroke="#17202a" stroke-width="2.2" stroke-linecap="round"/>
<line x1="482.24" y1="293.12" x2="500.60" y2="309.44" stroke="#17202a" stroke-width="2" stroke-linecap="round"/>
<polygon points="500.60,309.44 493.89,308.35 498.73,302.90" fill="#17202a" stroke="#17202a" stroke-width="1.3" stroke-linejoin="round"/>
<text x="523.04" y="270" text-anchor="start" dominant-baseline="middle" font-family="Cambria Math,Cambria,Times New Roman,serif" font-size="21" fill="#17202a" style="">T</text>
<line x1="260.00" y1="65.00" x2="620.00" y2="65.00" stroke="#17202a" stroke-width="2.2" stroke-linecap="round"/>
<circle cx="655" cy="65" r="4" fill="white" stroke="#17202a" stroke-width="1.4"/>
<text text-anchor="start" dominant-baseline="middle" font-family="Cambria Math,Cambria,Times New Roman,serif" font-size="18" fill="#17202a" style=""><tspan x="667" y="55.1">+V_CC</tspan><tspan x="667" y="74.9">(+10 V)</tspan></text>
<line x1="310.00" y1="65.00" x2="310.00" y2="129.50" stroke="#17202a" stroke-width="2.2" stroke-linecap="round"/>
<rect x="296" y="129.5" width="28" height="76" fill="white" stroke="#17202a" stroke-width="2.2"/>
<line x1="310.00" y1="205.50" x2="310.00" y2="270.00" stroke="#17202a" stroke-width="2.2" stroke-linecap="round"/>
<text text-anchor="end" dominant-baseline="middle" font-family="Cambria Math,Cambria,Times New Roman,serif" font-size="21" fill="#17202a" style=""><tspan x="286" y="155.95">R_B1</tspan><tspan x="286" y="179.04999999999998">20 kΩ</tspan></text>
<line x1="310.00" y1="270.00" x2="310.00" y2="347.00" stroke="#17202a" stroke-width="2.2" stroke-linecap="round"/>
<rect x="296" y="347.0" width="28" height="76" fill="white" stroke="#17202a" stroke-width="2.2"/>
<line x1="310.00" y1="423.00" x2="310.00" y2="500.00" stroke="#17202a" stroke-width="2.2" stroke-linecap="round"/>
<text text-anchor="end" dominant-baseline="middle" font-family="Cambria Math,Cambria,Times New Roman,serif" font-size="21" fill="#17202a" style=""><tspan x="286" y="373.45">R_B2</tspan><tspan x="286" y="396.55">15 kΩ</tspan></text>
<line x1="310.00" y1="270.00" x2="425.80" y2="270.00" stroke="#17202a" stroke-width="2.2" stroke-linecap="round"/>
<line x1="500.60" y1="65.00" x2="500.60" y2="110.53" stroke="#17202a" stroke-width="2.2" stroke-linecap="round"/>
<rect x="486.6" y="110.529" width="28" height="74.50200000000001" fill="white" stroke="#17202a" stroke-width="2.2"/>
<line x1="500.60" y1="185.03" x2="500.60" y2="230.56" stroke="#17202a" stroke-width="2.2" stroke-linecap="round"/>
<text text-anchor="end" dominant-baseline="middle" font-family="Cambria Math,Cambria,Times New Roman,serif" font-size="21" fill="#17202a" style=""><tspan x="476.6" y="136.23">R_C</tspan><tspan x="476.6" y="159.32999999999998">2 kΩ</tspan></text>
<line x1="500.60" y1="309.44" x2="500.60" y2="366.72" stroke="#17202a" stroke-width="2.2" stroke-linecap="round"/>
<rect x="486.6" y="366.72" width="28" height="76" fill="white" stroke="#17202a" stroke-width="2.2"/>
<line x1="500.60" y1="442.72" x2="500.60" y2="500.00" stroke="#17202a" stroke-width="2.2" stroke-linecap="round"/>
<text text-anchor="end" dominant-baseline="middle" font-family="Cambria Math,Cambria,Times New Roman,serif" font-size="21" fill="#17202a" style=""><tspan x="476.6" y="393.17">R_E</tspan><tspan x="476.6" y="416.27000000000004">2 kΩ</tspan></text>
<line x1="100.00" y1="500.00" x2="785.00" y2="500.00" stroke="#17202a" stroke-width="2.2" stroke-linecap="round"/>
<line x1="500.60" y1="488.00" x2="500.60" y2="500.00" stroke="#17202a" stroke-width="2.2" stroke-linecap="round"/>
<line x1="482.60" y1="500.00" x2="518.60" y2="500.00" stroke="#17202a" stroke-width="2.2" stroke-linecap="round"/>
<line x1="488.60" y1="507.00" x2="512.60" y2="507.00" stroke="#17202a" stroke-width="2.2" stroke-linecap="round"/>
<line x1="494.60" y1="514.00" x2="506.60" y2="514.00" stroke="#17202a" stroke-width="2.2" stroke-linecap="round"/>
<line x1="115.00" y1="340.00" x2="115.00" y2="390.00" stroke="#17202a" stroke-width="2.2" stroke-linecap="round"/>
<circle cx="115" cy="420.0" r="30" fill="white" stroke="#17202a" stroke-width="2.2"/>
<line x1="115.00" y1="450.00" x2="115.00" y2="500.00" stroke="#17202a" stroke-width="2.2" stroke-linecap="round"/>
<text x="153" y="400.0" text-anchor="middle" dominant-baseline="middle" font-family="Cambria Math,Cambria,Times New Roman,serif" font-size="21" fill="#17202a" style="">+</text>
<text x="153" y="442.0" text-anchor="middle" dominant-baseline="middle" font-family="Cambria Math,Cambria,Times New Roman,serif" font-size="23" fill="#17202a" style="">−</text>
<text x="163" y="420.0" text-anchor="start" dominant-baseline="middle" font-family="Cambria Math,Cambria,Times New Roman,serif" font-size="22" fill="#17202a" style="font-style:italic;"><tspan>v</tspan><tspan baseline-shift="sub" font-size="70%">s</tspan></text>
<line x1="115.00" y1="230.00" x2="115.00" y2="260.25" stroke="#17202a" stroke-width="2.2" stroke-linecap="round"/>
<rect x="101" y="260.25" width="28" height="49.5" fill="white" stroke="#17202a" stroke-width="2.2"/>
<line x1="115.00" y1="309.75" x2="115.00" y2="340.00" stroke="#17202a" stroke-width="2.2" stroke-linecap="round"/>
<text x="91" y="285.0" text-anchor="end" dominant-baseline="middle" font-family="Cambria Math,Cambria,Times New Roman,serif" font-size="21" fill="#17202a" style=""><tspan>R</tspan><tspan baseline-shift="sub" font-size="70%">s</tspan></text>
<line x1="115.00" y1="230.00" x2="204.50" y2="230.00" stroke="#17202a" stroke-width="2.2" stroke-linecap="round"/>
<line x1="204.50" y1="208.00" x2="204.50" y2="252.00" stroke="#17202a" stroke-width="3" stroke-linecap="round"/>
<line x1="220.50" y1="208.00" x2="220.50" y2="252.00" stroke="#17202a" stroke-width="3" stroke-linecap="round"/>
<line x1="220.50" y1="230.00" x2="310.00" y2="230.00" stroke="#17202a" stroke-width="2.2" stroke-linecap="round"/>
<text x="212.5" y="196" text-anchor="middle" dominant-baseline="middle" font-family="Cambria Math,Cambria,Times New Roman,serif" font-size="22" fill="#17202a" style="font-style:italic;"><tspan>C</tspan><tspan baseline-shift="sub" font-size="70%">1</tspan></text>
<line x1="310.00" y1="230.00" x2="310.00" y2="270.00" stroke="#17202a" stroke-width="2.2" stroke-linecap="round"/>
<line x1="500.60" y1="230.56" x2="622.30" y2="230.56" stroke="#17202a" stroke-width="2.2" stroke-linecap="round"/>
<line x1="622.30" y1="208.56" x2="622.30" y2="252.56" stroke="#17202a" stroke-width="3" stroke-linecap="round"/>
<line x1="638.30" y1="208.56" x2="638.30" y2="252.56" stroke="#17202a" stroke-width="3" stroke-linecap="round"/>
<line x1="638.30" y1="230.56" x2="760.00" y2="230.56" stroke="#17202a" stroke-width="2.2" stroke-linecap="round"/>
<text x="630.3" y="196.56" text-anchor="middle" dominant-baseline="middle" font-family="Cambria Math,Cambria,Times New Roman,serif" font-size="22" fill="#17202a" style="font-style:italic;"><tspan>C</tspan><tspan baseline-shift="sub" font-size="70%">2</tspan></text>
<circle cx="790" cy="230.56" r="4" fill="white" stroke="#17202a" stroke-width="1.4"/>
<text x="802" y="230.56" text-anchor="start" dominant-baseline="middle" font-family="Cambria Math,Cambria,Times New Roman,serif" font-size="18" fill="#17202a" style=""><tspan>v</tspan><tspan baseline-shift="sub" font-size="70%">o1</tspan></text>
<line x1="500.60" y1="309.44" x2="622.30" y2="309.44" stroke="#17202a" stroke-width="2.2" stroke-linecap="round"/>
<line x1="622.30" y1="287.44" x2="622.30" y2="331.44" stroke="#17202a" stroke-width="3" stroke-linecap="round"/>
<line x1="638.30" y1="287.44" x2="638.30" y2="331.44" stroke="#17202a" stroke-width="3" stroke-linecap="round"/>
<line x1="638.30" y1="309.44" x2="760.00" y2="309.44" stroke="#17202a" stroke-width="2.2" stroke-linecap="round"/>
<text x="630.3" y="275.44" text-anchor="middle" dominant-baseline="middle" font-family="Cambria Math,Cambria,Times New Roman,serif" font-size="22" fill="#17202a" style="font-style:italic;"><tspan>C</tspan><tspan baseline-shift="sub" font-size="70%">3</tspan></text>
<circle cx="790" cy="309.44" r="4" fill="white" stroke="#17202a" stroke-width="1.4"/>
<text x="802" y="309.44" text-anchor="start" dominant-baseline="middle" font-family="Cambria Math,Cambria,Times New Roman,serif" font-size="18" fill="#17202a" style=""><tspan>v</tspan><tspan baseline-shift="sub" font-size="70%">o2</tspan></text>
<line x1="720.00" y1="188.56" x2="655.00" y2="188.56" stroke="#17202a" stroke-width="1.2" stroke-linecap="round"/>
<polygon points="655.00,188.56 660.91,184.81 660.91,192.31" fill="#17202a" stroke="#17202a" stroke-width="1.3" stroke-linejoin="round"/>
<text x="685" y="168.56" text-anchor="middle" dominant-baseline="middle" font-family="Cambria Math,Cambria,Times New Roman,serif" font-size="16" fill="#17202a" style="font-style:italic;"><tspan>R</tspan><tspan baseline-shift="sub" font-size="70%">o1</tspan></text>
<line x1="720.00" y1="351.44" x2="655.00" y2="351.44" stroke="#17202a" stroke-width="1.2" stroke-linecap="round"/>
<polygon points="655.00,351.44 660.91,347.69 660.91,355.19" fill="#17202a" stroke="#17202a" stroke-width="1.3" stroke-linejoin="round"/>
<text x="685" y="371.44" text-anchor="middle" dominant-baseline="middle" font-family="Cambria Math,Cambria,Times New Roman,serif" font-size="16" fill="#17202a" style="font-style:italic;"><tspan>R</tspan><tspan baseline-shift="sub" font-size="70%">o2</tspan></text>
<text x="450.0" y="626" text-anchor="middle" dominant-baseline="middle" font-family="SimSun,STSong,serif" font-size="22" fill="#17202a" style="">图 2.5.40　题 2.5.6 的图</text>
</svg>
