<svg xmlns="http://www.w3.org/2000/svg" width="960" height="590" viewBox="0 0 960 590">
<title>图2.5.45 五管多路电流源</title>
<rect width="100%" height="100%" fill="white"/>
<line x1="180.00" y1="279.40" x2="180.00" y2="310.60" stroke="#17202a" stroke-width="3" stroke-linecap="round"/>
<line x1="146.20" y1="295.00" x2="180.00" y2="295.00" stroke="#17202a" stroke-width="2.2" stroke-linecap="round"/>
<line x1="180.00" y1="285.64" x2="203.40" y2="264.84" stroke="#17202a" stroke-width="2.2" stroke-linecap="round"/>
<line x1="180.00" y1="304.36" x2="203.40" y2="325.16" stroke="#17202a" stroke-width="2.2" stroke-linecap="round"/>
<line x1="189.36" y1="312.68" x2="203.40" y2="325.16" stroke="#17202a" stroke-width="2" stroke-linecap="round"/>
<polygon points="203.40,325.16 198.27,324.33 201.97,320.16" fill="#17202a" stroke="#17202a" stroke-width="1.3" stroke-linejoin="round"/>
<text x="220.56" y="295" text-anchor="start" dominant-baseline="middle" font-family="Cambria Math,Cambria,Times New Roman,serif" font-size="21" fill="#17202a" style=""><tspan>T</tspan><tspan baseline-shift="sub" font-size="70%">1</tspan></text>
<line x1="330.00" y1="279.40" x2="330.00" y2="310.60" stroke="#17202a" stroke-width="3" stroke-linecap="round"/>
<line x1="296.20" y1="295.00" x2="330.00" y2="295.00" stroke="#17202a" stroke-width="2.2" stroke-linecap="round"/>
<line x1="330.00" y1="285.64" x2="353.40" y2="264.84" stroke="#17202a" stroke-width="2.2" stroke-linecap="round"/>
<line x1="330.00" y1="304.36" x2="353.40" y2="325.16" stroke="#17202a" stroke-width="2.2" stroke-linecap="round"/>
<line x1="339.36" y1="312.68" x2="353.40" y2="325.16" stroke="#17202a" stroke-width="2" stroke-linecap="round"/>
<polygon points="353.40,325.16 348.27,324.33 351.97,320.16" fill="#17202a" stroke="#17202a" stroke-width="1.3" stroke-linejoin="round"/>
<text x="370.56" y="295" text-anchor="start" dominant-baseline="middle" font-family="Cambria Math,Cambria,Times New Roman,serif" font-size="21" fill="#17202a" style=""><tspan>T</tspan><tspan baseline-shift="sub" font-size="70%">2</tspan></text>
<line x1="500.00" y1="279.40" x2="500.00" y2="310.60" stroke="#17202a" stroke-width="3" stroke-linecap="round"/>
<line x1="466.20" y1="295.00" x2="500.00" y2="295.00" stroke="#17202a" stroke-width="2.2" stroke-linecap="round"/>
<line x1="500.00" y1="285.64" x2="523.40" y2="264.84" stroke="#17202a" stroke-width="2.2" stroke-linecap="round"/>
<line x1="500.00" y1="304.36" x2="523.40" y2="325.16" stroke="#17202a" stroke-width="2.2" stroke-linecap="round"/>
<line x1="509.36" y1="312.68" x2="523.40" y2="325.16" stroke="#17202a" stroke-width="2" stroke-linecap="round"/>
<polygon points="523.40,325.16 518.27,324.33 521.97,320.16" fill="#17202a" stroke="#17202a" stroke-width="1.3" stroke-linejoin="round"/>
<text x="540.56" y="295" text-anchor="start" dominant-baseline="middle" font-family="Cambria Math,Cambria,Times New Roman,serif" font-size="21" fill="#17202a" style=""><tspan>T</tspan><tspan baseline-shift="sub" font-size="70%">3</tspan></text>
<line x1="650.00" y1="279.40" x2="650.00" y2="310.60" stroke="#17202a" stroke-width="3" stroke-linecap="round"/>
<line x1="616.20" y1="295.00" x2="650.00" y2="295.00" stroke="#17202a" stroke-width="2.2" stroke-linecap="round"/>
<line x1="650.00" y1="285.64" x2="673.40" y2="264.84" stroke="#17202a" stroke-width="2.2" stroke-linecap="round"/>
<line x1="650.00" y1="304.36" x2="673.40" y2="325.16" stroke="#17202a" stroke-width="2.2" stroke-linecap="round"/>
<line x1="659.36" y1="312.68" x2="673.40" y2="325.16" stroke="#17202a" stroke-width="2" stroke-linecap="round"/>
<polygon points="673.40,325.16 668.27,324.33 671.97,320.16" fill="#17202a" stroke="#17202a" stroke-width="1.3" stroke-linejoin="round"/>
<text x="690.56" y="295" text-anchor="start" dominant-baseline="middle" font-family="Cambria Math,Cambria,Times New Roman,serif" font-size="21" fill="#17202a" style=""><tspan>T</tspan><tspan baseline-shift="sub" font-size="70%">4</tspan></text>
<line x1="800.00" y1="279.40" x2="800.00" y2="310.60" stroke="#17202a" stroke-width="3" stroke-linecap="round"/>
<line x1="766.20" y1="295.00" x2="800.00" y2="295.00" stroke="#17202a" stroke-width="2.2" stroke-linecap="round"/>
<line x1="800.00" y1="285.64" x2="823.40" y2="264.84" stroke="#17202a" stroke-width="2.2" stroke-linecap="round"/>
<line x1="800.00" y1="304.36" x2="823.40" y2="325.16" stroke="#17202a" stroke-width="2.2" stroke-linecap="round"/>
<line x1="809.36" y1="312.68" x2="823.40" y2="325.16" stroke="#17202a" stroke-width="2" stroke-linecap="round"/>
<polygon points="823.40,325.16 818.27,324.33 821.97,320.16" fill="#17202a" stroke="#17202a" stroke-width="1.3" stroke-linejoin="round"/>
<text x="840.56" y="295" text-anchor="start" dominant-baseline="middle" font-family="Cambria Math,Cambria,Times New Roman,serif" font-size="21" fill="#17202a" style=""><tspan>T</tspan><tspan baseline-shift="sub" font-size="70%">5</tspan></text>
<line x1="146.20" y1="295.00" x2="766.20" y2="295.00" stroke="#17202a" stroke-width="2.2" stroke-linecap="round"/>
<line x1="203.40" y1="325.16" x2="203.40" y2="440.00" stroke="#17202a" stroke-width="2.2" stroke-linecap="round"/>
<line x1="353.40" y1="325.16" x2="353.40" y2="440.00" stroke="#17202a" stroke-width="2.2" stroke-linecap="round"/>
<line x1="523.40" y1="325.16" x2="523.40" y2="440.00" stroke="#17202a" stroke-width="2.2" stroke-linecap="round"/>
<line x1="673.40" y1="325.16" x2="673.40" y2="440.00" stroke="#17202a" stroke-width="2.2" stroke-linecap="round"/>
<line x1="823.40" y1="325.16" x2="823.40" y2="440.00" stroke="#17202a" stroke-width="2.2" stroke-linecap="round"/>
<line x1="203.40" y1="440.00" x2="823.40" y2="440.00" stroke="#17202a" stroke-width="2.2" stroke-linecap="round"/>
<line x1="523.40" y1="428.00" x2="523.40" y2="440.00" stroke="#17202a" stroke-width="2.2" stroke-linecap="round"/>
<line x1="505.40" y1="440.00" x2="541.40" y2="440.00" stroke="#17202a" stroke-width="2.2" stroke-linecap="round"/>
<line x1="511.40" y1="447.00" x2="535.40" y2="447.00" stroke="#17202a" stroke-width="2.2" stroke-linecap="round"/>
<line x1="517.40" y1="454.00" x2="529.40" y2="454.00" stroke="#17202a" stroke-width="2.2" stroke-linecap="round"/>
<circle cx="170" cy="55" r="4" fill="white" stroke="#17202a" stroke-width="1.4"/>
<text text-anchor="start" dominant-baseline="middle" font-family="Cambria Math,Cambria,Times New Roman,serif" font-size="18" fill="#17202a" style=""><tspan x="182" y="45.1">+V_CC</tspan><tspan x="182" y="64.9">(+12 V)</tspan></text>
<line x1="170.00" y1="55.00" x2="170.00" y2="96.25" stroke="#17202a" stroke-width="2.2" stroke-linecap="round"/>
<rect x="156" y="96.25" width="28" height="67.5" fill="white" stroke="#17202a" stroke-width="2.2"/>
<line x1="170.00" y1="163.75" x2="170.00" y2="205.00" stroke="#17202a" stroke-width="2.2" stroke-linecap="round"/>
<text text-anchor="start" dominant-baseline="middle" font-family="Cambria Math,Cambria,Times New Roman,serif" font-size="21" fill="#17202a" style=""><tspan x="194" y="118.45">R</tspan><tspan x="194" y="141.55">20 kΩ</tspan></text>
<polyline points="170.00,205.00 203.40,205.00 203.40,264.84" fill="none" stroke="#17202a" stroke-width="1.8" stroke-linejoin="round" stroke-linecap="round"/>
<polyline points="170.00,205.00 353.40,205.00 353.40,264.84" fill="none" stroke="#17202a" stroke-width="1.8" stroke-linejoin="round" stroke-linecap="round"/>
<polyline points="170.00,205.00 170.00,295.00 146.20,295.00" fill="none" stroke="#17202a" stroke-width="1.8" stroke-linejoin="round" stroke-linecap="round"/>
<circle cx="170" cy="205" r="3" fill="#17202a" stroke="#17202a" stroke-width="2.2"/>
<line x1="523.40" y1="264.84" x2="523.40" y2="95.00" stroke="#17202a" stroke-width="2.2" stroke-linecap="round"/>
<line x1="673.40" y1="264.84" x2="673.40" y2="95.00" stroke="#17202a" stroke-width="2.2" stroke-linecap="round"/>
<line x1="823.40" y1="264.84" x2="823.40" y2="95.00" stroke="#17202a" stroke-width="2.2" stroke-linecap="round"/>
<circle cx="823.4" cy="95" r="4" fill="white" stroke="#17202a" stroke-width="1.4"/>
<line x1="858.40" y1="110.00" x2="858.40" y2="180.00" stroke="#17202a" stroke-width="1.3" stroke-linecap="round"/>
<polygon points="858.40,180.00 854.65,174.09 862.15,174.09" fill="#17202a" stroke="#17202a" stroke-width="1.3" stroke-linejoin="round"/>
<text x="878.4" y="145" text-anchor="start" dominant-baseline="middle" font-family="Cambria Math,Cambria,Times New Roman,serif" font-size="16" fill="#17202a" style="font-style:italic;"><tspan>I</tspan><tspan baseline-shift="sub" font-size="70%">0</tspan></text>
<line x1="140.00" y1="100.00" x2="140.00" y2="160.00" stroke="#17202a" stroke-width="1.3" stroke-linecap="round"/>
<polygon points="140.00,160.00 136.25,154.09 143.75,154.09" fill="#17202a" stroke="#17202a" stroke-width="1.3" stroke-linejoin="round"/>
<text x="120" y="130" text-anchor="end" dominant-baseline="middle" font-family="Cambria Math,Cambria,Times New Roman,serif" font-size="16" fill="#17202a" style="font-style:italic;"><tspan>I</tspan><tspan baseline-shift="sub" font-size="70%">R</tspan></text>
<text x="480.0" y="566" text-anchor="middle" dominant-baseline="middle" font-family="SimSun,STSong,serif" font-size="22" fill="#17202a" style="">图 2.5.45　题 2.6.3 的图</text>
</svg>
