<svg xmlns="http://www.w3.org/2000/svg" width="900" height="650" viewBox="0 0 900 650">
<title>图 2.5.48 多路电流源</title>
<rect width="100%" height="100%" fill="white"/>
<line x1="270.00" y1="282.00" x2="270.00" y2="318.00" stroke="#17202a" stroke-width="3" stroke-linecap="round"/>
<line x1="231.00" y1="300.00" x2="270.00" y2="300.00" stroke="#17202a" stroke-width="2.2" stroke-linecap="round"/>
<line x1="270.00" y1="289.20" x2="297.00" y2="265.20" stroke="#17202a" stroke-width="2.2" stroke-linecap="round"/>
<line x1="270.00" y1="310.80" x2="297.00" y2="334.80" stroke="#17202a" stroke-width="2.2" stroke-linecap="round"/>
<line x1="280.80" y1="320.40" x2="297.00" y2="334.80" stroke="#17202a" stroke-width="2" stroke-linecap="round"/>
<polygon points="297.00,334.80 291.08,333.84 295.35,329.03" fill="#17202a" stroke="#17202a" stroke-width="1.3" stroke-linejoin="round"/>
<text x="316.8" y="300" text-anchor="start" dominant-baseline="middle" font-family="Cambria Math,Cambria,Times New Roman,serif" font-size="21" fill="#17202a" style=""><tspan>T</tspan><tspan baseline-shift="sub" font-size="70%">1</tspan></text>
<line x1="500.00" y1="282.00" x2="500.00" y2="318.00" stroke="#17202a" stroke-width="3" stroke-linecap="round"/>
<line x1="461.00" y1="300.00" x2="500.00" y2="300.00" stroke="#17202a" stroke-width="2.2" stroke-linecap="round"/>
<line x1="500.00" y1="289.20" x2="527.00" y2="265.20" stroke="#17202a" stroke-width="2.2" stroke-linecap="round"/>
<line x1="500.00" y1="310.80" x2="527.00" y2="334.80" stroke="#17202a" stroke-width="2.2" stroke-linecap="round"/>
<line x1="510.80" y1="320.40" x2="527.00" y2="334.80" stroke="#17202a" stroke-width="2" stroke-linecap="round"/>
<polygon points="527.00,334.80 521.08,333.84 525.35,329.03" fill="#17202a" stroke="#17202a" stroke-width="1.3" stroke-linejoin="round"/>
<text x="546.8" y="300" text-anchor="start" dominant-baseline="middle" font-family="Cambria Math,Cambria,Times New Roman,serif" font-size="21" fill="#17202a" style=""><tspan>T</tspan><tspan baseline-shift="sub" font-size="70%">2</tspan></text>
<line x1="705.00" y1="282.00" x2="705.00" y2="318.00" stroke="#17202a" stroke-width="3" stroke-linecap="round"/>
<line x1="666.00" y1="300.00" x2="705.00" y2="300.00" stroke="#17202a" stroke-width="2.2" stroke-linecap="round"/>
<line x1="705.00" y1="289.20" x2="732.00" y2="265.20" stroke="#17202a" stroke-width="2.2" stroke-linecap="round"/>
<line x1="705.00" y1="310.80" x2="732.00" y2="334.80" stroke="#17202a" stroke-width="2.2" stroke-linecap="round"/>
<line x1="715.80" y1="320.40" x2="732.00" y2="334.80" stroke="#17202a" stroke-width="2" stroke-linecap="round"/>
<polygon points="732.00,334.80 726.08,333.84 730.35,329.03" fill="#17202a" stroke="#17202a" stroke-width="1.3" stroke-linejoin="round"/>
<text x="751.8" y="300" text-anchor="start" dominant-baseline="middle" font-family="Cambria Math,Cambria,Times New Roman,serif" font-size="21" fill="#17202a" style=""><tspan>T</tspan><tspan baseline-shift="sub" font-size="70%">3</tspan></text>
<line x1="231.00" y1="300.00" x2="666.00" y2="300.00" stroke="#17202a" stroke-width="2.2" stroke-linecap="round"/>
<line x1="297.00" y1="265.20" x2="297.00" y2="300.00" stroke="#17202a" stroke-width="2.2" stroke-linecap="round"/>
<line x1="297.00" y1="300.00" x2="231.00" y2="300.00" stroke="#17202a" stroke-width="2.2" stroke-linecap="round"/>
<line x1="297.00" y1="334.80" x2="297.00" y2="510.00" stroke="#17202a" stroke-width="2.2" stroke-linecap="round"/>
<line x1="527.00" y1="334.80" x2="527.00" y2="384.40" stroke="#17202a" stroke-width="2.2" stroke-linecap="round"/>
<rect x="513.0" y="384.4" width="28" height="76" fill="white" stroke="#17202a" stroke-width="2.2"/>
<line x1="527.00" y1="460.40" x2="527.00" y2="510.00" stroke="#17202a" stroke-width="2.2" stroke-linecap="round"/>
<text x="503.0" y="422.4" text-anchor="end" dominant-baseline="middle" font-family="Cambria Math,Cambria,Times New Roman,serif" font-size="21" fill="#17202a" style=""><tspan>R</tspan><tspan baseline-shift="sub" font-size="70%">E2</tspan></text>
<line x1="732.00" y1="334.80" x2="732.00" y2="384.40" stroke="#17202a" stroke-width="2.2" stroke-linecap="round"/>
<rect x="718.0" y="384.4" width="28" height="76" fill="white" stroke="#17202a" stroke-width="2.2"/>
<line x1="732.00" y1="460.40" x2="732.00" y2="510.00" stroke="#17202a" stroke-width="2.2" stroke-linecap="round"/>
<text x="756.0" y="422.4" text-anchor="start" dominant-baseline="middle" font-family="Cambria Math,Cambria,Times New Roman,serif" font-size="21" fill="#17202a" style=""><tspan>R</tspan><tspan baseline-shift="sub" font-size="70%">E3</tspan></text>
<line x1="297.00" y1="510.00" x2="732.00" y2="510.00" stroke="#17202a" stroke-width="2.2" stroke-linecap="round"/>
<line x1="297.00" y1="498.00" x2="297.00" y2="510.00" stroke="#17202a" stroke-width="2.2" stroke-linecap="round"/>
<line x1="279.00" y1="510.00" x2="315.00" y2="510.00" stroke="#17202a" stroke-width="2.2" stroke-linecap="round"/>
<line x1="285.00" y1="517.00" x2="309.00" y2="517.00" stroke="#17202a" stroke-width="2.2" stroke-linecap="round"/>
<line x1="291.00" y1="524.00" x2="303.00" y2="524.00" stroke="#17202a" stroke-width="2.2" stroke-linecap="round"/>
<line x1="297.00" y1="75.00" x2="770.00" y2="75.00" stroke="#17202a" stroke-width="2.2" stroke-linecap="round"/>
<circle cx="790" cy="75" r="5" fill="white" stroke="#17202a" stroke-width="1.4"/>
<text text-anchor="start" dominant-baseline="middle" font-family="Cambria Math,Cambria,Times New Roman,serif" font-size="20" fill="#17202a" style=""><tspan x="804" y="64.0">+V_CC</tspan><tspan x="804" y="86.0">(+10 V)</tspan></text>
<line x1="297.00" y1="75.00" x2="297.00" y2="132.10" stroke="#17202a" stroke-width="2.2" stroke-linecap="round"/>
<rect x="283.0" y="132.1" width="28" height="76" fill="white" stroke="#17202a" stroke-width="2.2"/>
<line x1="297.00" y1="208.10" x2="297.00" y2="265.20" stroke="#17202a" stroke-width="2.2" stroke-linecap="round"/>
<text text-anchor="end" dominant-baseline="middle" font-family="Cambria Math,Cambria,Times New Roman,serif" font-size="21" fill="#17202a" style=""><tspan x="273.0" y="158.54999999999998">R</tspan><tspan x="273.0" y="181.64999999999998">9.3 kΩ</tspan></text>
<circle cx="527.0" cy="75" r="5" fill="white" stroke="#17202a" stroke-width="1.4"/>
<circle cx="732.0" cy="75" r="5" fill="white" stroke="#17202a" stroke-width="1.4"/>
<line x1="555.00" y1="105.00" x2="555.00" y2="180.00" stroke="#17202a" stroke-width="1.5" stroke-linecap="round"/>
<polygon points="555.00,180.00 550.71,173.25 559.29,173.25" fill="#17202a" stroke="#17202a" stroke-width="1.3" stroke-linejoin="round"/>
<text x="589.0" y="142" text-anchor="start" dominant-baseline="middle" font-family="Cambria Math,Cambria,Times New Roman,serif" font-size="18" fill="#17202a" style="">10 μA</text>
<line x1="760.00" y1="105.00" x2="760.00" y2="180.00" stroke="#17202a" stroke-width="1.5" stroke-linecap="round"/>
<polygon points="760.00,180.00 755.71,173.25 764.29,173.25" fill="#17202a" stroke="#17202a" stroke-width="1.3" stroke-linejoin="round"/>
<text x="794.0" y="142" text-anchor="start" dominant-baseline="middle" font-family="Cambria Math,Cambria,Times New Roman,serif" font-size="18" fill="#17202a" style="">100 μA</text>
<line x1="205.00" y1="125.00" x2="205.00" y2="195.00" stroke="#17202a" stroke-width="1.5" stroke-linecap="round"/>
<polygon points="205.00,195.00 200.71,188.25 209.29,188.25" fill="#17202a" stroke="#17202a" stroke-width="1.3" stroke-linejoin="round"/>
<text x="175" y="160" text-anchor="end" dominant-baseline="middle" font-family="Cambria Math,Cambria,Times New Roman,serif" font-size="18" fill="#17202a" style="font-style:italic;"><tspan>I</tspan><tspan baseline-shift="sub" font-size="70%">R</tspan></text>
<text x="450.0" y="626" text-anchor="middle" dominant-baseline="middle" font-family="SimSun,STSong,serif" font-size="22" fill="#17202a" style="">图 2.5.48　题 2.6.6 的图</text>
</svg>
